<?xml version="1.0" encoding="UTF-8"?>
<svg xmlns="http://www.w3.org/2000/svg" viewBox="0 0 260 260">
  <defs>
    <style>
      .cls-1 {
        fill: #fff;
      }

      .cls-2 {
        fill: #ff9200;
      }

      .cls-3 {
        isolation: isolate;
      }

      .cls-4 {
        mix-blend-mode: multiply;
        opacity: .2;
      }
    </style>
  </defs>
  <g class="cls-3">
    <g id="Layer_1" data-name="Layer 1">
      <g>
        <circle class="cls-2" cx="130" cy="130" r="130"/>
        <path class="cls-4" d="M22.6,138.49c.14,.48,.51,.85,1,1,.14,.48,.51,.85,1,1,.14,.48,.51,.85,1,1,.14,.48,.51,.85,1,1,.14,.48,.51,.85,1,1,.14,.48,.51,.85,1,1,.14,.48,.51,.85,1,1,.14,.48,.51,.85,1,1,.14,.48,.51,.85,1,1,.08,.28,.25,.52,.47,.71,2,3.57,4.4,7.37,7.98,10.92,.32,.34,.66,.67,1,1,.32,.34,.66,.67,1,1,.32,.34,.66,.67,1,1,.32,.34,.66,.67,1,1,.32,.34,.66,.67,1,1,.32,.34,.66,.67,1,1,.32,.34,.66,.67,1,1,.32,.34,.66,.67,1,1,.32,.34,.66,.67,1,1,.32,.34,.66,.67,1,1,.32,.34,.66,.67,1,1,.32,.34,.66,.67,1,1,.32,.34,.66,.67,1,1,.32,.34,.66,.67,1,1,.32,.34,.66,.67,1,1,.32,.34,.66,.67,1,1,.32,.34,.66,.67,1,1,.32,.34,.66,.67,1,1,.32,.34,.66,.67,1,1,.32,.34,.66,.67,1,1,.15,.16,.32,.31,.47,.47-.86,3.79-1.02,8.54,.44,14.27,1.68,6.57,4.84,11.48,7.64,15.8,4.16,6.44,7.45,11.53,5.16,19.89-.19,.68,.12,1.39,.74,1.72l.12,.06c.06,.03,.12,.05,.18,.07,.12,.36,.35,.68,.71,.87l.12,.06c.06,.03,.12,.05,.18,.07,.12,.36,.35,.68,.71,.87l.12,.06c.06,.03,.12,.05,.18,.07,.12,.36,.35,.68,.71,.87l.12,.06c.06,.03,.12,.05,.18,.07,.12,.36,.35,.68,.71,.87l.12,.06c.06,.03,.12,.05,.18,.07,.12,.36,.35,.68,.71,.87l.12,.06c.06,.03,.12,.05,.18,.07,.12,.36,.35,.68,.71,.87l.12,.06c.06,.03,.12,.05,.18,.07,.12,.36,.35,.68,.71,.87l.12,.06c.06,.03,.12,.05,.18,.07,.12,.36,.35,.68,.71,.87l.12,.06c.06,.03,.12,.05,.18,.07,.12,.36,.35,.68,.71,.87l.12,.06c.06,.03,.12,.05,.18,.07,.12,.36,.35,.68,.71,.87l.12,.06c.06,.03,.12,.05,.18,.07,.12,.36,.35,.68,.71,.87l.12,.06c.06,.03,.12,.05,.18,.07,.12,.36,.35,.68,.71,.87l.12,.06c.06,.03,.12,.05,.18,.07,.12,.36,.35,.68,.71,.87l.12,.06c.06,.03,.12,.05,.18,.07,.12,.36,.35,.68,.71,.87l.12,.06c.06,.03,.12,.05,.18,.07,.12,.36,.35,.68,.71,.87l.12,.06c.06,.03,.12,.05,.18,.07,.12,.36,.35,.68,.71,.87l.12,.06c.06,.03,.12,.05,.18,.07,.12,.36,.35,.68,.71,.87l.12,.06c.06,.03,.12,.05,.18,.07,.12,.36,.35,.68,.71,.87l.12,.06c.06,.03,.12,.05,.18,.07,.12,.36,.35,.68,.71,.87l.12,.06c.06,.03,.12,.05,.18,.07,.12,.36,.35,.68,.71,.87l.12,.06c.06,.03,.12,.05,.18,.07,.12,.36,.35,.68,.71,.87l.12,.06c.06,.03,.12,.05,.18,.07,.12,.36,.35,.68,.71,.87l.12,.06c.06,.03,.12,.05,.18,.07,.12,.36,.35,.68,.71,.87l.12,.06c.06,.03,.12,.05,.18,.07,.12,.36,.35,.68,.71,.87l.12,.06c.06,.03,.12,.05,.18,.07,.12,.36,.35,.68,.71,.87l.12,.06c.06,.03,.12,.05,.18,.07,0,.03,.03,.05,.04,.08,9.68,2.3,19.78,3.53,30.17,3.53,71.8,0,130-58.2,130-130,0-10.43-1.23-20.57-3.55-30.29l-.05-.03c-.06-.03-.13-.04-.2-.07-.11-.36-.34-.68-.69-.87l-.12-.07c-.06-.03-.13-.04-.2-.07-.11-.36-.34-.68-.69-.87l-.12-.07c-.06-.03-.13-.04-.2-.07-.11-.36-.34-.68-.69-.87l-.12-.07c-.06-.03-.13-.04-.2-.07-.11-.36-.34-.68-.69-.87l-.12-.07c-.06-.03-.13-.04-.2-.07-.11-.36-.34-.68-.69-.87l-.12-.07c-.06-.03-.13-.04-.2-.07-.11-.36-.34-.68-.69-.87l-.12-.07c-.06-.03-.13-.04-.2-.07-.11-.36-.34-.68-.69-.87l-.12-.07c-.06-.03-.13-.04-.2-.07-.11-.36-.34-.68-.69-.87l-.12-.07c-.06-.03-.13-.04-.2-.07-.11-.36-.34-.68-.69-.87l-.12-.07c-.06-.03-.13-.04-.2-.07-.11-.36-.34-.68-.69-.87l-.12-.07c-.06-.03-.13-.04-.2-.07-.11-.36-.34-.68-.69-.87l-.12-.07c-.06-.03-.13-.04-.2-.07-.11-.36-.34-.68-.69-.87l-.12-.07c-.06-.03-.13-.04-.2-.07-.11-.36-.34-.68-.69-.87l-.12-.07c-.06-.03-.13-.04-.2-.07-.11-.36-.34-.68-.69-.87l-.12-.07c-.06-.03-.13-.04-.2-.07-.11-.36-.34-.68-.69-.87l-.12-.07c-.06-.03-.13-.04-.2-.07-.11-.36-.34-.68-.69-.87l-.12-.07c-.06-.03-.13-.04-.2-.07-.11-.36-.34-.68-.69-.87l-.12-.07c-.06-.03-.13-.04-.2-.07-.11-.36-.34-.68-.69-.87l-.12-.07c-.06-.03-.13-.04-.2-.07-.11-.36-.34-.68-.69-.87l-.12-.07c-.06-.03-.13-.04-.2-.07-.11-.36-.34-.68-.69-.87l-.12-.07c-.06-.03-.13-.04-.2-.07-.11-.36-.34-.68-.69-.87l-.12-.07c-.06-.03-.13-.04-.2-.07-.11-.36-.34-.68-.69-.87l-.12-.07c-.06-.03-.13-.04-.2-.07-.11-.36-.34-.68-.69-.87l-.12-.07c-.06-.03-.13-.04-.2-.07-.11-.36-.34-.68-.69-.87l-.12-.07c-.06-.03-.13-.04-.2-.07-.11-.36-.34-.68-.69-.87l-.12-.07c-.06-.03-.13-.04-.2-.07-.11-.36-.34-.68-.69-.87l-.12-.07c-.06-.03-.13-.04-.2-.07-.11-.36-.34-.68-.69-.87l-.12-.07c-.06-.03-.13-.04-.2-.07-.11-.36-.34-.68-.69-.87l-.12-.07c-.06-.03-.13-.04-.2-.07-.11-.36-.34-.68-.69-.87l-.12-.07c-.06-.03-.13-.04-.2-.07-.11-.36-.34-.68-.69-.87l-.12-.07c-.06-.03-.13-.04-.2-.07-.11-.36-.34-.68-.69-.87l-.12-.07c-.06-.03-.13-.04-.2-.07-.11-.36-.34-.68-.69-.87l-.12-.07c-.06-.03-.13-.04-.2-.07-.11-.36-.34-.68-.69-.87l-.12-.07c-.06-.03-.13-.04-.2-.07-.11-.36-.34-.68-.69-.87l-.12-.07c-.06-.03-.13-.04-.2-.07-.11-.36-.34-.68-.69-.87l-.12-.07c-.06-.03-.13-.04-.2-.07-.11-.36-.34-.68-.69-.87l-.12-.07c-.06-.03-.13-.04-.2-.07-.11-.36-.34-.68-.69-.87l-.12-.07c-.06-.03-.13-.04-.2-.07-.11-.36-.34-.68-.69-.87l-.12-.07c-.06-.03-.13-.04-.2-.07-.11-.36-.34-.68-.69-.87l-.12-.07c-.06-.03-.13-.04-.2-.07-.11-.36-.34-.68-.69-.87l-.12-.07c-.06-.03-.13-.04-.2-.07-.11-.36-.34-.68-.69-.87l-.12-.07c-.06-.03-.13-.04-.2-.07-.11-.36-.34-.68-.69-.87l-.12-.07c-.06-.03-.13-.04-.2-.07-.11-.36-.34-.68-.69-.87l-.12-.07c-.06-.03-.13-.04-.2-.07-.11-.36-.34-.68-.69-.87l-.12-.07c-.06-.03-.13-.04-.2-.07-.11-.36-.34-.68-.69-.87l-.12-.07c-.06-.03-.13-.04-.2-.07-.11-.36-.34-.68-.69-.87l-.12-.07c-.06-.03-.13-.04-.2-.07-.11-.36-.34-.68-.69-.87l-.12-.07c-.06-.03-.13-.04-.2-.07-.11-.36-.34-.68-.69-.87l-.12-.07c-.06-.03-.13-.04-.2-.07-.11-.36-.34-.68-.69-.87l-.12-.07c-.06-.03-.13-.04-.2-.07-.11-.36-.34-.68-.69-.87l-.12-.07c-.06-.03-.13-.04-.2-.07-.11-.36-.34-.68-.69-.87l-.12-.07c-.06-.03-.13-.04-.2-.07-.11-.36-.34-.68-.69-.87l-.12-.07c-.06-.03-.13-.04-.2-.07-.11-.36-.34-.68-.69-.87l-.12-.07c-.06-.03-.13-.04-.2-.07-.11-.36-.34-.68-.69-.87l-.12-.07c-.06-.03-.13-.04-.2-.07-.11-.36-.34-.68-.69-.87l-.12-.07c-.06-.03-.13-.04-.2-.07-.11-.36-.34-.68-.69-.87l-.12-.07c-.06-.03-.13-.04-.2-.07-.11-.36-.34-.68-.69-.87l-.12-.07c-.06-.03-.13-.04-.2-.07-.11-.36-.34-.68-.69-.87l-.12-.07c-.06-.03-.13-.04-.2-.07-.11-.36-.34-.68-.69-.87l-.12-.07c-.06-.03-.13-.04-.2-.07-.11-.36-.34-.68-.69-.87l-.12-.07c-.06-.03-.13-.04-.2-.07-.11-.36-.34-.68-.69-.87l-.12-.07c-.06-.03-.13-.04-.2-.07-.11-.36-.34-.68-.69-.87l-.12-.07c-.06-.03-.13-.04-.2-.07-.11-.36-.34-.68-.69-.87l-.12-.07c-.06-.03-.13-.04-.2-.07-.11-.36-.34-.68-.69-.87l-.12-.07c-.06-.03-.13-.04-.2-.07-.11-.36-.34-.68-.69-.87l-.12-.07c-.06-.03-.13-.04-.2-.07-.11-.36-.34-.68-.69-.87l-.12-.07c-.06-.03-.13-.04-.2-.07-.11-.36-.34-.68-.69-.87l-.12-.07c-.06-.03-.13-.04-.2-.07-.11-.36-.34-.68-.69-.87l-.12-.07c-.06-.03-.13-.04-.2-.07-.11-.36-.34-.68-.69-.87l-.12-.07c-.06-.03-.13-.04-.2-.07-.11-.36-.34-.68-.69-.87l-.12-.07c-.06-.03-.13-.04-.2-.07-.11-.36-.34-.68-.69-.87l-.12-.07c-.61-.34-1.37-.21-1.84,.31-5.81,6.43-11.87,6.4-19.53,6.36-5.16-.03-10.99-.05-17.43,2.08-10.65,3.52-15.2,10.09-17.09,14.33-.23-.24-.47-.48-.72-.72-.31-.33-.65-.67-1-1-.31-.33-.65-.67-1-1-.31-.33-.65-.67-1-1-.31-.33-.65-.67-1-1-.31-.33-.65-.67-1-1-2.85-3.04-7.15-6.09-13.59-7.97-6.51-1.91-12.34-1.67-17.49-1.47-7.66,.3-13.71,.54-19.74-5.68-.48-.5-1.24-.6-1.83-.25l-.12,.07c-.6,.35-.88,1.07-.68,1.74,2.58,8.28-.53,13.47-4.46,20.05-2.64,4.42-5.64,9.43-7.09,16.06-2.81,12.86,2.28,20.64,4.93,23.67-3.96-.73-13.25-1.13-22.87,7.84-4.96,4.63-7.74,9.76-10.2,14.29-3.65,6.74-6.54,12.07-14.96,14.08-.68,.16-1.15,.76-1.15,1.46v.13c0,.66,.44,1.24,1.07,1.42,.14,.48,.51,.85,1,1,.14,.48,.51,.85,1,1,.14,.48,.51,.85,1,1,.14,.48,.51,.85,1,1,.14,.48,.51,.85,1,1,.14,.48,.51,.85,1,1,.14,.48,.51,.85,1,1Z"/>
        <g>
          <path class="cls-1" d="M131.32,206.09c1.32,3.7,5.66,12.09,18.48,15.84,6.51,1.91,12.35,1.67,17.49,1.47,7.66-.3,13.71-.54,19.74,5.68,.29,.3,.68,.46,1.08,.46,.26,0,.51-.07,.75-.2l.12-.07c.61-.35,.89-1.08,.68-1.75-2.58-8.27,.53-13.47,4.46-20.05,2.64-4.42,5.64-9.43,7.08-16.06,2.81-12.86-2.28-20.64-4.93-23.68,.99,.18,2.3,.35,3.89,.35,4.74,0,11.77-1.46,18.98-8.19,4.96-4.63,7.74-9.76,10.2-14.29,3.65-6.74,6.54-12.07,14.96-14.08,.68-.16,1.15-.76,1.15-1.46v-.13c0-.69-.48-1.3-1.15-1.46-8.43-2.01-11.31-7.33-14.96-14.08-2.45-4.53-5.23-9.66-10.2-14.29-12.46-11.62-24.36-7.53-24.87-7.35,0,0-.01,0-.02,0-.25-.42-.48-.86-.74-1.28t0,0c.4-.35,9.71-8.83,5.5-25.34-1.68-6.58-4.84-11.48-7.64-15.81-4.16-6.44-7.45-11.53-5.16-19.88,.18-.67-.12-1.37-.72-1.71l-.12-.07c-.61-.34-1.37-.21-1.84,.31-5.81,6.43-11.87,6.4-19.53,6.36-5.16-.03-10.99-.05-17.43,2.08-12.68,4.19-16.73,12.72-17.92,16.47-1.32-3.7-5.66-12.09-18.48-15.83-6.51-1.91-12.34-1.67-17.49-1.47-7.66,.3-13.71,.54-19.74-5.68-.48-.5-1.24-.6-1.83-.25l-.12,.07c-.6,.35-.88,1.07-.68,1.74,2.58,8.28-.53,13.47-4.46,20.05-2.64,4.42-5.64,9.43-7.09,16.06-2.81,12.86,2.28,20.64,4.93,23.67-3.96-.73-13.25-1.13-22.87,7.84-4.96,4.63-7.74,9.76-10.2,14.29-3.65,6.74-6.54,12.07-14.96,14.08-.68,.16-1.15,.76-1.15,1.46v.13c0,.69,.48,1.3,1.15,1.46,8.43,2.01,11.31,7.33,14.96,14.08,2.45,4.53,5.23,9.66,10.2,14.29,7.21,6.73,14.25,8.19,18.98,8.19,3.44,0,5.67-.77,5.88-.84,.14-.05,.26-.12,.37-.2,.24,.42,.47,.84,.72,1.26-.12,.06-.23,.13-.34,.22-.4,.35-9.71,8.83-5.5,25.34,1.68,6.57,4.84,11.48,7.64,15.8,4.16,6.44,7.45,11.53,5.16,19.89-.19,.68,.12,1.39,.74,1.72l.12,.06c.22,.12,.46,.18,.71,.18,.41,0,.82-.17,1.12-.49,5.81-6.43,11.88-6.4,19.53-6.36,5.15,.03,10.99,.05,17.43-2.08,12.68-4.19,16.73-12.72,17.92-16.47ZM59.06,129.89c0-6.84,.99-13.45,2.8-19.71,1.09,37.13,31.31,67,68.31,67s67.22-29.87,68.31-67.01c1.81,6.27,2.8,12.88,2.8,19.72,0,39.21-31.9,71.12-71.12,71.12s-71.11-31.9-71.11-71.12ZM130.17,58.78c28.99,0,53.97,17.45,65.03,42.38,0,.06,0,.13,0,.19,.22,2.22,.34,4.49,.34,6.76,0,36.43-29.32,66.07-65.37,66.07s-65.37-29.64-65.37-66.07c0-2.01,.09-4.05,.27-6.07,.02-.21,0-.41-.07-.59,11-25.09,36.06-42.67,65.16-42.67Zm68.12,131.99c-1.34,6.15-4.08,10.73-6.73,15.16-3.35,5.6-6.54,10.94-5.69,18.19-5.96-4.22-12.17-3.98-18.69-3.72-5.16,.2-10.49,.41-16.53-1.35-13.65-3.99-16.49-13.62-16.86-15.13,25.08-1.21,46.92-14.96,59.41-35.09,1.46,1.38,8.04,8.47,5.09,21.94Zm18.83-88.47c4.61,4.29,7.15,8.99,9.61,13.53,3.11,5.74,6.07,11.2,12.74,14.17-6.67,2.97-9.63,8.44-12.74,14.17-2.46,4.54-5,9.23-9.61,13.53-10.06,9.38-19.49,7.38-21.45,6.83,5.49-10.34,8.62-22.13,8.62-34.63s-3.09-24.14-8.52-34.44c2.13-.56,11.52-2.32,21.35,6.85Zm-69.57-62.01c5.98-1.98,11.32-1.95,16.48-1.93,6.52,.03,12.74,.06,18.55-4.36-.6,7.28,2.78,12.5,6.32,17.98,2.8,4.34,5.7,8.82,7.25,14.92,3.35,13.13-2.7,20.42-4.25,22.02-13.11-19.67-35.35-32.74-60.62-33.11,.47-1.97,3.34-11.24,16.28-15.52Zm-85.83,28.94c1.34-6.15,4.08-10.73,6.73-15.16,3.35-5.6,6.54-10.94,5.69-18.19,5.96,4.22,12.17,3.98,18.69,3.72,5.16-.2,10.49-.41,16.53,1.35,13.15,3.84,16.27,12.92,16.81,14.94-25.06,1.34-46.85,15.19-59.23,35.39-1.08-.99-8.24-8.21-5.22-22.06Zm-18.83,88.47c-4.61-4.29-7.15-8.99-9.61-13.53-3.11-5.74-6.07-11.2-12.74-14.17,6.67-2.97,9.63-8.44,12.74-14.17,2.46-4.54,5-9.23,9.61-13.53,10.46-9.76,20.25-7.2,21.65-6.77-5.4,10.28-8.48,21.96-8.48,34.36s3.11,24.22,8.57,34.54c-1,.33-11.02,3.27-21.74-6.74Zm53.1,63.94c-6.52-.02-12.74-.06-18.55,4.36,.6-7.28-2.78-12.5-6.32-17.98-2.8-4.33-5.7-8.82-7.25-14.92-3.64-14.29,3.85-21.67,4.54-22.31,13.05,19.64,35.2,32.71,60.38,33.18-.29,1.38-2.83,11.28-16.33,15.74-5.98,1.98-11.32,1.95-16.48,1.93Z"/>
          <path class="cls-1" d="M96.16,90.51h47.68v32.24c-5.3-6.14-15.88-10.98-24.8-10.79-7.97,.16-14,4.08-16.97,11.06-4.11,9.66-.94,18.67,8.27,23.51,4.02,2.11,8.8,3.23,13.63,3.23,7.41,0,14.92-2.64,19.87-8.37v20.85c0,.83,.67,1.5,1.5,1.5s1.5-.67,1.5-1.5V90.51h21.87c.83,0,1.5-.67,1.5-1.5s-.67-1.5-1.5-1.5H96.16c-.83,0-1.5,.67-1.5,1.5s.67,1.5,1.5,1.5Zm47.04,46.74c-6.52,10.24-21.81,11.72-31.46,6.64-3.75-1.97-11.94-7.85-6.9-19.68,3.17-7.47,9.51-9.14,14.26-9.24,10.33-.17,21.6,6.63,24.43,12.64,.08,.17,.19,.31,.31,.43v8.67c-.25,.12-.48,.3-.64,.55Z"/>
          <path class="cls-1" d="M145.33,82.49c.83,0,1.5-.67,1.5-1.5v-5.72c0-.83-.67-1.5-1.5-1.5s-1.5,.67-1.5,1.5v5.72c0,.83,.67,1.5,1.5,1.5Z"/>
        </g>
      </g>
    </g>
  </g>
</svg>