<svg xmlns="http://www.w3.org/2000/svg" viewBox="0 0 260 260"><defs><style>.cls-1{fill:#fff}.cls-2{fill:#8f009c}.cls-3{isolation:isolate}.cls-4{mix-blend-mode:multiply;opacity:.3}</style></defs><g class="cls-3"><g id="Layer_1" data-name="Layer 1"><g><circle cx="130" cy="130" r="130" class="cls-2" transform="translate(-32.26 43.57) rotate(-16.96)"/><path d="M61.03,190.09c.16,.47,.54,.81,.99,.95,0,.02,0,.04,0,.05,.16,.47,.54,.81,.99,.95,0,.02,0,.04,0,.05,.16,.47,.54,.81,.99,.95,0,.02,0,.04,0,.05,.16,.47,.54,.81,.99,.95,0,.02,0,.04,0,.05,.16,.47,.54,.81,.99,.95,0,.02,0,.04,0,.05,.16,.47,.54,.81,.99,.95,0,.02,0,.04,0,.05,.16,.47,.54,.81,.99,.95,0,.02,0,.04,0,.05,.06,.17,.14,.32,.25,.46,.41,.91,.85,1.78,1.26,2.61,1.9,3.81,3.41,6.82,1.68,11.2-.26,.66,.04,1.45,.63,1.84,.12,.08,.24,.13,.37,.17,.12,.33,.34,.63,.63,.83,.12,.08,.24,.13,.37,.17,.12,.33,.34,.63,.63,.83,.12,.08,.24,.13,.37,.17,.12,.33,.34,.63,.63,.83,.12,.08,.24,.13,.37,.17,.12,.33,.34,.63,.63,.83,.12,.08,.24,.13,.37,.17,.12,.33,.34,.63,.63,.83,.12,.08,.24,.13,.37,.17,.12,.33,.34,.63,.63,.83,.12,.08,.24,.13,.37,.17,.12,.33,.34,.63,.63,.83,.12,.08,.24,.13,.37,.17,.12,.33,.34,.63,.63,.83,.12,.08,.24,.13,.37,.17,.12,.33,.34,.63,.63,.83,.12,.08,.24,.13,.37,.17,.12,.33,.34,.63,.63,.83,.12,.08,.24,.13,.37,.17,.12,.33,.34,.63,.63,.83,.12,.08,.24,.13,.37,.17,.12,.33,.34,.63,.63,.83,.12,.08,.24,.13,.37,.17,.12,.33,.34,.63,.63,.83,.12,.08,.24,.13,.37,.17,.12,.33,.34,.63,.63,.83,.12,.08,.24,.13,.37,.17,.12,.33,.34,.63,.63,.83,.12,.08,.24,.13,.37,.17,.12,.33,.34,.63,.63,.83,.12,.08,.24,.13,.37,.17,.12,.33,.34,.63,.63,.83,.12,.08,.24,.13,.37,.17,.12,.33,.34,.63,.63,.83,.12,.08,.24,.13,.37,.17,.12,.33,.34,.63,.63,.83,.12,.08,.24,.13,.37,.17,.12,.33,.34,.63,.63,.83,.12,.08,.24,.13,.37,.17,.12,.33,.34,.63,.63,.83,.12,.08,.24,.13,.37,.17,.12,.33,.34,.63,.63,.83,.12,.08,.24,.13,.37,.17,.12,.33,.34,.63,.63,.83,.12,.08,.24,.13,.37,.17,.12,.33,.34,.63,.63,.83,.12,.08,.24,.13,.37,.17,.12,.33,.34,.63,.63,.83,.12,.08,.24,.13,.37,.17,.12,.33,.34,.63,.63,.83,.12,.08,.24,.13,.37,.17,.12,.33,.34,.63,.63,.83,.12,.08,.24,.13,.37,.17,.12,.33,.34,.63,.63,.83,.12,.08,.24,.13,.37,.17,.12,.33,.34,.63,.63,.83,.12,.08,.24,.13,.37,.17,.12,.33,.34,.63,.63,.83,.12,.08,.24,.13,.37,.17,.12,.33,.34,.63,.63,.83,.12,.08,.24,.13,.37,.17,.12,.33,.34,.63,.63,.83,.12,.08,.24,.13,.37,.17,.12,.33,.34,.63,.63,.83,.12,.08,.24,.13,.37,.17,.12,.33,.34,.63,.63,.83,.12,.08,.24,.13,.37,.17,.12,.33,.34,.63,.63,.83,.12,.08,.24,.13,.37,.17,.12,.33,.34,.63,.63,.83,.12,.08,.24,.13,.37,.17,.12,.33,.34,.63,.63,.83,.12,.08,.24,.13,.37,.17,.12,.33,.34,.63,.63,.83,.12,.08,.24,.13,.37,.17,.12,.33,.34,.63,.63,.83,.12,.08,.24,.13,.37,.17,.12,.33,.34,.63,.63,.83,.12,.08,.24,.13,.37,.17,.12,.33,.34,.63,.63,.83,.12,.08,.24,.13,.37,.17,.12,.33,.34,.63,.63,.83,.12,.08,.24,.13,.37,.17,.12,.33,.34,.63,.63,.83,.12,.08,.24,.13,.37,.17,.12,.33,.34,.63,.63,.83,.12,.08,.24,.13,.37,.17,.12,.33,.34,.63,.63,.83,.12,.08,.24,.13,.37,.17,.12,.33,.34,.63,.63,.83,.12,.08,.24,.13,.37,.17,0,.03,.03,.05,.04,.08,3.87,.35,7.78,.54,11.74,.54,71.8,0,130-58.2,130-130,0-4.02-.19-8-.55-11.92-.08-.09-.16-.19-.26-.26-.12-.09-.26-.15-.4-.19-.11-.32-.32-.61-.6-.81-.12-.09-.26-.15-.4-.19-.11-.32-.32-.61-.6-.81-.12-.09-.26-.15-.4-.19-.11-.32-.32-.61-.6-.81-.12-.09-.26-.15-.4-.19-.11-.32-.32-.61-.6-.81-.12-.09-.26-.15-.4-.19-.11-.32-.32-.61-.6-.81-.12-.09-.26-.15-.4-.19-.11-.32-.32-.61-.6-.81-.12-.09-.26-.15-.4-.19-.11-.32-.32-.61-.6-.81-.12-.09-.26-.15-.4-.19-.11-.32-.32-.61-.6-.81-.12-.09-.26-.15-.4-.19-.11-.32-.32-.61-.6-.81-.12-.09-.26-.15-.4-.19-.11-.32-.32-.61-.6-.81-.12-.09-.26-.15-.4-.19-.11-.32-.32-.61-.6-.81-.12-.09-.26-.15-.4-.19-.11-.32-.32-.61-.6-.81-.12-.09-.26-.15-.4-.19-.11-.32-.32-.61-.6-.81-.12-.09-.26-.15-.4-.19-.11-.32-.32-.61-.6-.81-.12-.09-.26-.15-.4-.19-.11-.32-.32-.61-.6-.81-.12-.09-.26-.15-.4-.19-.11-.32-.32-.61-.6-.81-.12-.09-.26-.15-.4-.19-.11-.32-.32-.61-.6-.81-.12-.09-.26-.15-.4-.19-.11-.32-.32-.61-.6-.81-.12-.09-.26-.15-.4-.19-.11-.32-.32-.61-.6-.81-.12-.09-.26-.15-.4-.19-.11-.32-.32-.61-.6-.81-.12-.09-.26-.15-.4-.19-.11-.32-.32-.61-.6-.81-.12-.09-.26-.15-.4-.19-.11-.32-.32-.61-.6-.81-.12-.09-.26-.15-.4-.19-.11-.32-.32-.61-.6-.81-.12-.09-.26-.15-.4-.19-.11-.32-.32-.61-.6-.81-.12-.09-.26-.15-.4-.19-.11-.32-.32-.61-.6-.81-.12-.09-.26-.15-.4-.19-.11-.32-.32-.61-.6-.81-.12-.09-.26-.15-.4-.19-.11-.32-.32-.61-.6-.81-.12-.09-.26-.15-.4-.19-.11-.32-.32-.61-.6-.81-.12-.09-.26-.15-.4-.19-.11-.32-.32-.61-.6-.81-.12-.09-.26-.15-.4-.19-.11-.32-.32-.61-.6-.81-.12-.09-.26-.15-.4-.19-.11-.32-.32-.61-.6-.81-.12-.09-.26-.15-.4-.19-.11-.32-.32-.61-.6-.81-.12-.09-.26-.15-.4-.19-.11-.32-.32-.61-.6-.81-.12-.09-.26-.15-.4-.19-.11-.32-.32-.61-.6-.81-.12-.09-.26-.15-.4-.19-.11-.32-.32-.61-.6-.81-.12-.09-.26-.15-.4-.19-.11-.32-.32-.61-.6-.81-.12-.09-.26-.15-.4-.19-.11-.32-.32-.61-.6-.81-.12-.09-.26-.15-.4-.19-.11-.32-.32-.61-.6-.81-.12-.09-.26-.15-.4-.19-.11-.32-.32-.61-.6-.81-.12-.09-.26-.15-.4-.19-.11-.32-.32-.61-.6-.81-.12-.09-.26-.15-.4-.19-.11-.32-.32-.61-.6-.81-.12-.09-.26-.15-.4-.19-.11-.32-.32-.61-.6-.81-.12-.09-.26-.15-.4-.19-.11-.32-.32-.61-.6-.81-.12-.09-.26-.15-.4-.19-.11-.32-.32-.61-.6-.81-.12-.09-.26-.15-.4-.19-.11-.32-.32-.61-.6-.81-.12-.09-.26-.15-.4-.19-.11-.32-.32-.61-.6-.81-.12-.09-.26-.15-.4-.19-.11-.32-.32-.61-.6-.81-.12-.09-.26-.15-.4-.19-.11-.32-.32-.61-.6-.81-.12-.09-.26-.15-.4-.19-.11-.32-.32-.61-.6-.81-.12-.09-.26-.15-.4-.19-.11-.32-.32-.61-.6-.81-.12-.09-.26-.15-.4-.19-.11-.32-.32-.61-.6-.81-.12-.09-.26-.15-.4-.19-.11-.32-.32-.61-.6-.81-.12-.09-.26-.15-.4-.19-.11-.32-.32-.61-.6-.81-.12-.09-.26-.15-.4-.19-.11-.32-.32-.61-.6-.81-.12-.09-.26-.15-.4-.19-.11-.32-.32-.61-.6-.81-.12-.09-.26-.15-.4-.19-.11-.32-.32-.61-.6-.81-.12-.09-.26-.15-.4-.19-.11-.32-.32-.61-.6-.81-.12-.09-.26-.15-.4-.19-.11-.32-.32-.61-.6-.81-.12-.09-.26-.15-.4-.19-.11-.32-.32-.61-.6-.81-.12-.09-.26-.15-.4-.19-.11-.32-.32-.61-.6-.81-.12-.09-.26-.15-.4-.19-.11-.32-.32-.61-.6-.81-.12-.09-.26-.15-.4-.19-.11-.32-.32-.61-.6-.81-.12-.09-.26-.15-.4-.19-.11-.32-.32-.61-.6-.81-.12-.09-.26-.15-.4-.19-.11-.32-.32-.61-.6-.81-.12-.09-.26-.15-.4-.19-.11-.32-.32-.61-.6-.81-.12-.09-.26-.15-.4-.19-.11-.32-.32-.61-.6-.81-.12-.09-.26-.15-.4-.19-.11-.32-.32-.61-.6-.81-.12-.09-.26-.15-.4-.19-.11-.32-.32-.61-.6-.81-.12-.09-.26-.15-.4-.19-.11-.32-.32-.61-.6-.81-.12-.09-.26-.15-.4-.19-.11-.32-.32-.61-.6-.81-.12-.09-.26-.15-.4-.19-.11-.32-.32-.61-.6-.81-.57-.4-1.34-.36-1.86,.1-3.52,3.13-6.86,2.74-11.09,2.26-3-.34-6.39-.74-10.32,.1-.13,.03-.26,.06-.39,.09-.17-.42-.51-.78-.95-.93,0,0-.01,0-.02,0-.16-.45-.52-.84-.98-1,0,0-.01,0-.02,0-.16-.45-.52-.84-.98-1,0,0-.01,0-.02,0-.16-.45-.52-.84-.98-1,0,0-.01,0-.02,0-.16-.45-.52-.84-.98-1-.65-.23-1.38,.02-1.76,.61-1.64,2.58-3.6,3.5-6.08,4.05-.09-.09-.18-.18-.27-.26-.09-.1-.17-.19-.26-.29-.24-.25-.49-.48-.74-.71-.09-.1-.17-.19-.26-.29-.24-.25-.49-.48-.74-.71-.09-.1-.17-.19-.26-.29-.24-.25-.49-.48-.74-.71-.09-.1-.17-.19-.26-.29-.24-.25-.49-.48-.74-.71-.09-.1-.17-.19-.26-.29-.24-.25-.49-.48-.74-.71-.09-.1-.17-.19-.26-.29-2.52-2.61-5.23-4.14-7.7-5.44-.19-.24-.45-.43-.75-.53-.14-.47-.53-.84-1-1-.14-.47-.53-.84-1-1-.14-.47-.53-.84-1-1-.14-.47-.53-.84-1-1-.14-.47-.53-.84-1-1-.14-.47-.53-.84-1-1-.14-.47-.53-.84-1-1-.14-.47-.53-.84-1-1-.19-.64-.84-1.09-1.51-1.09h-.02c-.7,0-1.3,.5-1.45,1.18-1.01,4.6-3.94,6.25-7.65,8.34-2.63,1.48-5.61,3.16-8.29,6.14-.92,1.02-1.66,2.04-2.27,3.03-.03-.05-.07-.1-.1-.15-.17-.29-.44-.49-.74-.61-.09-.13-.18-.25-.26-.39-.17-.29-.44-.49-.74-.61-.09-.13-.18-.25-.26-.39-.17-.29-.44-.49-.74-.61-.09-.13-.18-.25-.26-.39-.35-.6-1.13-.86-1.79-.66-.67,.2-1.11,.83-1.07,1.53,.25,4.11-1.73,6.11-4.47,8.88-.23,.24-.47,.48-.71,.72-1.86-1.23-4.32-2.3-7.57-2.77-3.97-.58-7.34,.04-10.3,.58-4.19,.76-7.5,1.36-11.22-1.52-.56-.43-1.4-.37-1.95,.09-.52,.44-.68,1.17-.38,1.79,2.01,4.25,.71,7.36-.94,11.28-1.17,2.78-2.49,5.93-2.79,9.94-.1,1.38-.07,2.65,.06,3.81-1.34,.18-2.74,.04-4.38-.62-.66-.26-1.44,.02-1.84,.6-.39,.57-.34,1.32,.11,1.84,2.22,2.53,2.4,4.87,2.13,7.75-1.88,.23-3.99,.8-6.3,1.98-3.58,1.82-5.97,4.26-8.08,6.42-2.98,3.04-5.35,5.44-10.04,5.23-.72-.03-1.34,.49-1.53,1.16-.2,.67,.1,1.38,.7,1.72,.12,.07,.22,.14,.34,.21,.12,.33,.34,.61,.66,.79,.12,.07,.22,.14,.34,.21,.12,.33,.34,.61,.66,.79,.12,.07,.22,.14,.34,.21,.12,.33,.34,.61,.66,.79,.12,.07,.22,.14,.34,.21,.11,.3,.32,.56,.6,.75,.89,1.69,1.32,3.62,1.8,5.81,.65,2.95,1.38,6.28,3.45,9.72,.72,1.19,1.48,2.2,2.26,3.07-.99,.93-2.22,1.62-3.95,2.03-.68,.16-1.15,.83-1.15,1.53s.44,1.24,1.07,1.42c.14,.48,.51,.85,1,1,.14,.48,.51,.85,1,1,.14,.48,.51,.85,1,1,.14,.48,.51,.85,1,1,.14,.48,.51,.85,1,1,.07,.25,.22,.47,.4,.64-1.11,1.15-2.2,2.58-3.16,4.4-1.88,3.54-2.44,6.92-2.94,9.89-.7,4.2-1.25,7.52-5.22,10.04-.58,.37-.81,1.16-.59,1.82,.16,.47,.54,.81,.99,.95,0,.02,0,.04,0,.05,.16,.47,.54,.81,.99,.95,0,.02,0,.04,0,.05,.16,.47,.54,.81,.99,.95,0,.02,0,.04,0,.05,.16,.47,.54,.81,.99,.95,0,.02,0,.04,0,.05,.16,.47,.54,.81,.99,.95,0,.02,0,.04,0,.05,.16,.47,.54,.81,.99,.95,0,.02,0,.04,0,.05,.16,.47,.54,.81,.99,.95,0,.02,0,.04,0,.05,.16,.47,.54,.81,.99,.95,0,.02,0,.04,0,.05,.16,.47,.54,.81,.99,.95,0,.02,0,.04,0,.05,.16,.47,.54,.81,.99,.95,0,.02,0,.04,0,.05,.16,.47,.54,.81,.99,.95,0,.02,0,.04,0,.05,.16,.47,.54,.81,.99,.95,0,.02,0,.04,0,.05,.16,.47,.54,.81,.99,.95,0,.02,0,.04,0,.05,.16,.47,.54,.81,.99,.95,0,.02,0,.04,0,.05,.16,.47,.54,.81,.99,.95,0,.02,0,.04,0,.05,.16,.47,.54,.81,.99,.95,0,.02,0,.04,0,.05,.16,.47,.54,.81,.99,.95,0,.02,0,.04,0,.05,.16,.47,.54,.81,.99,.95,0,.02,0,.04,0,.05,.16,.47,.54,.81,.99,.95,0,.02,0,.04,0,.05,.16,.47,.54,.81,.99,.95,0,.02,0,.04,0,.05,.16,.47,.54,.81,.99,.95,0,.02,0,.04,0,.05,.16,.47,.54,.81,.99,.95,0,.02,0,.04,0,.05,.16,.47,.54,.81,.99,.95,0,.02,0,.04,0,.05,.16,.47,.54,.81,.99,.95,0,.02,0,.04,0,.05,.16,.47,.54,.81,.99,.95,0,.02,0,.04,0,.05,.16,.47,.54,.81,.99,.95,0,.02,0,.04,0,.05,.16,.47,.54,.81,.99,.95,0,.02,0,.04,0,.05Z" class="cls-4"/><g><path d="M226.88,156.23c-4.1-2.31-4.82-5.6-5.74-9.75-.65-2.95-1.38-6.29-3.45-9.73-.72-1.19-1.48-2.2-2.26-3.07,.99-.93,2.22-1.62,3.94-2.02,.68-.16,1.16-.84,1.15-1.55,0-.68-.48-1.28-1.15-1.44-3.17-.76-4.67-2.48-6.08-4.87,1.37-1.26,2.73-2.92,3.91-5.14,1.88-3.55,2.45-6.92,2.94-9.89,.7-4.2,1.25-7.52,5.22-10.04,.57-.36,.81-1.14,.61-1.78-.21-.68-.87-1.12-1.58-1.05-4.68,.46-7.16-1.81-10.3-4.69-2.22-2.04-4.74-4.35-8.41-5.98-1.27-.57-2.47-.95-3.62-1.22,.28-1.33,.89-2.6,2.07-3.92,.46-.51,.47-1.32,.09-1.89-.4-.58-1.15-.82-1.79-.56-3.45,1.36-5.83,.47-8.81-.99,.47-1.95,.66-4.29,.27-7.06-.56-3.98-2.09-7.03-3.44-9.73-1.91-3.81-3.41-6.82-1.68-11.2,.26-.64-.03-1.42-.59-1.82-.57-.4-1.34-.36-1.86,.1-3.52,3.13-6.86,2.74-11.09,2.26-3-.34-6.39-.74-10.32,.1-1.35,.29-2.55,.68-3.62,1.13-.55-1.24-.82-2.62-.65-4.38,.07-.69-.41-1.36-1.06-1.59-.65-.23-1.38,.02-1.76,.61-1.99,3.12-4.43,3.8-7.7,4.37-.76-1.86-1.97-3.85-3.92-5.86-2.79-2.89-5.82-4.46-8.5-5.85-3.78-1.96-6.76-3.51-7.93-8.08-.17-.66-.84-1.13-1.53-1.13h-.02c-.7,0-1.3,.5-1.45,1.18-1.01,4.6-3.94,6.25-7.65,8.34-2.63,1.48-5.61,3.16-8.29,6.14-.93,1.03-1.67,2.05-2.28,3.06-1.17-.68-2.2-1.65-3.09-3.18-.35-.6-1.13-.86-1.79-.66-.67,.2-1.11,.83-1.07,1.53,.25,4.11-1.73,6.11-4.47,8.88-.23,.24-.47,.48-.71,.72-1.86-1.23-4.32-2.3-7.57-2.77-3.97-.58-7.34,.04-10.3,.58-4.19,.76-7.5,1.36-11.22-1.52-.56-.43-1.4-.37-1.95,.09-.52,.44-.68,1.17-.38,1.79,2.01,4.25,.71,7.36-.94,11.28-1.17,2.78-2.49,5.93-2.79,9.94-.1,1.38-.07,2.65,.06,3.81-1.34,.18-2.74,.04-4.38-.62-.66-.26-1.44,.02-1.84,.6-.39,.57-.34,1.32,.11,1.84,2.22,2.53,2.4,4.87,2.13,7.75-1.88,.23-3.99,.8-6.3,1.98-3.58,1.82-5.97,4.26-8.08,6.42-2.98,3.04-5.35,5.44-10.04,5.23-.72-.03-1.34,.49-1.53,1.16-.2,.67,.1,1.38,.7,1.72,4.1,2.31,4.83,5.6,5.74,9.76,.65,2.95,1.38,6.28,3.45,9.72,.72,1.19,1.48,2.2,2.26,3.07-.99,.93-2.22,1.62-3.95,2.03-.68,.16-1.15,.83-1.15,1.53s.47,1.3,1.15,1.46c3.17,.76,4.67,2.48,6.08,4.86-1.37,1.26-2.73,2.92-3.91,5.15-1.88,3.54-2.44,6.92-2.94,9.89-.7,4.2-1.25,7.52-5.22,10.04-.58,.37-.81,1.16-.59,1.82,.22,.66,.87,1.08,1.57,1.01,4.7-.46,7.17,1.82,10.3,4.7,2.22,2.04,4.74,4.35,8.4,5.98,1.27,.57,2.47,.95,3.61,1.22-.28,1.33-.89,2.6-2.07,3.92-.46,.52-.47,1.34-.08,1.91,.4,.58,1.14,.8,1.79,.54,3.45-1.36,5.84-.47,8.82,1-.48,1.95-.67,4.29-.28,7.06,.56,3.98,2.09,7.03,3.44,9.73,1.9,3.81,3.41,6.82,1.68,11.2-.26,.66,.04,1.45,.63,1.84,.25,.17,.54,.25,.83,.25,.36,0,.71-.13,1-.38,3.52-3.12,6.86-2.74,11.09-2.26,3,.34,6.39,.73,10.32-.1,1.36-.29,2.54-.68,3.62-1.13,.55,1.24,.83,2.62,.65,4.38-.07,.7,.42,1.38,1.09,1.59,.15,.05,.31,.08,.47,.08,.5,0,.98-.25,1.27-.69,1.99-3.12,4.43-3.8,7.7-4.37,.76,1.86,1.97,3.85,3.92,5.87,2.79,2.89,5.82,4.46,8.5,5.85,3.78,1.96,6.76,3.51,7.93,8.08,.17,.66,.84,1.12,1.53,1.12,.01,0,.03,0,.04,0,.69-.02,1.28-.5,1.43-1.18,1.01-4.6,3.94-6.25,7.65-8.34,2.63-1.48,5.6-3.16,8.29-6.14,.93-1.04,1.67-2.06,2.27-3.06,1.18,.68,2.2,1.65,3.1,3.19,.27,.46,.8,.72,1.33,.72,.17,0,.33-.03,.49-.08,.65-.21,1.07-.83,1.03-1.52-.25-4.11,1.73-6.11,4.47-8.88,.23-.24,.47-.48,.71-.72,1.85,1.24,4.31,2.3,7.57,2.77,3.98,.58,7.34-.04,10.3-.58,4.19-.76,7.5-1.37,11.22,1.52,.26,.2,.57,.29,.89,.29,.37,0,.74-.12,1.03-.36,.54-.44,.71-1.18,.41-1.81-2.02-4.25-.71-7.36,.94-11.28,1.17-2.78,2.49-5.93,2.79-9.93,.1-1.39,.06-2.65-.07-3.82,1.35-.18,2.75-.04,4.39,.62,.65,.26,1.42-.02,1.82-.58s.36-1.33-.1-1.86c-2.22-2.53-2.4-4.86-2.14-7.73,1.88-.23,4-.83,6.3-2,3.58-1.82,5.97-4.26,8.08-6.42,2.98-3.04,5.32-5.44,10.04-5.23,.7,.03,1.34-.49,1.53-1.16,.19-.67-.1-1.38-.71-1.72Zm-11.73-26.08c-2.79,1.71-4.23,4.34-5.62,6.91-1.24,2.27-2.52,4.63-4.79,6.74-.29,.27-.57,.5-.86,.73-.11-.44-.21-.9-.31-1.38-.53-2.39-1.13-5.1-2.82-7.91-.46-.77-.95-1.44-1.45-2.05,.79-.78,1.77-1.37,3.17-1.71,.68-.16,1.15-.82,1.15-1.52s-.48-1.3-1.15-1.46c-2.47-.59-3.65-1.95-4.76-3.83,.94-.96,1.85-2.16,2.66-3.69,1.18-2.22,1.72-4.35,2.09-6.32,.76,.47,1.54,1.05,2.33,1.79,2.27,2.13,3.54,4.48,4.77,6.76,1.39,2.57,2.81,5.21,5.6,6.93Zm-26.54,24.96c-1.11-5.21-4.14-7.55-5.95-8.5,.37,.05,.79,.08,1.26,.08,2.15,0,5.3-.65,8.49-3.63,2.17-2.02,3.36-4.22,4.41-6.16,.22-.41,.43-.8,.64-1.17,.24,.33,.48,.68,.71,1.06,1.44,2.39,1.95,4.74,2.46,7.01,.56,2.53,1.13,5.12,3.03,7.29-2.76,.84-4.62,2.73-6.43,4.59-1.63,1.66-3.31,3.38-5.79,4.64-.93,.47-1.79,.79-2.61,1,.18-1.85,.27-3.9-.22-6.21Zm-10.61,34.61c-2.74-.91-5.35-.43-7.9,.04-2.29,.42-4.65,.85-7.41,.45-1.03-.15-1.92-.39-2.71-.68,1.22-1.41,2.47-3.03,3.41-5.21,2.33-5.43,.69-9.33-.24-10.9,0,0,.02-.01,.03-.02,1.1,1.13,3.74,3.26,8.27,3.26,.68,0,1.41-.05,2.18-.16,2.94-.41,5.17-1.53,7.15-2.52,.35-.18,.7-.35,1.03-.51,.01,.45,0,.91-.03,1.4-.21,2.78-1.13,4.99-2.04,7.14-1.01,2.39-2.04,4.84-1.74,7.71Zm-103.13-26.43c-.27-2.06-.56-4.18-.08-6.61,.94-4.82,3.9-6.42,4.81-6.81,3.41,8.58,8.92,16.11,15.92,21.92-.64,.74-3.07,3.07-7.96,2.47-2.45-.3-4.39-1.23-6.26-2.12-2.05-.98-4.13-2-6.67-1.92,.84-2.36,.54-4.67,.24-6.93Zm-2.97,.39c.02,.17,.04,.33,.06,.49-.54-.16-1.1-.37-1.68-.62-2.54-1.13-4.32-2.76-6.03-4.33-1.91-1.75-3.87-3.55-6.67-4.24,1.78-2.27,2.21-4.89,2.63-7.45,.38-2.29,.77-4.67,2.08-7.13,.49-.92,1.02-1.67,1.56-2.32,.91,1.62,2.02,3.35,3.75,4.96,3.19,2.98,6.34,3.63,8.49,3.63,1.01,0,1.8-.14,2.27-.26,.07,.21,.14,.42,.21,.63-1.37,.56-5.5,2.72-6.73,9.05-.56,2.91-.24,5.39,.05,7.58Zm-.5-58.8c1.11,5.21,4.14,7.55,5.95,8.5-2.03-.25-5.85-.08-9.75,3.55-2.17,2.02-3.36,4.22-4.41,6.16-.22,.41-.44,.8-.65,1.17-.24-.33-.48-.67-.71-1.06-1.44-2.39-1.95-4.73-2.46-7.01-.56-2.53-1.13-5.13-3.03-7.3,2.76-.84,4.62-2.73,6.43-4.59,1.63-1.66,3.31-3.38,5.79-4.64,.92-.47,1.79-.79,2.61-1.01-.18,1.85-.27,3.9,.22,6.22Zm10.62-34.61c2.74,.91,5.35,.43,7.9-.04,2.29-.42,4.65-.85,7.41-.45,1.03,.15,1.92,.39,2.71,.68-1.22,1.41-2.47,3.03-3.41,5.21-2.38,5.54-.62,9.5,.29,10.99,0,0,0,0,0,0-1.21-1.28-4.56-4.02-10.53-3.18-2.94,.41-5.17,1.53-7.15,2.51-.36,.18-.7,.35-1.03,.51-.01-.44,0-.91,.03-1.4,.2-2.78,1.14-4.99,2.04-7.14,1-2.39,2.03-4.84,1.74-7.71Zm103.13,26.43c.27,2.06,.56,4.18,.08,6.61-.76,3.9-2.84,5.69-4.09,6.43-3.43-8.67-9.01-16.26-16.09-22.1,1.09-.96,3.44-2.41,7.4-1.92,2.46,.3,4.39,1.23,6.26,2.12,2.05,.98,4.18,2,6.67,1.92-.84,2.36-.54,4.68-.24,6.93Zm2.97-.39c-.02-.17-.04-.32-.06-.49,.54,.16,1.1,.36,1.68,.62,2.54,1.13,4.32,2.76,6.03,4.33,1.91,1.75,3.87,3.55,6.67,4.24-1.78,2.27-2.21,4.89-2.63,7.45-.38,2.29-.77,4.67-2.08,7.13-.49,.92-1.01,1.67-1.56,2.32-.91-1.62-2.02-3.35-3.75-4.96-4.04-3.77-8-3.81-9.96-3.52-.09-.28-.19-.55-.28-.83,1.75-.91,4.95-3.27,6-8.71,.56-2.91,.24-5.39-.05-7.58Zm-57.76,85.08c-28.45,0-51.6-23.15-51.6-51.6s23.15-51.6,51.6-51.6,51.6,23.15,51.6,51.6-23.15,51.6-51.6,51.6Zm52.92-65.06c1.46-.13,4.19,.1,7.09,2.8,1.81,1.69,2.83,3.57,3.82,5.39,1.09,2,2.2,4.05,4.27,5.47-2.07,1.42-3.18,3.47-4.27,5.47-.99,1.82-2.01,3.71-3.82,5.4-2.98,2.77-5.77,2.94-7.19,2.79,1.16-4.43,1.79-9.08,1.79-13.87s-.59-9.15-1.68-13.46Zm-4.5-31.76c-1.69-.78-3.6-1.53-5.96-1.81-5.53-.68-8.77,1.66-10.16,3.04-.22-.16-.45-.32-.68-.48,.88-1.75,2.12-5.56-.24-10.62-1.25-2.69-2.97-4.5-4.49-6.1-.12-.13-.23-.25-.35-.37,.52-.19,1.09-.35,1.71-.48,2.72-.58,5.11-.31,7.42-.04,2.58,.29,5.22,.6,7.88-.49-.11,2.88,1.09,5.25,2.25,7.57,1.04,2.08,2.12,4.23,2.51,6.99,.14,1.03,.17,1.95,.11,2.8Zm-19.76-8.6c1.7,3.64,1.03,6.34,.45,7.66-7.61-4.82-16.48-7.81-26.01-8.34,.28-1.39,1.28-4.04,4.89-6.04,2.16-1.2,4.27-1.59,6.31-1.96,2.24-.41,4.54-.83,6.52-2.36,.71,2.41,2.31,4.1,3.88,5.75,1.43,1.5,2.9,3.06,3.95,5.3Zm-22.12-9.35c-4.99,2.76-6.18,6.68-6.46,8.57-.03,0-.05,0-.07,0-.81,0-1.62,.03-2.42,.06-.33-1.87-1.63-5.78-6.72-8.4-2.21-1.14-4.3-1.58-6.21-1.9,.41-.69,.92-1.41,1.57-2.13,1.86-2.07,3.96-3.25,5.98-4.4,2.26-1.28,4.57-2.58,6.09-5.03,1.61,2.39,3.96,3.62,6.27,4.81,2.06,1.07,4.2,2.18,6.13,4.18,.72,.74,1.29,1.48,1.73,2.2-1.82,.37-3.81,.88-5.89,2.03Zm-17.06,2.9c3.71,1.91,4.78,4.58,5.08,5.94-9.44,.94-18.17,4.29-25.58,9.42-.62-1.13-1.71-3.96,.04-8.02,.98-2.27,2.41-3.87,3.79-5.41,1.52-1.7,3.07-3.44,3.71-5.86,2.03,1.47,4.34,1.82,6.59,2.17,2.05,.31,4.17,.64,6.37,1.77Zm-39.26,19.18c1.86-.93,3.77-1.89,6.22-2.23,4.44-.62,6.89,1.23,7.79,2.12-6.88,5.98-12.26,13.64-15.48,22.34-1.06-.47-3.81-2.09-4.78-6.66-.51-2.42-.27-4.55-.03-6.61,.26-2.26,.53-4.58-.36-6.93,2.47,.03,4.6-1.01,6.63-2.03Zm-14.75,35.83c.99-1.82,2.01-3.71,3.82-5.4,3.45-3.22,6.66-2.93,7.77-2.7-1.08,4.28-1.66,8.75-1.66,13.36s.61,9.36,1.76,13.76c-.97,.22-4.29,.65-7.87-2.68-1.81-1.69-2.83-3.57-3.82-5.4-1.08-2-2.2-4.05-4.27-5.47,2.07-1.42,3.18-3.47,4.27-5.47Zm15.42,50.9c1.69,.77,3.6,1.52,5.95,1.81,.67,.08,1.32,.12,1.92,.12,5.14,0,7.89-2.69,8.76-3.72,.17,.13,.35,.25,.53,.38-.79,1.26-2.85,5.43-.13,11.28,1.25,2.68,2.97,4.5,4.49,6.1,.12,.13,.23,.25,.35,.37-.53,.18-1.09,.35-1.71,.48-2.73,.58-5.11,.31-7.43,.04-2.57-.29-5.21-.6-7.88,.49,.11-2.88-1.08-5.26-2.25-7.58-1.04-2.08-2.12-4.23-2.51-6.99-.15-1.03-.16-1.95-.1-2.79Zm19.75,8.6c-2.06-4.42-.64-7.44-.11-8.32,7.53,4.85,16.31,7.9,25.75,8.54-.14,1.14-.89,4.24-4.97,6.5-2.16,1.2-4.27,1.59-6.31,1.96-2.24,.41-4.53,.83-6.52,2.36-.71-2.41-2.31-4.1-3.88-5.75-1.43-1.5-2.91-3.06-3.95-5.3Zm22.12,9.35c5.41-3,6.36-7.35,6.52-9.01,.24,0,.48,.02,.73,.02,.55,0,1.1-.03,1.65-.04,.21,1.66,1.3,5.97,6.79,8.8,2.21,1.14,4.3,1.58,6.21,1.9-.41,.69-.92,1.41-1.57,2.13-1.86,2.07-3.96,3.25-5.98,4.4-2.26,1.28-4.57,2.58-6.09,5.03-1.61-2.39-3.96-3.62-6.26-4.81-2.06-1.07-4.2-2.18-6.13-4.18-.72-.75-1.28-1.48-1.73-2.2,1.82-.37,3.81-.88,5.88-2.03Zm17.06-2.9c-4.08-2.1-4.96-5.11-5.16-6.3,9.44-.8,18.21-4,25.68-9.01,.63,1.17,1.65,3.97-.07,7.97-.98,2.27-2.41,3.87-3.79,5.42-1.52,1.7-3.07,3.44-3.71,5.87-2.03-1.47-4.34-1.82-6.59-2.17-2.05-.31-4.17-.64-6.37-1.77Zm39.26-19.18c-1.86,.93-3.77,1.88-6.22,2.23-4.28,.6-6.71-1.1-7.68-2.01,7-5.91,12.49-13.53,15.82-22.22,1.25,.68,3.48,2.42,4.33,6.43,.51,2.42,.27,4.55,.03,6.61-.26,2.26-.53,4.58,.36,6.93-.04,0-.07,0-.1,0-2.46,0-4.52,1.03-6.53,2.03Zm22.74-81.49c-.11-.99-.21-1.9-.26-2.77,.82,.22,1.67,.51,2.57,.91,3.22,1.43,5.45,3.48,7.6,5.45,2.57,2.36,5.03,4.62,8.69,5.32-2.45,2.81-2.99,6.1-3.56,9.54-.48,2.88-.97,5.87-2.63,8.98-.85,1.6-1.8,2.85-2.76,3.83-1.19-2.19-2.61-4.6-4.97-6.81-1.3-1.22-2.59-2.1-3.83-2.75,.5-2.71,1.18-4.77,3.82-6.45,.58-.37,.82-1.15,.6-1.8-.22-.66-.87-1.08-1.57-1.01-1.83,.18-3.21-.16-4.45-.85,.26-.72,.49-1.5,.67-2.35,.76-3.52,.41-6.56,.11-9.24Zm-2.34-8.55c-1.31,3-.97,5.98-.64,8.89,.29,2.57,.59,5.23-.06,8.27-.08,.38-.18,.74-.29,1.09-.34-.3-.69-.62-1.05-.95-1.8-1.65-3.85-3.53-6.84-4.86-1.09-.49-2.12-.81-3.1-1.02,.07-1.41,.48-2.7,1.65-4.07,.45-.53,.45-1.33,.05-1.9-.41-.57-1.15-.78-1.79-.51-2.35,.98-4.1,.57-6.11-.3,.2-1.33,.23-2.83-.01-4.55-.29-2.09-.92-3.86-1.62-5.44,1.03-.1,2.17-.09,3.46,.09,3.08,.44,5.47,1.64,7.79,2.8,2.61,1.31,5.29,2.66,8.56,2.46Zm-34.29-29.05c3.45-.74,6.45-.39,9.35-.05,3.47,.4,6.79,.78,10.16-.8-.33,3.71,1.17,6.7,2.73,9.82,1.31,2.61,2.66,5.32,3.15,8.81,.29,2.04,.2,3.79-.08,5.27-1.98-.94-4.22-1.83-6.95-2.22-1.99-.28-3.74-.23-5.26,.02-1.45-2.91-2.43-5.11-1.15-8.37,.25-.64-.01-1.41-.58-1.81-.57-.4-1.34-.36-1.86,.1-1.37,1.22-2.69,1.76-4.1,1.93-.22-.74-.48-1.5-.83-2.3-1.46-3.29-3.53-5.55-5.35-7.54-.67-.74-1.3-1.42-1.85-2.09,.79-.3,1.66-.56,2.62-.77Zm-7.69-2.68c.7,3.2,2.73,5.41,4.7,7.57,1.75,1.91,3.55,3.88,4.82,6.73,.16,.36,.29,.71,.42,1.05-.46-.04-.93-.1-1.42-.15-2.43-.28-5.19-.59-8.39,.09-1.16,.25-2.18,.59-3.1,.99-.76-1.18-1.19-2.46-1.04-4.25,.05-.69-.41-1.34-1.06-1.56-.66-.22-1.39,.04-1.76,.64-1.33,2.17-2.98,2.87-5.12,3.34-.62-1.19-1.48-2.43-2.68-3.67-1.47-1.53-3.03-2.6-4.53-3.47,.78-.68,1.71-1.34,2.86-1.95,2.75-1.46,5.39-1.89,7.94-2.31,2.89-.48,5.85-.96,8.38-3.04Zm-44.79-3.36c2.36-2.62,4.99-4.1,7.54-5.54,3.04-1.71,5.95-3.36,7.75-6.61,1.91,3.2,4.88,4.74,7.97,6.34,2.59,1.35,5.28,2.74,7.72,5.28,1.43,1.48,2.39,2.94,3.03,4.3-2.16,.4-4.51,1-6.95,2.29-1.78,.94-3.15,2.01-4.23,3.1-2.87-1.5-4.96-2.71-5.83-6.09-.17-.66-.83-1.12-1.51-1.12s-1.31,.49-1.46,1.18c-.4,1.8-1.15,3-2.19,3.98-.61-.47-1.27-.93-2.03-1.37-3.12-1.81-6.11-2.42-8.75-2.96-.97-.2-1.87-.38-2.72-.61,.46-.71,1-1.43,1.66-2.16Zm-12.79,9.73c2.05-2.08,4.16-4.21,4.99-7.38,2.45,2.18,5.39,2.78,8.25,3.36,2.54,.52,5.16,1.05,7.85,2.61,.34,.2,.65,.4,.95,.61-.4,.23-.8,.47-1.24,.71-2.13,1.2-4.55,2.57-6.74,5-1.11,1.23-1.9,2.45-2.48,3.62-2.02-.42-3.61-1.1-4.95-3.14-.39-.6-1.2-.82-1.87-.55-.62,.25-1,.89-.93,1.56,.28,2.53-.6,4.1-2,5.78-1.22-.56-2.66-1.01-4.37-1.26-1.39-.2-2.68-.22-3.89-.14,.18-1.27,.59-2.68,1.35-4.24,1.37-2.79,3.25-4.7,5.07-6.54Zm-35.01,18.21c.26-3.51,1.43-6.3,2.56-9,1.35-3.22,2.65-6.3,2.07-9.98,3.47,1.36,6.76,.76,10.19,.13,2.87-.52,5.85-1.07,9.34-.56,2.53,.37,4.46,1.14,5.94,2.05-1.03,1.24-2.03,2.64-2.87,4.35-1.07,2.18-1.56,4.17-1.72,5.92-.48,.08-.96,.17-1.42,.25-3.43,.62-5.9,1.08-8.79-1.16-.56-.43-1.39-.38-1.94,.08-.52,.44-.67,1.17-.38,1.78,.79,1.66,.93,3.08,.71,4.48-.77,0-1.58,.04-2.45,.16-3.57,.48-6.31,1.83-8.73,3.02-.89,.44-1.72,.85-2.52,1.19-.07-.84-.08-1.74,0-2.73Zm3.86,4.23c2.32-1.14,4.72-2.33,7.8-2.74,.39-.05,.76-.07,1.12-.1-.17,.42-.35,.86-.54,1.31-.95,2.26-2.02,4.81-2.26,8.08-.07,.97-.04,1.85,.04,2.69-1.16,.23-2.35,.17-3.77-.39-.65-.26-1.41,.01-1.81,.58-.4,.57-.36,1.34,.11,1.86,1.69,1.9,1.87,3.7,1.7,5.88-1.32,.25-2.76,.7-4.29,1.49-2.16,1.1-3.78,2.47-5.18,3.82-.37-.85-.69-1.81-.92-2.92-.63-3.05-.31-5.7,0-8.27,.35-2.9,.71-5.88-.57-8.89,3.27,.22,5.96-1.11,8.58-2.4Zm-27.33,34.53c-.75-3.41-1.47-6.67-4.06-9.35,3.62-.89,5.96-3.28,8.4-5.77,2.05-2.09,4.16-4.24,7.3-5.84,1.67-.85,3.2-1.32,4.58-1.56-.27,2.41-.47,5.1,.16,8.16,.37,1.8,.94,3.3,1.6,4.58-2.03,2.02-3.78,3.39-6.99,3.25-.02,0-.04,0-.06,0-.69,0-1.3,.52-1.47,1.19-.17,.66,.12,1.35,.71,1.68,1.6,.9,2.53,1.97,3.16,3.24-.63,.45-1.26,.95-1.9,1.55-2.64,2.45-4.1,5.14-5.39,7.5-.47,.87-.92,1.68-1.38,2.42-.54-.65-1.07-1.38-1.58-2.22-1.81-3.02-2.46-5.97-3.09-8.82Zm3.06,16.97c2.8-1.71,4.23-4.34,5.63-6.91,1.24-2.27,2.52-4.62,4.79-6.74,.29-.27,.57-.51,.86-.74,.11,.45,.21,.91,.32,1.4,.53,2.39,1.12,5.1,2.81,7.9,.46,.77,.95,1.45,1.45,2.05-.79,.78-1.77,1.37-3.17,1.7-.68,.16-1.15,.82-1.15,1.52s.48,1.3,1.15,1.46c2.48,.59,3.66,1.95,4.77,3.84-.94,.96-1.86,2.15-2.67,3.68-1.18,2.23-1.72,4.36-2.09,6.32-.76-.48-1.54-1.06-2.33-1.8-2.27-2.13-3.54-4.48-4.77-6.76-1.39-2.58-2.81-5.21-5.6-6.93Zm12.99,40.34c.11,.99,.21,1.9,.26,2.77-.82-.22-1.67-.51-2.57-.91-3.22-1.43-5.44-3.48-7.6-5.45-2.57-2.36-5.03-4.62-8.69-5.33,2.45-2.81,3-6.1,3.57-9.55,.48-2.88,.97-5.86,2.63-8.97,.85-1.6,1.8-2.85,2.77-3.83,1.19,2.19,2.6,4.59,4.97,6.8,1.3,1.22,2.59,2.11,3.84,2.76-.5,2.71-1.18,4.76-3.81,6.44-.58,.37-.82,1.15-.6,1.8,.22,.66,.87,1.09,1.57,1.02,1.82-.18,3.2,.16,4.45,.84-.26,.73-.48,1.51-.67,2.36-.75,3.52-.41,6.56-.11,9.24Zm2.34,8.55c1.31-3,.97-5.98,.64-8.89-.29-2.57-.59-5.23,.06-8.27,.08-.38,.18-.74,.28-1.09,.34,.3,.69,.62,1.06,.96,1.8,1.65,3.85,3.53,6.84,4.86,1.09,.49,2.12,.81,3.1,1.03-.08,1.41-.49,2.7-1.65,4.06-.46,.53-.45,1.36-.03,1.92,.41,.55,1.14,.75,1.78,.48,2.35-.97,4.11-.56,6.12,.31-.2,1.33-.24,2.83,0,4.54,.29,2.09,.92,3.87,1.62,5.45-1.03,.1-2.18,.09-3.47-.1-3.08-.44-5.47-1.64-7.78-2.8-2.61-1.31-5.3-2.66-8.57-2.46Zm34.29,29.05c-3.45,.73-6.45,.39-9.35,.05-3.47-.4-6.79-.78-10.16,.8,.33-3.71-1.16-6.7-2.72-9.82-1.31-2.61-2.66-5.32-3.15-8.81-.29-2.04-.2-3.79,.08-5.27,1.98,.94,4.22,1.83,6.94,2.22,.94,.13,1.83,.19,2.67,.19,.93,0,1.79-.09,2.59-.22,1.46,2.92,2.44,5.12,1.15,8.37-.26,.65,.02,1.42,.59,1.82,.26,.18,.56,.27,.85,.27,.36,0,.71-.13,1-.38,1.37-1.22,2.69-1.75,4.09-1.93,.22,.74,.49,1.5,.85,2.3,1.46,3.29,3.52,5.55,5.35,7.54,.67,.73,1.29,1.42,1.85,2.09-.79,.3-1.66,.56-2.62,.77Zm7.69,2.68c-.71-3.2-2.73-5.41-4.7-7.57-1.75-1.91-3.55-3.88-4.82-6.73-.16-.36-.28-.7-.41-1.05,.45,.04,.92,.1,1.41,.15,2.43,.28,5.19,.59,8.39-.09,1.16-.25,2.18-.59,3.09-.99,.76,1.18,1.19,2.47,1.04,4.25-.06,.71,.44,1.37,1.12,1.58,.14,.04,.28,.06,.43,.06,.51,0,1-.26,1.28-.72,1.33-2.17,2.99-2.87,5.12-3.35,.62,1.19,1.48,2.43,2.68,3.67,1.48,1.53,3.03,2.6,4.53,3.47-.78,.68-1.71,1.34-2.86,1.95-2.75,1.46-5.39,1.89-7.95,2.31-2.88,.47-5.84,.96-8.37,3.04Zm44.79,3.36c-2.36,2.62-4.99,4.1-7.54,5.54-3.04,1.71-5.95,3.36-7.75,6.62-1.91-3.2-4.88-4.74-7.97-6.34-2.59-1.35-5.28-2.74-7.72-5.28-1.43-1.48-2.39-2.94-3.03-4.3,2.16-.4,4.51-1,6.95-2.29,1.78-.94,3.15-2,4.23-3.1,2.87,1.5,4.96,2.71,5.82,6.09,.17,.67,.83,1.12,1.52,1.12,.02,0,.03,0,.05,0,.69-.02,1.27-.51,1.42-1.18,.39-1.8,1.15-3,2.18-3.97,.61,.47,1.28,.93,2.03,1.37,3.11,1.81,6.11,2.42,8.75,2.96,.97,.2,1.87,.38,2.71,.61-.46,.71-1,1.43-1.66,2.16Zm12.79-9.73c-2.06,2.08-4.17,4.21-4.99,7.38-2.45-2.18-5.39-2.78-8.25-3.36-2.54-.52-5.16-1.05-7.85-2.61-.34-.2-.65-.4-.96-.6,.4-.23,.81-.47,1.24-.71,2.13-1.2,4.54-2.57,6.73-5,1.11-1.23,1.91-2.45,2.48-3.62,2.02,.42,3.62,1.1,4.95,3.14,.28,.43,.78,.66,1.28,.66,.19,0,.38-.03,.56-.1,.64-.24,1.04-.89,.96-1.57-.28-2.53,.6-4.1,2-5.78,1.22,.56,2.66,1.01,4.37,1.26,1.39,.2,2.68,.22,3.9,.14-.18,1.27-.6,2.69-1.35,4.24-1.37,2.79-3.25,4.69-5.07,6.54Zm35.01-18.21c-.26,3.51-1.43,6.3-2.56,8.99-1.35,3.22-2.65,6.3-2.07,9.98-3.47-1.35-6.76-.76-10.19-.13-2.88,.52-5.85,1.06-9.34,.56-2.53-.37-4.46-1.15-5.94-2.05,1.03-1.24,2.03-2.64,2.87-4.35,1.07-2.18,1.56-4.17,1.72-5.92,.48-.08,.96-.17,1.42-.25,3.42-.63,5.89-1.08,8.78,1.16,.26,.2,.58,.3,.9,.3,.36,0,.72-.12,1.01-.35,.54-.43,.72-1.19,.42-1.81-.79-1.66-.93-3.07-.71-4.47,.77,0,1.58-.06,2.45-.17,3.57-.48,6.31-1.83,8.73-3.02,.89-.44,1.72-.84,2.52-1.18,.07,.84,.09,1.74,.01,2.73Zm-3.86-4.23c-2.32,1.14-4.72,2.33-7.8,2.74-.39,.05-.76,.07-1.12,.1,.17-.42,.35-.86,.54-1.31,.95-2.26,2.02-4.81,2.26-8.08,.07-.97,.06-1.86-.02-2.7,1.15-.23,2.34-.17,3.75,.39,.66,.26,1.44-.02,1.83-.61,.38-.57,.33-1.32-.13-1.83-1.69-1.9-1.87-3.69-1.7-5.87,1.32-.25,2.76-.71,4.3-1.5,2.16-1.1,3.78-2.47,5.17-3.82,.37,.85,.69,1.8,.92,2.91,.63,3.04,.3,5.7,0,8.27-.35,2.9-.71,5.88,.58,8.9-3.25-.22-5.96,1.11-8.58,2.4Zm23-19.42c-2.05,2.09-4.16,4.24-7.3,5.84-1.67,.85-3.2,1.33-4.59,1.57,.28-2.41,.47-5.11-.16-8.17-.37-1.8-.94-3.31-1.6-4.58,2.03-2.02,3.79-3.39,6.99-3.25,.73,.05,1.35-.49,1.53-1.17,.18-.66-.12-1.36-.71-1.69-1.6-.9-2.53-1.97-3.16-3.24,.63-.45,1.26-.96,1.9-1.55,2.64-2.45,4.1-5.14,5.39-7.51,.47-.87,.91-1.68,1.37-2.42,.54,.64,1.08,1.37,1.58,2.22,1.82,3.02,2.47,5.97,3.1,8.83,.75,3.41,1.47,6.67,4.06,9.34-3.61,.89-5.95,3.28-8.39,5.77Z" class="cls-1"/><path d="M125.48,99.6c.83,0,1.5-.67,1.5-1.5v-3.39c0-.83-.67-1.5-1.5-1.5s-1.5,.67-1.5,1.5v3.39c0,.83,.67,1.5,1.5,1.5Z" class="cls-1"/><path d="M171.85,140.18c1.33-2.87,1.25-6.14-.25-9.71-2.12-5.04-5.33-6.91-7.65-7.59-3.39-.99-7.37-.22-10.67,2.06-3.57,2.47-6.79,6.67-8.06,8.45-.42-.47-.87-.91-1.37-1.31-3.81-3.07-7.94-4.14-11.25-4.4,1.75-1.41,3.56-3.3,4.86-5.75,2.22-4.22,3.24-10.41,.52-14.71-1.48-2.34-4.72-5.06-11.78-4.75-5.35,.23-9.35,1.82-11.89,4.73-3.14,3.58-2.81,7.82-2.79,8,.07,.82,.8,1.42,1.62,1.36,.82-.07,1.43-.79,1.37-1.61,0-.03-.22-3.21,2.09-5.8,1.99-2.24,5.26-3.48,9.74-3.67,4.51-.2,7.57,.93,9.11,3.36,1.98,3.12,1.18,8.25-.64,11.7-2.77,5.26-8.71,7.6-8.76,7.62-.74,.28-1.14,1.1-.89,1.86,.24,.76,1.04,1.19,1.8,1,.08-.02,8.24-2.05,15.02,3.42,3.43,2.76,4.31,7.63,2.37,13.03-2.04,5.67-7.54,11.74-14.82,11.74-.05,0-.1,0-.15,0-6.63-.08-11.63-2.14-14.88-6.14-6.63-8.15-4.04-21.84-4.01-21.97,.16-.81-.37-1.6-1.18-1.76-.8-.16-1.6,.37-1.76,1.18-.12,.62-2.9,15.18,4.62,24.44,3.84,4.72,9.62,7.17,17.18,7.25,.06,0,.13,0,.19,0,8.73,0,15.26-7.09,17.64-13.72,1.63-4.54,1.52-8.95-.16-12.41,.05-.05,.1-.1,.13-.16,.04-.06,3.81-5.68,7.86-8.47,1.97-1.37,5.14-2.52,8.12-1.65,2.47,.72,4.39,2.69,5.73,5.87,1.16,2.76,1.26,5.2,.31,7.27-1.71,3.69-6.25,5.19-6.33,5.22-.79,.25-1.23,1.09-.98,1.88,.2,.64,.79,1.05,1.43,1.05,.15,0,.3-.02,.45-.07,.24-.07,5.87-1.88,8.15-6.8Z" class="cls-1"/></g></g></g></g></svg>