<svg xmlns="http://www.w3.org/2000/svg" viewBox="0 0 260 260"><defs><style>.cls-1{fill:#fff}.cls-2{fill:#8cbf00}.cls-3{isolation:isolate}.cls-4{mix-blend-mode:multiply;opacity:.3}</style></defs><g class="cls-3"><g id="Layer_1" data-name="Layer 1"><g><circle cx="130" cy="130" r="130" class="cls-2"/><path d="M41.13,80.97c-.36,.61-.24,1.39,.29,1.87,3.08,2.8,3.06,5.65,3.03,9.59-.02,2.73-.04,5.81,1.08,9.27,1.09,3.34,2.75,5.56,4.41,7.06,.3,.34,.61,.64,.92,.93-2.42,.34-5.43,1.43-8.49,4.29-2.66,2.48-4.13,5.2-5.43,7.59-1.88,3.46-3.23,5.97-7.29,6.94-.68,.16-1.15,.83-1.15,1.53s.44,1.23,1.07,1.42c.14,.48,.51,.85,1,1,.14,.48,.51,.85,1,1,.14,.48,.51,.85,1,1,.14,.48,.51,.85,1,1,.14,.48,.51,.85,1,1,.14,.48,.51,.85,1,1,.14,.48,.51,.85,1,1,.13,.45,.46,.8,.91,.96,1.18,2.14,2.59,4.46,4.89,6.6,0,0,0,0,.02,.01,.31,.33,.63,.66,.98,.99,0,0,0,0,.02,.01,.31,.33,.63,.66,.98,.99,0,0,0,0,.02,.01,.31,.33,.63,.66,.98,.99,0,0,0,0,.02,.01,.31,.33,.63,.66,.98,.99,0,0,0,0,.02,.01,.31,.33,.63,.66,.98,.99,0,0,0,0,.02,.01,.31,.33,.63,.66,.98,.99,0,0,0,0,.02,.01,.31,.33,.63,.66,.98,.99,0,0,0,0,.02,.01,.18,.2,.38,.39,.57,.58-1.44,1.52-2.83,3.66-3.74,6.68-1.05,3.48-.95,6.57-.86,9.29,.12,3.94,.21,6.79-2.8,9.66-.51,.49-.58,1.32-.21,1.92,.2,.33,.51,.54,.86,.65,.04,.12,.07,.24,.14,.35,.2,.33,.51,.54,.86,.65,.04,.12,.07,.24,.14,.35,.2,.33,.51,.54,.86,.65,.04,.12,.07,.24,.14,.35,.2,.33,.51,.54,.86,.65,.04,.12,.07,.24,.14,.35,.2,.33,.51,.54,.86,.65,.04,.12,.07,.24,.14,.35,.2,.33,.51,.54,.86,.65,.04,.12,.07,.24,.14,.35,.2,.33,.51,.54,.86,.65,.04,.12,.07,.24,.14,.35,.2,.33,.51,.54,.86,.65,.04,.12,.07,.24,.14,.35,.2,.33,.51,.54,.86,.65,.04,.12,.07,.24,.14,.35,.2,.33,.51,.54,.86,.65,.04,.12,.07,.24,.14,.35,.2,.33,.51,.54,.86,.65,.04,.12,.07,.24,.14,.35,.2,.33,.51,.54,.86,.65,.04,.12,.07,.24,.14,.35,.2,.33,.51,.54,.86,.65,.04,.12,.07,.24,.14,.35,.2,.33,.51,.54,.86,.65,.04,.12,.07,.24,.14,.35,.2,.33,.51,.54,.86,.65,.04,.12,.07,.24,.14,.35,.2,.33,.51,.54,.86,.65,.04,.12,.07,.24,.14,.35,.2,.33,.51,.54,.86,.65,.04,.12,.07,.24,.14,.35,.2,.33,.51,.54,.86,.65,.04,.12,.07,.24,.14,.35,.2,.33,.51,.54,.86,.65,.04,.12,.07,.24,.14,.35,.2,.33,.51,.54,.86,.65,.04,.12,.07,.24,.14,.35,.2,.33,.51,.54,.86,.65,.04,.12,.07,.24,.14,.35,.2,.33,.51,.54,.86,.65,.04,.12,.07,.24,.14,.35,.2,.33,.51,.54,.86,.65,.04,.12,.07,.24,.14,.35,.2,.33,.51,.54,.86,.65,.04,.12,.07,.24,.14,.35,.2,.33,.51,.54,.86,.65,.04,.12,.07,.24,.14,.35,.2,.33,.51,.54,.86,.65,.04,.12,.07,.24,.14,.35,.2,.33,.51,.54,.86,.65,.04,.12,.07,.24,.14,.35,.2,.33,.51,.54,.86,.65,.04,.12,.07,.24,.14,.35,.2,.33,.51,.54,.86,.65,.04,.12,.07,.24,.14,.35,.2,.33,.51,.54,.86,.65,.04,.12,.07,.24,.14,.35,.2,.33,.51,.54,.86,.65,.04,.12,.07,.24,.14,.35,.2,.33,.51,.54,.86,.65,.04,.12,.07,.24,.14,.35,.2,.33,.51,.54,.86,.65,.04,.12,.07,.24,.14,.35,.2,.33,.51,.54,.86,.65,.04,.12,.07,.24,.14,.35,.2,.33,.51,.54,.86,.65,.04,.12,.07,.24,.14,.35,.2,.33,.51,.54,.86,.65,.04,.12,.07,.24,.14,.35,.2,.33,.51,.54,.86,.65,.04,.12,.07,.24,.14,.35,.2,.33,.51,.54,.86,.65,.04,.12,.07,.24,.14,.35,.2,.33,.51,.54,.86,.65,.04,.12,.07,.24,.14,.35,.2,.33,.51,.54,.86,.65,.04,.12,.07,.24,.14,.35,.2,.33,.51,.54,.86,.65,.04,.12,.07,.24,.14,.35,.2,.33,.51,.54,.86,.65,.04,.12,.07,.24,.14,.35,.2,.33,.51,.54,.86,.65,.04,.12,.07,.24,.14,.35,.2,.33,.51,.54,.86,.65,.04,.12,.07,.24,.14,.35,.2,.33,.51,.54,.86,.65,.04,.12,.07,.24,.14,.35,.2,.33,.51,.54,.86,.65,.04,.12,.07,.24,.14,.35,.2,.33,.51,.54,.86,.65,.04,.12,.07,.24,.14,.35,.2,.33,.51,.54,.86,.65,.04,.12,.07,.24,.14,.35,.2,.33,.51,.54,.86,.65,.04,.12,.07,.24,.14,.35,.2,.33,.51,.54,.86,.65,.04,.12,.07,.24,.14,.35,.2,.33,.51,.54,.86,.65,.04,.12,.07,.24,.14,.35,.2,.33,.51,.54,.86,.65,.04,.12,.07,.24,.14,.35,.2,.33,.51,.54,.86,.65,.04,.12,.07,.24,.14,.35,.2,.33,.51,.54,.86,.65,.04,.12,.07,.24,.14,.35,.2,.33,.51,.54,.86,.65,.04,.12,.07,.24,.14,.35,.2,.33,.51,.54,.86,.65,.04,.12,.07,.24,.14,.35,.2,.33,.51,.54,.86,.65,.04,.12,.07,.24,.14,.35,.2,.33,.51,.54,.86,.65,.04,.12,.07,.24,.14,.35,.2,.33,.51,.54,.86,.65,.04,.12,.07,.24,.14,.35,.2,.33,.51,.54,.86,.65,.04,.12,.07,.24,.14,.35,.2,.33,.51,.54,.86,.65,.04,.12,.07,.24,.14,.35,.2,.33,.51,.54,.86,.65,.04,.12,.07,.24,.14,.35,.2,.33,.51,.54,.86,.65,.04,.12,.07,.24,.14,.35,.2,.33,.51,.54,.86,.65,.04,.12,.07,.24,.14,.35,.2,.33,.51,.54,.86,.65,.04,.12,.07,.24,.14,.35,.2,.33,.51,.54,.86,.65,.04,.12,.07,.24,.14,.35,.2,.33,.51,.54,.86,.65,.04,.12,.07,.24,.14,.35,.2,.33,.51,.54,.86,.65,.04,.12,.07,.24,.14,.35,.2,.33,.51,.54,.86,.65,.04,.12,.07,.24,.14,.35,.2,.33,.51,.54,.86,.65,.04,.12,.07,.24,.14,.35,.2,.33,.51,.54,.86,.65,.04,.12,.07,.24,.14,.35,.2,.33,.51,.54,.86,.65,.04,.12,.07,.24,.14,.35,.2,.33,.51,.54,.86,.65,.04,.12,.07,.24,.14,.35,.2,.33,.51,.54,.86,.65,.04,.12,.07,.24,.14,.35,.2,.33,.51,.54,.86,.65,.04,.12,.07,.24,.14,.35,.2,.33,.51,.54,.86,.65,.04,.12,.07,.24,.14,.35,.2,.33,.51,.54,.86,.65,.04,.12,.07,.24,.14,.35,.2,.33,.51,.54,.86,.65,.04,.12,.07,.24,.14,.35,.14,.24,.36,.39,.59,.52,3,.21,6.02,.32,9.07,.32,71.8,0,130-58.2,130-130,0-3.07-.12-6.12-.33-9.14-.2-.34-.52-.56-.87-.67-.03-.11-.06-.21-.11-.31-.2-.35-.52-.58-.89-.69-.03-.11-.06-.21-.11-.31-.2-.35-.52-.58-.89-.69-.03-.11-.06-.21-.11-.31-.2-.35-.52-.58-.89-.69-.03-.11-.06-.21-.11-.31-.2-.35-.52-.58-.89-.69-.03-.11-.06-.21-.11-.31-.2-.35-.52-.58-.89-.69-.03-.11-.06-.21-.11-.31-.2-.35-.52-.58-.89-.69-.03-.11-.06-.21-.11-.31-.2-.35-.52-.58-.89-.69-.03-.11-.06-.21-.11-.31-.2-.35-.52-.58-.89-.69-.03-.11-.06-.21-.11-.31-.2-.35-.52-.58-.89-.69-.03-.11-.06-.21-.11-.31-.2-.35-.52-.58-.89-.69-.03-.11-.06-.21-.11-.31-.2-.35-.52-.58-.89-.69-.03-.11-.06-.21-.11-.31-.2-.35-.52-.58-.89-.69-.03-.11-.06-.21-.11-.31-.2-.35-.52-.58-.89-.69-.03-.11-.06-.21-.11-.31-.2-.35-.52-.58-.89-.69-.03-.11-.06-.21-.11-.31-.2-.35-.52-.58-.89-.69-.03-.11-.06-.21-.11-.31-.2-.35-.52-.58-.89-.69-.03-.11-.06-.21-.11-.31-.2-.35-.52-.58-.89-.69-.03-.11-.06-.21-.11-.31-.2-.35-.52-.58-.89-.69-.03-.11-.06-.21-.11-.31-.2-.35-.52-.58-.89-.69-.03-.11-.06-.21-.11-.31-.2-.35-.52-.58-.89-.69-.03-.11-.06-.21-.11-.31-.2-.35-.52-.58-.89-.69-.03-.11-.06-.21-.11-.31-.2-.35-.52-.58-.89-.69-.03-.11-.06-.21-.11-.31-.2-.35-.52-.58-.89-.69-.03-.11-.06-.21-.11-.31-.2-.35-.52-.58-.89-.69-.03-.11-.06-.21-.11-.31-.2-.35-.52-.58-.89-.69-.03-.11-.06-.21-.11-.31-.2-.35-.52-.58-.89-.69-.03-.11-.06-.21-.11-.31-.2-.35-.52-.58-.89-.69-.03-.11-.06-.21-.11-.31-.2-.35-.52-.58-.89-.69-.03-.11-.06-.21-.11-.31-.2-.35-.52-.58-.89-.69-.03-.11-.06-.21-.11-.31-.2-.35-.52-.58-.89-.69-.03-.11-.06-.21-.11-.31-.2-.35-.52-.58-.89-.69-.03-.11-.06-.21-.11-.31-.2-.35-.52-.58-.89-.69-.03-.11-.06-.21-.11-.31-.2-.35-.52-.58-.89-.69-.03-.11-.06-.21-.11-.31-.2-.35-.52-.58-.89-.69-.03-.11-.06-.21-.11-.31-.2-.35-.52-.58-.89-.69-.03-.11-.06-.21-.11-.31-.2-.35-.52-.58-.89-.69-.03-.11-.06-.21-.11-.31-.2-.35-.52-.58-.89-.69-.03-.11-.06-.21-.11-.31-.2-.35-.52-.58-.89-.69-.03-.11-.06-.21-.11-.31-.2-.35-.52-.58-.89-.69-.03-.11-.06-.21-.11-.31-.2-.35-.52-.58-.89-.69-.03-.11-.06-.21-.11-.31-.2-.35-.52-.58-.89-.69-.03-.11-.06-.21-.11-.31-.32-.58-.98-.86-1.62-.72-.02-.02-.04-.04-.06-.05-.09-.05-.18-.07-.27-.1-.13-.37-.38-.71-.73-.9-.09-.05-.18-.07-.27-.1-.13-.37-.38-.71-.73-.9-.09-.05-.18-.07-.27-.1-.13-.37-.38-.71-.73-.9-.09-.05-.18-.07-.27-.1-.13-.37-.38-.71-.73-.9-.09-.05-.18-.07-.27-.1-.13-.37-.38-.71-.73-.9-.09-.05-.18-.07-.27-.1-.13-.37-.38-.71-.73-.9-.09-.05-.18-.07-.27-.1-.13-.37-.38-.71-.73-.9-.09-.05-.18-.07-.27-.1-.13-.37-.38-.71-.73-.9-.09-.05-.18-.07-.27-.1-.13-.37-.38-.71-.73-.9-.09-.05-.18-.07-.27-.1-.13-.37-.38-.71-.73-.9-.09-.05-.18-.07-.27-.1-.13-.37-.38-.71-.73-.9-.09-.05-.18-.07-.27-.1-.13-.37-.38-.71-.73-.9-.09-.05-.18-.07-.27-.1-.13-.37-.38-.71-.73-.9-.09-.05-.18-.07-.27-.1-.13-.37-.38-.71-.73-.9-.09-.05-.18-.07-.27-.1-.13-.37-.38-.71-.73-.9-.09-.05-.18-.07-.27-.1-.13-.37-.38-.71-.73-.9-.09-.05-.18-.07-.27-.1-.13-.37-.38-.71-.73-.9-.09-.05-.18-.07-.27-.1-.13-.37-.38-.71-.73-.9-.09-.05-.18-.07-.27-.1-.13-.37-.38-.71-.73-.9-.09-.05-.18-.07-.27-.1-.13-.37-.38-.71-.73-.9-.09-.05-.18-.07-.27-.1-.13-.37-.38-.71-.73-.9-.09-.05-.18-.07-.27-.1-.13-.37-.38-.71-.73-.9-.09-.05-.18-.07-.27-.1-.13-.37-.38-.71-.73-.9-.09-.05-.18-.07-.27-.1-.13-.37-.38-.71-.73-.9-.09-.05-.18-.07-.27-.1-.13-.37-.38-.71-.73-.9-.09-.05-.18-.07-.27-.1-.13-.37-.38-.71-.73-.9-.09-.05-.18-.07-.27-.1-.13-.37-.38-.71-.73-.9-.09-.05-.18-.07-.27-.1-.13-.37-.38-.71-.73-.9-.09-.05-.18-.07-.27-.1-.13-.37-.38-.71-.73-.9-.09-.05-.18-.07-.27-.1-.13-.37-.38-.71-.73-.9-.09-.05-.18-.07-.27-.1-.13-.37-.38-.71-.73-.9-.09-.05-.18-.07-.27-.1-.13-.37-.38-.71-.73-.9-.09-.05-.18-.07-.27-.1-.13-.37-.38-.71-.73-.9-.09-.05-.18-.07-.27-.1-.13-.37-.38-.71-.73-.9-.09-.05-.18-.07-.27-.1-.13-.37-.38-.71-.73-.9-.09-.05-.18-.07-.27-.1-.13-.37-.38-.71-.73-.9-.09-.05-.18-.07-.27-.1-.13-.37-.38-.71-.73-.9-.61-.34-1.37-.21-1.84,.3-2.8,3.08-5.65,3.06-9.6,3.03-2.72-.02-5.81-.04-9.27,1.09-2.55,.83-4.45,2-5.88,3.24-.13-.13-.26-.26-.38-.38,0,0,0-.01-.02-.02-.32-.35-.65-.67-.98-.98,0,0,0-.01-.02-.02-.32-.35-.65-.67-.98-.98,0,0,0-.01-.02-.02-.32-.35-.65-.67-.98-.98,0,0,0-.01-.02-.02-.32-.35-.65-.67-.98-.98,0,0,0-.01-.02-.02-.32-.35-.65-.67-.98-.98,0,0,0-.01-.02-.02-.32-.35-.65-.67-.98-.98,0,0,0-.01-.02-.02-2.14-2.3-4.47-3.71-6.61-4.89-.17-.42-.52-.75-.95-.89-.14-.47-.53-.85-1-1-.14-.47-.53-.85-1-1-.14-.47-.53-.85-1-1-.14-.47-.53-.85-1-1-.14-.47-.53-.85-1-1-.14-.47-.53-.85-1-1-.14-.47-.53-.85-1-1-.19-.64-.83-1.08-1.5-1.08s-1.3,.48-1.46,1.15c-.97,4.05-3.47,5.41-6.94,7.29-2.4,1.3-5.11,2.77-7.59,5.43-3.84,4.12-4.51,8.15-4.42,10.75-.12-.12-.25-.23-.38-.35-.3-.34-.64-.67-1-1-.3-.34-.64-.67-1-1-1.54-1.72-3.89-3.47-7.47-4.55-3.48-1.05-6.56-.95-9.29-.86-3.94,.12-6.79,.21-9.66-2.8-.48-.5-1.29-.58-1.89-.23-.6,.35-.89,1.07-.69,1.73,1.2,3.99-.28,6.42-2.32,9.79-1.42,2.33-3.02,4.96-3.82,8.51-1.64,7.21,1.38,11.55,2.78,13.11-.21,.21-.42,.44-.63,.66-1.58-1.36-5.99-4.29-13.18-2.48-3.53,.89-6.12,2.55-8.42,4.03-3.32,2.13-5.71,3.66-9.73,2.55-.65-.18-1.39,.16-1.73,.75Z" class="cls-4"/><g><path d="M230.35,128.51c-4.05-.97-5.41-3.47-7.29-6.94-1.3-2.39-2.77-5.11-5.43-7.59-5.73-5.35-11.3-4.55-13.06-4.12,0,0,0,0,0-.01,1.73-.51,6.95-2.63,9.21-10.13,1.05-3.48,.95-6.57,.87-9.29-.12-3.94-.21-6.79,2.8-9.66,.49-.47,.57-1.28,.24-1.88-.34-.62-1.07-.91-1.75-.71-3.99,1.21-6.42-.27-9.79-2.32-2.33-1.42-4.96-3.02-8.51-3.83-7.55-1.71-11.95,1.68-13.31,2.97-.21-.21-.43-.4-.64-.61,1.25-1.38,4.55-5.86,2.66-13.38-.89-3.53-2.55-6.12-4.03-8.42-2.13-3.32-3.66-5.71-2.55-9.73,.18-.67-.17-1.41-.78-1.74-.61-.34-1.37-.21-1.84,.3-2.8,3.08-5.65,3.06-9.6,3.03-2.72-.02-5.81-.04-9.27,1.09-4.07,1.33-6.51,3.51-7.96,5.5-.31-2.44-1.39-5.53-4.31-8.66-2.48-2.66-5.2-4.13-7.59-5.42-3.47-1.88-5.97-3.23-6.94-7.29-.16-.68-.83-1.15-1.53-1.15s-1.3,.48-1.46,1.15c-.97,4.05-3.47,5.41-6.94,7.29-2.4,1.3-5.11,2.77-7.59,5.43-5.06,5.42-4.62,10.7-4.19,12.74-.01,0-.03,0-.04,.01-.66-1.98-2.94-6.76-10.04-8.9-3.48-1.05-6.56-.95-9.29-.86-3.94,.12-6.79,.21-9.66-2.8-.48-.5-1.29-.58-1.89-.23-.6,.35-.89,1.07-.69,1.73,1.2,3.99-.28,6.42-2.32,9.79-1.42,2.33-3.02,4.96-3.82,8.51-1.64,7.21,1.38,11.55,2.78,13.11-.21,.21-.42,.44-.63,.66-1.58-1.36-5.99-4.29-13.18-2.48-3.53,.89-6.12,2.55-8.42,4.03-3.32,2.13-5.71,3.66-9.73,2.55-.65-.18-1.39,.16-1.73,.75-.36,.61-.24,1.39,.29,1.87,3.08,2.8,3.06,5.65,3.03,9.59-.02,2.73-.04,5.81,1.08,9.27,1.33,4.07,3.51,6.51,5.5,7.96-2.45,.31-5.53,1.39-8.66,4.31-2.66,2.48-4.13,5.2-5.43,7.59-1.88,3.46-3.23,5.97-7.29,6.94-.68,.16-1.15,.83-1.15,1.53s.48,1.3,1.15,1.46c4.05,.97,5.41,3.47,7.29,6.94,1.3,2.4,2.77,5.11,5.43,7.59,3.9,3.64,7.73,4.43,10.34,4.43,1.02,0,1.84-.12,2.41-.24,0,.01,0,.02,.01,.04-1.98,.65-6.77,2.94-8.91,10.04-1.05,3.48-.95,6.57-.86,9.29,.12,3.94,.21,6.79-2.8,9.66-.51,.49-.58,1.32-.21,1.92,.36,.59,1.06,.86,1.72,.66,3.99-1.21,6.42,.27,9.79,2.32,2.33,1.42,4.96,3.02,8.51,3.83,1.47,.33,2.81,.47,4.05,.47,4.98,0,8.02-2.29,9.18-3.37,.21,.21,.43,.41,.65,.62-1.31,1.47-4.44,5.93-2.59,13.3,.89,3.53,2.55,6.12,4.03,8.42,2.13,3.32,3.67,5.71,2.55,9.73-.19,.68,.18,1.43,.81,1.76,.22,.12,.46,.17,.7,.17,.41,0,.82-.17,1.11-.49,2.81-3.08,5.65-3.06,9.6-3.03,2.73,.02,5.81,.04,9.27-1.08,4.07-1.33,6.51-3.51,7.96-5.5,.31,2.45,1.39,5.53,4.31,8.66,2.48,2.66,5.2,4.13,7.59,5.43,3.46,1.88,5.97,3.23,6.94,7.29,.16,.68,.83,1.15,1.53,1.15s1.3-.48,1.46-1.15c.97-4.05,3.47-5.41,6.94-7.29,2.39-1.3,5.11-2.77,7.59-5.43,5.35-5.73,4.55-11.31,4.12-13.06,0,0,0,0,.01,0,.51,1.73,2.62,6.95,10.13,9.21,3.48,1.05,6.57,.95,9.29,.87,3.94-.12,6.79-.21,9.66,2.8,.28,.29,.68,.44,1.09,.44,.28,0,.56-.07,.8-.21,.61-.35,.89-1.07,.69-1.74-1.21-3.99,.27-6.42,2.32-9.79,1.42-2.33,3.02-4.96,3.83-8.51,1.76-7.78-1.89-12.22-3.08-13.42,.21-.21,.4-.42,.6-.63,.97,.92,4.01,3.34,9.09,3.34,1.33,0,2.8-.17,4.41-.57,3.52-.89,6.12-2.55,8.42-4.03,3.32-2.13,5.72-3.66,9.73-2.55,.65,.18,1.38-.16,1.72-.74,.37-.61,.25-1.4-.28-1.88-3.08-2.8-3.06-5.65-3.03-9.59,.02-2.72,.04-5.81-1.09-9.27-1.33-4.07-3.5-6.5-5.49-7.95,2.44-.32,5.53-1.4,8.65-4.32,2.66-2.48,4.13-5.2,5.43-7.59,1.88-3.47,3.23-5.97,7.29-6.94,.68-.16,1.15-.83,1.15-1.53s-.48-1.3-1.15-1.46Zm-98.19,75.74l19.93-34.52h40.53c-12.82,20.15-35.05,33.73-60.46,34.52Zm-65.16-34.52h40.92l19.94,34.53c-25.57-.66-47.96-14.28-60.85-34.53Zm-11.61-39.83c0-12.85,3.27-24.95,9.03-35.5l21.07,36.49-20.5,35.5c-6.1-10.79-9.6-23.24-9.6-36.49ZM129.23,55.49c-.21,.13-.4,.31-.53,.54l-20.79,36h-42.14c12.88-21.71,36.48-36.33,63.46-36.54Zm64.6,36.54h-41.74l-20.79-36c-.13-.22-.31-.4-.52-.53,26.8,.35,50.22,14.93,63.04,36.53Zm-43.48,74.7h-40.71l-20.7-35.85,20.7-35.85h40.71l20.7,35.85-20.7,35.85Zm22.43-32.85l18.97,32.85h-37.93l18.97-32.85Zm-61.41,35.85h37.25l-18.62,32.26-18.62-32.26Zm-5.2-3h-37.93l18.96-32.85,18.96,32.85Zm-18.96-38.85l-18.96-32.85h37.93l-18.97,32.85Zm42.79-68.11l18.62,32.25h-37.24l18.62-32.25Zm23.82,35.25h37.93l-18.96,32.85-18.96-32.85Zm41,71.01l-20.3-35.17,20.86-36.13c5.64,10.47,8.84,22.44,8.84,35.15s-3.42,25.44-9.4,36.15Zm2.16-91.08c3.07,.7,5.38,2.1,7.61,3.46,2.63,1.6,5.16,3.14,8.42,3.2-1.56,2.87-1.46,5.82-1.37,8.9,.08,2.62,.17,5.32-.74,8.33-1.85,6.16-6,7.78-7.15,8.12-3.49-11.25-9.5-21.39-17.34-29.81,.9-.87,4.34-3.62,10.57-2.2Zm-37.75-26.57c2.99-.98,5.7-.96,8.31-.94,3.09,.03,6.04,.05,8.87-1.58,.13,3.26,1.73,5.75,3.39,8.34,1.41,2.2,2.88,4.48,3.64,7.53,1.55,6.15-1.08,9.65-1.93,10.6-8.56-7.7-18.84-13.5-30.18-16.79,.41-1.35,2.06-5.26,7.9-7.16Zm-43.06-3.97c2.15-2.3,4.53-3.59,6.83-4.83,2.71-1.47,5.31-2.88,7-5.66,1.69,2.79,4.29,4.2,7,5.66,2.3,1.25,4.68,2.54,6.83,4.83,4.18,4.49,3.76,8.68,3.46,10.07-5.62-1.3-11.47-2.01-17.48-2.01s-11.6,.68-17.11,1.93c-.3-1.49-.61-5.61,3.47-9.99Zm-41.22,18.61c.7-3.07,2.1-5.38,3.46-7.62,1.6-2.63,3.14-5.16,3.2-8.42,2.86,1.55,5.82,1.46,8.9,1.37,2.62-.08,5.32-.17,8.33,.74,5.71,1.72,7.52,5.4,8.02,6.85-11.29,3.51-21.47,9.55-29.9,17.44-1-1.14-3.33-4.54-2.01-10.36Zm-26.58,37.75c-.98-2.99-.96-5.7-.94-8.31,.03-3.08,.05-6.04-1.58-8.87,3.26-.13,5.75-1.73,8.34-3.4,2.2-1.41,4.48-2.87,7.53-3.64,5.78-1.45,9.22,.77,10.4,1.76-7.7,8.6-13.49,18.92-16.75,30.3-1.47-.48-5.17-2.22-7.01-7.85Zm-3.96,43.06c-2.3-2.15-3.59-4.53-4.84-6.83-1.47-2.71-2.88-5.31-5.66-7,2.79-1.69,4.2-4.29,5.66-7,1.25-2.3,2.54-4.68,4.84-6.83,4.32-4.04,8.38-3.78,9.92-3.48-1.26,5.54-1.95,11.29-1.95,17.2s.71,11.81,2,17.41c-1.5,.3-5.61,.6-9.97-3.48Zm18.61,41.22c-3.07-.7-5.38-2.1-7.61-3.46-2.63-1.6-5.16-3.14-8.42-3.2,1.56-2.87,1.46-5.82,1.37-8.9-.08-2.62-.17-5.32,.74-8.33,1.72-5.72,5.41-7.52,6.87-8.03,3.55,11.26,9.62,21.41,17.54,29.8-1.03,.95-4.44,3.48-10.47,2.12Zm37.75,26.57c-2.99,.98-5.69,.96-8.31,.94-3.08-.02-6.04-.04-8.87,1.58-.13-3.26-1.73-5.75-3.39-8.34-1.41-2.2-2.88-4.48-3.64-7.53-1.52-6.02,.96-9.49,1.88-10.53,8.6,7.64,18.9,13.4,30.27,16.62-.35,1.24-1.93,5.3-7.93,7.27Zm43.06,3.97c-2.14,2.3-4.52,3.59-6.83,4.83-2.71,1.47-5.31,2.88-7,5.66-1.69-2.79-4.29-4.2-7-5.66-2.3-1.25-4.68-2.53-6.83-4.83-4.31-4.62-3.72-8.93-3.43-10.2,5.49,1.24,11.2,1.92,17.06,1.92s11.82-.71,17.43-2c.29,1.16,.99,5.57-3.41,10.29Zm41.22-18.61c-.7,3.07-2.1,5.38-3.46,7.62-1.6,2.63-3.14,5.16-3.2,8.42-2.86-1.56-5.82-1.46-8.9-1.37-2.62,.08-5.32,.17-8.33-.74-6.18-1.86-7.79-6.02-8.12-7.17,11.22-3.54,21.33-9.57,29.71-17.44,.68,.66,3.79,4.14,2.31,10.68Zm26.57-37.75c.98,2.99,.96,5.7,.94,8.31-.02,3.08-.05,6.04,1.58,8.87-3.26,.13-5.75,1.73-8.34,3.39-2.2,1.41-4.48,2.88-7.53,3.64-6.48,1.63-10.01-1.36-10.72-2.05,7.64-8.56,13.4-18.82,16.66-30.13,1.04,.26,5.37,1.69,7.43,7.97Zm8.8-22.23c-1.25,2.3-2.54,4.68-4.83,6.83-4.83,4.51-9.33,3.66-10.35,3.39,1.28-5.58,1.98-11.37,1.98-17.33s-.68-11.61-1.93-17.12c1.13-.29,5.56-1.02,10.3,3.4,2.3,2.14,3.59,4.52,4.83,6.83,1.47,2.71,2.88,5.31,5.66,7-2.79,1.69-4.2,4.29-5.66,7Z" class="cls-1"/><path d="M108.82,107.98c-.83,0-1.5,.67-1.5,1.5s.67,1.5,1.5,1.5h7.52c.41,.86,2.3,5.35,.95,13.01-.59,3.38-2.35,6.04-4.05,8.62-2.59,3.94-5.28,8.01-3.77,14.29,1.44,6,6.71,10.19,13.76,10.95,.67,.07,1.37,.11,2.09,.11,5.45,0,12.08-2.18,16.65-8.17v7.02c0,.83,.67,1.5,1.5,1.5s1.5-.67,1.5-1.5v-45.82h8.14c.83,0,1.5-.67,1.5-1.5s-.67-1.5-1.5-1.5h-44.3Zm33.16,36.15c-.1,.11-.19,.22-.25,.36-4.16,8.64-12.39,10.99-18.18,10.37-5.75-.62-10.03-3.94-11.16-8.66-1.21-5.03,.91-8.23,3.36-11.95,1.87-2.83,3.79-5.76,4.5-9.75,1.17-6.63,.12-11.25-.68-13.53h22.42v33.15Z" class="cls-1"/></g></g></g></g></svg>