<svg xmlns="http://www.w3.org/2000/svg" viewBox="0 0 260 260"><defs><style>.cls-1{fill:#e60000}.cls-2{fill:#fff}.cls-3{isolation:isolate}.cls-4{mix-blend-mode:multiply;opacity:.2}</style></defs><g class="cls-3"><g id="Layer_1" data-name="Layer 1"><g><circle cx="130" cy="130" r="130" class="cls-1"/><path d="M66.53,172.01c.32,.33,.66,.67,1,1,.32,.33,.66,.67,1,1,.32,.33,.66,.67,1,1,.32,.33,.66,.67,1,1,.32,.33,.66,.67,1,1,.32,.33,.66,.67,1,1,.32,.33,.66,.67,1,1,.32,.33,.66,.67,1,1,.32,.33,.66,.67,1,1,.32,.33,.66,.67,1,1,.32,.33,.66,.67,1,1,.32,.33,.66,.67,1,1,.32,.33,.66,.67,1,1,.32,.33,.66,.67,1,1,.32,.33,.66,.67,1,1,.32,.33,.66,.67,1,1,.32,.33,.66,.67,1,1,.32,.33,.66,.67,1,1,.32,.33,.66,.67,1,1,.32,.33,.66,.67,1,1,.32,.33,.66,.67,1,1,.32,.33,.66,.67,1,1,.32,.33,.66,.67,1,1,.32,.33,.66,.67,1,1,.32,.33,.66,.67,1,1,.32,.33,.66,.67,1,1,.32,.33,.66,.67,1,1,.32,.33,.66,.67,1,1,.32,.33,.66,.67,1,1,.32,.33,.66,.67,1,1,.24,.25,.49,.5,.74,.75,.15,.16,.31,.31,.46,.46,.18,.18,.36,.36,.54,.54,.15,.16,.31,.31,.46,.46,.18,.18,.36,.36,.54,.54,.15,.16,.31,.31,.46,.46,.18,.18,.36,.36,.54,.54,.15,.16,.31,.31,.46,.46,.18,.18,.36,.36,.54,.54,.15,.16,.31,.31,.46,.46,.18,.18,.36,.36,.54,.54,.15,.16,.31,.31,.46,.46,.18,.18,.36,.36,.54,.54,.15,.16,.31,.31,.46,.46,.18,.18,.36,.36,.54,.54,.15,.16,.31,.31,.46,.46,.18,.18,.36,.36,.54,.54,.15,.16,.31,.31,.46,.46,.18,.18,.36,.36,.54,.54,.15,.16,.31,.31,.46,.46,.18,.18,.36,.36,.54,.54,.24,.24,.48,.48,.72,.71,.33,.34,.67,.68,1,1,.33,.34,.67,.68,1,1,.33,.34,.67,.68,1,1,.33,.34,.67,.68,1,1,.33,.34,.67,.68,1,1,.33,.34,.67,.68,1,1,.33,.34,.67,.68,1,1,.33,.34,.67,.68,1,1,.33,.34,.67,.68,1,1,.33,.34,.67,.68,1,1,.33,.34,.67,.68,1,1,.33,.34,.67,.68,1,1,.33,.34,.67,.68,1,1,.33,.34,.67,.68,1,1,.33,.34,.67,.68,1,1,.33,.34,.67,.68,1,1,.33,.34,.67,.68,1,1,.33,.34,.67,.68,1,1,.33,.34,.67,.68,1,1,.33,.34,.67,.68,1,1,.33,.34,.67,.68,1,1,.33,.34,.67,.68,1,1,.33,.34,.67,.68,1,1,.33,.34,.67,.68,1,1,.33,.34,.67,.68,1,1,.33,.34,.67,.68,1,1,.33,.34,.67,.68,1,1,.33,.34,.67,.68,1,1,.33,.34,.67,.68,1,1,.33,.34,.67,.68,1,1,.33,.34,.67,.68,1,1,.33,.34,.67,.68,1,1,.33,.34,.67,.68,1,1,.33,.34,.67,.68,1,1,.33,.34,.67,.68,1,1,.33,.34,.67,.68,1,1,.33,.34,.67,.68,1,1,.33,.34,.67,.68,1,1,.33,.34,.67,.68,1,1,2.07,2.14,4.22,3.91,6.38,5.43,53.06-9.63,94.9-51.47,104.53-104.53-1.53-2.16-3.29-4.31-5.43-6.38-.32-.34-.66-.67-1-1-.32-.34-.66-.67-1-1-.32-.34-.66-.67-1-1-.32-.34-.66-.67-1-1-.32-.34-.66-.67-1-1-.32-.34-.66-.67-1-1-.32-.34-.66-.67-1-1-.32-.34-.66-.67-1-1-.32-.34-.66-.67-1-1-.32-.34-.66-.67-1-1-.32-.34-.66-.67-1-1-.32-.34-.66-.67-1-1-.32-.34-.66-.67-1-1-.32-.34-.66-.67-1-1-.32-.34-.66-.67-1-1-.32-.34-.66-.67-1-1-.32-.34-.66-.67-1-1-.32-.34-.66-.67-1-1-.32-.34-.66-.67-1-1-.32-.34-.66-.67-1-1-.32-.34-.66-.67-1-1-.32-.34-.66-.67-1-1-.32-.34-.66-.67-1-1-.32-.34-.66-.67-1-1-.32-.34-.66-.67-1-1-.32-.34-.66-.67-1-1-.32-.34-.66-.67-1-1-.32-.34-.66-.67-1-1-.32-.34-.66-.67-1-1-.32-.34-.66-.67-1-1-.32-.34-.66-.67-1-1-.32-.34-.66-.67-1-1-.32-.34-.66-.67-1-1-.32-.34-.66-.67-1-1-.32-.34-.66-.67-1-1-.32-.34-.66-.67-1-1-.32-.34-.66-.67-1-1-.32-.34-.66-.67-1-1-.32-.34-.66-.67-1-1-.24-.25-.49-.5-.75-.75-.15-.16-.31-.31-.46-.46-.18-.18-.36-.36-.54-.54-.15-.16-.31-.31-.46-.46-.18-.18-.36-.36-.54-.54-.15-.16-.31-.31-.46-.46-.18-.18-.36-.36-.54-.54-.15-.16-.31-.31-.46-.46-.18-.18-.36-.36-.54-.54-.15-.16-.31-.31-.46-.46-.18-.18-.36-.36-.54-.54-.15-.16-.31-.31-.46-.46-.18-.18-.36-.36-.54-.54-.15-.16-.31-.31-.46-.46-.18-.18-.36-.36-.54-.54-.15-.16-.31-.31-.46-.46-.18-.18-.36-.36-.54-.54-.15-.16-.31-.31-.46-.46-.18-.18-.36-.36-.54-.54-.15-.16-.31-.31-.46-.46-.18-.18-.36-.36-.54-.54-.24-.24-.48-.48-.72-.71-.33-.34-.66-.68-1-1-.33-.34-.66-.68-1-1-.33-.34-.66-.68-1-1-.33-.34-.66-.68-1-1-.33-.34-.66-.68-1-1-.33-.34-.66-.68-1-1-.33-.34-.66-.68-1-1-.33-.34-.66-.68-1-1-.33-.34-.66-.68-1-1-.33-.34-.66-.68-1-1-.33-.34-.66-.68-1-1-.33-.34-.66-.68-1-1-.33-.34-.66-.68-1-1-.33-.34-.66-.68-1-1-.33-.34-.66-.68-1-1-.33-.34-.66-.68-1-1-.33-.34-.66-.68-1-1-.33-.34-.66-.68-1-1-.33-.34-.66-.68-1-1-.33-.34-.66-.68-1-1-.33-.34-.66-.68-1-1-.33-.34-.66-.68-1-1-.33-.34-.66-.68-1-1-.33-.34-.66-.68-1-1-.33-.34-.66-.68-1-1-.33-.34-.66-.68-1-1-.33-.34-.66-.68-1-1-.33-.34-.66-.68-1-1-.33-.34-.66-.68-1-1-.33-.34-.66-.68-1-1-.33-.34-.66-.68-1-1-.33-.34-.66-.68-1-1-.33-.34-.66-.68-1-1-.33-.34-.66-.68-1-1-.33-.34-.66-.68-1-1-.33-.34-.66-.68-1-1-.33-.34-.66-.68-1-1-.33-.34-.66-.68-1-1-.33-.34-.66-.68-1-1-4.1-4.23-8.52-7.02-12.67-9.34-.19-.3-.49-.52-.84-.62-.15-.49-.52-.86-1-1-.15-.49-.52-.86-1-1-.15-.49-.52-.86-1-1-.15-.49-.52-.86-1-1-.15-.49-.52-.86-1-1-.15-.49-.52-.86-1-1-.15-.49-.52-.86-1-1-.15-.49-.52-.86-1-1-.15-.49-.52-.86-1-1-.15-.49-.52-.86-1-1-.15-.49-.52-.86-1-1-.15-.49-.52-.86-1-1-.15-.49-.52-.86-1-1-.15-.49-.52-.86-1-1-.15-.49-.52-.86-1-1-.15-.49-.52-.86-1-1-.15-.49-.52-.86-1-1-.15-.49-.52-.86-1-1-.19-.63-.76-1.07-1.42-1.07h-.15c-.7,0-1.3,.48-1.46,1.15-2.28,9.58-8.31,12.84-15.95,16.98-5.09,2.75-10.86,5.88-16.05,11.44-13.01,13.95-8.44,27.26-8.24,27.82,.04,.11,.1,.22,.16,.31-.75,.71-1.48,1.44-2.19,2.19-.1-.06-.2-.12-.31-.16-.56-.2-13.87-4.78-27.82,8.24-5.57,5.19-8.69,10.96-11.44,16.05-4.13,7.64-7.4,13.67-16.98,15.95-.68,.16-1.15,.76-1.15,1.46v.15c0,.67,.44,1.24,1.07,1.42,.14,.48,.51,.85,1,1,.14,.48,.51,.85,1,1,.14,.48,.51,.85,1,1,.14,.48,.51,.85,1,1,.14,.48,.51,.85,1,1,.14,.48,.51,.85,1,1,.14,.48,.51,.85,1,1,.14,.48,.51,.85,1,1,.14,.48,.51,.85,1,1,.14,.48,.51,.85,1,1,.14,.48,.51,.85,1,1,.14,.48,.51,.85,1,1,.14,.48,.51,.85,1,1,.14,.48,.51,.85,1,1,.14,.48,.51,.85,1,1,.14,.48,.51,.85,1,1,.14,.48,.51,.85,1,1,.14,.48,.51,.85,1,1,.1,.34,.32,.64,.62,.84,2.32,4.15,5.1,8.57,9.34,12.67,.32,.33,.66,.67,1,1,.32,.33,.66,.67,1,1,.32,.33,.66,.67,1,1,.32,.33,.66,.67,1,1,.32,.33,.66,.67,1,1,.32,.33,.66,.67,1,1,.32,.33,.66,.67,1,1,.32,.33,.66,.67,1,1,.32,.33,.66,.67,1,1Z" class="cls-4"/><g><path d="M129.92,231.5h.15c.69,0,1.3-.48,1.46-1.15,2.28-9.58,8.31-12.84,15.95-16.98,5.09-2.75,10.86-5.88,16.05-11.44,13.01-13.95,8.44-27.26,8.24-27.82-.04-.11-.1-.22-.16-.31,.75-.71,1.48-1.44,2.19-2.19,.1,.06,.2,.12,.31,.16,.23,.08,2.72,.94,6.56,.94,5.3,0,13.17-1.63,21.26-9.18,5.56-5.19,8.69-10.96,11.44-16.05,4.13-7.64,7.4-13.67,16.98-15.95,.68-.16,1.15-.76,1.15-1.46v-.15c0-.69-.48-1.3-1.15-1.46-9.58-2.28-12.84-8.31-16.98-15.95-2.76-5.09-5.88-10.86-11.44-16.05-13.95-13.01-27.26-8.44-27.82-8.24-.11,.04-.21,.1-.31,.16-.71-.75-1.45-1.48-2.2-2.2,.06-.1,.13-.19,.17-.3,.2-.56,4.77-13.87-8.24-27.82-5.19-5.57-10.96-8.69-16.05-11.45-7.64-4.13-13.67-7.4-15.95-16.98-.16-.68-.77-1.15-1.46-1.15h-.15c-.7,0-1.3,.48-1.46,1.15-2.28,9.58-8.31,12.84-15.95,16.98-5.09,2.75-10.86,5.88-16.05,11.44-13.01,13.95-8.44,27.26-8.24,27.82,.04,.11,.1,.22,.16,.31-.75,.71-1.48,1.44-2.19,2.19-.1-.06-.2-.12-.31-.16-.56-.2-13.87-4.78-27.82,8.24-5.57,5.19-8.69,10.96-11.44,16.05-4.13,7.64-7.4,13.67-16.98,15.95-.68,.16-1.15,.76-1.15,1.46v.15c0,.69,.48,1.3,1.15,1.46,9.58,2.28,12.84,8.32,16.98,15.95,2.75,5.09,5.88,10.86,11.44,16.05,8.09,7.55,15.96,9.18,21.26,9.18,3.84,0,6.32-.86,6.56-.94,.11-.04,.21-.1,.31-.16,.71,.75,1.44,1.48,2.19,2.19-.06,.1-.12,.2-.16,.31-.2,.56-4.78,13.87,8.24,27.82,5.19,5.57,10.96,8.69,16.05,11.44,7.64,4.13,13.67,7.4,15.95,16.98,.16,.68,.76,1.15,1.46,1.15ZM90.64,90.64h78.71v78.71H90.64V90.64Zm.58-3c10.23-9.37,23.84-15.1,38.78-15.1s28.55,5.73,38.78,15.1H91.22Zm77.55,84.71c-10.23,9.37-23.85,15.1-38.78,15.1s-28.55-5.73-38.78-15.1h77.55Zm31.1-73.69c5.21,4.86,8.08,10.16,10.85,15.28,3.54,6.54,6.92,12.78,14.66,16.06-7.74,3.28-11.12,9.51-14.66,16.06-2.78,5.12-5.64,10.42-10.85,15.28-10.78,10.06-20.94,8.58-23.9,7.85,9.02-10.56,14.48-24.25,14.48-39.19s-5.46-28.62-14.47-39.18c2.97-.7,13.21-2.12,23.89,7.84Zm-12.42,31.34c0,14.93-5.73,28.55-15.1,38.78V91.22c9.37,10.23,15.1,23.84,15.1,38.78ZM98.66,60.12c4.86-5.21,10.16-8.08,15.28-10.85,6.54-3.54,12.77-6.92,16.05-14.66,3.28,7.74,9.51,11.12,16.06,14.66,5.12,2.78,10.42,5.64,15.28,10.85,10.05,10.78,8.58,20.93,7.85,23.9-10.56-9.01-24.25-14.48-39.19-14.48s-28.63,5.46-39.19,14.48c-.73-2.97-2.21-13.12,7.85-23.9Zm-38.54,101.22c-5.21-4.86-8.08-10.16-10.85-15.28-3.54-6.54-6.92-12.77-14.66-16.06,7.74-3.28,11.12-9.51,14.66-16.06,2.78-5.12,5.64-10.42,10.85-15.28,10.78-10.05,20.93-8.58,23.9-7.85-9.02,10.56-14.48,24.25-14.48,39.19s5.46,28.63,14.48,39.19c-2.97,.73-13.12,2.21-23.9-7.85Zm12.42-31.34c0-14.93,5.73-28.55,15.1-38.78v77.55c-9.37-10.23-15.1-23.84-15.1-38.78Zm41.4,80.73c-5.12-2.77-10.43-5.64-15.28-10.85-10.06-10.78-8.58-20.94-7.85-23.9,10.56,9.02,24.25,14.48,39.19,14.48s28.62-5.46,39.18-14.47c.7,2.97,2.12,13.21-7.85,23.89-4.86,5.21-10.16,8.08-15.28,10.85-6.54,3.54-12.78,6.92-16.06,14.66-3.28-7.74-9.51-11.12-16.05-14.66Z" class="cls-2"/><path d="M154.23,124.86c-2.1-1.18-4.29-1.73-6.54-1.68v-14.73h12.29c.83,0,1.5-.67,1.5-1.5s-.67-1.5-1.5-1.5h-60.37c-.83,0-1.5,.67-1.5,1.5s.67,1.5,1.5,1.5h45.09v15.16c-.15,.04-.3,.07-.45,.11-5.03,1.47-9.5,5.65-12.81,9.67-1.84-3.43-5.99-8.21-11.2-10.41-4.3-1.81-8.48-1.42-12.08,1.13-4.83,3.42-7.08,8.28-6.5,14.06,1.09,10.82,12.28,23.25,19.29,26.35,.2,.09,.4,.13,.61,.13,.58,0,1.12-.33,1.37-.89,.34-.76,0-1.64-.77-1.98-5.43-2.4-16.48-13.58-17.52-23.9-.47-4.71,1.29-8.51,5.25-11.31,2.75-1.95,5.84-2.23,9.19-.82,5.29,2.23,9.57,8.02,10.3,10.3-2.36,3.23-3.79,5.87-3.92,6.13-.39,.73-.12,1.64,.61,2.03,.73,.39,1.64,.12,2.03-.62,.08-.14,7.73-14.29,16.99-16.99,2.72-.79,5.23-.5,7.69,.88,4.06,2.28,6.18,5.56,6.14,9.48-.07,7.02-6.98,15.42-17.19,20.9-.73,.39-1.01,1.3-.61,2.03,.27,.5,.79,.79,1.32,.79,.24,0,.48-.06,.71-.18,11.32-6.07,18.69-15.3,18.77-23.51,.04-3.54-1.27-8.52-7.67-12.12Z" class="cls-2"/><path d="M145.99,102.26c.83,0,1.5-.67,1.5-1.5v-3.9c0-.83-.67-1.5-1.5-1.5s-1.5,.67-1.5,1.5v3.9c0,.83,.67,1.5,1.5,1.5Z" class="cls-2"/></g></g></g></g></svg>