<?xml version="1.0" encoding="UTF-8"?>
<svg xmlns="http://www.w3.org/2000/svg" viewBox="0 0 260 260">
  <defs>
    <style>
      .cls-1 {
        fill: #fff;
      }

      .cls-2 {
        fill: #ffd800;
      }

      .cls-3 {
        mix-blend-mode: multiply;
        opacity: .1;
      }

      .cls-4 {
        isolation: isolate;
      }
    </style>
  </defs>
  <g class="cls-4">
    <g id="Layer_1" data-name="Layer 1">
      <g>
        <circle class="cls-2" cx="130" cy="130" r="130" transform="translate(-53.85 130) rotate(-45)"/>
        <path class="cls-3" d="M47.74,196.72c.2,.27,.47,.45,.77,.55,.05,.16,.13,.32,.23,.45,.2,.27,.47,.45,.77,.55,.05,.16,.13,.32,.23,.45,.2,.27,.47,.45,.77,.55,.05,.16,.13,.32,.23,.45,.2,.27,.47,.45,.77,.55,.05,.16,.13,.32,.23,.45,.2,.27,.47,.45,.77,.55,.05,.16,.13,.32,.23,.45,.2,.27,.47,.45,.77,.55,.05,.16,.13,.32,.23,.45,.2,.27,.47,.45,.77,.55,.05,.16,.13,.32,.23,.45,.2,.27,.47,.45,.77,.55,.05,.16,.13,.32,.23,.45,.2,.27,.47,.45,.77,.55,.05,.16,.13,.32,.23,.45,.2,.27,.47,.45,.77,.55,.05,.16,.13,.32,.23,.45,.2,.27,.47,.45,.77,.55,.05,.16,.13,.32,.23,.45,.2,.27,.47,.45,.77,.55,.05,.16,.13,.32,.23,.45,.2,.27,.47,.45,.77,.55,.05,.16,.13,.32,.23,.45,.2,.27,.47,.45,.77,.55,.05,.16,.13,.32,.23,.45,.2,.27,.47,.45,.77,.55,.05,.16,.13,.32,.23,.45,.2,.27,.47,.45,.77,.55,.05,.16,.13,.31,.23,.45,.2,.27,.47,.45,.77,.55,.05,.16,.13,.31,.23,.45,.2,.27,.47,.45,.77,.55,.05,.16,.13,.31,.23,.45,.2,.27,.47,.45,.77,.55,.05,.16,.13,.31,.23,.45,.2,.27,.47,.45,.77,.55,.05,.16,.13,.31,.23,.45,.2,.27,.47,.45,.77,.55,.05,.16,.13,.31,.23,.45,.2,.27,.47,.45,.77,.55,.05,.16,.13,.31,.23,.45,.2,.27,.47,.45,.77,.55,.05,.16,.13,.31,.23,.45,.2,.27,.47,.45,.77,.55,.05,.16,.13,.31,.23,.45,.2,.27,.47,.45,.77,.55,.05,.16,.13,.31,.23,.45,.2,.27,.47,.45,.77,.55,.05,.16,.13,.31,.23,.45,.2,.27,.47,.45,.77,.55,.05,.16,.13,.31,.23,.45,.2,.27,.47,.45,.77,.55,.05,.16,.13,.31,.23,.45,.2,.27,.47,.45,.77,.55,.05,.16,.13,.31,.23,.45,.2,.27,.47,.45,.77,.55,.05,.16,.13,.31,.23,.45,.2,.27,.47,.45,.77,.55,.05,.16,.13,.31,.23,.45,.2,.27,.47,.45,.77,.55,.05,.16,.13,.31,.23,.45,.2,.27,.47,.45,.77,.55,.05,.16,.13,.31,.23,.45,.2,.27,.47,.45,.77,.55,.05,.16,.13,.31,.23,.45,.2,.27,.47,.45,.77,.55,.05,.16,.13,.31,.23,.45,.2,.27,.47,.45,.77,.55,.05,.16,.13,.31,.23,.45,.2,.27,.47,.45,.77,.55,.05,.16,.13,.31,.23,.45,.2,.27,.47,.45,.77,.55,.05,.16,.13,.31,.23,.45,.2,.27,.47,.45,.77,.55,.05,.16,.13,.31,.23,.45,.2,.27,.47,.45,.77,.55,.05,.16,.13,.31,.23,.45,.2,.27,.47,.45,.77,.55,.05,.16,.13,.31,.23,.45,.2,.27,.47,.45,.77,.55,.05,.16,.13,.31,.23,.45,.2,.27,.47,.45,.77,.55,.05,.16,.13,.31,.23,.45,.2,.27,.47,.45,.77,.55,.05,.16,.13,.31,.23,.45,.2,.27,.47,.45,.77,.55,.05,.16,.13,.31,.23,.45,.2,.27,.47,.45,.77,.55,.05,.16,.13,.31,.23,.45,.2,.27,.47,.45,.77,.55,.05,.16,.13,.31,.23,.45,.2,.27,.47,.45,.77,.55,.05,.16,.13,.31,.23,.45,.2,.27,.47,.45,.77,.55,.05,.16,.13,.31,.23,.45,.2,.27,.47,.45,.77,.55,.05,.16,.13,.31,.23,.45,.2,.27,.47,.45,.77,.55,.05,.16,.13,.31,.23,.45,.2,.27,.47,.45,.77,.55,.05,.16,.13,.31,.23,.45,.2,.27,.47,.45,.77,.55,.05,.16,.13,.31,.23,.45,.2,.27,.47,.45,.77,.55,.05,.16,.13,.31,.23,.45,.2,.27,.47,.45,.77,.55,.05,.16,.13,.31,.23,.45,.2,.27,.47,.45,.77,.55,.05,.16,.13,.31,.23,.45,.2,.27,.47,.45,.77,.55,.05,.16,.13,.31,.23,.45,.2,.27,.47,.45,.77,.55,.05,.16,.13,.31,.23,.45,.2,.27,.47,.45,.77,.55,.05,.16,.13,.31,.23,.45,.2,.27,.47,.45,.77,.55,.05,.16,.13,.31,.23,.45,.2,.27,.47,.45,.77,.55,.05,.16,.13,.31,.23,.45,.2,.27,.47,.45,.77,.55,.02,.05,.05,.09,.07,.14,6.65,1.05,13.47,1.6,20.41,1.6,71.8,0,130-58.2,130-130,0-6.97-.56-13.8-1.62-20.48-.04-.08-.06-.16-.11-.23-.2-.28-.48-.46-.78-.56-.05-.16-.12-.31-.22-.44-.2-.28-.48-.46-.78-.56-.05-.16-.12-.31-.22-.44-.2-.28-.48-.46-.78-.56-.05-.16-.12-.31-.22-.44-.2-.28-.48-.46-.78-.56-.05-.16-.12-.31-.22-.44-.2-.28-.48-.46-.78-.56-.05-.16-.12-.31-.22-.44-.2-.28-.48-.46-.78-.56-.05-.16-.12-.31-.22-.44-.2-.28-.48-.46-.78-.56-.05-.16-.12-.31-.22-.44-.2-.28-.48-.46-.78-.56-.05-.16-.12-.31-.22-.44-.2-.28-.48-.46-.78-.56-.05-.16-.12-.31-.22-.44-.2-.28-.48-.46-.78-.56-.05-.16-.12-.31-.22-.44-.2-.28-.48-.46-.78-.56-.05-.16-.12-.31-.22-.44-.2-.28-.48-.46-.78-.56-.05-.16-.12-.31-.22-.44-.2-.28-.48-.46-.78-.56-.05-.16-.12-.31-.22-.44-.2-.28-.48-.46-.78-.56-.05-.16-.12-.31-.22-.44-.2-.28-.48-.46-.78-.56-.05-.16-.12-.31-.22-.44-.2-.28-.48-.46-.78-.56-.05-.16-.12-.31-.22-.44-.2-.28-.48-.46-.78-.56-.05-.16-.12-.31-.22-.44-.2-.28-.48-.46-.78-.56-.05-.16-.12-.31-.22-.44-.2-.28-.48-.46-.78-.56-.05-.16-.12-.31-.22-.44-.2-.28-.48-.46-.78-.56-.05-.16-.12-.31-.22-.44-.2-.28-.48-.46-.78-.56-.05-.16-.12-.31-.22-.44-.2-.28-.48-.46-.78-.56-.05-.16-.12-.31-.22-.44-.2-.28-.48-.46-.78-.56-.05-.16-.12-.31-.22-.44-.2-.28-.48-.46-.78-.56-.05-.16-.12-.31-.22-.44-.2-.28-.48-.46-.78-.56-.05-.16-.12-.31-.22-.44-.2-.28-.48-.46-.78-.56-.05-.16-.12-.31-.22-.44-.2-.28-.48-.46-.78-.56-.05-.16-.12-.31-.22-.44-.2-.28-.48-.46-.78-.56-.05-.16-.12-.31-.22-.44-.2-.28-.48-.46-.78-.56-.05-.16-.12-.31-.22-.44-.2-.28-.48-.46-.78-.56-.05-.16-.12-.31-.22-.44-.2-.28-.48-.46-.78-.56-.05-.16-.12-.31-.22-.44-.2-.28-.48-.46-.78-.56-.05-.16-.12-.31-.22-.44-.2-.28-.48-.46-.78-.56-.05-.16-.12-.31-.22-.44-.2-.28-.48-.46-.78-.56-.05-.16-.12-.31-.22-.44-.2-.28-.48-.46-.78-.56-.05-.16-.12-.31-.22-.44-.2-.28-.48-.46-.78-.56-.05-.16-.12-.31-.22-.44-.2-.28-.48-.46-.78-.56-.05-.16-.12-.31-.22-.44-.2-.28-.48-.46-.78-.56-.05-.16-.12-.31-.22-.44-.2-.28-.48-.46-.78-.56-.05-.16-.12-.31-.22-.44-.2-.28-.48-.46-.78-.56-.05-.16-.12-.31-.22-.44-.2-.28-.48-.46-.78-.56-.05-.16-.12-.31-.22-.44-.2-.28-.48-.46-.78-.56-.05-.16-.12-.31-.22-.44-.41-.57-1.15-.78-1.8-.51-4.6,1.91-7.81,.38-11.86-1.56-1.5-.72-3.11-1.48-4.91-2.13-.19-.23-.43-.42-.71-.51,0,0,0,0,0,0-.16-.45-.53-.84-.99-1,0,0,0,0,0,0-.16-.45-.53-.84-.99-1,0,0,0,0,0,0-.16-.45-.53-.84-.99-1,0,0,0,0,0,0-.16-.45-.53-.84-.99-1,0,0,0,0,0,0-.16-.45-.53-.84-.99-1,0,0,0,0,0,0-.16-.45-.53-.84-.99-1,0,0,0,0,0,0-.16-.45-.53-.84-.99-1,0,0,0,0,0,0-.16-.45-.53-.84-.99-1,0,0,0,0,0,0-.16-.45-.53-.84-.99-1,0,0,0,0,0,0-.16-.45-.53-.84-.99-1,0,0,0,0,0,0-.16-.45-.53-.84-.99-1,0,0,0,0,0,0-.16-.45-.53-.84-.99-1,0,0,0,0,0,0-.16-.45-.53-.84-.99-1,0,0,0,0,0,0-.16-.45-.53-.84-.99-1,0,0,0,0,0,0-.16-.45-.53-.84-.99-1,0,0,0,0,0,0-.16-.45-.53-.84-.99-1,0,0,0,0,0,0-.16-.45-.53-.84-.99-1,0,0,0,0,0,0-.16-.45-.53-.84-.99-1,0,0,0,0,0,0-.16-.45-.53-.84-.99-1,0,0,0,0,0,0-.16-.45-.53-.84-.99-1,0,0,0,0,0,0-.16-.45-.53-.84-.99-1,0,0,0,0,0,0-.16-.45-.53-.84-.99-1,0,0,0,0,0,0-.16-.45-.53-.84-.99-1,0,0,0,0,0,0-.16-.45-.53-.84-.99-1,0,0,0,0,0,0-.16-.45-.53-.84-.99-1,0,0,0,0,0,0-.16-.45-.53-.84-.99-1,0,0,0,0,0,0-.16-.45-.53-.84-.99-1,0,0,0,0,0,0-.16-.45-.53-.84-.99-1,0,0,0,0,0,0-.16-.45-.53-.84-.99-1,0,0,0,0,0,0-.16-.45-.53-.84-.99-1,0,0,0,0,0,0-.16-.45-.53-.84-.99-1,0,0,0,0,0,0-.16-.45-.53-.84-.99-1,0,0,0,0,0,0-.16-.45-.53-.84-.99-1,0,0,0,0,0,0-.16-.45-.53-.84-.99-1-.66-.23-1.4,.03-1.77,.63-2.6,4.25-6.09,4.9-10.52,5.71-3.11,.57-6.64,1.22-10.32,3.26-7.65,4.23-8.94,10.34-9.15,12.6-.24,0-.47-.02-.71-.02-.01,0-.02-.02-.03-.03-.31-.33-.64-.67-1-1-.31-.33-.64-.67-1-1-.31-.33-.64-.67-1-1-.31-.33-.64-.67-1-1-.31-.33-.64-.67-1-1-.31-.33-.64-.67-1-1-.31-.33-.64-.67-1-1-.31-.33-.64-.67-1-1-1.36-1.48-3.18-2.94-5.62-4.2-3.74-1.93-7.29-2.47-10.42-2.95-2.9-.44-5.41-.83-7.55-2.21-.04-.06-.08-.12-.13-.18-.16-.24-.39-.4-.65-.51-.12-.16-.23-.32-.35-.49-.16-.24-.39-.4-.65-.51-.12-.16-.23-.32-.35-.49-.16-.24-.39-.4-.65-.51-.12-.16-.23-.32-.35-.49-.39-.59-1.21-.81-1.87-.55-.64,.25-1.03,.89-.95,1.57,.55,4.95-1.82,7.6-4.82,10.95-2.11,2.36-4.5,5.03-6.16,8.9-3.69,8.58-.34,14.41,.71,15.91-.33,.25-.65,.51-.97,.77-.06-.06-.13-.12-.2-.18-1.39-1.58-6.11-5.94-15.01-4.69-4.17,.58-7.38,2.19-10.21,3.6-4.02,2.01-7.2,3.6-11.83,1.76-.65-.26-1.43,.03-1.83,.6-.4,.57-.35,1.34,.11,1.86,3.31,3.73,2.9,7.26,2.38,11.72-.36,3.14-.77,6.71,.1,10.82,1.04,4.88,3.26,7.96,5.37,9.87,.33,.36,.67,.7,1,1,.33,.36,.67,.7,1,1,.33,.36,.67,.7,1,1,.16,.18,.32,.34,.49,.5-2.37-.49-8.39-.94-14.6,4.85-3.08,2.87-4.78,6.02-6.29,8.81-2.14,3.95-3.83,7.08-8.68,8.23-.68,.16-1.15,.85-1.15,1.54s.44,1.24,1.07,1.42c.14,.48,.51,.85,1,1,.14,.48,.51,.85,1,1,.14,.48,.51,.85,1,1,.14,.48,.51,.85,1,1,.14,.48,.51,.85,1,1,.14,.48,.51,.85,1,1,.14,.48,.51,.85,1,1,.14,.48,.51,.85,1,1,.14,.48,.51,.85,1,1,.1,.35,.32,.65,.63,.84,1.3,2.33,2.87,4.81,5.31,7.12,.31,.34,.65,.67,1,1,.31,.34,.65,.67,1,1,.31,.34,.65,.67,1,1,.31,.34,.65,.67,1,1,.31,.34,.65,.67,1,1,.31,.34,.65,.67,1,1,.31,.34,.65,.67,1,1,.31,.34,.65,.67,1,1,.31,.34,.65,.67,1,1,.31,.34,.65,.67,1,1,.25,.26,.51,.52,.78,.78-1.77,1.96-3.46,4.83-4.28,9-.8,4.13-.33,7.69,.09,10.83,.59,4.46,1.06,7.98-2.19,11.76-.45,.53-.44,1.36-.03,1.92,.2,.27,.47,.45,.77,.55,.05,.16,.13,.32,.23,.45,.2,.27,.47,.45,.77,.55,.05,.16,.13,.32,.23,.45,.2,.27,.47,.45,.77,.55,.05,.16,.13,.32,.23,.45,.2,.27,.47,.45,.77,.55,.05,.16,.13,.32,.23,.45Z"/>
        <g>
          <path class="cls-1" d="M143.13,221.46c3.74,1.93,7.29,2.47,10.41,2.95,4.45,.68,7.96,1.22,10.68,5.39,.28,.43,.79,.66,1.3,.66,.19,0,.37-.03,.54-.09,.65-.23,1.06-.89,.98-1.58-.55-4.96,1.82-7.6,4.81-10.95,2.11-2.36,4.5-5.03,6.16-8.9,3.6-8.39,.48-14.14-.63-15.8,.35-.26,.68-.52,1.02-.78,1.15,1.33,4.94,4.99,11.99,4.99,.96,0,1.99-.07,3.08-.22,4.17-.58,7.38-2.19,10.21-3.6,4.02-2.01,7.2-3.59,11.83-1.76,.65,.25,1.43-.03,1.83-.6,.4-.57,.36-1.34-.1-1.86-3.31-3.73-2.9-7.26-2.39-11.72,.36-3.14,.77-6.71-.1-10.82-1.79-8.44-7.14-11.5-9.3-12.4,.11-.33,.23-.65,.33-.99,.66,.14,1.61,.29,2.81,.29,2.99,0,7.4-.91,11.9-5.11,3.08-2.87,4.79-6.02,6.29-8.81,2.14-3.95,3.83-7.08,8.68-8.23,.68-.16,1.15-.85,1.15-1.54s-.48-1.3-1.15-1.46c-4.85-1.16-6.54-4.28-8.68-8.23-1.51-2.78-3.21-5.94-6.29-8.81-6.14-5.73-12.11-5.35-14.54-4.87-.24-.78-.51-1.55-.77-2.32,2.23-1.03,7.31-4.21,8.91-12.48,.8-4.13,.33-7.69-.09-10.83-.59-4.46-1.06-7.98,2.18-11.76,.45-.52,.44-1.35,.04-1.91-.41-.57-1.15-.78-1.8-.51-4.6,1.91-7.81,.38-11.86-1.56-2.86-1.37-6.09-2.91-10.27-3.43-8.41-1.03-13.02,2.86-14.66,4.65-.64-.48-1.3-.93-1.96-1.39,1.2-2.1,3.5-7.69-.09-15.4-1.78-3.81-4.25-6.42-6.43-8.71-3.1-3.26-5.54-5.83-5.14-10.8,.05-.68-.44-1.34-1.08-1.56-.66-.23-1.4,.03-1.77,.63-2.6,4.25-6.09,4.9-10.52,5.71-3.11,.57-6.64,1.22-10.32,3.26-7.65,4.23-8.94,10.34-9.15,12.6-.24,0-.47-.02-.71-.02-1.38,0-2.75,.04-4.12,.11-.28-2.24-1.74-8.32-9.53-12.34-3.74-1.93-7.29-2.47-10.42-2.95-4.44-.68-7.96-1.22-10.68-5.39-.39-.59-1.21-.81-1.87-.55-.64,.25-1.03,.89-.95,1.57,.55,4.95-1.82,7.6-4.82,10.95-2.11,2.36-4.5,5.03-6.16,8.9-3.69,8.58-.34,14.41,.71,15.91-.34,.26-.67,.52-1,.79-1.15-1.38-5.9-6.19-15.18-4.89-4.17,.58-7.38,2.19-10.21,3.6-4.02,2.01-7.2,3.6-11.83,1.76-.65-.26-1.43,.03-1.83,.6-.4,.57-.35,1.34,.11,1.86,3.31,3.73,2.9,7.26,2.38,11.72-.36,3.14-.77,6.71,.1,10.82,2.06,9.73,8.85,12.3,10.03,12.68-.1,.3-.19,.61-.28,.91-1.18-.37-8.22-2.16-15.5,4.63-3.08,2.87-4.78,6.02-6.29,8.81-2.14,3.95-3.83,7.08-8.68,8.23-.68,.16-1.15,.85-1.15,1.54s.48,1.3,1.15,1.46c4.85,1.16,6.54,4.28,8.68,8.23,1.51,2.78,3.21,5.94,6.29,8.81,4.5,4.2,8.92,5.11,11.91,5.11,2.18,0,3.6-.48,3.75-.54,.23,.73,.49,1.46,.74,2.18,0,0-.01,0-.02,0-.32,.09-7.95,2.42-9.99,12.91-.8,4.13-.33,7.69,.09,10.83,.59,4.46,1.06,7.98-2.19,11.76-.45,.53-.44,1.36-.03,1.92,.41,.56,1.14,.77,1.79,.5,4.6-1.91,7.8-.38,11.86,1.56,2.86,1.37,6.09,2.91,10.27,3.43,.96,.12,1.87,.17,2.73,.17,8.66,0,12.46-5.43,12.63-5.68,0,0,0,0,0,0,.6,.46,1.22,.89,1.84,1.33,0,0,0,0,0,0-.21,.27-5.01,6.63-.5,16.31,1.78,3.81,4.25,6.41,6.43,8.71,3.1,3.26,5.54,5.84,5.14,10.81-.06,.71,.46,1.38,1.14,1.58,.14,.04,.29,.06,.43,.06,.51,0,1-.26,1.28-.72,2.6-4.25,6.09-4.89,10.51-5.71,3.11-.57,6.64-1.22,10.32-3.26,8.58-4.75,9.16-11.85,9.19-13.24,.57,.01,1.13,.04,1.7,.04,1.02,0,2.03-.04,3.04-.08,.08,1.46,.94,8.46,9.59,12.92Zm-10.28-15.9l64.54-111.78c5.77,10.7,9.05,22.93,9.05,35.91,0,41.08-32.8,74.62-73.58,75.87ZM54.59,129.7c0-13.13,3.35-25.49,9.24-36.27l64.75,112.15c-40.97-1.04-73.99-34.66-73.99-75.88Zm56.29-1.26c.95-4.31,4.34-7.85,8.43-8.81,.76-.18,1.54-.27,2.31-.27,4.17,0,8.49,2.55,12.38,7.38,.25,.31,.59,.49,.95,.54-.61,5.46-3.99,10.81-8.33,12.92-3.85,1.87-8.11,1.11-12.34-2.2-2.99-2.34-4.23-5.83-3.41-9.56Zm7.74-11.73c-5.19,1.22-9.48,5.68-10.67,11.08-.88,3.99,.04,7.76,2.52,10.69,.08,.21,.2,.41,.38,.58l31.54,28.84c.29,.26,.65,.39,1.01,.39,.41,0,.81-.16,1.11-.49,.56-.61,.52-1.56-.09-2.12l-23.61-21.59c.53,.07,1.06,.11,1.59,.11,1.9,0,3.77-.43,5.56-1.3,5.86-2.85,10.11-10.15,10.11-17.36v-31.43h55.7l-63.03,109.17-63.03-109.17h67.36v29.24c-6.79-7.49-13.14-7.41-16.43-6.64Zm93.22,50.68c.77,3.64,.41,6.8,.05,9.86-.42,3.67-.83,7.19,.89,10.76-3.94-.39-7.11,1.19-10.42,2.84-2.75,1.38-5.6,2.8-9.29,3.32-7.47,1.05-11.28-2.51-12.3-3.66,10.57-8.76,18.83-20.21,23.71-33.3,1.68,.75,5.88,3.27,7.35,10.18Zm6.64-53.72c2.72,2.54,4.23,5.34,5.7,8.04,1.76,3.25,3.45,6.36,6.9,8.3-3.46,1.94-5.14,5.05-6.9,8.3-1.47,2.71-2.98,5.51-5.7,8.04-5.15,4.81-10,4.49-11.83,4.13,1.81-6.63,2.8-13.59,2.8-20.78s-.92-13.75-2.63-20.2c1.95-.34,6.66-.51,11.67,4.16Zm-26.5-48.88c3.69,.45,6.56,1.83,9.34,3.16,3.34,1.59,6.53,3.12,10.46,2.66-1.66,3.6-1.19,7.11-.7,10.78,.4,3.05,.82,6.21,.11,9.86-1.31,6.73-5.22,9.36-6.99,10.23-5.03-13.07-13.43-24.48-24.15-33.14,1.34-1.4,5.05-4.38,11.93-3.53Zm-50.14-23.96c3.25-1.8,6.38-2.38,9.41-2.93,3.64-.67,7.12-1.31,10.03-4,.78,3.89,3.21,6.45,5.76,9.13,2.12,2.23,4.31,4.54,5.88,7.91,2.93,6.3,1.23,10.76,.31,12.46-11.35-7.33-24.67-11.85-39-12.52,.21-1.79,1.37-6.6,7.6-10.05Zm54.04,50.3h-57.82v-7.22h40.91c.83,0,1.5-.67,1.5-1.5s-.67-1.5-1.5-1.5H96.47c-.83,0-1.5,.67-1.5,1.5s.67,1.5,1.5,1.5h38.57v7.22H65.16c13.23-22.33,37.57-37.34,65.35-37.34s52.12,15.01,65.36,37.34ZM84.72,52.25c1.47-3.42,3.59-5.79,5.64-8.08,2.46-2.76,4.83-5.4,5.48-9.3,2.99,2.6,6.49,3.13,10.15,3.69,3.04,.47,6.19,.95,9.5,2.65,6.45,3.32,7.68,8.17,7.91,9.9-14.18,1.27-27.28,6.31-38.31,14.1-.75-1.09-3.46-5.78-.37-12.96Zm-28.51,50.83c-.06-.02-6.22-1.79-8.06-10.46-.77-3.64-.41-6.8-.05-9.86,.42-3.67,.83-7.19-.89-10.76,3.94,.4,7.11-1.19,10.42-2.84,2.75-1.38,5.6-2.8,9.28-3.31,7.88-1.11,11.68,2.9,12.44,3.82-10.38,8.85-18.44,20.33-23.14,33.41h0Zm-2.09,47.21c-.06,.02-6.12,2.1-12.6-3.94-2.72-2.54-4.23-5.33-5.7-8.04-1.76-3.25-3.45-6.37-6.91-8.3,3.46-1.94,5.14-5.05,6.91-8.3,1.46-2.71,2.98-5.51,5.7-8.04,6.41-5.98,12.36-4.03,12.61-3.94,0,0,.01,0,.02,0-1.67,6.38-2.57,13.08-2.57,19.98s.96,13.99,2.73,20.55c-.06,.01-.13,.02-.19,.05Zm26.41,40.72c-.04,.05-3.71,5.3-12.51,4.22-3.69-.45-6.56-1.83-9.34-3.16-3.33-1.59-6.51-3.12-10.46-2.66,1.66-3.6,1.19-7.11,.71-10.77-.4-3.05-.82-6.21-.11-9.86,1.67-8.6,7.62-10.52,7.89-10.6,.07-.02,.13-.05,.2-.08,4.99,12.89,13.25,24.15,23.78,32.75-.05,.05-.1,.1-.14,.16Zm37.62,28.18c-3.25,1.8-6.38,2.38-9.41,2.93-3.64,.67-7.12,1.31-10.03,4-.77-3.89-3.21-6.46-5.76-9.14-2.12-2.23-4.31-4.54-5.88-7.91-3.7-7.94-.01-12.99,.16-13.21,.04-.05,.06-.1,.09-.15,11.19,7.34,24.34,11.92,38.49,12.76,0,.46-.15,6.57-7.65,10.72Zm56.8-24.31c.82,1.24,3.32,5.87,.32,12.87-1.47,3.41-3.59,5.79-5.64,8.08-2.46,2.76-4.83,5.39-5.48,9.3-2.99-2.6-6.49-3.13-10.15-3.69-3.04-.46-6.19-.95-9.5-2.65-7.37-3.79-7.92-9.58-7.97-10.43,14.17-1.08,27.31-5.89,38.42-13.49Z"/>
          <path class="cls-1" d="M136.21,77.24c.83,0,1.5-.67,1.5-1.5v-4.71c0-.83-.67-1.5-1.5-1.5s-1.5,.67-1.5,1.5v4.71c0,.83,.67,1.5,1.5,1.5Z"/>
        </g>
      </g>
    </g>
  </g>
</svg>