<svg xmlns="http://www.w3.org/2000/svg" viewBox="0 0 260 260"><defs><style>.cls-1{fill:#00489c}.cls-2{fill:#fff}.cls-3{isolation:isolate}.cls-4{mix-blend-mode:multiply;opacity:.3}</style></defs><g class="cls-3"><g id="Layer_1" data-name="Layer 1"><g><circle cx="130" cy="130" r="130" class="cls-1" transform="translate(-53.85 130) rotate(-45)"/><path d="M33.29,157.09c.14,.47,.51,.85,1,1,.11,.36,.34,.66,.67,.85,3.56,6.26,7.79,12.95,14.16,19.19,.33,.33,.66,.67,1,1,.33,.33,.66,.67,1,1,.33,.33,.66,.67,1,1,.33,.33,.66,.67,1,1,.33,.33,.66,.67,1,1,.33,.33,.66,.67,1,1,.33,.33,.66,.67,1,1,.33,.33,.66,.67,1,1,.33,.33,.66,.67,1,1,.33,.33,.66,.67,1,1,.33,.33,.66,.67,1,1,.33,.33,.66,.67,1,1,.33,.33,.66,.67,1,1,.33,.33,.66,.67,1,1,.33,.33,.66,.67,1,1,.33,.33,.66,.67,1,1,.33,.33,.66,.67,1,1,.33,.33,.66,.67,1,1,.33,.33,.66,.67,1,1,.33,.33,.66,.67,1,1,.33,.33,.66,.67,1,1,.33,.33,.66,.67,1,1,.33,.33,.66,.67,1,1,.33,.33,.66,.67,1,1,.33,.33,.66,.67,1,1,.33,.33,.66,.67,1,1,.33,.33,.66,.67,1,1,.33,.33,.66,.67,1,1,.33,.33,.66,.67,1,1,.33,.33,.66,.67,1,1,.33,.33,.66,.67,1,1,.33,.33,.66,.67,1,1,.33,.33,.66,.67,1,1,.33,.33,.66,.67,1,1,.33,.33,.66,.67,1,1,.33,.33,.66,.67,1,1,.33,.33,.66,.67,1,1,.33,.33,.66,.67,1,1,.33,.33,.66,.67,1,1,.33,.33,.66,.67,1,1,.33,.33,.66,.67,1,1,.33,.33,.66,.67,1,1,.33,.33,.66,.67,1,1,.33,.33,.66,.67,1,1,.33,.33,.66,.67,1,1,.33,.33,.66,.67,1,1,.33,.33,.66,.67,1,1,.33,.33,.66,.67,1,1,.33,.33,.66,.67,1,1,.33,.33,.66,.67,1,1,.33,.33,.66,.67,1,1,.33,.33,.66,.67,1,1,.33,.33,.66,.67,1,1,.33,.33,.66,.67,1,1,.33,.33,.66,.67,1,1,.33,.33,.66,.67,1,1,.33,.33,.66,.67,1,1,.33,.33,.66,.67,1,1,.33,.33,.66,.67,1,1,.33,.33,.66,.67,1,1,.33,.33,.66,.67,1,1,.33,.33,.66,.67,1,1,.33,.33,.66,.67,1,1,.33,.33,.66,.67,1,1,.33,.33,.66,.67,1,1,.33,.33,.66,.67,1,1,.33,.33,.66,.67,1,1,.33,.33,.66,.67,1,1,.33,.33,.66,.67,1,1,.33,.33,.66,.67,1,1,.33,.33,.66,.67,1,1,.33,.33,.66,.67,1,1,.33,.33,.66,.67,1,1,.33,.33,.66,.67,1,1,.33,.33,.66,.67,1,1,.33,.33,.66,.67,1,1,.33,.33,.66,.67,1,1,.33,.33,.66,.67,1,1,.33,.33,.66,.67,1,1,.65,.66,1.31,1.32,2.01,1.98,.33,.31,.65,.58,.98,.88,71.29-.6,128.89-58.56,128.89-129.99,0-.72-.03-1.44-.04-2.16-.06-.06-.11-.11-.17-.17-.33-.34-.66-.67-1.01-1.01-.32-.33-.66-.66-.99-.99-.33-.34-.66-.67-1-1-.33-.34-.66-.67-1-1-.33-.34-.66-.67-1-1-.33-.34-.66-.67-1-1-.33-.34-.66-.67-1-1-.33-.34-.66-.67-1-1-.33-.34-.66-.67-1-1-.33-.34-.66-.67-1-1-.33-.34-.66-.67-1-1-.33-.34-.66-.67-1-1-.33-.34-.66-.67-1-1-.33-.34-.66-.67-1-1-.33-.34-.66-.67-1-1-.33-.34-.66-.67-1-1-.33-.34-.66-.67-1-1-.33-.34-.66-.67-1-1-.33-.34-.66-.67-1-1-.33-.34-.66-.67-1-1-.33-.34-.66-.67-1-1-.33-.34-.66-.67-1-1-.33-.34-.66-.67-1-1-.33-.34-.66-.67-1-1-.33-.34-.66-.67-1-1-.33-.34-.66-.67-1-1-.33-.34-.66-.67-1-1-.33-.34-.66-.67-1-1-.33-.34-.66-.67-1-1-.33-.34-.66-.67-1-1-.33-.34-.66-.67-1-1-.33-.34-.66-.67-1-1-.33-.34-.66-.67-1-1-.33-.34-.66-.67-1-1-.33-.34-.66-.67-1-1-.33-.34-.66-.67-1-1-.33-.34-.66-.67-1-1-.33-.34-.66-.67-1-1-.33-.34-.66-.67-1-1-.33-.34-.66-.67-1-1-.33-.34-.66-.67-1-1-.33-.34-.66-.67-1-1-.33-.34-.66-.67-1-1-.33-.34-.66-.67-1-1-.33-.34-.66-.67-1-1-.33-.34-.66-.67-1-1-.63-.65-1.28-1.29-1.96-1.92-20.15-18.79-39.75-11.68-40.58-11.37-.28,.11-.51,.29-.68,.52-11.67-7.81-25.69-12.37-40.76-12.37s-28.91,4.51-40.54,12.23c-.15-.16-.34-.29-.56-.38-.82-.31-20.43-7.42-40.57,11.37-8.08,7.54-12.54,16.03-16.48,23.53-5.78,11-10.77,20.5-25.29,23.69-.7,.15-1.19,.78-1.18,1.49v.22c.02,.66,.45,1.22,1.08,1.4,.14,.47,.51,.85,1,1,.14,.47,.51,.85,1,1,.14,.47,.51,.85,1,1,.14,.47,.51,.85,1,1,.14,.47,.51,.85,1,1,.14,.47,.51,.85,1,1,.14,.47,.51,.85,1,1,.14,.47,.51,.85,1,1,.14,.47,.51,.85,1,1,.14,.47,.51,.85,1,1,.14,.47,.51,.85,1,1,.14,.47,.51,.85,1,1,.14,.47,.51,.85,1,1,.14,.47,.51,.85,1,1,.14,.47,.51,.85,1,1,.14,.47,.51,.85,1,1,.14,.47,.51,.85,1,1,.14,.47,.51,.85,1,1,.14,.47,.51,.85,1,1,.14,.47,.51,.85,1,1,.14,.47,.51,.85,1,1,.14,.47,.51,.85,1,1,.14,.47,.51,.85,1,1,.14,.47,.51,.85,1,1,.14,.47,.51,.85,1,1,.14,.47,.51,.85,1,1,.14,.47,.51,.85,1,1Z" class="cls-4"/><g><path d="M253.61,126.97c-14.52-3.19-19.51-12.69-25.29-23.7-3.94-7.5-8.4-15.99-16.48-23.52-20.15-18.79-39.75-11.68-40.58-11.37-.28,.11-.51,.29-.68,.52-11.67-7.81-25.69-12.37-40.76-12.37s-28.91,4.51-40.54,12.23c-.15-.16-.34-.29-.56-.38-.82-.31-20.43-7.42-40.57,11.37-8.08,7.54-12.54,16.03-16.48,23.53-5.78,11-10.77,20.5-25.29,23.69-.7,.15-1.19,.78-1.18,1.49v.22c.02,.67,.47,1.26,1.13,1.43,14.72,3.8,20.12,13.54,26.37,24.82,4.24,7.65,9.04,16.32,17.41,24.17,12.53,11.75,24.49,14.17,32.24,14.17,4.39,0,7.41-.78,8.42-1.08,11.32,7.13,24.7,11.28,39.04,11.28s27.81-4.17,39.15-11.35c.7,.22,3.87,1.15,8.65,1.15,7.74,0,19.71-2.43,32.24-14.17,8.37-7.85,13.17-16.52,17.41-24.17,6.25-11.28,11.65-21.02,26.38-24.83,.65-.17,1.11-.75,1.12-1.42v-.22c.02-.71-.47-1.34-1.17-1.5Zm-63.15-32.85H70.03c-.43,0-.83,.19-1.12,.51,12.22-20.97,34.95-35.11,60.92-35.11s48.34,13.9,60.63,34.6Zm-57.16,106.27l59.21-102.56c4.97,9.65,7.8,20.58,7.8,32.17,0,37.7-29.76,68.58-67.02,70.39ZM59.35,130c0-12.67,3.38-24.56,9.26-34.85-.13,.4-.1,.84,.12,1.21l60.09,104.09c-38.4-.54-69.47-31.93-69.47-70.45Zm7.8,38.3c-3.04-1.43-5.96-3.44-8.72-6.01-5.56-5.18-8.1-10.83-10.55-16.3-2.93-6.52-5.72-12.74-13.38-16.02,7.66-3.29,10.45-9.5,13.38-16.02,2.46-5.46,4.99-11.12,10.55-16.3,2.78-2.59,5.72-4.61,8.79-6.05-6.88,11.18-10.86,24.33-10.86,38.4s3.95,27.14,10.8,38.3Zm76.42-67.16c-1.07-1.69-2.49-3.03-4.26-4.03h50.14l-32.93,57.03c2.16-7.85,.35-15.15-4.93-19.41-5.58-4.5-11.68-5.74-16.24-5.89,2.62-1.92,5.52-4.68,7.49-8.42,2.92-5.55,4.28-13.66,.72-19.28Zm-34.66,10.41c.07,.82,.81,1.42,1.62,1.36,.82-.07,1.44-.79,1.37-1.62,0-.04-.32-4.51,2.93-8.18,2.77-3.14,7.31-4.86,13.48-5.13,6.25-.27,10.55,1.33,12.72,4.76,2.9,4.57,1.6,11.64-.84,16.27-3.82,7.27-11.99,10.47-12.07,10.5-.74,.28-1.13,1.1-.89,1.86,.24,.76,1.03,1.19,1.8,1,.11-.03,11.39-2.79,20.68,4.69,4.79,3.86,6.04,10.63,3.35,18.12-2.83,7.86-10.5,16.27-20.65,16.14-9.08-.11-15.96-2.95-20.43-8.46-9.07-11.17-5.54-29.81-5.5-30,.16-.81-.37-1.6-1.18-1.76-.8-.15-1.6,.37-1.76,1.18-.11,.54-1.73,9.08-.02,18.35l-30.9-53.53h45.59c-2.26,1.01-4.17,2.35-5.67,4.06-4.08,4.66-3.65,10.15-3.63,10.38Zm40.31,55.24l-18.19,31.5-16.91-29.3c4.73,3.45,10.84,5.24,18.26,5.33h.25c6.68,0,12.37-3.17,16.6-7.53Zm54.08-36.8c0-14.16-4.04-27.4-11.01-38.63,3.24,1.45,6.34,3.55,9.27,6.28,5.55,5.18,8.09,10.84,10.55,16.3,2.93,6.52,5.72,12.74,13.38,16.02-7.66,3.29-10.45,9.5-13.38,16.02-2.46,5.46-4.99,11.12-10.55,16.3-2.91,2.71-5.99,4.79-9.2,6.24,6.93-11.21,10.94-24.41,10.94-38.53ZM52.18,176.92c-8.03-7.53-12.51-15.62-16.84-23.44-5.69-10.26-11.09-20.01-23.78-24.86,12.48-4.37,17.5-13.91,22.78-23.95,4.01-7.64,8.16-15.54,15.87-22.73,16.11-15.03,31.66-12.37,36.18-11.16-6.26,4.6-11.76,10.18-16.29,16.5-.05,.01-.1,.02-.15,.03-4.81,1.49-9.37,4.22-13.56,8.13-6,5.59-8.78,11.79-11.24,17.26-3.37,7.51-6.04,13.44-15.57,15.71-.68,.16-1.15,.76-1.15,1.46v.15c0,.69,.48,1.3,1.15,1.46,9.53,2.27,12.2,8.21,15.57,15.71,2.46,5.47,5.24,11.67,11.24,17.26,4.22,3.94,8.82,6.67,13.66,8.15,4.77,6.67,10.63,12.51,17.31,17.27-5.85,.95-19.98,1.27-35.18-12.98Zm172.48-23.44c-4.33,7.82-8.81,15.91-16.84,23.44-15.44,14.48-29.78,13.92-35.45,12.93,6.61-4.71,12.41-10.49,17.15-17.08,5-1.44,9.74-4.23,14.09-8.29,6-5.59,8.78-11.79,11.24-17.26,3.37-7.51,6.04-13.44,15.57-15.71,.68-.16,1.15-.77,1.15-1.46v-.15c0-.7-.48-1.3-1.15-1.46-9.53-2.27-12.2-8.21-15.57-15.72-2.46-5.47-5.24-11.67-11.24-17.26-4.19-3.91-8.75-6.65-13.56-8.13-.17-.05-.34-.07-.51-.06-4.5-6.27-9.95-11.81-16.16-16.39,4.18-1.13,20.17-4.06,36.41,11.08,7.71,7.19,11.86,15.09,15.87,22.73,5.28,10.04,10.29,19.59,22.78,23.95-12.69,4.85-18.09,14.6-23.78,24.86Z" class="cls-2"/><path d="M127.21,90.1c.83,0,1.5-.67,1.5-1.5v-4.56c0-.83-.67-1.5-1.5-1.5s-1.5,.67-1.5,1.5v4.56c0,.83,.67,1.5,1.5,1.5Z" class="cls-2"/></g></g></g></g></svg>