<svg xmlns="http://www.w3.org/2000/svg" viewBox="0 0 260 260"><defs><style>.cls-1{fill:#00b5db}.cls-2{fill:#fff}.cls-3{isolation:isolate}.cls-4{mix-blend-mode:multiply;opacity:.3}</style></defs><g class="cls-3"><g id="Layer_1" data-name="Layer 1"><g><circle cx="130" cy="130" r="130" class="cls-1"/><path d="M28.5,130.03c0,.66,.44,1.24,1.07,1.43,.14,.47,.51,.85,1,1,.14,.47,.51,.85,1,1,.14,.47,.51,.85,1,1,.14,.47,.51,.85,1,1,.14,.47,.51,.85,1,1,.14,.47,.51,.85,1,1,.09,.29,.26,.53,.48,.72,.93,1.66,2.06,3.44,3.84,5.1,.03,.03,.07,.06,.1,.09,.28,.3,.58,.61,.9,.91,.03,.03,.07,.06,.1,.09,.28,.3,.58,.61,.9,.91,.03,.03,.07,.06,.1,.09,.28,.3,.58,.61,.9,.91,.03,.03,.07,.06,.1,.09,.28,.3,.58,.61,.9,.91,.03,.03,.07,.06,.1,.09,.07,.08,.15,.16,.22,.24-.98,1-1.92,2.29-2.71,3.99-1.27,2.73-1.55,5.26-1.8,7.48-.35,3.12-.6,5.38-3.27,7.28-.57,.41-.76,1.2-.49,1.85,.18,.43,.54,.72,.96,.85,.01,.05,.01,.1,.04,.15,.18,.43,.54,.72,.96,.85,.01,.05,.01,.1,.04,.15,.18,.43,.54,.72,.96,.85,.01,.05,.01,.1,.04,.15,.18,.43,.54,.72,.96,.85,.01,.05,.01,.1,.04,.15,.18,.43,.54,.72,.96,.85,.01,.05,.01,.1,.04,.15,.18,.43,.54,.72,.96,.85,.01,.05,.01,.1,.04,.15,.18,.43,.54,.72,.96,.85,.01,.05,.01,.1,.04,.15,.18,.43,.54,.72,.96,.85,.01,.05,.01,.1,.04,.15,.18,.43,.54,.72,.96,.85,.01,.05,.01,.1,.04,.15,.18,.43,.54,.72,.96,.85,.01,.05,.01,.1,.04,.15,.18,.43,.54,.72,.96,.85,.01,.05,.01,.1,.04,.15,.18,.43,.54,.72,.96,.85,.01,.05,.01,.1,.04,.15,.18,.43,.54,.72,.96,.85,.01,.05,.01,.1,.04,.15,.18,.43,.54,.72,.96,.85,.01,.05,.01,.1,.04,.15,.18,.43,.54,.72,.96,.85,.01,.05,.01,.1,.04,.15,.18,.43,.54,.72,.96,.85,.01,.05,.01,.1,.04,.15,.18,.43,.54,.72,.96,.85,.01,.05,.01,.1,.04,.15,.18,.43,.54,.72,.96,.85,.01,.05,.01,.1,.04,.15,.18,.43,.54,.72,.96,.85,.01,.05,.01,.1,.04,.15,.18,.43,.54,.72,.96,.85,.01,.05,.01,.1,.04,.15,.18,.43,.54,.72,.96,.85,.01,.05,.01,.1,.04,.15,.12,.28,.32,.5,.56,.67,.18,.68,.37,1.33,.55,1.96,.89,3.01,1.54,5.19-.18,7.98-.36,.59-.24,1.38,.24,1.88,.18,.19,.41,.3,.64,.37,.07,.23,.18,.45,.36,.63,.18,.19,.41,.3,.64,.37,.07,.23,.18,.45,.36,.63,.18,.19,.41,.3,.64,.37,.07,.23,.18,.45,.36,.63,.18,.19,.41,.3,.64,.37,.07,.23,.18,.45,.36,.63,.18,.19,.41,.3,.64,.37,.07,.23,.18,.45,.36,.63,.18,.19,.41,.3,.64,.37,.07,.23,.18,.45,.36,.63,.18,.19,.41,.3,.64,.37,.07,.23,.18,.45,.36,.63,.18,.19,.41,.3,.64,.37,.07,.23,.18,.45,.36,.63,.18,.19,.41,.3,.64,.37,.07,.23,.18,.45,.36,.63,.18,.19,.41,.3,.64,.37,.07,.23,.18,.45,.36,.63,.18,.19,.41,.3,.64,.37,.07,.23,.18,.45,.36,.63,.18,.19,.41,.3,.64,.37,.07,.23,.18,.45,.36,.63,.18,.19,.41,.3,.64,.37,.07,.23,.18,.45,.36,.63,.18,.19,.41,.3,.64,.37,.07,.23,.18,.45,.36,.63,.18,.19,.41,.3,.64,.37,.07,.23,.18,.45,.36,.63,.18,.19,.41,.3,.64,.37,.07,.23,.18,.45,.36,.63,.18,.19,.41,.3,.64,.37,.07,.23,.18,.45,.36,.63,.18,.19,.41,.3,.64,.37,.07,.23,.18,.45,.36,.63,.18,.19,.41,.3,.64,.37,.07,.23,.18,.45,.36,.63,.18,.19,.41,.3,.64,.37,.07,.23,.18,.45,.36,.63,.18,.19,.41,.3,.64,.37,.07,.23,.18,.45,.36,.63,.18,.19,.41,.3,.64,.37,.07,.23,.18,.45,.36,.63,.18,.19,.41,.3,.64,.37,.07,.23,.18,.45,.36,.63,.18,.19,.41,.3,.64,.37,.07,.23,.18,.45,.36,.63,.18,.19,.41,.3,.64,.37,.07,.23,.18,.45,.36,.63,.18,.19,.41,.3,.64,.37,.07,.23,.18,.45,.36,.63,.18,.19,.41,.3,.64,.37,.07,.23,.18,.45,.36,.63,.18,.19,.41,.3,.64,.37,.07,.23,.18,.45,.36,.63,.18,.19,.41,.3,.64,.37,.07,.23,.18,.45,.36,.63,.18,.19,.41,.3,.64,.37,.07,.23,.18,.45,.36,.63,.18,.19,.41,.3,.64,.37,.07,.23,.18,.45,.36,.63,.18,.19,.41,.3,.64,.37,.07,.23,.18,.45,.36,.63,.18,.19,.41,.3,.64,.37,.07,.23,.18,.45,.36,.63,.18,.19,.41,.3,.64,.37,.07,.23,.18,.45,.36,.63,.18,.19,.41,.3,.64,.37,.07,.23,.18,.45,.36,.63,.18,.19,.41,.3,.64,.37,.07,.23,.18,.45,.36,.63,.18,.19,.41,.3,.64,.37,.07,.23,.18,.45,.36,.63,.18,.19,.41,.3,.64,.37,.07,.23,.18,.45,.36,.63,.18,.19,.41,.3,.64,.37,.07,.23,.18,.45,.36,.63,.18,.19,.41,.3,.64,.37,.07,.23,.18,.45,.36,.63,.18,.19,.41,.3,.64,.37,.07,.23,.18,.45,.36,.63,.18,.19,.41,.3,.64,.37,.07,.23,.18,.45,.36,.63,.18,.19,.41,.3,.64,.37,.07,.23,.18,.45,.36,.63,.18,.19,.41,.3,.64,.37,.07,.23,.18,.45,.36,.63,.18,.19,.41,.3,.64,.37,.07,.23,.18,.45,.36,.63,.18,.19,.41,.3,.64,.37,.07,.23,.18,.45,.36,.63,.18,.19,.41,.3,.64,.37,.07,.23,.18,.45,.36,.63,.18,.19,.41,.3,.64,.37,.07,.23,.18,.45,.36,.63,.18,.19,.41,.3,.64,.37,.07,.23,.18,.45,.36,.63,.18,.19,.41,.3,.64,.37,.07,.23,.18,.45,.36,.63,.18,.19,.41,.3,.64,.37,.07,.23,.18,.45,.36,.63,.18,.19,.41,.3,.64,.37,.07,.23,.18,.45,.36,.63,.18,.19,.41,.3,.64,.37,.07,.23,.18,.45,.36,.63,.18,.19,.41,.3,.64,.37,.07,.23,.18,.45,.36,.63,.18,.19,.41,.3,.64,.37,.07,.23,.18,.45,.36,.63,.18,.19,.41,.3,.64,.37,.07,.23,.18,.45,.36,.63,.18,.19,.41,.3,.64,.37,.07,.23,.18,.45,.36,.63,.18,.19,.41,.3,.64,.37,.02,.06,.05,.11,.07,.17,4.65,.5,9.37,.78,14.15,.78,71.8,0,130-58.2,130-130,0-4.74-.26-9.43-.76-14.04,0,0-.02,0-.03-.01-.08-.23-.19-.46-.36-.64-.18-.18-.4-.29-.64-.36-.08-.23-.19-.46-.36-.64-.18-.18-.4-.29-.64-.36-.08-.23-.19-.46-.36-.64-.18-.18-.4-.29-.64-.36-.08-.23-.19-.46-.36-.64-.18-.18-.4-.29-.64-.36-.08-.23-.19-.46-.36-.64-.18-.18-.4-.29-.64-.36-.08-.23-.19-.46-.36-.64-.18-.18-.4-.29-.64-.36-.08-.23-.19-.46-.36-.64-.18-.18-.4-.29-.64-.36-.08-.23-.19-.46-.36-.64-.18-.18-.4-.29-.64-.36-.08-.23-.19-.46-.36-.64-.18-.18-.4-.29-.64-.36-.08-.23-.19-.46-.36-.64-.18-.18-.4-.29-.64-.36-.08-.23-.19-.46-.36-.64-.18-.18-.4-.29-.64-.36-.08-.23-.19-.46-.36-.64-.18-.18-.4-.29-.64-.36-.08-.23-.19-.46-.36-.64-.18-.18-.4-.29-.64-.36-.08-.23-.19-.46-.36-.64-.18-.18-.4-.29-.64-.36-.08-.23-.19-.46-.36-.64-.18-.18-.4-.29-.64-.36-.08-.23-.19-.46-.36-.64-.18-.18-.4-.29-.64-.36-.08-.23-.19-.46-.36-.64-.18-.18-.4-.29-.64-.36-.08-.23-.19-.46-.36-.64-.18-.18-.4-.29-.64-.36-.08-.23-.19-.46-.36-.64-.18-.18-.4-.29-.64-.36-.08-.23-.19-.46-.36-.64-.18-.18-.4-.29-.64-.36-.08-.23-.19-.46-.36-.64-.18-.18-.4-.29-.64-.36-.08-.23-.19-.46-.36-.64-.18-.18-.4-.29-.64-.36-.08-.23-.19-.46-.36-.64-.18-.18-.4-.29-.64-.36-.08-.23-.19-.46-.36-.64-.18-.18-.4-.29-.64-.36-.08-.23-.19-.46-.36-.64-.18-.18-.4-.29-.64-.36-.08-.23-.19-.46-.36-.64-.18-.18-.4-.29-.64-.36-.08-.23-.19-.46-.36-.64-.18-.18-.4-.29-.64-.36-.08-.23-.19-.46-.36-.64-.18-.18-.4-.29-.64-.36-.08-.23-.19-.46-.36-.64-.18-.18-.4-.29-.64-.36-.08-.23-.19-.46-.36-.64-.18-.18-.4-.29-.64-.36-.08-.23-.19-.46-.36-.64-.18-.18-.4-.29-.64-.36-.08-.23-.19-.46-.36-.64-.18-.18-.4-.29-.64-.36-.08-.23-.19-.46-.36-.64-.18-.18-.4-.29-.64-.36-.08-.23-.19-.46-.36-.64-.18-.18-.4-.29-.64-.36-.08-.23-.19-.46-.36-.64-.18-.18-.4-.29-.64-.36-.08-.23-.19-.46-.36-.64-.18-.18-.4-.29-.64-.36-.08-.23-.19-.46-.36-.64-.18-.18-.4-.29-.64-.36-.08-.23-.19-.46-.36-.64-.18-.18-.4-.29-.64-.36-.08-.23-.19-.46-.36-.64-.18-.18-.4-.29-.64-.36-.08-.23-.19-.46-.36-.64-.18-.18-.4-.29-.64-.36-.08-.23-.19-.46-.36-.64-.18-.18-.4-.29-.64-.36-.08-.23-.19-.46-.36-.64-.18-.18-.4-.29-.64-.36-.08-.23-.19-.46-.36-.64-.18-.18-.4-.29-.64-.36-.08-.23-.19-.46-.36-.64-.18-.18-.4-.29-.64-.36-.08-.23-.19-.46-.36-.64-.18-.18-.4-.29-.64-.36-.08-.23-.19-.46-.36-.64-.18-.18-.4-.29-.64-.36-.08-.23-.19-.46-.36-.64-.18-.18-.4-.29-.64-.36-.08-.23-.19-.46-.36-.64-.18-.18-.4-.29-.64-.36-.08-.23-.19-.46-.36-.64-.18-.18-.4-.29-.64-.36-.08-.23-.19-.46-.36-.64-.18-.18-.4-.29-.64-.36-.08-.23-.19-.46-.36-.64-.18-.18-.4-.29-.64-.36-.08-.23-.19-.46-.36-.64-.18-.18-.4-.29-.64-.36-.08-.23-.19-.46-.36-.64-.18-.18-.4-.29-.64-.36-.08-.23-.19-.46-.36-.64-.18-.18-.4-.29-.64-.36-.08-.23-.19-.46-.36-.64-.18-.18-.4-.29-.64-.36-.08-.23-.19-.46-.36-.64-.18-.18-.4-.29-.64-.36-.08-.23-.19-.46-.36-.64-.18-.18-.4-.29-.64-.36-.08-.23-.19-.46-.36-.64-.49-.5-1.25-.59-1.85-.22-2.79,1.71-4.97,1.06-7.98,.16-.39-.12-.8-.24-1.22-.36-.17-.23-.39-.43-.65-.54-.04-.02-.08-.02-.12-.03-.14-.43-.45-.8-.88-.97-.04-.02-.08-.02-.12-.03-.14-.43-.45-.8-.88-.97-.04-.02-.08-.02-.12-.03-.14-.43-.45-.8-.88-.97-.04-.02-.08-.02-.12-.03-.14-.43-.45-.8-.88-.97-.04-.02-.08-.02-.12-.03-.14-.43-.45-.8-.88-.97-.04-.02-.08-.02-.12-.03-.14-.43-.45-.8-.88-.97-.04-.02-.08-.02-.12-.03-.14-.43-.45-.8-.88-.97-.04-.02-.08-.02-.12-.03-.14-.43-.45-.8-.88-.97-.04-.02-.08-.02-.12-.03-.14-.43-.45-.8-.88-.97-.04-.02-.08-.02-.12-.03-.14-.43-.45-.8-.88-.97-.04-.02-.08-.02-.12-.03-.14-.43-.45-.8-.88-.97-.04-.02-.08-.02-.12-.03-.14-.43-.45-.8-.88-.97-.04-.02-.08-.02-.12-.03-.14-.43-.45-.8-.88-.97-.04-.02-.08-.02-.12-.03-.14-.43-.45-.8-.88-.97-.04-.02-.08-.02-.12-.03-.14-.43-.45-.8-.88-.97-.04-.02-.08-.02-.12-.03-.14-.43-.45-.8-.88-.97-.04-.02-.08-.02-.12-.03-.14-.43-.45-.8-.88-.97-.04-.02-.08-.02-.12-.03-.14-.43-.45-.8-.88-.97-.04-.02-.08-.02-.12-.03-.14-.43-.45-.8-.88-.97-.04-.02-.08-.02-.12-.03-.14-.43-.45-.8-.88-.97-.04-.02-.08-.02-.12-.03-.14-.43-.45-.8-.88-.97-.64-.27-1.38-.06-1.79,.5-1.93,2.65-4.19,2.87-7.32,3.19-2.23,.22-4.76,.48-7.51,1.72-1.92,.87-3.33,1.93-4.38,3.02-.26-.28-.53-.54-.8-.78-.03-.03-.05-.06-.09-.1-.3-.32-.61-.62-.91-.9-.03-.03-.05-.06-.09-.1-.3-.32-.61-.62-.91-.9-.03-.03-.05-.06-.09-.1-.3-.32-.61-.62-.91-.9-.03-.03-.05-.06-.09-.1-.3-.32-.61-.62-.91-.9-.03-.03-.05-.06-.09-.1-1.67-1.79-3.46-2.92-5.13-3.86-.19-.21-.41-.37-.68-.46-.14-.48-.53-.85-1-1-.14-.48-.53-.85-1-1-.14-.48-.53-.85-1-1-.14-.48-.53-.85-1-1-.14-.48-.53-.85-1-1-.14-.48-.53-.85-1-1-.19-.63-.82-1.08-1.48-1.08s-1.3,.48-1.46,1.15c-.76,3.19-2.76,4.27-5.52,5.77-1.97,1.07-4.21,2.28-6.26,4.48-2.1,2.25-3.04,4.47-3.44,6.35-.04-.03-.07-.07-.11-.1-.3-.34-.63-.67-1-1-1.08-1.22-2.59-2.42-4.72-3.38-2.74-1.24-5.27-1.49-7.51-1.72-2.42-.24-4.32-.45-5.96-1.75-.12-.14-.24-.27-.36-.43-.13-.18-.31-.3-.5-.4-.17-.19-.34-.37-.5-.6-.41-.56-1.2-.74-1.84-.48-.64,.27-1.02,.94-.9,1.63,.53,3.23-.89,5-2.87,7.45-1.41,1.75-3,3.73-4.05,6.55-1,2.7-1.09,4.99-.79,6.82-1.58-.96-3.74-1.75-6.62-1.84-2.99-.1-5.44,.63-7.59,1.27-3.01,.9-5.19,1.55-7.98-.16-.6-.37-1.42-.23-1.9,.28-.47,.49-.55,1.25-.2,1.83,1.72,2.79,1.07,4.96,.18,7.98-.64,2.15-1.36,4.59-1.25,7.6,.12,3.35,1.18,5.73,2.36,7.35-1.96-.45-4.56-.49-7.69,.7-2.81,1.07-4.78,2.69-6.51,4.12-2.43,2-4.19,3.44-7.42,2.95-.7-.11-1.39,.34-1.64,.99-.25,.64-.03,1.37,.53,1.77,.21,.15,.37,.3,.55,.45,.11,.21,.25,.4,.45,.55,.19,.14,.35,.28,.52,.42,.01,.02,.04,.04,.05,.05,.05,.09,.11,.18,.18,.26,1.06,1.53,1.28,3.31,1.53,5.54,.25,2.23,.53,4.76,1.8,7.49,.95,2.06,2.13,3.52,3.32,4.58,.16,.19,.33,.36,.5,.53-1.67,.49-3.54,1.44-5.44,3.21-2.2,2.05-3.41,4.29-4.48,6.26-1.5,2.76-2.58,4.76-5.76,5.52-.68,.16-1.15,.82-1.15,1.51Z" class="cls-4"/><g><path d="M230.35,128.51c-3.19-.76-4.27-2.76-5.76-5.52-1.07-1.97-2.28-4.21-4.48-6.26-1.93-1.8-3.84-2.75-5.54-3.24,1.39-1.09,2.8-2.69,3.91-5.08,1.27-2.73,1.55-5.26,1.8-7.49,.35-3.12,.6-5.38,3.27-7.28,.56-.4,.76-1.18,.51-1.82-.26-.65-.93-1.04-1.62-.94-3.24,.5-4.99-.95-7.42-2.95-1.73-1.43-3.7-3.04-6.51-4.12-3.13-1.2-5.73-1.15-7.69-.71,1.18-1.62,2.23-4,2.35-7.35,.11-3.01-.61-5.45-1.25-7.6-.89-3.01-1.54-5.19,.18-7.98,.36-.59,.24-1.39-.25-1.88-.49-.5-1.25-.59-1.85-.22-2.79,1.71-4.97,1.06-7.98,.16-2.15-.64-4.58-1.37-7.59-1.27-2.87,.1-5.03,.88-6.61,1.84,.29-1.83,.2-4.12-.79-6.82-1.04-2.82-2.64-4.8-4.05-6.55-1.97-2.45-3.39-4.22-2.87-7.45,.11-.69-.31-1.38-.96-1.65-.64-.27-1.38-.06-1.79,.5-1.93,2.65-4.19,2.87-7.32,3.19-2.23,.22-4.76,.48-7.51,1.72-2.93,1.32-4.7,3.1-5.77,4.75-.36-1.94-1.3-4.26-3.49-6.61-2.05-2.2-4.29-3.41-6.26-4.48-2.76-1.5-4.76-2.58-5.52-5.77-.16-.68-.82-1.15-1.52-1.15s-1.3,.48-1.46,1.15c-.76,3.19-2.76,4.27-5.52,5.77-1.97,1.07-4.21,2.28-6.26,4.48-2.2,2.35-3.14,4.68-3.49,6.62-1.07-1.65-2.84-3.43-5.78-4.75-2.74-1.24-5.27-1.49-7.51-1.72-3.13-.31-5.39-.54-7.32-3.19-.41-.56-1.2-.74-1.84-.48-.64,.27-1.02,.94-.9,1.63,.53,3.23-.89,5-2.87,7.45-1.41,1.75-3,3.73-4.05,6.55-1,2.7-1.09,4.99-.79,6.82-1.58-.96-3.74-1.75-6.62-1.84-2.99-.1-5.44,.63-7.59,1.27-3.01,.9-5.19,1.55-7.98-.16-.6-.37-1.42-.23-1.9,.28-.47,.49-.55,1.25-.2,1.83,1.72,2.79,1.07,4.96,.18,7.98-.64,2.15-1.36,4.59-1.25,7.6,.12,3.35,1.18,5.73,2.36,7.35-1.96-.45-4.56-.49-7.69,.7-2.81,1.07-4.78,2.69-6.51,4.12-2.43,2-4.19,3.44-7.42,2.95-.7-.11-1.39,.34-1.64,.99-.25,.64-.03,1.37,.53,1.77,2.67,1.9,2.92,4.16,3.27,7.28,.25,2.23,.53,4.76,1.8,7.49,1.11,2.4,2.52,4,3.91,5.08-1.7,.49-3.6,1.44-5.54,3.24-2.2,2.05-3.41,4.29-4.48,6.26-1.5,2.76-2.58,4.76-5.76,5.52-.68,.16-1.15,.82-1.15,1.51s.48,1.3,1.15,1.46c3.19,.76,4.27,2.76,5.76,5.52,1.07,1.97,2.28,4.21,4.48,6.26,1.93,1.8,3.84,2.75,5.54,3.24-1.39,1.09-2.8,2.69-3.91,5.08-1.27,2.73-1.55,5.26-1.8,7.48-.35,3.12-.6,5.38-3.27,7.28-.57,.41-.76,1.2-.49,1.85,.26,.64,.93,1.01,1.61,.91,3.24-.49,4.99,.95,7.42,2.95,1.73,1.43,3.7,3.04,6.51,4.12,1.9,.72,3.6,.99,5.08,.99,.97,0,1.84-.12,2.61-.3-1.18,1.62-2.24,4-2.36,7.36-.11,3.01,.61,5.45,1.25,7.6,.89,3.01,1.54,5.19-.18,7.98-.36,.59-.24,1.38,.24,1.88,.49,.5,1.26,.6,1.86,.23,2.8-1.71,4.97-1.06,7.98-.16,2.01,.6,4.28,1.28,7.03,1.28,.19,0,.37,0,.56,0,2.87-.1,5.03-.88,6.61-1.84-.29,1.83-.2,4.12,.8,6.82,1.04,2.82,2.64,4.8,4.05,6.55,1.97,2.45,3.39,4.22,2.87,7.45-.11,.68,.31,1.38,.95,1.65,.19,.08,.39,.12,.58,.12,.47,0,.92-.22,1.21-.62,1.93-2.65,4.19-2.87,7.32-3.19,2.23-.22,4.76-.48,7.51-1.72,2.94-1.32,4.7-3.11,5.78-4.76,.36,1.94,1.3,4.26,3.49,6.62,2.05,2.2,4.29,3.41,6.26,4.48,2.76,1.5,4.76,2.58,5.52,5.76,.16,.68,.82,1.15,1.52,1.15s1.3-.48,1.46-1.15c.76-3.19,2.76-4.27,5.52-5.76,1.97-1.07,4.21-2.28,6.26-4.48,2.2-2.35,3.14-4.68,3.49-6.61,1.07,1.65,2.84,3.43,5.78,4.75,2.74,1.24,5.27,1.49,7.51,1.72,3.13,.31,5.39,.54,7.32,3.19,.29,.39,.76,.6,1.23,.6,.21,0,.42-.04,.62-.12,.64-.27,1.01-.94,.9-1.62-.53-3.23,.9-5,2.87-7.45,1.41-1.75,3-3.72,4.05-6.55,1-2.7,1.09-4.99,.79-6.82,1.58,.96,3.74,1.75,6.61,1.84,.19,0,.38,0,.56,0,2.75,0,5.02-.68,7.03-1.28,3.01-.9,5.19-1.55,7.98,.16,.6,.37,1.41,.23,1.9-.27,.48-.49,.56-1.25,.2-1.84-1.72-2.79-1.08-4.96-.18-7.98,.64-2.15,1.36-4.59,1.25-7.6-.12-3.36-1.18-5.74-2.36-7.36,.78,.18,1.64,.3,2.61,.3,1.48,0,3.19-.27,5.08-.99,2.81-1.07,4.78-2.69,6.51-4.12,2.43-2,4.18-3.43,7.42-2.95,.69,.11,1.37-.32,1.63-.96,.27-.65,.05-1.39-.51-1.8-2.67-1.9-2.92-4.16-3.27-7.28-.25-2.23-.53-4.76-1.8-7.48-1.11-2.4-2.53-4-3.91-5.08,1.69-.48,3.61-1.44,5.54-3.24,2.2-2.05,3.41-4.29,4.48-6.26,1.5-2.76,2.58-4.76,5.76-5.52,.68-.16,1.15-.82,1.15-1.51s-.48-1.3-1.15-1.46Zm-98.45,79.83l66.77-115.64c5.99,11.08,9.39,23.75,9.39,37.2,0,42.5-33.96,77.19-76.16,78.44ZM51.07,129.91c0-13.6,3.48-26.4,9.6-37.57,0,0,0,0,0,0l66.98,116.01c-42.4-1.02-76.58-35.8-76.58-78.45ZM129.56,51.41c28.76,0,53.93,15.55,67.61,38.68h-38.19c0-2.24-.51-4.21-.79-5.1h13.23c.83,0,1.5-.67,1.5-1.5s-.67-1.5-1.5-1.5H106.17c-.83,0-1.5,.67-1.5,1.5s.67,1.5,1.5,1.5h48.96c0,.18,.02,.35,.09,.53,.01,.04,.77,2.19,.78,4.58h-22.65c-1.24-.12-2.5-.18-3.77-.18s-2.53,.07-3.77,.18H61.96c13.67-23.12,38.85-38.68,67.61-38.68Zm-26.43,108.48c7.05,6.23,16.31,10.02,26.43,10.02s20.15-4.11,27.3-10.8l-27.09,46.93-26.64-46.14Zm30.1-66.8c5.66,.56,10.94,2.4,15.56,5.22-3.94,1.41-8.74,1.77-13.44,2.12-6.89,.51-13.4,.98-16.77,4.9-1.68,1.96-2.4,4.62-2.14,7.92,0,.06,.04,.12,.05,.18-1.53,1.08-2.96,2.34-4.25,3.78-5.34,5.94-7.89,14.19-7,22.64,1.01,9.49,7.81,17.28,17.77,20.32,2.88,.88,5.78,1.31,8.63,1.31,8.13,0,15.82-3.49,21.26-9.95,.53-.63,.45-1.58-.18-2.11-.63-.54-1.58-.45-2.11,.18-7.84,9.31-18.94,10.08-26.72,7.7-8.78-2.69-14.78-9.5-15.66-17.77-.8-7.6,1.47-15,6.25-20.31,4.25-4.73,10.09-7.33,16.43-7.33,14.16,0,21.74,7.85,21.87,7.98,.56,.61,1.51,.64,2.12,.08,.61-.56,.64-1.51,.08-2.12-.34-.37-8.48-8.94-24.06-8.94-4.09,0-8,.96-11.5,2.77,.05-1.84,.52-3.28,1.46-4.37,2.55-2.97,8.46-3.41,14.71-3.87,5.45-.4,11.4-.85,16.17-3.1,8.99,6.76,14.82,17.51,14.82,29.59,0,20.4-16.6,37-37,37s-37-16.6-37-37c0-19.16,14.64-34.97,33.33-36.81h7.34Zm18.74,3.7c-2.12-1.44-4.39-2.69-6.78-3.7h10.28c-.21,.54-.5,1.05-.89,1.5-.76,.87-1.63,1.59-2.61,2.21Zm-62.41,33.11c0,2.68,.27,5.29,.77,7.83l-25.77-44.64h49.37c-14.31,6.1-24.37,20.3-24.37,36.81Zm64.95-31.23c.84-.62,1.63-1.31,2.33-2.12,.91-1.04,1.46-2.24,1.77-3.47h36.36l-26.44,45.8c.67-2.89,1.03-5.89,1.03-8.98,0-12.62-5.88-23.89-15.05-31.23Zm52.91-12.05c2.35,.9,4.04,2.29,5.67,3.63,1.79,1.48,3.63,2.99,6.14,3.53-1.43,2.13-1.69,4.5-1.95,6.81-.23,2.1-.47,4.27-1.54,6.56-2.19,4.71-5.68,5.46-6.54,5.57-1.98-9.19-5.51-17.81-10.32-25.57,.79-.56,3.79-2.33,8.53-.52Zm-22.9-26.65c2.53-.07,4.61,.54,6.64,1.15,2.23,.67,4.51,1.35,7.03,.87-.49,2.52,.19,4.8,.85,7.04,.6,2.02,1.22,4.12,1.13,6.64-.18,5.06-2.98,7.14-3.81,7.64-5.31-7.6-11.89-14.24-19.42-19.64,.59-.91,2.69-3.52,7.59-3.69Zm-30.75-15.48c2.3-1.04,4.47-1.26,6.57-1.47,2.31-.23,4.68-.47,6.83-1.88,.51,2.52,2,4.37,3.46,6.18,1.32,1.64,2.7,3.35,3.57,5.71,1.68,4.54,.11,7.46-.53,8.39-7.7-4.98-16.29-8.69-25.47-10.85,.28-1.24,1.37-4.2,5.57-6.1Zm-34.85-2.55c1.72-1.84,3.64-2.88,5.5-3.89,2.04-1.11,4.14-2.24,5.58-4.37,1.44,2.12,3.53,3.26,5.58,4.37,1.86,1.01,3.78,2.05,5.5,3.89,3.13,3.36,3.01,6.5,2.79,7.75-4.65-.83-9.42-1.28-14.3-1.28-4.58,0-9.07,.4-13.45,1.13-.2-1.36-.19-4.38,2.81-7.6Zm-33.13,11.1c.87-2.36,2.24-4.06,3.57-5.71,1.46-1.81,2.95-3.67,3.46-6.18,2.15,1.4,4.52,1.64,6.83,1.88,2.1,.21,4.28,.43,6.57,1.47,4,1.8,5.18,4.58,5.53,5.9-9.25,2.07-17.91,5.72-25.68,10.64-.7-1.22-1.77-3.97-.28-8Zm-24.84,15.98c.66-2.23,1.33-4.51,.85-7.03,2.52,.48,4.8-.2,7.03-.87,2.02-.61,4.09-1.23,6.63-1.15,4.28,.14,6.43,2.16,7.3,3.28-7.63,5.38-14.3,12.03-19.7,19.64-1.13-.9-3.08-3.04-3.23-7.23-.09-2.52,.53-4.61,1.13-6.64Zm-16.72,38.13c-1.06-2.29-1.3-4.45-1.54-6.55-.26-2.31-.52-4.68-1.95-6.81,2.51-.54,4.35-2.05,6.14-3.53,1.63-1.34,3.32-2.73,5.67-3.63,3.91-1.5,6.63-.55,7.9,.14-4.89,7.81-8.5,16.5-10.52,25.78-1.41-.41-3.97-1.65-5.71-5.39Zm-6.19,28.43c-1.11-2.05-2.24-4.14-4.37-5.58,2.12-1.44,3.26-3.53,4.37-5.58,1.01-1.86,2.05-3.78,3.89-5.5,3.02-2.82,5.86-3,7.32-2.85-.77,4.5-1.2,9.11-1.2,13.83s.44,9.46,1.23,14.01c-1.44,.16-4.31,0-7.36-2.85-1.84-1.72-2.88-3.64-3.89-5.5Zm14.51,37.8c-2.35-.9-4.04-2.29-5.67-3.63-1.8-1.48-3.63-2.99-6.14-3.53,1.43-2.13,1.69-4.5,1.95-6.81,.23-2.1,.47-4.27,1.54-6.55,1.76-3.78,4.36-5.01,5.75-5.4,2.04,9.27,5.66,17.94,10.57,25.74-1.23,.69-3.98,1.72-7.99,.19Zm22.9,26.65c-2.52,.08-4.61-.54-6.63-1.14-2.23-.67-4.51-1.35-7.03-.87,.49-2.52-.19-4.8-.85-7.03-.6-2.03-1.22-4.12-1.13-6.64,.15-4.31,2.2-6.45,3.31-7.3,5.41,7.6,12.08,14.23,19.71,19.59-.8,1.08-2.95,3.25-7.39,3.39Zm30.76,15.48c-2.3,1.04-4.47,1.26-6.57,1.47-2.31,.23-4.68,.47-6.83,1.87-.51-2.51-2-4.37-3.46-6.18-1.33-1.64-2.7-3.35-3.57-5.71-1.55-4.18-.34-6.99,.36-8.13,7.77,4.91,16.41,8.54,25.64,10.6-.29,1.25-1.38,4.19-5.57,6.08Zm34.85,2.55c-1.72,1.84-3.64,2.88-5.5,3.89-2.04,1.11-4.14,2.24-5.58,4.37-1.44-2.12-3.53-3.26-5.58-4.37-1.86-1.01-3.78-2.05-5.5-3.89-3.14-3.37-3.01-6.53-2.79-7.78,4.37,.73,8.85,1.12,13.42,1.12,4.87,0,9.63-.45,14.27-1.28,.23,1.13,.52,4.41-2.76,7.93Zm33.13-11.1c-.87,2.36-2.24,4.06-3.57,5.71-1.46,1.81-2.95,3.67-3.46,6.18-2.15-1.4-4.52-1.64-6.83-1.87-2.1-.21-4.28-.43-6.57-1.47-4.42-1.99-5.39-5.16-5.61-6.27,9.16-2.15,17.73-5.84,25.42-10.8,.57,.77,2.38,3.76,.62,8.53Zm24.84-15.98c-.66,2.23-1.34,4.51-.85,7.03-2.52-.48-4.8,.2-7.03,.87-2.02,.6-4.1,1.22-6.63,1.14-5.12-.17-7.19-3.02-7.67-3.81,7.52-5.38,14.09-12,19.41-19.57,.63,.36,3.71,2.37,3.9,7.7,.09,2.52-.53,4.61-1.13,6.64Zm16.72-38.13c1.06,2.29,1.3,4.45,1.54,6.55,.26,2.31,.52,4.68,1.95,6.81-2.51,.54-4.35,2.05-6.14,3.53-1.63,1.34-3.32,2.73-5.67,3.63-4.93,1.88-7.98-.11-8.61-.58,4.81-7.74,8.36-16.34,10.36-25.52,.77,.1,4.35,.78,6.58,5.58Zm6.19-17.28c-1.01,1.86-2.04,3.78-3.89,5.5-3.89,3.63-7.5,2.88-8.2,2.69,.78-4.51,1.2-9.13,1.2-13.86s-.42-9.23-1.17-13.68c.8-.21,4.35-.87,8.17,2.7,1.84,1.72,2.88,3.64,3.89,5.5,1.11,2.04,2.24,4.14,4.37,5.58-2.12,1.44-3.26,3.53-4.37,5.58Z" class="cls-2"/><path d="M155.41,77.44c.83,0,1.5-.67,1.5-1.5v-3.93c0-.83-.67-1.5-1.5-1.5s-1.5,.67-1.5,1.5v3.93c0,.83,.67,1.5,1.5,1.5Z" class="cls-2"/></g></g></g></g></svg>