<svg xmlns="http://www.w3.org/2000/svg" width="315" height="112" fill="none"><path fill="#575757" d="M306.244 22.05c-4.479-8.363-11.003-12.957-18.404-12.957-7.173 0-13.129-2.09-14.33-5.02-.925-2.26-5.161-2.229-6.524.06-.942 1.587-1.867 1.389-7.547-1.633-7.433-3.922-11.376-3.144-17.284 3.465-9.25 10.301-.73 18.924 9.754 9.858 6.638-5.738 10.03-5.967 10.03-.702 0 7.89 4.154 13.888 10.5 15.155 3.132.626 6.589 1.48 7.709 1.877 1.736.626 2.012.046 1.85-3.846-.536-12.53 14.719-10.713 23.321 2.763 2.889 4.532 4.593 6.12 6.605 6.12 5.08 0 2.029-.748-5.68-15.14ZM39.762 82.577c4.722 8.76 16.65 12.545 15.466 4.9-1.12-7.235 4.284-7.57 9.007-.535 1.72 2.549 4.885 16.666 4.885 21.748 0 2.335.487 3.647 1.201 3.235 6.427-3.724-3.408-32.705-13.486-39.695-3.457-2.396-7.028-5.189-7.92-6.211-1.996-2.259-5.648-2.427-6.524-.306-.422 1.023-3.295 1.71-8.504 2.015-9.64.58-13.422 3.54-25.496 20.038-11.198 15.292-10.565 15.628 3.457 1.832C25.935 75.71 23.89 77.404 36.37 76.274l3.392 6.303Z"/></svg>