<svg xmlns="http://www.w3.org/2000/svg" width="350" height="227" fill="none"><path fill="#575757" d="M202.138 216.486c-7.709-2.498-12.017-5.269-13.743-5.257-1.515 0-12.924-5.52-21.788-9.552-9.672-4.389-19.38-18.556-17.679-12.335.658 2.379 8.926 9.337 15.543 13.049 17.096 9.623 18.623 10.741 18.623 13.608 0 2.926 1.8 5.888 5.475 8.98 5.313 4.485 2.321-.475 7.039.655 2.123.511 2.21.38 1.626-2.558-.707-3.628.472-3.937 7.127-1.891 9.025 2.771 20.633 4.96 22.57 4.246 1.813-.666-14.153-5.507-24.793-8.945ZM8.576 8.167c-1.44 1.582-4.047 4.402-5.773 6.27-4.122 4.448-2.359 6.006 2.57 2.283C15.49 9.06 29.508 4.646 31.084 8.631c2.396 6.02 5.984 6.447 18.3 8.137-2.855-4.176-3.215-4.318-1.527-4.937 2.359-.868 5.35 1.654 8.802 7.41 2.72 4.568 4.581 6.567 4.581 4.973 0-1.213-4.94-10.147-6.505-11.74C40.334-2.313 19.886-4.217 8.575 8.166ZM337.859 29.103c-12.477 3.569-17.394 6.031-21.565 10.8-5.525 6.317-10.118 5.877-12.912-1.236-2.135-5.448-10.341-18.164-10.354-21.269 0-2.272-6.468-5.388 6.108 17.177 2.198 3.913 3.29 13.774 1.714 15.285-2.396 2.296 4.568 7.018 10.962 7.434 2.52.167 4.941.37 5.376.464.434.084.124-.82-.683-2.01-3.625-5.281 7.399-16.13 24.942-24.54 11.211-5.388 10.118-6.018-3.588-2.105Z"/></svg>