<svg xmlns="http://www.w3.org/2000/svg" width="1369" height="378" fill="none"><path fill="#575757" d="M1067.29 33.595c-2.71 9.05-.48 12.667 10.37 16.895 4.26 1.648 7.81 3.052 7.91 3.098.11.046.11-2.396 0-5.418-.34-10.637 7.61-14.392 30.91-14.605 21.83-.214 23.42-3.068 4.38-7.89-14.86-3.77-21.48-2.839-32.66 4.532-5.94 3.922-13.07.077-15.49-8.363-2.41-8.41-11.03-21-14.39-21-2.26 0-.86 3.22 4.9 11.294 6.62 9.294 7.04 11.492 4.07 21.457Zm-295.268 205.45c-10.906-11.599-16.521-18.268-19.783-23.533-8.699-14.01-23.191-26.967-30.17-26.967-1.655 0-6.021-.489-9.672-1.084-17.414-2.854-35.753-1.755-46.675-6.349-6.605-2.777-8.699-2.808-6.297-.091 2.921 3.296 21.114 6.684 58.279 13.704l.714 4.96c.811 5.784 5.599 10.195 11.052 10.21 6.864 0 8.001 4.487 8.001-1.083 0-6.425 4.154-3.205 14.476 11.202 16.034 22.373 33.935 33.773 20.075 19.031ZM620.734 101.83c-5.291-5.89-4.236-9.462 3.846-12.957 11.88-5.158 32.572-18.329 32.62-20.786.033-1.053-18.631 4.99-33.675 10.912-13.746 5.418-16.7 5.937-19.004 3.327-2.159-2.442-4.22-2.06-5.729 1.053-1.85 3.83-.665 1.984-21.812-.992-17.527-2.472-23.97-3.922-28.287-6.38-3.944-2.227-6.443-2.7-6.443-1.22 0 1.389 12.935 6.593 21.552 8.684 4.285 1.022 10.143 2.884 13.032 4.12 13 5.54 17.43 1.542 22.429 8.974 4.122 6.135 8.455 6.211 11.279 9.401 1.266 1.419 2.775 1.694 6.394 1.16 6.8-1.023 7.157-1.541 3.798-5.296Zm104.84 217.994c-6.573-30.996-5.047-28.295-26.665-46.288-25.398.687-22.98-.809-42.211 12.011-13.097 8.729-13.616 11.232-.958 4.624 17.073-8.897 14.006-7.768 33.107-7.783l.812 3.708c1.947 8.806 19.069 15.033 19.069 6.929 0-8.272 8.618 2.9 10.89 14.102 4.187 20.725 9.331 28.645 5.956 12.697ZM596.522 297.1c-16.229-3.144-34.503-.885-48.882-13.125-4.252-3.617-19.978-13.781-20.708-13.339-6.265-4.975-18.209-23.823-18.209-19.595 0 4.899 11.198 14.696 13.875 16.864 1.916 3.143 5.291 5.219 8.862 6.684 13.924 10.378 18.225 15.49 17.494 20.695-1.038 7.386 2.094 11.644 11.588 15.749 10.565 4.564 12.058 4.472 8.569-.518-5.372-7.677-.925-9.249 26.664-9.463 8.309-.061 14.915-.595 15.337-1.236.973-1.48-3.344-.534-14.59-2.716Zm763.718-9.05c-4.48-8.363-11-12.957-18.4-12.957-7.17 0-13.13-2.091-14.33-5.021-.93-2.259-5.16-2.228-6.52.061-.95 1.587-1.87 1.389-7.55-1.633-7.43-3.922-11.38-3.144-17.28 3.465-9.26 10.301-.73 18.924 9.75 9.858 6.64-5.738 10.03-5.967 10.03-.702 0 7.891 4.15 13.888 10.5 15.155 3.13.626 6.59 1.48 7.71 1.877 1.73.626 2.01.046 1.85-3.846-.54-12.529 14.72-10.713 23.32 2.763 2.89 4.532 4.59 6.12 6.6 6.12 5.08 0 2.03-.748-5.68-15.14ZM660.415 15.816c15.547-6.944 25.528-7.661 26.81-1.908 1.12 5.083 7.206 12.698 10.728 13.43 6.183 1.298 12.447 6.655 9.624 1.68-1.867-3.267-1.558-7.937.519-7.937 2.937 0 10.208 20.985 10.208 29.44 0 1.251 2.402.916 2.369.626-.503-5.937-6.296-29.867-7.757-32.065-4.707-7.05-18.777-18.466-22.039-17.871-10.371 1.908-9.689-8.394-33.951 9.783-15.45 11.568-14.509 12.85 3.489 4.822Zm345.955 100.786c-9.77 0-13.015-1.465-21.13-9.523-8.618-8.561-21.925-8.638-15.969-.107 1.558 2.228 3.018 2.9 6.378 2.915 10.224.031 10.516.443 7.871 11.217-1.185 4.808 3.862 10.424 10.792 12.042 3.213.748 6.378 1.862 7.028 2.487 1.75 1.633 3.57.153 1.98-1.633-9.138-10.332 10.76-12.59 23.66-2.67 9.33 7.157 11.7 6.73 5.23-.962-8.2-9.737-15.75-13.766-25.84-13.766Zm-95.849 42.108c-3.619 3.968-6.589 6.226-8.212 6.211-5.209-.03-11.133-2.93-15.661-7.631-7.644-7.951-27.021-18.756-27.021-15.063 0 1.008 14.655 12.423 19.864 15.46 8.212 4.792 10.079 7.295 10.079 13.445 0 6.517 2.369 9.463 10.467 13.003 5.826 2.564 7.969 2.671 7.027.351-2.32-5.677 6.671-18.1 17.236-23.808 10.11-5.463 26.242-16.345 25.625-17.276-3.327-5.066-30.445 5.479-39.404 15.308Zm183.239 189.867c4.72 8.76 16.65 12.545 15.47 4.899-1.12-7.234 4.28-7.569 9.01-.534 1.72 2.549 4.88 16.666 4.88 21.748 0 2.335.49 3.647 1.2 3.235 6.43-3.724-3.41-32.705-13.49-39.695-3.45-2.396-7.02-5.189-7.92-6.211-1.99-2.259-5.64-2.427-6.52-.306-.42 1.023-3.29 1.71-8.5 2.015-9.64.58-13.42 3.541-25.5 20.038-11.2 15.292-10.56 15.628 3.46 1.832 14.08-13.888 12.04-12.194 24.52-13.324l3.39 6.303Z"/><mask id="a" width="107" height="60" x="-53" y="162" maskUnits="userSpaceOnUse" style="mask-type:luminance"><path fill="#fff" d="M-53 162.601H53.803v58.604H-53v-58.604Z"/></mask><g mask="url(#a)"><path fill="#575757" d="M47.263 214.627c-2.175-.733-7.628-4.243-12.123-7.814-15.288-12.087-11.912-7.616-24.068-16.727-2.629-1.968-6.946-4.349-9.575-5.265-9.186-3.205-27.573-8.47-32.328-9.279-5.112-.855-17.884-6.41-19.15-8.333-1.136-1.709-3.019-1.388-3.019.519 0 3.19 10.565 6.196 45.847 20.252 1.98 7.326 2.71 14.682 15.71 18.146 11.506 3.068 11.49 3.953 8.78.076-7.174-10.286.73-8.439 18.29 4.274 14.525 10.515 20.14 7.05 11.636 4.151Z"/></g><path fill="#575757" d="M106.712 61.799c-.876-3.251-1.964-3.343 15.758 1.251 25.042 6.47 13.097-.091-23.288-12.79-5.567-1.937-14.72-5.676-20.368-8.301-16.083-7.494-25.641-10.21-30.17-14.468-8.471-7.951-6.248 2.488 7.109 7.02C67.47 38.48 85.03 49.101 84.3 51.771c-1.883 6.731 4.528 11.6 16.294 12.393 6.832.473 6.865.458 6.118-2.365Zm230.305 48.883c15.743-7.357 26.924-11.065 27.606-9.173 2.467 6.853 6.654 9.401 18.339 11.141 6.573.977 7.157 1.771 10.76 14.758 8.877 31.958 18.03 37.62 2.499-7.341-6.005-17.382-24.344-36.703-28.482-30.004-.601.992-3.846 1.725-8.91 2.015-9.478.55-15.482 3.922-29.634 16.635-11.539 10.347-10.63 10.576 7.822 1.969ZM144.021 285.73c7.562 3.251 9.672 2.305 5.469-2.472-10.452-11.904 10.532-12.636 33.724-33.194l8.715-7.737c-23.419 11.431-36.061 15.689-43.624 20.893-12.756 8.775-22.51 1.755-40.086-28.875-13.097-22.831-9.266-.137 7.044 18.787 8.552 9.935 10.191 12.606 10.191 16.711 0 8.074 4.853 14.193 11.312 14.285 2.013.031 5.275.748 7.255 1.602Zm226.851-25.609c-3.035 2.671-6.378 4.854-7.4 4.854-3.003 0-5.664-1.267-5.664-2.686 0-2.992-15.823-31.668-8.423-11.477 5.161 14.071-2.483 20.511 4.122 26.692 4.739 4.426 16.927 4.655 15.759.29-1.867-6.99 7.465-12.484 30.137-17.749 19.118-4.441 20.692-6.684 5.112-7.234-17.186-.61-27.07 1.542-33.643 7.31Zm154.469-45.417c-5.064-4.747-1.883-9.768 4.333-6.853 7.692 3.602 13.291 4.548 23.97 9.706 20.676 10.012-3.359-3.754-13.016-9.629-8.747-5.296-23.158-11.965-28.628-13.247-1.817-.428-3.602-1.221-3.959-1.771-1.12-1.694-4.236-1.099-6.314 1.191-1.103 1.205-5.501 3.266-9.786 4.578-8.439 2.564-32.214 12.102-34.064 13.644-2.11 1.755 29.439-2.122 32.734-4.029 4.105-2.381 11.36-1.435 14.995 1.969 7.271 6.791 26.129 10.438 19.735 4.441ZM339.633 335.192c14.785 6.517 14.623 4.426-.389-5.158-13.34-8.501-17.333-9.584-26.892-7.28-7.871 1.893-7.725 1.908-16.229-2.381-4.398-2.228-6.426-2.655-13.161-6.532-5.291-3.037-10.858-3.525-14.087-1.22-5.405 3.861-1.217 6.959 10.354 7.661 10.646.641 11.441 1.266 10.597 8.302-1.054 8.714 3.944 13.934 13.357 13.964 4.025 0 8.131.504 9.121 1.099 4.008 2.427 4.82 1.053 1.834-3.067-8.001-11.05 5.956-13.995 25.495-5.388ZM224.389 113.719c-5.21-14.82-31.517-40.87-38.171-37.834-1.46.687-5.372 1.45-8.666 1.71-7.238.595-23.191 6.76-29.943 9.233 3.652.244 9.754.93 15.759-.488 11.376-2.686 21.682-1.633 23.905 2.457 2.532 4.609 2.921 4.853 13.048 7.707 19.459 5.479 6.557 7.356 27.979 29.378 2.775 2.869 4.95 3.953 4.95 2.472 0-.335-1.818-3.281-4.041-6.547-2.223-3.266-4.398-6.913-4.82-8.088Z"/></svg>