<svg xmlns="http://www.w3.org/2000/svg" width="346" height="355" fill="none"><mask id="a" width="346" height="355" x="0" y="0" maskUnits="userSpaceOnUse" style="mask-type:luminance"><path fill="#fff" d="M0 0h345.569v354.922H0V0Z"/></mask><g mask="url(#a)"><path fill="#D7D4B5" d="M323.531 332.355h-5.741c-19.08 0-38.161 0-57.312-.072-2.069 0-2.631.564-2.56 2.617.14 5.894 0 11.715.07 17.609.07 1.921-.55 2.413-2.42 2.413-21.981-.072-43.973-.072-65.953-.072-32.912 0-65.824.072-98.736.072-3.11 0-3.11 0-3.11-3.121 0-5.678-.07-11.283.07-16.961.07-1.993-.49-2.557-2.42-2.557-20.05.072-40.172.072-60.293.072-2.9 0-2.9 0-2.9-2.917 0-20.586 0-41.172.07-61.686 0-2.197-.56-2.833-2.7-2.761-5.6.132-11.271 0-16.942.06-1.999.072-2.49-.636-2.49-2.545.07-30.249.07-60.558.07-90.795V93.28c0-3.061 0-3.061 3.04-3.061 5.67 0 11.27-.072 16.941 0 1.52 0 2.081-.42 2.081-2.053-.07-20.37-.07-40.68-.07-61.05 0-1.272.14-2.629.199-4.117 1.04-.072 1.94-.216 2.911-.216 19.911 0 39.892 0 59.803.072 2.14 0 2.77-.636 2.7-2.833-.14-5.75.07-11.427-.07-17.177C87.7.636 88.32 0 90.46 0c19.992.072 40.032 0 60.013 0h105.306c1.801 0 2.28.636 2.21 2.413-.07 5.966.07 11.86-.07 17.813-.071 1.993.561 2.557 2.49 2.557 20.051-.072 40.172-.072 60.223-.072 2.83 0 2.83 0 2.83 2.989 0 20.586 0 41.172-.07 61.686 0 2.053.421 2.76 2.56 2.689 5.6-.132 11.271 0 16.941-.06 2.011-.072 2.631.564 2.631 2.689-.07 31.449-.07 62.898-.07 94.276v74.95c0 2.917 0 2.917-2.911 2.917-5.659 0-11.259.072-16.93-.072-1.8 0-2.221.564-2.221 2.341.07 20.73.07 41.46.07 62.106.07.997.07 1.849.07 3.133ZM24.366 262.782v3.842c0 20.298.07 40.524-.07 60.834 0 2.268.55 2.761 2.7 2.761 19.981-.073 40.032-.073 60.013-.073 2.97 0 2.97 0 2.97 3.121 0 5.69.07 11.296-.07 16.973-.07 1.981.62 2.413 2.42 2.413 8.57-.072 17.222 0 25.792 0 24.202 0 48.333-.072 72.523-.072 20.951 0 41.903 0 62.784.072 1.73 0 2.35-.504 2.28-2.34-.07-5.678-.07-11.296-.07-16.974 0-3.193 0-3.193 3.11-3.193h62.573v-67.22c.971-.072 1.661-.144 2.35-.144h16.041c3.391 0 3.391.072 3.391-3.541 0-23.287-.07-46.574-.07-69.848 0-31.666 0-63.319.07-94.985 0-1.776-.69-2.197-2.21-2.124-5.472.072-11.002 0-16.532 0-3.11 0-3.18 0-3.18-3.121V28.329c0-3.338 0-3.41-3.25-3.41h-59.394c-3.04 0-3.04 0-3.04-3.06V5.534c0-3.265 0-3.265-3.18-3.265-32.35 0-64.713.072-97.064.072-20.811 0-41.563-.072-62.374-.072-3.18 0-3.18 0-3.18 3.337 0 5.605-.059 11.151.07 16.757.07 1.98-.55 2.628-2.49 2.628-7.81-.072-15.62-.072-23.43-.072-12.651 0-25.383 0-38.033-.072-1.31 0-1.86.42-1.79 1.921.13 1.98.13 4.045.13 6.026 0 7.526-.07 15.052-.07 22.579 0 11.571 0 23.202.07 34.774 0 1.632-.62 2.136-2.14 2.064-5.191.073-10.651.073-16.041.073-3.8 0-3.46-.36-3.46 3.48v138.63c0 8.727.07 17.525 0 26.264 0 1.632.49 2.268 2.08 2.124.48-.072.97 0 1.45 0h18.32Z"/></g><path fill="#D7D4B5" d="M318.97 27.477c.071 1.272.141 2.34.141 3.409v61.038c0 2.917 0 2.917 2.689 2.917 5.67 0 11.271.072 16.941-.072 1.941-.072 2.35.708 2.35 2.484-.07 10.924 0 21.859 0 32.794 0 21.439.07 42.877.07 64.315 0 21.079-.07 42.157 0 63.175 0 2.125-.549 2.905-2.759 2.833-5.741-.144-11.411 0-17.152-.072-1.73 0-2.139.576-2.139 2.281.07 20.574.07 41.088.07 61.674 0 3.481.07 3.409-3.321 3.409h-60.013c-1.73 0-2.35.504-2.279 2.341.07 5.894-.071 11.715.07 17.609.058 2.125-.702 2.701-2.701 2.701-18.941-.072-37.893-.072-56.903-.072H95.789c-3.601 0-3.601 0-3.601-3.841v-15.617c0-3.121 0-3.121-2.97-3.121H29.825c-3.11 0-3.11 0-3.11-3.193v-61.05c0-3.121 0-3.121-3.04-3.121H9.084c-4.84 0-4.35.576-4.35-4.321V98.034c0-3.265 0-3.265 3.251-3.265 5.6 0 11.13-.072 16.73 0 1.59 0 2.07-.577 2.07-2.137V27.333h5.25c19.29 0 38.652-.072 57.943.072 2.011 0 2.35-.709 2.28-2.557-.07-5.894.07-11.716-.07-17.61-.07-2.196.69-2.832 2.77-2.832 18.322.072 36.642.072 54.963.072h100.186c3.461 0 3.461 0 3.461 3.54 0 5.678.07 11.296-.071 16.974-.07 1.909.62 2.413 2.421 2.413 19.981-.072 40.032-.072 60.013-.072 1.029.144 1.929.144 3.039.144Zm-291.495.564v65.023c0 1.777-.48 2.413-2.28 2.34-5.6-.071-11.13-.071-16.73 0-3.04 0-3.04 0-3.04 3.194v158.159c0 2.761 0 2.833 2.759 2.833h16.251c2.9 0 2.9 0 2.9 2.989v61.038c0 3.337 0 3.337 3.18 3.337h59.604c2.759 0 2.759 0 2.759 2.917V346.4c0 3.205 0 3.205 3.051 3.205h93.545c20.25 0 40.441 0 60.703.072 1.871 0 2.56-.432 2.56-2.485-.14-5.822.071-11.571-.07-17.393-.07-2.281.69-2.773 2.759-2.773 17.631.072 35.262.072 52.893.072h9.962V262.507c0-2.773 0-2.845 2.829-2.845h16.041c3.11 0 3.11 0 3.11-3.193v-95.405c0-21.078 0-42.168.07-63.246 0-1.92-.549-2.485-2.35-2.413-5.67.144-11.271.072-16.941.072-2.689 0-2.759 0-2.759-2.917V31.09c0-2.977 0-2.977-2.912-2.977-20.051 0-40.032 0-60.071.072-2.011 0-2.701-.504-2.631-2.629.141-5.606.07-11.14.07-16.757 0-3.613.339-3.337-3.11-3.337-30.082 0-60.153.072-90.306.072-21.29 0-42.581 0-63.883-.132-2.07 0-2.619.636-2.56 2.689.14 5.822-.059 11.571.07 17.393.07 2.137-.62 2.7-2.619 2.7-19.15-.071-38.372-.071-57.523-.071-1.59-.072-3.25-.072-5.331-.072Z"/><path fill="#D7D4B5" d="M29.555 257.249H7.844V100.794c0-2.904 0-2.904 2.9-2.904 5.53 0 10.99-.072 16.52.072 1.87.072 2.42-.565 2.42-2.413-.059-18.954-.059-37.98-.059-56.933v-8.018h20.32c14.31 0 28.621-.072 42.932.072 2.081 0 2.63-.577 2.56-2.701-.14-5.894 0-11.716-.07-17.61-.07-1.98.632-2.412 2.42-2.412 41.284.072 82.625.072 123.897.072 8.792 0 17.631.072 26.411-.072 1.73 0 2.291.504 2.291 2.353-.07 5.953.071 11.847-.07 17.813-.07 2.052.55 2.557 2.491 2.557 20.051-.073 40.032-.073 60.083-.073H316c.07 1.273.128 2.341.128 3.41V94.84c0 3.049 0 3.049 2.982 3.049h15.83c2.9 0 2.9 0 2.9 3.121v152.685c0 3.841.69 3.697-3.66 3.697-5.319 0-10.721.072-16.041-.072-1.73-.072-2.069.564-2.069 2.197.058 20.946 0 41.88.058 62.827 0 1.98-.619 2.412-2.42 2.412-19.981-.072-40.02 0-60.013 0-3.379 0-3.379 0-3.379 3.553 0 5.462-.07 10.852.07 16.325.071 1.981-.561 2.557-2.49 2.557-21.431-.072-42.873 0-64.304 0H98.419c-3.052 0-3.052 0-3.052-3.205 0-5.534-.07-10.995.07-16.529.07-2.065-.55-2.701-2.618-2.701-19.981.072-40.033.072-60.014.072-3.121 0-3.121 0-3.121-3.121v-62.61c0-.576-.059-.997-.129-1.849Zm-18.742-79.716v9.795c0 21.367 0 42.733-.07 64.099 0 2.065.62 2.773 2.701 2.701 5.46-.144 10.99-.072 16.45 0 2.841 0 2.841 0 2.841 3.049v61.47c0 2.845 0 2.845 2.83 2.845 20.05 0 40.172 0 60.223-.072 1.93 0 2.56.564 2.56 2.557-.14 5.894 0 11.716-.07 17.597 0 1.921.62 2.485 2.491 2.485 8.289-.072 16.66.072 24.95.072 18.952 0 37.892-.072 56.833-.144 20.881 0 41.692 0 62.573.072 1.941 0 2.42-.78 2.35-2.557-.07-5.881 0-11.703-.07-17.597 0-1.921.561-2.485 2.42-2.485 20.122.072 40.313 0 60.434 0 2.491 0 2.689-.216 2.689-2.845v-61.47c0-2.977 0-2.977 2.912-2.977 5.67 0 11.27-.072 16.941 0 1.66 0 2.35-.576 2.209-2.268-.07-.853 0-1.705 0-2.629v-82.633c0-20.934 0-41.88.071-62.815 0-2.136-.562-2.917-2.771-2.844-5.39.144-10.85.072-16.24.072-3.051 0-3.051 0-3.051-3.05v-61.05c0-3.193 0-3.265-3.04-3.265h-59.593c-2.841 0-2.841 0-2.911-3.049 0-5.75-.07-11.427 0-17.177 0-1.776-.409-2.628-2.35-2.628-8.429.072-16.941 0-25.371 0-19.291 0-38.582.072-57.943.072-20.39 0-40.722 0-61.112-.072-1.941 0-2.42.708-2.35 2.556.07 5.894-.07 11.716 0 17.598 0 1.92-.491 2.628-2.49 2.628-20.192-.072-40.313 0-60.505-.072-2.14 0-2.76.709-2.619 2.773.07 2.833 0 5.606 0 8.45V97.53c0 3.337 0 3.337-3.18 3.337H13.923c-3.18 0-3.18 0-3.18 3.337v10.444c.07 21.078.07 41.952.07 62.886Z"/><path fill="#D7D4B5" d="M28.234 177.113c.14-82.345 65.064-148.58 145.678-148.292 77.095.216 141.398 63.535 143.678 144.031 2.421 86.954-66.034 153.886-145.479 153.393-79.023-.492-144.286-66.871-143.877-149.132Zm287.205-7.598c-.479-32.794-14.381-67.941-42.651-96.545-27.522-27.824-60.983-41.808-99.566-41.953-79.024-.276-142.836 65.24-142.836 146.372-.07 81.132 63.672 146.588 142.556 146.588 78.825 0 142.497-65.516 142.497-154.462Z"/><path fill="#D7D4B5" d="M284.117 260.73c.491-.924.83-1.993 1.391-2.845 10.92-16.253 18.321-34.138 21.981-53.596 2.56-13.768 3.11-27.68 1.66-41.664-2.759-26.9-12.3-50.895-28.411-72.19-.351-.492-.561-1.14-.9-1.632.62.564 1.239 1.14 1.73 1.776 14.241 18.81 23.43 39.888 27.101 63.463 5.671 36.479-1.251 70.269-20.741 101.286-1.11 1.849-2.49 3.625-3.811 5.402ZM61.696 94.192c-.41.853-.69 1.705-1.17 2.485-11.55 17.117-19.15 35.855-22.611 56.369-2.21 13.132-2.63 26.336-1.24 39.54 2.76 26.756 12.37 50.607 28.341 71.829.35.504.62 1.141.9 1.633-.479-.492-1.099-.853-1.52-1.417-14.31-18.881-23.64-40.032-27.311-63.667-5.74-36.275 1.11-69.993 20.472-101.022 1.24-1.98 2.76-3.829 4.139-5.75ZM86.447 287.414c.83.504 1.73.852 2.49 1.428 17.292 13.769 36.654 22.999 58.155 26.973 36.922 6.878 71.213-.217 102.605-21.583 1.31-.924 2.76-1.632 4.139-2.485-2.689 1.993-5.249 4.046-8.09 5.894-17.631 11.428-36.852 18.174-57.523 20.586-11.47 1.345-22.951 1.273-34.362-.432-24.611-3.685-46.801-13.276-66.373-29.169-.34-.36-.69-.78-1.04-1.212ZM259.436 67.508c-.76-.432-1.66-.78-2.35-1.284-16.731-13.264-35.332-22.423-56.073-26.612-37.682-7.67-72.734-.708-104.815 21.078-1.38.924-2.69 1.849-4.08 2.7.42-.491.83-1.14 1.32-1.56 17.772-13.06 37.542-21.15 59.113-24.415 10.16-1.572 20.32-1.992 30.492-1.212 28.212 2.268 53.442 12.351 75.633 30.525.281.216.491.492.76.78ZM80.916 72.694c-4.969 5.462-10.02 10.851-15 16.325.14-.432.14-.925.35-1.213 4.49-4.897 8.98-9.867 13.551-14.692.27-.216.76-.288 1.1-.42ZM279.909 88.803c-.14-.072-.281 0-.421-.144-4.77-5.114-9.47-10.287-14.17-15.4-.141-.217-.141-.493-.281-.781 5.6 4.898 10.791 10.083 14.872 16.325ZM265.107 282.445c.141-.348.141-.709.351-.985 4.841-5.185 9.611-10.443 14.451-15.616-.07.348-.07.78-.281.984-4.84 5.258-9.68 10.443-14.521 15.617ZM65.916 266.12c.21.072.42.144.55.288 4.84 5.245 9.68 10.575 14.52 15.832-.479-.216-1.099-.36-1.45-.72a2421.75 2421.75 0 0 1-13.129-14.26c-.28-.288-.35-.78-.491-1.14Z"/><path fill="#D7D4B5" d="M172.941 38.832c74.394 0 134.828 62.179 134.828 138.701 0 76.523-60.563 138.558-135.027 138.558-74.394-.072-134.828-62.251-134.758-138.846.07-76.378 60.633-138.413 134.957-138.413Zm109.585 213.376c-6.36 5.329-13.62 7.526-21.699 6.458-8.161-1.129-14.381-5.606-19.022-12.628-15.211 9.015-30.212 17.885-45.282 26.828 3.729 7.802 4.349 15.617 1.239 23.491-3.04 7.886-8.78 13.06-16.999 16.193 41.341-1.921 80.543-26.06 101.763-60.342Zm.071-149.637c-11.33-17.67-25.921-31.87-43.692-42.373-17.28-10.227-47.982-19.517-57.523-17.537 7.74 2.917 13.34 8.09 16.38 15.905 3.122 7.874 2.49 15.689-1.169 23.419 15.141 9.015 30.141 17.897 45.083 26.768 9.809-14.909 28.621-16.685 40.921-6.182ZM149.16 81.985c-6.98-14.188-1.871-32.794 15.831-39.744-21.08 1.416-40.301 7.382-58.143 17.957-16.45 9.723-40.932 33.718-43.423 42.661 6.36-5.462 13.621-7.742 21.712-6.602 8.09 1.14 14.24 5.75 18.882 12.496 15.14-9.015 30.071-17.885 45.141-26.768ZM63.227 252.424c24.54 36.347 58.212 56.501 101.144 60.198-14.17-5.33-23.231-22.291-15.281-39.684-15-8.871-30.071-17.813-45.071-26.696-9.821 14.704-28.072 16.757-40.792 6.182Zm228.021-15.329c17.97-39.756 18.041-79.512.059-119.255-.129 3.193.28 6.386-.199 9.506-1.941 13.132-11.06 21.931-24.061 23.563-1.38.145-1.941.505-1.941 2.065.07 16.325.07 32.578 0 48.903 0 1.632.561 1.992 2.081 2.208 9.47 1.057 16.661 5.894 21.22 14.549 3.04 5.749 3.672 11.991 2.841 18.461ZM54.575 117.84c-18.04 39.743-17.97 79.499 0 119.255-.48-4.549-.48-9.087.9-13.564 3.671-11.355 11.411-17.813 22.892-19.446 1.66-.216 2.14-.852 2.07-2.484-.07-2.917-.07-5.822 0-8.667.07-12.988.07-25.904.14-38.892 0-1.848-.21-2.916-2.49-3.193-9.26-1.212-16.252-6.109-20.671-14.704-3.04-5.75-3.671-11.919-2.841-18.305Zm188.481-8.379c.759.492 1.379.924 1.999 1.345 5.811 3.409 11.551 6.962 17.432 10.299 1.929 1.128 2.759 2.34 2.689 4.753-.14 7.238 0 14.476-.07 21.714 0 1.921.62 2.485 2.35 2.209.421-.072.83-.072 1.251-.144 14.311-2.269 24.061-16.829 21.08-31.377-3.589-17.177-21.571-26.048-36.852-18.102-4.139 1.993-7.529 4.898-9.879 9.303Zm.07 135.869c5.179 9.506 18.8 15.82 31.45 10.359 12.382-5.402 18.672-19.59 14.451-32.722-4.209-13.132-17-18.678-23.851-17.609v2.34c0 7.383-.07 14.765.07 22.147 0 1.777-.549 2.701-2.069 3.553-5.332 3.049-10.651 6.242-15.901 9.375-1.391.852-2.701 1.704-4.15 2.557Zm-47.714 28.172c-7.19 4.261-14.1 8.307-20.94 12.424-1.251.78-2.221.78-3.46 0-6.29-3.829-12.721-7.526-19.011-11.284-1.391-.852-2.291-.78-2.63.853-.76 3.757-2.14 7.598-2.082 11.427.141 12.496 9.482 23.215 21.162 25.124 12.58 2.064 24.342-4.97 28.551-17.106 2.561-7.238 2.011-14.332-1.59-21.438Zm-45.001-192.37c.83-.42 1.59-.78 2.28-1.2 6.08-3.625 12.229-7.238 18.251-10.935 1.309-.78 2.279-.924 3.659-.072 6.091 3.697 12.171 7.31 18.262 10.863.819.492 1.649.925 2.479 1.417 5.402-9.363 4.151-23.563-5.729-32.362-9.412-8.379-23.722-8.45-33.192-.216-9.26 8.09-12.031 22.567-6.01 32.506ZM80.846 97.11c-1.029.145-2.409.217-3.73.42-12.37 1.85-21.91 13.349-21.711 26.264.21 13.276 9.961 24.428 22.612 25.916 2.14.288 2.49-.504 2.49-2.413-.07-7.382.07-14.764-.07-22.146-.07-1.993.69-2.989 2.28-3.841 6.22-3.541 12.31-7.311 18.531-10.924 1.181-.708 1.52-1.14.549-2.412-5.18-7.034-12.159-10.516-20.951-10.864Zm21.852 148.425c-.69-.42-1.24-.853-1.859-1.201-5.67-3.337-11.271-6.89-17.082-10.011-2.77-1.488-3.53-3.265-3.46-6.241.21-6.891.07-13.781.07-20.659 0-1.704-.55-2.484-2.21-2.136-.491.072-.97.072-1.45.216-11.621 2.124-19.782 11.427-21.162 24.067-1.169 10.647 5.6 21.858 15.83 26.264 11.271 4.825 25.582.204 31.323-10.299Zm84.495 16.541c2.619 2.772 5.179 5.329 7.459 8.018.9 1.068 1.52 1.356 2.771.576 4.279-2.629 8.64-5.185 12.931-7.742 9.47-5.678 19.011-11.283 28.551-16.889 1.59-.924 2.14-1.705 1.309-3.697-1.028-2.341-1.66-4.898-1.999-7.454-.28-1.777-.83-2.269-2.49-2.269-9.961.072-19.841.072-29.802 0-1.66 0-2.561.636-3.32 2.052-3.379 6.254-6.91 12.424-10.441 18.606-1.719 3.049-3.449 6.098-4.969 8.799ZM148.611 84.05c-13.551 8.09-28.212 16.745-42.874 25.555-.409.204-.549 1.417-.339 2.125.69 2.845 1.801 5.605 2.28 8.522.281 1.777.9 2.053 2.42 2.053 9.891-.072 19.701-.072 29.592 0 1.59 0 2.49-.492 3.32-1.981 4.77-8.666 9.681-17.321 14.521-25.987.339-.637.69-1.345 1.029-2.053-.269.216-.62.42-.888.636-2.912-2.773-5.741-5.606-9.061-8.87Zm38.582 8.87c5.179 9.303 10.569 18.81 15.971 28.329.269.492 1.099.984 1.66.984 10.499.072 21.01.072 31.521 0 .549 0 1.379-.708 1.519-1.2.971-3.553 1.731-7.107 2.631-10.936-.14-.072-.62-.42-1.181-.78-6.43-3.829-12.79-7.598-19.221-11.427-7.529-4.478-15.14-9.015-22.67-13.492-.76-.42-1.379-1.2-2.35-.072-2.49 2.845-5.051 5.545-7.88 8.594Zm-37.612 178.385c2.9-2.844 5.39-5.401 8.079-7.814.97-.912.701-1.488.21-2.413-5.039-9.014-10.09-18.101-15.281-27.044-.409-.708-1.66-1.416-2.49-1.416-10.09-.072-20.11-.072-30.211-.072-1.38 0-1.859.432-2.14 1.92-.549 2.833-1.251 5.678-2.209 8.307-.632 1.56-.421 2.197.958 3.049 13.972 8.234 27.943 16.541 41.903 24.847.479.348.971.564 1.181.636ZM94.408 148.149c-3.6.996-6.851 2.052-10.242 2.7-1.66.277-2.21.781-2.21 2.473.07 10.515.07 21.018.07 31.522 0 5.749 0 11.427.07 17.177 0 .636.55 1.704 1.041 1.848 3.59 1.069 7.32 1.921 11.201 2.845-.07.06.199-.216.34-.504 5.12-9.159 10.299-18.245 15.35-27.464.421-.72.281-2.137-.21-2.917-3.73-6.89-7.6-13.696-11.47-20.514a330.15 330.15 0 0 0-3.94-7.166Zm156.937-.072s-.269.288-.479.636c-5.121 9.159-10.231 18.317-15.492 27.404-.69 1.2-.339 1.981.211 2.977 4.361 7.67 8.64 15.4 13.001 23.071.97 1.704 1.929 3.337 2.63 4.549 4.011-.996 7.67-1.848 11.271-2.917.479-.144 1.029-1.272 1.029-1.92.07-11.776 0-23.563 0-35.351 0-4.465.07-8.943-.07-13.48 0-.708-.62-1.848-1.169-2.065-3.531-.984-7.121-1.908-10.932-2.904Zm-77.574 30.669v24.691c8.582.996 19.642-7.514 20.542-12.628-6.711-3.973-13.422-7.886-20.542-12.063Zm20.612-14.981c-.14-.504-.21-.708-.28-.924-.141-.36-.351-.636-.48-.924-4.571-6.386-10.791-9.939-18.461-10.863-1.461-.145-1.66.636-1.66 1.776v21.018c0 .492.199.985.409 1.837 6.98-4.045 13.691-7.947 20.472-11.92Zm-43.422 27.26c4.77 7.311 10.99 11.5 19.15 12.484 1.52.216 1.941-.492 1.941-1.908-.07-5.678 0-11.428-.07-17.106v-5.749c-7.19 4.177-13.971 8.162-21.021 12.279Zm-.62-1.428c6.91-4.045 13.749-8.09 20.881-12.28-7.19-4.261-13.971-8.306-20.752-12.279-4.139 5.893-4.28 17.681-.129 24.559Zm68.583-40.248c7.331-4.321 14.451-8.511 21.852-12.772-1.462-1.776-2.701-3.265-3.812-4.753-1.239-1.633-2.619-1.993-4.63-1.501-4.77 1.069-9.68 1.993-14.521 2.917-2.28.42-4.559.924-7.12 1.489 2.771 4.969 5.39 9.651 8.231 14.62Zm-23.711 15.761a6410.218 6410.218 0 0 1-19.782 11.571c.69 1.705 14.112 10.155 19.911 12.64 4.221-5.042 4.291-18.246-.129-24.211Zm-90.364 53.032c1.648 2.052 2.97 3.901 4.63 5.461.69.636 1.999 1.068 2.899.924 3.461-.504 6.91-1.284 10.371-1.92 3.94-.78 7.81-1.561 12.03-2.413-2.829-5.041-5.46-9.795-8.231-14.692-7.26 4.117-14.31 8.234-21.699 12.64Zm46.521-54.521c6.711 3.973 13.422 7.947 20.472 12.064v-24.343c-6.501-1.069-17.631 5.533-20.472 12.279Zm-46.942-25.843c-.76 2.064-1.38 3.913-2.069 5.677-.76 1.921-.351 3.337 1.028 4.91 4.502 5.101 8.781 10.287 13.142 15.544.339.42.549.985.97 1.837 3.04-5.462 5.741-10.215 8.5-15.113-7.19-4.405-14.24-8.522-21.571-12.855Zm114.566 67.652c-2.771 4.897-5.39 9.579-7.95 14.272.339.276.479.42.69.492 7.541 1.489 15.07 3.049 22.611 4.477.48.073 1.169-.144 1.52-.504 1.66-1.776 3.25-3.685 5.109-5.821-7.529-4.394-14.579-8.583-21.98-12.916ZM173.502 96.893v24.068c0 1.416.97 1.344 1.929 1.344h12.651c.491 0 1.04-.216 1.66-.348a19.373 19.373 0 0 0-.409-1.633c-1.941-5.821-4.291-11.499-5.741-17.465-1.111-4.405-3.73-5.678-7.529-5.894-.702.072-1.392 0-2.561-.072Zm0 161.425c2.28-.433 4.209-.781 6.15-1.069 1.59-.288 2.49-1.14 3.04-2.845 1.04-3.469 2.28-6.878 3.39-10.287 1.24-3.697 2.491-7.382 3.8-11.283-.97-.072-1.66-.144-2.35-.144-3.87 0-7.74.072-11.61-.072-1.8-.072-2.49.492-2.42 2.413.14 6.181.07 12.279.07 18.461-.07 1.489-.07 2.977-.07 4.826Zm-1.52-161.64c-2.35.503-4.361.924-6.43 1.284-1.59.288-2.35 1.2-2.841 2.773-1.099 3.541-2.35 7.094-3.519 10.647-1.181 3.541-2.351 7.022-3.602 10.779.901.072 1.52.144 2.14.144 4.01 0 8.021-.072 12.031.072 1.73.072 2.35-.492 2.291-2.341-.07-6.602-.07-13.132-.07-19.734v-3.625Zm56.003 92.787c-2.841 4.957-5.472 9.723-8.161 14.548 7.331 4.334 14.381 8.511 21.782 12.844.76-2.269 1.379-4.117 1.999-5.894.62-1.704.281-2.976-.97-4.321-1.731-1.776-3.251-3.841-4.841-5.678-3.25-3.769-6.43-7.454-9.809-11.499Zm-101.226-40.32c2.771-4.898 5.39-9.591 8.02-14.344-.479-.216-.76-.36-.97-.42-7.261-1.429-14.521-2.917-21.77-4.262-.421-.072-1.111-.072-1.391.144-1.859 1.909-3.589 3.901-5.6 6.026 7.541 4.477 14.521 8.523 21.711 12.856Zm29.182 83.473c.07.636 0 .996.129 1.272 2.362 7.106 4.782 14.2 7.202 21.367.128.432.479.996.818 1.212 2.491 1.068 4.981 1.704 7.892 1.416 0-8.018 0-15.892-.07-23.851 0-.492-.9-1.344-1.391-1.344-4.7-.072-9.471-.072-14.58-.072Zm85.665-94.696c-7.541 4.405-14.591 8.594-21.852 12.855 2.759 4.898 5.32 9.507 8.161 14.405a2317.419 2317.419 0 0 0 15.55-18.594c.35-.432.491-1.284.35-1.776-.689-2.197-1.449-4.334-2.209-6.89Zm-123.967 51.603c-5.261 6.254-10.312 12.22-15.28 18.173-.351.361-.562 1.141-.421 1.561.619 2.413 1.309 4.765 2.081 7.454 7.249-4.249 14.03-8.234 20.741-12.28.269-.204.479-1.2.269-1.56-2.28-4.333-4.7-8.583-7.39-13.348Zm115.186 36.707c-.07-.072-.07-.144-.14-.144-7.26-1.417-14.451-2.917-21.711-4.333-.421-.072-1.111.072-1.251.36-1.099 1.776-2.14 3.613-3.18 5.461 7.541 4.898 20.811 4.118 26.282-1.344Zm-93.755 1.416c-.83-1.56-1.8-2.904-2.42-4.405-.62-1.416-1.52-1.632-2.911-1.272-4.139.852-8.29 1.704-12.37 2.484-2.771.565-5.6 1.141-8.57 1.705 6.15 5.606 19.56 6.314 26.271 1.488Zm93.054-55.156c7.401-3.481 13.761-16.397 11.691-23.923-3.869 4.549-7.611 9.014-11.411 13.492-4.15 4.825-4.15 4.825-.619 10.155.14.132.21.132.339.276Zm-48.181 82.837c8.02-3.121 15.62-15.329 14.24-22.711-1.8 0-3.73-.072-5.6.072-.491.072-1.251.708-1.38 1.272-2.42 7.034-4.77 14.056-7.26 21.367Zm0-155.879c2.139 6.386 4.139 12.28 6.149 18.246 1.661 4.897 1.661 4.825 6.782 4.681 1.449-.072 1.788-.492 1.59-1.981-.562-5.257-2.631-9.867-5.811-13.984-2.21-2.917-4.981-5.257-8.71-6.962Zm22.67 27.896c.83 1.561 1.66 2.977 2.42 4.406.561 1.056 1.181 1.416 2.35 1.128 2.771-.636 5.53-1.056 8.301-1.632 4.291-.853 8.57-1.705 13.141-2.617-6.57-5.546-19.221-6.11-26.212-1.285Zm-104.886 21.439c-1.309 8.594 4.572 20.298 11.902 23.779.819-1.416 1.52-2.905 2.42-4.261.76-1.129.62-1.981-.28-2.977a1202.283 1202.283 0 0 1-12.311-14.549c-.48-.648-1.029-1.212-1.731-1.992Zm59.183 106.34c.14-.144.351-.216.491-.361-2.35-7.022-4.7-14.056-7.12-21.078-.14-.432-.9-.996-1.391-.996-6.361.072-6.15-1.285-4.829 5.606 0 .072 0 .144.059.216 2.01 7.454 6.301 12.915 12.79 16.613Zm-47.842-126.494c7.331 1.416 14.381 2.833 21.431 4.177.561.072 1.461-.204 1.73-.636 1.041-1.561 1.871-3.193 2.771-4.754-6.29-4.825-19.502-4.261-25.932 1.213Zm118.997 53.584c-.9 1.5-1.66 2.989-2.49 4.333-.631.996-.631 1.705.199 2.629 4.501 5.185 8.85 10.431 13.352 15.617.269.348.689.564 1.099.924.83-8.811-4.56-19.314-12.16-23.503ZM93.777 147.08c-4.08-7.238-7.74-13.696-11.61-20.586v23.923c3.94-1.14 7.53-2.196 11.61-3.337Zm0 60.834c-3.52-.924-6.5-1.848-9.54-2.556-1.59-.42-2.21.288-2.21 2.064.07 6.098 0 12.28.07 18.378 0 .708.07 1.488.14 2.845 3.87-7.034 7.46-13.564 11.54-20.731Zm67.554-107.756c-7.05 3.553-11.621 9.159-13.27 16.829-1.532 6.746-1.111 5.042 4.139 5.318 1.321.072 1.871-.492 2.28-1.705.631-2.124 1.391-4.261 2.151-6.385 1.52-4.682 3.11-9.375 4.7-14.057Zm-59.674 105.836c4.981-5.822 9.681-11.355 14.322-16.961.339-.42.48-1.345.199-1.849-.76-1.632-1.66-3.121-2.549-4.681-7.061 3.121-12.931 14.404-11.972 23.491ZM175.571 71.41l-.28.288c3.671 6.458 7.26 12.916 11.002 19.59 3.519-2.197 6.149-4.898 8.359-8.523-6.5-3.901-12.79-7.658-19.081-11.355Zm10.991 191.805c-4.011 7.094-7.6 13.624-11.271 20.082l.28.288c6.291-3.757 12.651-7.526 19.502-11.643-2.981-3.049-5.53-5.75-8.511-8.727Zm76.615-35.074c.128 0 .199-.06.339-.06v-5.822c0-5.042.07-10.155-.07-15.197 0-.636-.69-1.848-1.029-1.776-3.601.216-6.992 1.284-10.312 3.193 3.811 6.674 7.401 13.204 11.072 19.662ZM151.101 82.633c2.21 3.613 4.77 6.314 8.219 8.51 3.741-6.601 7.261-12.915 10.862-19.301-.141-.144-.281-.216-.421-.36-6.15 3.697-12.23 7.31-18.66 11.151Zm100.805 64.231c3.391.997 6.29 1.921 9.26 2.701 1.66.432 2.42-.216 2.42-2.125-.07-5.257 0-10.515 0-15.832v-5.462c-4.01 7.094-7.67 13.624-11.68 20.718Zm-92.785 116.495a981.628 981.628 0 0 0-8.441 8.727c6.781 4.045 13.001 7.67 19.151 11.355.14-.144.21-.288.351-.42-3.601-6.398-7.191-12.712-11.061-19.662Zm-51.864-30.525h-22.05c0 .144-.07.204-.07.348 6.091 3.625 12.24 7.238 18.94 11.223 1.041-4.045 2.081-7.598 3.18-11.571Zm-.689-110.673c.14-3.613-.959-6.878-2.421-9.927-.198-.432-1.59-.72-2.069-.432-5.67 3.265-11.27 6.602-16.871 9.939-.07.072-.07.288-.07.348 7.19.072 14.24.072 21.431.072Zm153.627 0c.071-.132.071-.276.141-.42-6.01-3.625-12.101-7.166-18.66-11.08a526.95 526.95 0 0 1-3.122 11.5h21.641Zm-18.461 122.1c6.641-3.973 12.662-7.526 18.672-11.079-.07-.144-.14-.204-.211-.348h-21.571a472.256 472.256 0 0 1 3.11 11.427Zm-22.401-43.369c.141 0 .211.072.351.072 2.21-3.913 4.419-7.886 6.571-11.787.21-.432.339-1.284.14-1.561-2.151-2.7-4.431-5.257-7.062-8.306v21.582Zm-93.053-21.51c-2.561 3.049-4.841 5.678-6.992 8.378-.199.277-.199.985-.058 1.345 2.209 4.045 4.489 8.09 7.05 12.64v-22.363Zm-.141-4.189v-21.799c-2.28 4.117-4.361 7.743-6.36 11.368-.14.276-.351.492-.421.78-.07.564-.199 1.344.07 1.704 2.152 2.545 4.291 5.102 6.711 7.947Zm50.192 55.228c.071.204.141.348.211.564h7.74c6.29 0 6.29 0 8.301-6.037.479-1.489.97-2.977 1.59-5.102-6.36 3.757-12.101 7.166-17.842 10.575Zm-7.12.492c.07-.144.07-.288.141-.42-5.881-3.481-11.692-6.962-18.052-10.719 1.251 3.757 2.291 6.95 3.46 10.071.211.504 1.041.996 1.59 1.068 4.291.072 8.57 0 12.861 0Zm-84.074-1.272c.07.072.07.132.14.276 6.43-1.272 12.86-2.485 19.221-3.829.55-.144 1.45-1.14 1.31-1.561-.48-1.92-1.31-3.769-2.07-5.821-6.43 3.757-12.51 7.382-18.601 10.935Zm44.463-22.867c-.07.144-.14.216-.281.36 2.14 3.829 4.221 7.671 6.431 11.356.28.504 1.239 1.068 1.8.924 3.18-.492 6.29-1.2 10.02-1.921a1426.18 1426.18 0 0 1-17.97-10.719Zm86.284-58.913c.07-.072.199-.144.269-.216-2.21-3.902-4.349-7.731-6.559-11.632-.21-.432-.9-.924-1.251-.852-3.32.564-6.571 1.272-10.441 2.052 6.291 3.697 12.101 7.167 17.982 10.648Zm-86.284-.493c.129.144.199.204.339.349 5.741-3.409 11.481-6.807 17.222-10.216-3.321-1.14-6.641-1.776-9.891-2.34-.281-.072-.83.276-1.041.564-2.28 3.829-4.419 7.73-6.629 11.643Zm68.443 70.125c2.56.504 4.489.925 6.43 1.285 4.7.924 4.7.924 7.12-3.337 1.52-2.629 2.97-5.33 4.431-7.947l-.42-.432c-5.671 3.409-11.341 6.746-17.561 10.431Zm-46.533-83.184c.14.132.281.276.351.348 5.74-3.409 11.469-6.806 17.14-10.215-4.42-.505-8.64-.505-12.861-.433-.55 0-1.45.709-1.66 1.285-1.029 2.977-1.999 6.026-2.97 9.015Zm90.365 1.632c6.22-3.697 12.101-7.106 18.052-10.575-6.361.84-12.592 1.98-18.742 3.325-.55.144-1.38 1.212-1.239 1.632.409 1.777 1.169 3.553 1.929 5.618Zm-22.542 39.324a481.451 481.451 0 0 0 6.781-8.091c.281-.288.41-.996.211-1.356-2.151-3.973-4.431-7.946-6.641-11.92-.14.072-.281.144-.409.144.058 6.878.058 13.769.058 21.223Zm-45.632-79.932c2.291-.42 4.431-.78 6.781-1.14-2.28-6.734-4.419-13.132-6.571-19.446-.07 0-.14.072-.269.072.059 6.674.059 13.42.059 20.514Zm3.18 28.676c-.059.144-.059.361-.129.505 5.671 3.337 11.271 6.734 16.93 10.071-.69-3.469-1.789-6.674-2.9-9.795-.14-.348-.69-.781-1.11-.781h-12.791Zm-3.239 156.167c.059 0 .199.072.269.072 2.152-6.386 4.291-12.712 6.501-19.446-2.42-.432-4.49-.78-6.77-1.14v20.514Zm-70.325-143.035c-6.08-3.541-11.75-6.95-17.42-10.287-.07.144-.21.276-.27.348 4.35 5.114 8.64 10.227 13.2 15.617 1.521-1.981 2.9-3.685 4.49-5.678Zm68.525-41.808V74.53c-2.21 5.893-4.291 11.86-6.162 17.825-.128.564.281 1.776.702 1.909 1.719.504 3.519.72 5.46 1.068Zm.07 164.401c-1.181.144-2.081.288-2.981.36-3.8.492-3.8.492-2.619 4.117 1.789 5.318 3.589 10.575 5.39 15.893.07 0 .14-.072.28-.072-.07-6.602-.07-13.276-.07-20.298Zm-67.893-124.081c.619-1.777 1.169-3.193 1.718-4.609.632-1.633.141-2.353-1.52-2.629-4.01-.708-8.02-1.489-12.03-2.269-1.789-.36-3.52-.72-5.32-1.068 0 .144-.07.288-.07.348 5.6 3.409 11.27 6.746 17.222 10.227Zm138.616 81.912c6.021 3.553 11.621 6.818 17.151 10.155.07-.144.141-.216.281-.36a3127.07 3127.07 0 0 1-13.001-15.328c-1.52 1.92-2.841 3.553-4.431 5.533Zm16.391 11.932c0-.144.07-.288.07-.432-5.67-3.337-11.27-6.602-17.221-10.143-.76 2.052-1.45 3.685-1.929 5.389-.141.433.549 1.489 1.028 1.561 6.022 1.284 12.031 2.413 18.052 3.625Zm-172.638-3.061c.128.144.198.288.339.432 5.32-3.121 10.65-6.242 16.251-9.579-1.59-1.92-2.911-3.481-4.36-5.329-4.21 5.041-8.22 9.795-12.23 14.476Zm156.247-89.151c1.461 1.849 2.771 3.481 4.22 5.33 4.291-5.114 8.372-9.867 12.382-14.632-.07-.072-.141-.204-.281-.276-5.32 3.12-10.651 6.241-16.321 9.578Zm-101.776 35.351c3.32-2.197 6.091-4.898 8.02-8.595-2.139-1.272-4.01-2.412-6.149-3.685-.971 2.905-1.801 5.606-2.76 8.163-.631 1.56-.491 2.845.889 4.117Zm2.42 22.927c2.362 2.845 4.501 5.401 6.711 7.874.9 1.068 2.561.648 2.561-.492 0-3.901-1.111-7.526-3.11-11.007-2.081 1.212-3.94 2.28-6.162 3.625Zm30.293-53.452c0 2.269-.07 4.261.07 6.182 0 .42.62 1.128.959 1.056 3.601-.204 7.062-.984 10.511-3.193-.9-.852-1.45-1.909-2.21-2.125-2.899-.708-5.881-1.212-9.33-1.92Zm-31.813 54.304c-4.209 2.485-8.09 4.753-12.03 7.022.07.072.14.216.21.288h14.311c-.83-2.485-1.59-4.753-2.491-7.31Zm59.534 7.382h15c-4.419-2.629-8.359-4.897-12.51-7.382-.9 2.629-1.66 4.898-2.49 7.382Zm-51.583-41.1c1.73-3.829 2.981-7.454 2.771-11.848-1.111.277-2.21.205-2.701.781-2.14 2.268-4.081 4.681-6.29 7.382 2.151 1.272 4.08 2.413 6.22 3.685Zm10.581-16.685c3.671 2.209 7.05 3.133 10.58 3.337.351 0 1.111-.636 1.111-1.056.129-1.921.07-3.841.07-6.11-3.121.636-5.951 1.068-8.722 1.776-.958.288-1.788 1.201-3.039 2.053Zm41.972 13.132c-2.279-2.689-4.29-5.102-6.43-7.454-.421-.42-1.251-.492-1.871-.492-.28 0-.76.708-.76.996.141 3.685 1.041 7.166 2.9 10.575 2.081-1.272 3.952-2.341 6.161-3.625Zm-6.091 32.734c-1.719 3.973-3.18 7.658-2.829 11.847 1.929.216 6.15-3.973 8.64-8.378-1.871-1.057-3.73-2.197-5.811-3.469Zm8.781-18.678c.561-1.56 1.18-2.557.97-3.265-.9-3.121-1.999-6.098-3.11-9.363-2.14 1.273-4.01 2.341-6.43 3.83l8.57 8.798Zm-19.911 35.423c-3.8-1.981-7.331-3.193-11.341-2.833v6.674c3.25-.648 6.302-1.213 9.271-1.921.69-.144 1.24-1.14 2.07-1.92Zm-36.291-18.102c-2.222-3.481-4.77-6.17-8.091-8.234-1.391 1.992-.07 8.018 2.35 11.571a290.396 290.396 0 0 1 5.741-3.337Zm52.612-39.395c.83 2.556 1.59 4.753 2.42 7.166 4.081-2.413 7.881-4.61 12.171-7.166h-14.591Zm-20.671 64.735c-2.279-.492-4.15-.924-6.091-1.273-.339-.072-1.029.565-1.029.925-.07 4.045-.07 8.162-.07 12.207.14.072.269.072.479.144 2.14-3.841 4.361-7.742 6.711-12.003Zm25.02-33.286c-.409-.144-.83-.288-1.169-.432-2.56 2.701-5.121 5.329-7.95 8.234 2.42 1.429 4.291 2.485 6.29 3.625 1.041-3.049 1.999-5.677 2.829-8.306.281-.996 0-2.053 0-3.121Zm-24.949-43.729c-2.421-4.261-4.642-8.163-7.062-12.568v13.912c2.362-.42 4.501-.84 7.062-1.344Zm-19.783 69.633c.76 2.064 7.261 4.045 11.002 3.409 0-1.633.07-3.409-.07-5.042-.07-.42-.9-1.056-1.391-1.056-3.379-.072-6.559 1.056-9.541 2.689Zm36.303 7.106c.14.144.21.204.351.348 5.249-3.121 10.499-6.242 15.76-9.291-4.291.492-8.441 1.272-12.522 2.197-.62.144-1.379.708-1.648 1.344-.76 1.705-1.322 3.553-1.941 5.402Zm-32.421.276c2.35 4.117 4.49 8.03 6.91 12.352v-13.769c-2.35.493-4.431.925-6.91 1.417Zm28.761 2.485c-2.151-.421-3.741-.637-5.191-1.057-1.52-.432-2.63-.072-3.659 1.273-2.011 2.556-4.221 5.041-6.36 7.598-.351.42-.632.924-.971 1.416.07.072.211.144.269.216 5.191-3.121 10.312-6.109 15.912-9.446Zm-28.761-79.5c2.549.504 4.7.852 6.98 1.344v-13.768c-2.42 4.333-4.572 8.163-6.98 12.424Zm-28.563 26.192a473.759 473.759 0 0 1 4.77-5.606c-3.869-2.269-7.459-4.405-11.13-6.53-.07.144-.21.288-.281.36a925.02 925.02 0 0 1 6.641 11.776Zm-5.39-13.912c-.07.144-.07.216-.14.36 3.601 2.124 7.191 4.261 11.06 6.53.76-2.341 1.52-4.478 2.28-6.818-4.63-.072-8.909-.072-13.2-.072Zm1.661 55.228c-.07.144-.07.216-.141.36 5.191 3.049 10.301 6.098 15.971 9.435-.76-2.341-1.169-4.117-1.941-5.678-.339-.78-1.239-1.56-1.999-1.704-3.94-.925-7.95-1.633-11.89-2.413Zm44.872-79.5c-.07.144-.14.204-.21.348 2.7 3.193 5.46 6.458 8.231 9.663.339.42 1.028.841 1.519.781 2-.289 3.941-.721 6.501-1.285-5.741-3.409-10.932-6.458-16.041-9.507Zm-49.432 53.38v18.738c1.029-3.049 1.929-5.606 2.759-8.091 2.011-5.893 2.011-5.893-2.21-10.371 0 0-.07 0-.549-.276Zm0-6.254c.199.072.339.144.549.216a100.388 100.388 0 0 0 3.66-4.405c.21-.276.351-.852.21-1.128-1.309-4.045-2.7-8.091-4.01-12.136-.14 0-.28.072-.409.072v17.381Zm24.05 44.366c5.74 3.409 10.861 6.458 16.041 9.518-2.549-3.553-5.32-6.818-8.079-10.083-.351-.42-1.111-.78-1.59-.708-1.941.348-3.812.78-6.372 1.273Zm65.555-38.616c-1.591 1.921-2.982 3.481-4.221 5.114-.281.36-.351 1.14-.211 1.56 1.38 4.189 2.771 8.307 4.151 12.424.07 0 .14-.072.21-.072.071-6.17.071-12.352.071-19.026Zm-65.485-43.369c2.49.504 4.291.852 6.091 1.14.479.072 1.239.072 1.52-.216 2.829-3.193 5.53-6.458 8.301-9.65-.14-.145-.281-.289-.351-.433-4.98 2.917-10.031 5.822-15.561 9.159Zm-19.42 11.5c.07.144.14.288.14.432 4.069-.781 8.149-1.633 12.23-2.485.35-.072.83-.432.97-.708.69-1.993 1.38-3.985 2.21-6.542a1923.875 1923.875 0 0 1-15.55 9.303Zm64.362-9.363c.83 2.485 1.45 4.393 2.152 6.242.128.42.619.852.958.996 4.221.924 8.372 1.704 12.592 2.557.07-.144.07-.288.129-.36-5.039-3.049-10.16-6.11-15.831-9.435Zm20.543 17.741c-.141-.072-.211-.072-.351-.144-1.38 4.117-2.771 8.162-4.081 12.28-.14.432-.07 1.068.211 1.416 1.239 1.633 2.56 3.133 4.221 5.042v-18.594Zm-1.941-2.629c-.141-.072-.211-.216-.351-.288-3.449 2.065-6.98 4.117-10.71 6.326 1.591 1.849 2.97 3.541 4.63 5.462 2.28-4.118 4.361-7.803 6.431-11.5Zm-11.061 41.461c3.66 2.196 7.121 4.189 10.511 6.169l.409-.42c-2.069-3.697-4.15-7.382-6.36-11.295-1.59 2.065-2.969 3.697-4.56 5.546Zm-63.754 0a358.682 358.682 0 0 0-4.56-5.402c-2.209 3.901-4.279 7.598-6.36 11.295.14.132.281.204.421.349 3.449-2.053 6.84-4.046 10.499-6.242Zm-3.589 26.191a983.385 983.385 0 0 0 3.46 6.17c2.69-2.688 5.18-5.101 7.67-7.526-.14-.204-.339-.492-.479-.708-3.391.648-6.781 1.356-10.651 2.064Zm90.294-53.379c-2.49 2.904-4.7 5.605-6.98 8.306.141.204.281.492.409.708 3.181-.996 6.431-1.92 9.962-2.989-1.31-2.268-2.21-3.901-3.391-6.025Zm-19.221 53.307c-3.8-.708-7.12-1.344-10.441-1.992-.14.288-.268.504-.409.78 2.35 2.353 4.77 4.693 7.389 7.25 1.322-2.28 2.292-3.985 3.461-6.038Zm-9.47 9.579c-.9-3.613-1.66-6.95-2.49-10.287-.281 0-.48.072-.76.072-1.111 3.337-2.21 6.674-3.391 10.215h6.641Zm-80.894-62.814a297.13 297.13 0 0 1-3.321 5.953c3.531 1.069 6.711 1.993 9.821 2.917.14-.288.211-.504.351-.78-2.151-2.557-4.361-5.114-6.851-8.09Zm80.894-43.729h-6.641c1.181 3.553 2.35 6.89 3.461 10.155.28 0 .479.06.76.06.76-3.325 1.59-6.662 2.42-10.215Zm9.33 9.23c-1.169-2.064-2.07-3.697-3.321-5.749a1143.086 1143.086 0 0 1-7.12 6.878c.14.288.281.504.491.78 3.18-.564 6.36-1.201 9.95-1.909Zm22.331 48.195c-1.859-1.921-7.12-3.481-9.611-2.845 2.222 2.629 4.361 5.113 6.711 7.886 1.111-1.848 2.07-3.481 2.9-5.041Zm-89.804-54.088c-1.251 2.196-2.221 3.901-3.32 5.821 3.659.708 6.84 1.345 10.09 1.981.14-.204.28-.492.421-.708-2.28-2.269-4.572-4.466-7.191-7.094Zm12.651 103.278a734.798 734.798 0 0 0-3.391-9.939c-.28 0-.479 0-.76-.072-.76 3.265-1.45 6.458-2.28 10.011h6.431Zm-28.691-52.095c-.141-.216-.281-.504-.421-.72-3.11.996-6.15 1.992-9.541 3.06 1.251 2.197 2.14 3.758 3.18 5.606 2.491-2.845 4.63-5.401 6.782-7.946Zm22.26-54.665c.83 3.554 1.59 6.746 2.35 9.939.211 0 .48-.072.69-.072 1.041-3.193 2.14-6.385 3.25-9.795-2.209-.072-3.94-.072-6.29-.072Zm92.095 106.688h17.491v-.144c-5.67-1.056-11.341-2.196-17.222-3.337-.058 1.357-.199 2.281-.269 3.481Zm-149.068-.144c0 .072.07.144.07.144h16.941c-.619-1.344.55-3.541-2.011-3.121-4.968.853-9.95 1.921-15 2.977Zm168.219-98.165c-.14-.144-.28-.216-.421-.36-3.18 3.769-6.36 7.598-9.739 11.499 1.029.709 1.859 1.285 2.759 1.921 2.561-4.477 4.981-8.799 7.401-13.06Zm-76.264 128.978a1147.193 1147.193 0 0 0-5.11 15.257c.129.072.199.072.34.144 2.56-4.609 5.12-9.159 7.81-13.984-1.17-.492-2-.924-3.04-1.417Zm3.04-169.298c-2.69-4.826-5.25-9.447-7.81-13.984-.141.072-.211.072-.34.144 1.719 5.041 3.379 10.01 5.18 15.184.97-.42 1.73-.852 2.97-1.344Zm-24.331 170.787c2.631 4.681 5.11 9.087 7.53 13.492l.421-.216c-1.661-4.826-3.321-9.651-4.981-14.693-1.041.493-1.871.925-2.97 1.417ZM87.487 131.824c-.07.072-.21.204-.27.276 2.48 4.477 5.04 8.943 7.67 13.636.971-.708 1.73-1.356 2.631-2.065-3.46-4.045-6.71-7.946-10.031-11.847Zm151.769-4.478c5.319-1.068 10.3-2.052 15.211-2.976 0-.072 0-.144-.071-.144h-15.491c.14 1.068.281 1.92.351 3.12Zm-11.692 103.567c3.18 0 6.091 0 9.061-.072.409 0 1.169-.492 1.239-.78.141-.924.281-2.485-.198-2.833-.772-.576-2.222-.72-3.122-.36-2.35 1.14-4.49 2.557-6.98 4.045ZM168.592 78.648c-.071-.072-.211-.072-.281-.132-2.49 4.465-4.981 8.87-7.6 13.552 1.099.492 1.93.852 2.97 1.272 1.66-5.101 3.25-9.927 4.911-14.692Zm-61.814 45.505H91.287c0 .073 0 .073-.059.145 4.969.996 9.95 1.98 15.211 2.976.129-1.128.199-2.052.339-3.121Zm11.551-.144c-3.32 0-6.29-.072-9.271.072-.409 0-1.029.709-1.099 1.213-.14.708 0 2.052.269 2.124 1.04.361 2.42.781 3.39.361 2.21-.925 4.291-2.353 6.711-3.77Zm-.07 106.904c-2.42-1.416-4.501-2.832-6.711-3.829-.97-.432-2.35-.288-3.32.204-.409.216-.48 1.993-.141 2.773.281.564 1.462.78 2.292.852 2.479.072 5.039 0 7.88 0ZM160.08 93.064c-1.648 2.905-3.239 5.75-4.829 8.583 1.859-.78 3.309-1.98 4.969-2.761 2.011-.924 2.561-2.413 2.771-4.477-.97-.349-1.8-.78-2.911-1.345Zm-4.56 159.996c-.07.072-.21.144-.269.216a516.374 516.374 0 0 1 4.899 8.727c1.041-.781 2.491-1.345 2.701-2.197.21-.78-.55-2.269-1.309-2.917-1.871-1.488-4.011-2.545-6.022-3.829Zm71.904-129.051c2.28 1.285 4.08 2.413 6.021 3.337.97.433 2.21.565 3.32.433.48-.072 1.029-1.357 1.029-1.993 0-.564-.83-1.633-1.309-1.633-2.83-.216-5.741-.144-9.061-.144ZM100.348 199.32c-1.45 2.629-3.18 5.618-4.91 8.739.97.708 1.8 1.344 2.98 2.268.69-1.56 1.649-2.701 1.789-3.973.351-2.413.141-4.897.141-7.034Zm-5.53 9.867c-2.49 4.477-4.84 8.666-7.19 12.856.07.072.21.144.28.216 3.11-3.697 6.22-7.382 9.4-11.152-.83-.78-1.52-1.2-2.49-1.92ZM185.672 93.34c-3.32 1.14-4.01 2.557-2.151 4.19 1.87 1.632 4.22 2.7 6.43 4.045.07-.06.14-.204.211-.276-1.52-2.63-2.97-5.258-4.49-7.959Zm-90.166 53.596c1.59 2.845 3.11 5.546 4.63 8.307.281-2.125-.07-4.117.14-5.966.211-2.053-.62-3.265-2.14-4.321-.83.564-1.66 1.2-2.63 1.98Zm94.585 106.76c-.14-.144-.28-.276-.42-.492-2 2.701-6.7 2.341-7.191 7.094 1.041.504 2.011.924 3.122 1.429 1.59-2.845 3.04-5.474 4.489-8.031Zm57.114-109.244c-.701 1.14-1.66 1.992-1.73 2.916-.211 2.413-.07 4.826-.07 7.947 1.8-3.193 3.25-5.822 4.84-8.583-1.111-.792-1.941-1.356-3.04-2.28ZM141.21 126.71c2.069 1.777 4.01 3.409 6.021 5.186-.421-2.137-.702-4.045-1.111-5.966-.14-.636-.619-1.777-.9-1.777-1.041 0-2.14.289-3.04.781-.421.288-.619 1.212-.97 1.776Zm0 101.575c.421.708.619 1.632 1.11 1.92.831.42 1.93.564 2.9.636.281 0 .76-.564.83-.924.409-2.197.69-4.465 1.111-6.746-1.941 1.705-3.882 3.337-5.951 5.114Zm57.312-5.246c.421 2.125.702 4.117 1.111 6.098.14.636.479 1.704.76 1.704.97 0 2.011-.144 2.841-.636.549-.36.76-1.284 1.169-1.992a186.93 186.93 0 0 0-5.881-5.174Zm-77.223-45.506c-1.941-.78-3.73-1.488-5.46-2.052-.561-.216-1.66-.288-1.801 0-.479.78-.9 1.764-.83 2.689.07.708.76 1.428 1.181 2.064 2.35-.996 4.49-1.776 6.91-2.701Zm77.223-45.637a184.579 184.579 0 0 0 5.811-5.114c-.339-.636-.55-1.56-1.099-1.92-.76-.492-1.801-.781-2.631-.709-.351 0-.83 1.069-.97 1.705-.409 1.921-.69 3.829-1.111 6.038Zm51.654 76.307a527.386 527.386 0 0 1-4.56-8.163c0 2.125.129 3.973-.07 5.75-.211 2.052.69 3.193 2.21 4.249.83-.708 1.519-1.2 2.42-1.836Zm-1.801 2.904c2.841 3.337 5.46 6.458 8.161 9.579.14-.132.281-.204.479-.348-2.069-3.625-4.08-7.31-6.22-11.079-.9.648-1.52 1.14-2.42 1.848Zm-23.851-33.646c2 .781 3.8 1.561 5.671 2.137.479.132 1.309-.072 1.66-.432 1.029-1.068 1.029-2.341 0-3.409-.351-.348-1.181-.636-1.66-.492-1.801.636-3.671 1.416-5.671 2.196Zm-68.934 21.367c1.591 4.897 3.531 6.038 8.641 4.897-2.83-1.56-5.799-3.265-8.641-4.897Zm-9.259-16.397v-10.215c-3.461 4.321-3.461 5.882 0 10.215Zm40.792-35.699c.549 1.909 1.45 3.193 3.519 2.689.491-.144 1.251-.78 1.181-1.056-.211-.997-.491-2.209-1.181-2.701-1.309-.924-2.49-.072-3.519 1.068Zm-53.864 24.343c-1.66 1.981-2.969 3.554-4.36 5.186.14.132.28.348.35.492 1.731-.36 3.531-.708 5.53-1.14-.479-1.561-.97-2.833-1.52-4.538Zm30.492-19.877c-5.881-.493-7.05.216-8.161 4.825 2.631-1.56 5.32-3.193 8.161-4.825Zm-9.891-2.977c-.14 1.128.69 1.344 1.871 1.272 1.239-.072 3.11-1.704 2.63-2.701-.35-.708-1.461-1.344-2.221-1.416-1.52-.072-2.28.924-2.28 2.845Zm27.452 55.648c6.22.42 7.67-.36 8.301-4.549-2.701 1.428-5.472 2.989-8.301 4.549Zm31.041-32.866c-.549 1.705-.97 2.977-1.449 4.61 1.999.432 3.729.708 5.53 1.068.07-.216.14-.42.21-.564-1.379-1.632-2.701-3.193-4.291-5.114Zm-6.43 9.087c1.52-.216 2.42-1.14 2.42-2.701 0-1.632-1.04-2.412-2.49-2.628-1.999 2.484-1.999 2.7.07 5.329Zm-64.164-2.845c-.9-.924-1.929-2.268-2.28-2.124-.9.36-2.069 1.344-2.209 2.268-.211 1.357.83 2.701 2.209 2.485.76-.144 1.38-1.56 2.28-2.629Zm48.263-21.438c-1.999-4.898-3.46-5.75-7.74-4.465a614.148 614.148 0 0 0 7.74 4.465Zm-42.171 53.596c.83 2.413 1.449 4.405 2.139 6.326h.55c.561-1.777 1.11-3.553 1.73-5.474-1.59-.276-2.759-.564-4.419-.852Zm51.642-36.767v9.507c3.25-5.03 3.25-5.174 0-9.507Zm-12.44 35.495c.97 1.344 2.28 1.704 3.449.852.701-.432.97-1.561 1.321-2.413.07-.144-.69-.78-1.181-.852-1.789-.36-3.11.204-3.589 2.413Zm-36.712-68.925c-.211 0-.421.072-.631.072-.62 1.837-1.24 3.757-2 6.026 1.661-.348 2.83-.564 4.35-.852-.62-1.909-1.17-3.614-1.719-5.246Zm-21.372 39.324a225.044 225.044 0 0 1 4.15 4.969c1.801-4.189 1.731-4.405-2.28-4.969-.479-.072-.97 0-1.87 0Zm29.591 29.745c-.479-1.849-1.379-2.989-3.309-2.557-.491.144-1.321.636-1.251.924.071.78.281 1.837.76 2.197 1.251.78 2.701.996 3.8-.564Zm52.344-28.893c.479 1.416.83 2.629 1.379 4.189a345.977 345.977 0 0 0 4.01-4.765c-.14-.204-.269-.348-.409-.564-1.59.36-3.18.708-4.98 1.14Zm-23.442-40.176c1.181 1.344 1.941 2.269 2.981 3.409 1.31-1.572 2.35-2.917 3.449-4.189-.14-.144-.21-.288-.339-.432-1.87.36-3.741.708-6.091 1.212Zm-35.122-1.212c-.14.144-.28.36-.409.504 1.099 1.272 2.21 2.545 3.449 3.973.97-1.212 1.73-2.137 2.701-3.265-2.14-.504-3.94-.852-5.741-1.212Zm42.873 77.231c.199 0 .339 0 .55.072.62-1.849 1.239-3.685 1.929-5.894-1.59.36-2.759.636-4.139.996.69 1.777 1.169 3.265 1.66 4.826Zm2.479-69.921c-.76-2.197-1.309-3.973-1.929-5.75-.211 0-.351 0-.55.072-.491 1.489-.97 3.049-1.531 4.754 1.321.36 2.42.576 4.01.924Zm-4.49 71.277c.141-.216.211-.432.351-.648-1.111-1.2-2.221-2.413-3.39-3.685a51.459 51.459 0 0 0-2.561 3.193c2.07.42 3.8.78 5.6 1.14Zm16.322-48.422c-1.941 2.412-1.941 2.844-.211 6.109 2-3.757 2.07-4.609.211-6.109Zm-54.074 44.233c-1.169 1.416-2.21 2.545-3.18 3.685.07.144.211.36.281.504 1.73-.36 3.39-.72 5.46-1.068a87.133 87.133 0 0 0-2.561-3.121Zm44.943-64.952c.351 2.413-.141 2.053 8.92 1.705-2.969-.504-5.81-1.068-8.92-1.705Zm-53.793 1.909c3.051.36 3.94-.204 5.191-3.409-1.871 1.212-4.77-.132-5.191 3.409Zm15.561 65.167c-1.251-2.844-2.011-3.265-5.051-2.904 2.28 3.613 2.561 3.829 5.051 2.904Zm-.07-74.254c-2.011-1.056-3.601-.072-4.77 3.133 2.139-.144 4.221-.288 4.77-3.133Zm36.712 8.943c-.409-2.341-1.59-2.977-4.77-2.689 1.59 2.977 2.139 3.337 4.77 2.689Zm-62.773 37.487c1.789-2.701 1.789-3.901-.21-6.314-.07 2.197-2.631 4.178.21 6.314Zm47.562-46.43c.9 2.629 1.309 2.917 4.91 2.989-2.209-3.697-2.771-3.973-4.91-2.989Zm25.721 40.392c-1.73 3.061-1.73 3.481.211 5.894 1.789-1.632 1.73-2.557-.211-5.894Zm-72.733-31.449c0 .072 0 .216.07.288 2.21 0 4.49.072 6.699-.072.702-.072 1.322-.78 2.011-1.128-.14-.216-.28-.504-.421-.721-2.829.577-5.6 1.069-8.359 1.633Zm-5.811 46.574c.07.072.14.144.281.144a293.837 293.837 0 0 1 3.589-6.398c.76-1.272.281-1.909-.9-2.545-1.029 3.049-1.999 5.882-2.97 8.799Zm5.46-21.511c1.111-2.268 1.941-4.189-.14-6.037-1.929 1.5-1.929 1.5.14 6.037Zm42.312-43.152c3.122 7.022 3.461 7.442 5.671 6.734-1.93-2.269-3.8-4.466-5.671-6.734Zm-11.61 92.415c.071-.072.211-.144.281-.288-1.111-1.981-2.221-3.973-3.391-5.954-.76-1.356-.9-1.284-2.42-.288 1.871 2.197 3.73 4.406 5.53 6.53Zm21.361-11.991c-3.391-.072-3.8.204-4.63 2.832 2.14.925 2.829.505 4.63-2.832Zm-9.4 11.571c1.73-2.137 3.531-4.189 5.32-6.398-2.21-.636-2.21-.636-5.32 6.398Zm-17.421-85.261c2.14.648 3.04-.493 5.39-6.458-1.8 2.136-3.531 4.261-5.39 6.458Zm32.211 70.497c4.501-.36 4.782-.505 4.84-2.485-2.35-.792-3.73.348-4.84 2.485Zm18.052-21.511c-1.38 1.777-.281 4.826 2.7 8.019-.97-2.773-1.8-5.258-2.7-8.019Zm-79.585-26.264c-.199 0-.48.072-.69.072.76 2.269 1.52 4.61 2.28 6.878.21-.072.491-.144.701-.216 1.31-2.904-2.011-4.321-2.291-6.734Zm82.215-.78c-3.46 4.249-4.08 6.314-2.56 7.73.69-1.908 1.309-3.829 1.999-5.749.14-.492.281-1.069.561-1.981Zm-62.994 48.339c-.83-2.269-2.28-2.989-4.56-2.137.76 2.701 2.97 1.704 4.56 2.137Zm38.033-4.478c2.56.432 3.11-.564 2.63-4.681-.97 1.704-1.73 3.049-2.63 4.681Zm13.761-24.559c-1.041 1.848-1.801 3.265-2.631 4.681.14.072.211.144.351.216 1.169-.924 2.28-1.848 3.519-2.832-.339-.721-.69-1.213-1.239-2.065Zm-11.271-23.491c.14-.072.269-.144.339-.216-.199-1.417-.409-2.773-.549-4.189h-2.28c.97 1.632 1.73 2.976 2.49 4.405Zm-32.842-6.182h4.911c-.351-.276-.491-.42-.632-.564-1.029-.432-1.999-.852-3.18-1.345-.339.565-.69 1.057-1.099 1.909Zm-15.211-27.332c2.35.144 2.35.144 2.619-4.826-.958 1.777-1.718 3.193-2.619 4.826Zm10.02 77.375c.14 4.693.14 4.693 2.21 4.117-.76-1.416-1.45-2.761-2.21-4.117Zm-7.401 38.195c-.339-5.185-.339-5.185-2.548-4.621.83 1.5 1.59 2.845 2.548 4.621Zm-1.999-54.088c.07-.072.211-.144.281-.288-.76-1.344-1.52-2.629-2.491-4.189-.491.852-.76 1.344-1.11 1.992 1.251.853 2.28 1.705 3.32 2.485Zm60.493-59.418c1.04 2.053 2.35 1.993 4.501 0h-4.501Zm-.129 106.688h5.39c-1.731-.78-2.97-1.344-4.361-1.98-.269.636-.55 1.128-1.029 1.98Zm-4.151-31.089c-1.321 1.561-2.279 2.701-3.39 3.973 2.49.288 2.771 0 3.39-3.973Zm6.501-31.593c1.45-1.837.959-2.977-1.66-4.538a216.155 216.155 0 0 0 1.66 4.538Zm-20.951-18.81c-.62-2.053-1.251-1.981-4.081 0h4.081Zm16.871 26.132c1.449-1.849 1.309-2.137-2.35-4.189.9 1.56 1.59 2.832 2.35 4.189Zm-58.014 31.581c-1.731-2.34-4.011-.924-6.01-1.068 1.999.36 4.01.72 6.01 1.068Zm22.892-65.659c-1.52-.144-3.461-2.197-4.84.924 1.859-.36 3.378-.636 4.84-.924Zm-56.284 37.835a86.314 86.314 0 0 1-2.35 4.117c3.391-1.56 3.66-1.992 2.35-4.117Zm33.053 20.37c1.099 4.477 1.099 4.549 3.25 3.901a137.18 137.18 0 0 1-3.25-3.901Zm-8.851-75.527c3.8 2.065 4.42 2.269 4.49 0h-4.49Zm32.281 89.223c-1.929-.348-3.379-.636-4.841-.984.702 2.34.702 2.34 4.841.984Zm-29.791-26.972c-1.391 2.137-1.251 2.557 1.59 4.765-.561-1.704-.97-3.06-1.59-4.765Zm9.611-35.134c-2.42-.072-3.052.852-2.981 3.553.97-1.141 1.87-2.209 2.981-3.553Zm-38.372 20.73c.69 1.2 1.309 2.34 2.14 3.829 1.87-3.049-1.181-2.833-2.14-3.829Zm44.101-16.397c.9-1.633 1.59-2.917 2.291-4.261-2.221-.144-2.221-.144-2.291 4.261Zm52.624 50.535c-1.941-.144-3.94-.924-5.741 0 0 .288.07.576.07.924 1.859-.276 3.8-.564 5.671-.924Zm-.632-15.329c2.982-2.556 2.982-2.556 1.392-4.045a92.623 92.623 0 0 0-1.392 4.045Zm-4.068 42.373c-.281-.132-.491-.276-.772-.42-2.35.348-.69 2.905-1.309 4.189a133.785 133.785 0 0 1 2.081-3.769Zm.058-111.153c-.83-1.501-1.45-2.701-2.35-4.333.421 4.537.421 4.537 2.35 4.333ZM139.9 163.765c-2.841 2.269-2.981 2.761-1.391 4.118.421-1.285.83-2.485 1.391-4.118Zm-3.601 66.932h4.291c-.97-1.908-.97-1.908-4.291 0Zm8.301-58.985c-3.39 1.776-3.46 1.992-2.081 3.769a81.976 81.976 0 0 1 2.081-3.769Zm89.324 3.901c.69-1.273 1.251-2.341 2.081-3.829-3.32 1.848-3.32 1.92-2.081 3.829Zm-51.571-33.358c-1.111-2.065-1.322-2.125-4.572-.924 1.52.288 2.911.564 4.572.924Zm51.501 36.839c-1.59 2.845.76 2.773 1.941 3.481-.549-.996-1.181-2.065-1.941-3.481Zm-51.431 33.298c-1.66.348-2.982.564-4.291.852 0 .204.07.348.07.564 1.38-.504 3.11 1.777 4.221-1.416Zm17.97-57.857c-.339-1.417.14-3.686-2.759-3.337 1.099 1.284 1.929 2.268 2.759 3.337Z"/></svg>