<svg width="346" height="355" viewBox="0 0 346 355" fill="none" xmlns="http://www.w3.org/2000/svg">
<mask id="mask0_962_533" style="mask-type:luminance" maskUnits="userSpaceOnUse" x="0" y="0" width="346" height="355">
<path d="M0 0H345.569V354.922H0V0Z" fill="white"/>
</mask>
<g mask="url(#mask0_962_533)">
<path d="M323.531 332.355C321.462 332.355 319.591 332.355 317.79 332.355C298.71 332.355 279.629 332.355 260.478 332.283C258.409 332.283 257.847 332.847 257.918 334.9C258.058 340.794 257.918 346.615 257.988 352.509C258.058 354.43 257.438 354.922 255.568 354.922C233.587 354.85 211.595 354.85 189.615 354.85C156.703 354.85 123.791 354.922 90.8794 354.922C87.7694 354.922 87.7694 354.922 87.7694 351.801C87.7694 346.123 87.6993 340.518 87.8396 334.84C87.9097 332.847 87.3485 332.283 85.4194 332.283C65.3682 332.355 45.247 332.355 25.1257 332.355C22.2262 332.355 22.2262 332.355 22.2262 329.438C22.2262 308.852 22.2262 288.266 22.2963 267.752C22.2963 265.555 21.7351 264.919 19.5955 264.991C13.9953 265.123 8.32482 264.991 2.65438 265.051C0.65511 265.123 0.164062 264.415 0.164062 262.506C0.234214 232.257 0.234212 201.948 0.234212 171.711C0.234212 145.591 0.234212 119.4 0.234212 93.2798C0.234212 90.2189 0.234212 90.2189 3.27403 90.2189C8.94447 90.2189 14.5448 90.1469 20.2152 90.2189C21.7351 90.2189 22.2963 89.7988 22.2963 88.1663C22.2262 67.7962 22.2262 47.4862 22.2262 27.1161C22.2262 25.8437 22.3665 24.4873 22.4249 22.9989C23.4655 22.9268 24.3657 22.7828 25.3361 22.7828C45.247 22.7828 65.228 22.7828 85.1388 22.8548C87.2784 22.8548 87.9097 22.2186 87.8396 20.022C87.6993 14.2723 87.9097 8.59456 87.7694 2.84485C87.6993 0.63619 88.3189 0 90.4585 0C110.451 0.07202 130.491 0 150.472 0C185.605 0 220.656 0 255.778 0C257.579 0 258.058 0.63619 257.988 2.41272C257.918 8.3785 258.058 14.2723 257.918 20.226C257.847 22.2186 258.479 22.7828 260.408 22.7828C280.459 22.7108 300.58 22.7108 320.631 22.7108C323.461 22.7108 323.461 22.7108 323.461 25.6997C323.461 46.2858 323.461 66.8719 323.391 87.3861C323.391 89.4387 323.812 90.1469 325.951 90.0749C331.551 89.9428 337.222 90.0749 342.892 90.0149C344.903 89.9428 345.523 90.579 345.523 92.7037C345.453 124.153 345.453 155.602 345.453 186.98C345.453 211.959 345.453 236.951 345.453 261.93C345.453 264.847 345.453 264.847 342.542 264.847C336.883 264.847 331.283 264.919 325.612 264.775C323.812 264.775 323.391 265.339 323.391 267.116C323.461 287.846 323.461 308.576 323.461 329.222C323.531 330.219 323.531 331.071 323.531 332.355ZM24.3657 262.782C24.3657 264.343 24.3657 265.483 24.3657 266.624C24.3657 286.922 24.4359 307.148 24.2956 327.458C24.2956 329.726 24.8451 330.219 26.9963 330.219C46.9773 330.146 67.0285 330.146 87.0094 330.146C89.9791 330.146 89.9791 330.146 89.9791 333.267C89.9791 338.957 90.0493 344.563 89.909 350.24C89.8388 352.221 90.5286 352.653 92.3291 352.653C100.899 352.581 109.551 352.653 118.121 352.653C142.323 352.653 166.454 352.581 190.644 352.581C211.595 352.581 232.547 352.581 253.428 352.653C255.158 352.653 255.778 352.149 255.708 350.313C255.638 344.635 255.638 339.017 255.638 333.339C255.638 330.146 255.638 330.146 258.748 330.146C276.309 330.146 293.869 330.146 311.36 330.146C314.61 330.146 317.79 330.146 321.321 330.146C321.321 307.652 321.321 285.361 321.321 262.926C322.292 262.854 322.982 262.782 323.671 262.782C328.991 262.782 334.393 262.782 339.712 262.782C343.103 262.782 343.103 262.854 343.103 259.241C343.103 235.954 343.033 212.667 343.033 189.393C343.033 157.727 343.033 126.074 343.103 94.4082C343.103 92.6316 342.413 92.2115 340.893 92.2835C335.421 92.3556 329.891 92.2835 324.361 92.2835C321.251 92.2835 321.181 92.2835 321.181 89.1626C321.181 68.8525 321.181 48.6265 321.181 28.3285C321.181 24.9915 321.181 24.9194 317.931 24.9194C298.16 24.9194 278.319 24.9194 258.537 24.9194C255.497 24.9194 255.497 24.9194 255.497 21.8585C255.497 16.3969 255.497 11.0073 255.497 5.53365C255.497 2.26868 255.497 2.26868 252.317 2.26868C219.967 2.26868 187.604 2.3407 155.253 2.3407C134.442 2.3407 113.69 2.26868 92.8786 2.26868C89.6985 2.26868 89.6985 2.26868 89.6985 5.60567C89.6985 11.2113 89.6401 16.757 89.7687 22.3627C89.8388 24.3433 89.2192 24.9915 87.2784 24.9915C79.4684 24.9194 71.6583 24.9194 63.8483 24.9194C51.198 24.9194 38.4658 24.9194 25.8155 24.8474C24.506 24.8474 23.9565 25.2675 24.0267 26.768C24.1553 28.7486 24.1553 30.8132 24.1553 32.7938C24.1553 40.32 24.0851 47.8463 24.0851 55.3725C24.0851 66.944 24.0851 78.5754 24.1553 90.1469C24.1553 91.7794 23.5356 92.2835 22.0157 92.2115C16.8246 92.2835 11.3646 92.2835 5.9748 92.2835C2.17502 92.2835 2.51408 91.9234 2.51408 95.7646C2.51408 121.596 2.51408 147.44 2.51408 173.344C2.51408 193.714 2.51408 214.024 2.51408 234.394C2.51408 243.121 2.58423 251.919 2.51408 260.658C2.51408 262.29 3.00513 262.926 4.59519 262.782C5.07454 262.71 5.56559 262.782 6.04495 262.782C11.996 262.782 17.9353 262.782 24.3657 262.782Z" fill="#D7D4B5"/>
</g>
<path d="M318.97 27.4766C319.041 28.749 319.111 29.8173 319.111 30.8857C319.111 51.2557 319.111 71.5538 319.111 91.9239C319.111 94.8407 319.111 94.8407 321.8 94.8407C327.47 94.8407 333.071 94.9128 338.741 94.7687C340.682 94.6967 341.091 95.4769 341.091 97.2535C341.021 108.177 341.091 119.112 341.091 130.047C341.091 151.486 341.161 172.924 341.161 194.362C341.161 215.441 341.091 236.519 341.161 257.537C341.161 259.662 340.612 260.442 338.402 260.37C332.661 260.226 326.991 260.37 321.25 260.298C319.52 260.298 319.111 260.874 319.111 262.579C319.181 283.153 319.181 303.667 319.181 324.253C319.181 327.734 319.251 327.662 315.86 327.662C295.88 327.662 275.828 327.662 255.847 327.662C254.117 327.662 253.497 328.166 253.568 330.003C253.638 335.897 253.497 341.718 253.638 347.612C253.696 349.737 252.936 350.313 250.937 350.313C231.996 350.241 213.044 350.241 194.034 350.241C161.262 350.241 128.561 350.241 95.789 350.241C92.188 350.241 92.188 350.241 92.188 346.4C92.188 341.226 92.188 335.969 92.188 330.783C92.188 327.662 92.188 327.662 89.2183 327.662C69.4478 327.662 49.6071 327.662 29.8249 327.662C26.7149 327.662 26.7149 327.662 26.7149 324.469C26.7149 304.099 26.7149 283.801 26.7149 263.419C26.7149 260.298 26.7149 260.298 23.6751 260.298C18.8348 260.298 13.9243 260.298 9.08396 260.298C4.24363 260.298 4.73467 260.874 4.73467 255.977C4.73467 227.936 4.73467 199.896 4.73467 171.856C4.73467 147.224 4.73467 122.593 4.73467 98.0337C4.73467 94.7687 4.73467 94.7687 7.98495 94.7687C13.5852 94.7687 19.1154 94.6967 24.7157 94.7687C26.3057 94.7687 26.7851 94.1925 26.7851 92.6321C26.7851 72.8262 26.7851 53.0923 26.7851 33.2984C26.7851 31.3778 26.7851 29.4572 26.7851 27.3326C28.7259 27.3326 30.3861 27.3326 32.0346 27.3326C51.3258 27.3326 70.6871 27.2606 89.9783 27.4046C91.9893 27.4046 92.3283 26.6964 92.2582 24.8479C92.188 18.9541 92.3283 13.1324 92.188 7.23861C92.1179 5.04195 92.8778 4.40576 94.9589 4.40576C113.28 4.47778 131.6 4.47778 149.921 4.47778C183.313 4.47778 216.716 4.47778 250.107 4.47778C253.568 4.47778 253.568 4.47778 253.568 8.01884C253.568 13.6965 253.638 19.3142 253.497 24.9919C253.427 26.9005 254.117 27.4046 255.918 27.4046C275.899 27.3326 295.95 27.3326 315.931 27.3326C316.96 27.4766 317.86 27.4766 318.97 27.4766ZM27.4749 28.0408C27.4749 29.4572 27.4749 30.5256 27.4749 31.5939C27.4749 52.108 27.4749 72.5501 27.4749 93.0642C27.4749 94.8407 26.9955 95.4769 25.195 95.4049C19.5947 95.3329 14.0646 95.3329 8.4643 95.4049C5.42448 95.4049 5.42448 95.4049 5.42448 98.5979C5.42448 129.687 5.42448 160.704 5.42448 191.806C5.42448 213.448 5.42448 235.103 5.42448 256.757C5.42448 259.518 5.42448 259.59 8.1837 259.59C13.5852 259.59 19.0452 259.59 24.4351 259.59C27.3346 259.59 27.3346 259.59 27.3346 262.579C27.3346 282.949 27.3346 303.247 27.3346 323.617C27.3346 326.954 27.3346 326.954 30.5147 326.954C50.3671 326.954 70.2779 326.954 90.1186 326.954C92.8778 326.954 92.8778 326.954 92.8778 329.871C92.8778 335.405 92.8778 340.866 92.8778 346.4C92.8778 349.605 92.8778 349.605 95.9293 349.605C127.111 349.605 158.292 349.605 189.474 349.605C209.724 349.605 229.915 349.605 250.177 349.677C252.048 349.677 252.737 349.245 252.737 347.192C252.597 341.37 252.808 335.621 252.667 329.799C252.597 327.518 253.357 327.026 255.426 327.026C273.057 327.098 290.688 327.098 308.319 327.098C311.57 327.098 314.75 327.098 318.281 327.098C318.281 324.973 318.281 323.125 318.281 321.204C318.281 301.614 318.281 282.097 318.281 262.507C318.281 259.734 318.281 259.662 321.11 259.662C326.441 259.662 331.831 259.662 337.151 259.662C340.261 259.662 340.261 259.662 340.261 256.469C340.261 224.671 340.261 192.862 340.261 161.064C340.261 139.986 340.261 118.896 340.331 97.8176C340.331 95.8971 339.782 95.3329 337.981 95.4049C332.311 95.549 326.71 95.4769 321.04 95.4769C318.351 95.4769 318.281 95.4769 318.281 92.5601C318.281 72.0459 318.281 51.5318 318.281 31.0897C318.281 28.1128 318.281 28.1128 315.369 28.1128C295.318 28.1128 275.337 28.1128 255.298 28.1849C253.287 28.1849 252.597 27.6807 252.667 25.5561C252.808 19.9504 252.737 14.4167 252.737 8.79907C252.737 5.186 253.076 5.46208 249.627 5.46208C219.545 5.46208 189.474 5.5341 159.321 5.5341C138.031 5.5341 116.74 5.5341 95.4383 5.40206C93.3689 5.40206 92.8194 6.03825 92.8778 8.09086C93.0181 13.9126 92.8194 19.6623 92.948 25.4841C93.0181 27.6207 92.3283 28.1849 90.3291 28.1849C71.1782 28.1128 51.9571 28.1128 32.8063 28.1128C31.2162 28.0408 29.556 28.0408 27.4749 28.0408Z" fill="#D7D4B5"/>
<path d="M29.5551 257.249C22.2946 257.249 15.1744 257.249 7.84375 257.249C7.84375 256.037 7.84375 255.125 7.84375 254.2C7.84375 228.285 7.84375 202.309 7.84375 176.393C7.84375 151.198 7.84375 126.002 7.84375 100.794C7.84375 97.8896 7.84375 97.8896 10.7433 97.8896C16.2734 97.8896 21.7334 97.8176 27.2635 97.9616C29.1342 98.0337 29.6837 97.3975 29.6837 95.5489C29.6252 76.5953 29.6252 57.5696 29.6252 38.6159C29.6252 35.9871 29.6252 33.2983 29.6252 30.5975C36.4648 30.5975 43.1758 30.5975 49.9453 30.5975C64.2558 30.5975 78.5664 30.5255 92.8769 30.6696C94.958 30.6696 95.5075 30.0934 95.4374 27.9688C95.2971 22.075 95.4374 16.2533 95.3672 10.3595C95.2971 8.3789 95.9986 7.94678 97.7874 7.94678C139.071 8.0188 180.412 8.0188 221.684 8.0188C230.476 8.0188 239.315 8.09082 248.095 7.94678C249.825 7.94678 250.386 8.45093 250.386 10.2995C250.316 16.2533 250.457 22.147 250.316 28.1128C250.246 30.1654 250.866 30.6696 252.807 30.6696C272.858 30.5975 292.839 30.5975 312.89 30.5975C313.849 30.5975 314.819 30.5975 316 30.5975C316.07 31.8699 316.128 32.9382 316.128 34.0066C316.128 54.3046 316.128 74.5306 316.128 94.8407C316.128 97.8896 316.128 97.8896 319.11 97.8896C324.359 97.8896 329.691 97.8896 334.94 97.8896C337.84 97.8896 337.84 97.8896 337.84 101.011C337.84 126.494 337.84 151.978 337.84 177.533C337.84 202.945 337.84 228.285 337.84 253.696C337.84 257.537 338.53 257.393 334.18 257.393C328.861 257.393 323.459 257.465 318.139 257.321C316.409 257.249 316.07 257.885 316.07 259.518C316.128 280.464 316.07 301.398 316.128 322.345C316.128 324.325 315.509 324.757 313.708 324.757C293.727 324.685 273.688 324.757 253.695 324.757C250.316 324.757 250.316 324.757 250.316 328.31C250.316 333.772 250.246 339.162 250.386 344.635C250.457 346.616 249.825 347.192 247.896 347.192C226.465 347.12 205.023 347.192 183.592 347.192C155.182 347.192 126.829 347.192 98.4188 347.192C95.3673 347.192 95.3672 347.192 95.3672 343.987C95.3672 338.453 95.2971 332.992 95.4374 327.458C95.5075 325.393 94.8879 324.757 92.8185 324.757C72.8375 324.829 52.7864 324.829 32.8054 324.829C29.6837 324.829 29.6837 324.829 29.6837 321.708C29.6837 300.834 29.6837 279.96 29.6837 259.098C29.6837 258.522 29.6252 258.101 29.5551 257.249ZM10.8134 177.533C10.8134 180.798 10.8134 184.063 10.8134 187.328C10.8134 208.695 10.8134 230.061 10.7433 251.427C10.7433 253.492 11.3629 254.2 13.444 254.128C18.904 253.984 24.4342 254.056 29.8942 254.128C32.7352 254.128 32.7352 254.128 32.7352 257.177C32.7352 277.691 32.7352 298.133 32.7352 318.647C32.7352 321.492 32.7352 321.492 35.5646 321.492C55.6157 321.492 75.737 321.492 95.7881 321.42C97.7173 321.42 98.3486 321.984 98.3486 323.977C98.2083 329.871 98.3486 335.693 98.2785 341.574C98.2785 343.495 98.8981 344.059 100.769 344.059C109.058 343.987 117.429 344.131 125.719 344.131C144.671 344.131 163.611 344.059 182.552 343.987C203.433 343.987 224.244 343.987 245.125 344.059C247.066 344.059 247.545 343.279 247.475 341.502C247.405 335.621 247.475 329.799 247.405 323.905C247.405 321.984 247.966 321.42 249.825 321.42C269.947 321.492 290.138 321.42 310.259 321.42C312.75 321.42 312.948 321.204 312.948 318.575C312.948 298.061 312.948 277.619 312.948 257.105C312.948 254.128 312.948 254.128 315.86 254.128C321.53 254.128 327.13 254.056 332.801 254.128C334.461 254.128 335.151 253.552 335.01 251.86C334.94 251.007 335.01 250.155 335.01 249.231C335.01 221.683 335.01 194.146 335.01 166.598C335.01 145.664 335.01 124.718 335.081 103.783C335.081 101.647 334.519 100.866 332.31 100.939C326.92 101.083 321.46 101.011 316.07 101.011C313.019 101.011 313.019 101.011 313.019 97.9616C313.019 77.5916 313.019 57.2815 313.019 36.9114C313.019 33.7185 313.019 33.6464 309.979 33.6464C290.138 33.6464 270.227 33.6464 250.386 33.6464C247.545 33.6464 247.545 33.6464 247.475 30.5975C247.475 24.8478 247.405 19.1701 247.475 13.4204C247.475 11.6439 247.066 10.7916 245.125 10.7916C236.696 10.8636 228.184 10.7916 219.754 10.7916C200.463 10.7916 181.172 10.8636 161.811 10.8636C141.421 10.8636 121.089 10.8636 100.699 10.7916C98.7578 10.7916 98.2785 11.4998 98.3486 13.3484C98.4188 19.2421 98.2785 25.0639 98.3486 30.9456C98.3486 32.8662 97.8576 33.5744 95.8583 33.5744C75.6669 33.5024 55.5456 33.5744 35.3541 33.5024C33.2146 33.5024 32.5949 34.2106 32.7352 36.2752C32.8054 39.1081 32.7352 41.8809 32.7352 44.7257C32.7352 62.323 32.7352 79.9323 32.7352 97.5295C32.7352 100.866 32.7352 100.866 29.5551 100.866C24.364 100.866 19.1145 100.866 13.9234 100.866C10.7433 100.866 10.7433 100.866 10.7433 104.203C10.7433 107.685 10.7433 111.166 10.7433 114.647C10.8134 135.725 10.8134 156.599 10.8134 177.533Z" fill="#D7D4B5"/>
<path d="M28.2343 177.113C28.3746 94.7684 93.2982 28.5327 173.912 28.8208C251.007 29.0368 315.31 92.3557 317.59 172.852C320.011 259.806 251.556 326.738 172.111 326.245C93.0878 325.753 27.8251 259.374 28.2343 177.113ZM315.439 169.515C314.96 136.721 301.058 101.574 272.788 72.9699C245.266 45.1456 211.805 31.1615 173.222 31.0174C94.1985 30.7413 30.3856 96.2569 30.3856 177.389C30.3154 258.521 94.0582 323.977 172.942 323.977C251.767 323.977 315.439 258.461 315.439 169.515Z" fill="#D7D4B5"/>
<path d="M284.117 260.73C284.608 259.806 284.947 258.737 285.508 257.885C296.428 241.632 303.829 223.747 307.489 204.289C310.049 190.521 310.599 176.609 309.149 162.625C306.39 135.725 296.849 111.73 280.738 90.4352C280.387 89.9431 280.177 89.2949 279.838 88.8027C280.458 89.3669 281.077 89.9431 281.568 90.5793C295.809 109.389 304.998 130.467 308.669 154.042C314.34 190.521 307.418 224.311 287.928 255.328C286.818 257.177 285.438 258.953 284.117 260.73Z" fill="#D7D4B5"/>
<path d="M61.6958 94.1924C61.2866 95.0446 61.006 95.8969 60.5266 96.6771C48.9753 113.794 41.3757 132.532 37.915 153.046C35.7053 166.178 35.2844 179.382 36.6757 192.586C39.4349 219.342 49.0454 243.193 65.0162 264.415C65.3669 264.919 65.6358 265.556 65.9164 266.048C65.4371 265.556 64.8174 265.195 64.3965 264.631C50.086 245.75 40.7561 224.599 37.0849 200.964C31.3443 164.689 38.1956 130.971 57.5569 99.9421C58.7962 97.9615 60.3162 96.113 61.6958 94.1924Z" fill="#D7D4B5"/>
<path d="M86.4473 287.414C87.2774 287.918 88.1776 288.266 88.9376 288.842C106.229 302.611 125.591 311.841 147.092 315.815C184.014 322.693 218.305 315.598 249.697 294.232C251.007 293.308 252.457 292.6 253.836 291.747C251.147 293.74 248.587 295.793 245.746 297.641C228.115 309.069 208.894 315.815 188.223 318.227C176.753 319.572 165.272 319.5 153.861 317.795C129.25 314.11 107.06 304.519 87.4878 288.626C87.1488 288.266 86.798 287.846 86.4473 287.414Z" fill="#D7D4B5"/>
<path d="M259.436 67.5082C258.676 67.076 257.776 66.7279 257.086 66.2238C240.355 52.9598 221.754 43.8011 201.013 39.6118C163.331 31.9416 128.279 38.9036 96.1976 60.6901C94.818 61.6144 93.5085 62.5387 92.1172 63.3909C92.5381 62.8988 92.9473 62.2506 93.4383 61.8305C111.21 48.7706 130.98 40.6802 152.551 37.4152C162.711 35.8427 172.871 35.4226 183.043 36.2028C211.255 38.4715 236.485 48.5545 258.676 66.7279C258.957 66.944 259.167 67.2201 259.436 67.5082Z" fill="#D7D4B5"/>
<path d="M80.9164 72.6938C75.9474 78.1555 70.8966 83.5451 65.916 89.0187C66.0563 88.5866 66.0563 88.0944 66.2668 87.8064C70.7563 82.9089 75.2459 77.9394 79.8174 73.114C80.0863 72.8979 80.5773 72.8259 80.9164 72.6938Z" fill="#D7D4B5"/>
<path d="M279.909 88.8029C279.769 88.7309 279.628 88.8029 279.488 88.6589C274.718 83.5453 270.018 78.3718 265.318 73.2583C265.177 73.0422 265.177 72.7661 265.037 72.478C270.637 77.3755 275.828 82.561 279.909 88.8029Z" fill="#D7D4B5"/>
<path d="M265.107 282.445C265.248 282.097 265.248 281.736 265.458 281.46C270.299 276.275 275.069 271.017 279.909 265.844C279.839 266.192 279.839 266.624 279.628 266.828C274.788 272.086 269.948 277.271 265.107 282.445Z" fill="#D7D4B5"/>
<path d="M65.916 266.12C66.1265 266.192 66.3369 266.264 66.4655 266.408C71.3059 271.653 76.1462 276.983 80.9865 282.24C80.5072 282.024 79.8875 281.88 79.5368 281.52C75.1173 276.767 70.7563 272.013 66.4071 267.26C66.1265 266.972 66.0563 266.48 65.916 266.12Z" fill="#D7D4B5"/>
<path d="M172.941 38.832C247.335 38.832 307.769 101.011 307.769 177.533C307.769 254.056 247.206 316.091 172.742 316.091C98.3483 316.019 37.9143 253.84 37.9844 177.245C38.0546 100.867 98.6172 38.832 172.941 38.832ZM282.526 252.208C276.166 257.537 268.906 259.734 260.827 258.666C252.666 257.537 246.446 253.06 241.805 246.038C226.594 255.053 211.593 263.923 196.523 272.866C200.252 280.668 200.872 288.483 197.762 296.357C194.722 304.243 188.982 309.417 180.763 312.55C222.104 310.629 261.306 286.49 282.526 252.208ZM282.597 102.571C271.267 84.9018 256.676 70.7015 238.905 60.1984C221.625 49.9714 190.923 40.6806 181.382 42.6612C189.122 45.578 194.722 50.7516 197.762 58.5659C200.884 66.4403 200.252 74.2546 196.593 81.9849C211.734 90.9996 226.734 99.8822 241.676 108.753C251.485 93.8444 270.297 92.0679 282.597 102.571ZM149.16 81.9849C142.18 67.7967 147.289 49.1911 164.991 42.241C143.911 43.6575 124.69 49.6232 106.848 60.1984C90.398 69.9213 65.9157 93.9165 63.4254 102.859C69.7857 97.3975 77.0462 95.1168 85.1368 96.2572C93.2274 97.3975 99.3772 102.007 104.019 108.753C119.159 99.7382 134.09 90.8676 149.16 81.9849ZM63.2267 252.424C87.7674 288.771 121.439 308.925 164.371 312.622C150.201 307.292 141.14 290.331 149.09 272.938C134.09 264.067 119.019 255.125 104.019 246.242C94.1978 260.946 75.9471 262.999 63.2267 252.424ZM291.248 237.095C309.218 197.339 309.289 157.583 291.307 117.84C291.178 121.033 291.587 124.226 291.108 127.346C289.167 140.478 280.048 149.277 267.047 150.909C265.667 151.054 265.106 151.414 265.106 152.974C265.176 169.299 265.176 185.552 265.106 201.877C265.106 203.509 265.667 203.869 267.187 204.085C276.657 205.142 283.848 209.979 288.407 218.634C291.447 224.383 292.079 230.625 291.248 237.095ZM54.5749 117.84C36.5347 157.583 36.6048 197.339 54.5749 237.095C54.0955 232.546 54.0955 228.008 55.4751 223.531C59.1463 212.176 66.8861 205.718 78.3673 204.085C80.0275 203.869 80.5069 203.233 80.4367 201.601C80.3666 198.684 80.3666 195.779 80.4367 192.934C80.5069 179.946 80.5069 167.03 80.577 154.042C80.577 152.194 80.3666 151.126 78.0867 150.849C68.8269 149.637 61.8354 144.74 57.4159 136.145C54.3761 130.395 53.7447 124.226 54.5749 117.84ZM243.056 109.461C243.815 109.953 244.435 110.385 245.055 110.806C250.866 114.215 256.606 117.768 262.487 121.105C264.416 122.233 265.246 123.445 265.176 125.858C265.036 133.096 265.176 140.334 265.106 147.572C265.106 149.493 265.726 150.057 267.456 149.781C267.877 149.709 268.286 149.709 268.707 149.637C283.018 147.368 292.768 132.808 289.787 118.26C286.198 101.083 268.216 92.212 252.935 100.158C248.796 102.151 245.406 105.056 243.056 109.461ZM243.126 245.33C248.305 254.836 261.926 261.15 274.576 255.689C286.958 250.287 293.248 236.099 289.027 222.967C284.818 209.835 272.027 204.289 265.176 205.358C265.176 206.138 265.176 206.918 265.176 207.698C265.176 215.081 265.106 222.463 265.246 229.845C265.246 231.622 264.697 232.546 263.177 233.398C257.845 236.447 252.526 239.64 247.276 242.773C245.885 243.625 244.575 244.477 243.126 245.33ZM195.412 273.502C188.222 277.763 181.312 281.809 174.472 285.926C173.221 286.706 172.251 286.706 171.012 285.926C164.722 282.097 158.291 278.4 152.001 274.642C150.61 273.79 149.71 273.862 149.371 275.495C148.611 279.252 147.231 283.093 147.289 286.922C147.43 299.418 156.771 310.137 168.451 312.046C181.031 314.11 192.793 307.076 197.002 294.94C199.563 287.702 199.013 280.608 195.412 273.502ZM150.411 81.1327C151.241 80.7125 152.001 80.3524 152.691 79.9323C158.771 76.3072 164.92 72.6941 170.942 68.997C172.251 68.2168 173.221 68.0728 174.601 68.925C180.692 72.6221 186.772 76.2352 192.863 79.7883C193.682 80.2804 194.512 80.7125 195.342 81.2047C200.744 71.8419 199.493 57.6416 189.613 48.843C180.201 40.4645 165.891 40.3925 156.421 48.627C147.161 56.7174 144.39 71.1937 150.411 81.1327ZM80.8459 97.1094C79.8171 97.2535 78.4375 97.3255 77.1163 97.5295C64.7466 99.3781 55.2062 110.878 55.405 123.793C55.6154 137.069 65.3662 148.221 78.0166 149.709C80.1561 149.997 80.5069 149.205 80.5069 147.296C80.4367 139.914 80.577 132.532 80.4367 125.15C80.3666 123.157 81.1265 122.161 82.7166 121.309C88.9365 117.768 95.0279 113.998 101.248 110.385C102.429 109.677 102.768 109.245 101.797 107.973C96.6179 100.939 89.638 97.4575 80.8459 97.1094ZM102.698 245.534C102.008 245.114 101.458 244.681 100.839 244.333C95.1682 240.996 89.5679 237.443 83.7571 234.322C80.9862 232.834 80.2263 231.057 80.2964 228.081C80.5069 221.19 80.3666 214.3 80.3666 207.422C80.3666 205.718 79.8171 204.938 78.1569 205.286C77.6658 205.358 77.1865 205.358 76.7071 205.502C65.0856 207.626 56.9249 216.929 55.5453 229.569C54.3761 240.216 61.1455 251.427 71.3757 255.833C82.6464 260.658 96.957 256.037 102.698 245.534ZM187.193 262.075C189.812 264.847 192.372 267.404 194.652 270.093C195.552 271.161 196.172 271.449 197.423 270.669C201.702 268.04 206.063 265.484 210.354 262.927C219.824 257.249 229.365 251.644 238.905 246.038C240.495 245.114 241.045 244.333 240.214 242.341C239.186 240 238.554 237.443 238.215 234.887C237.935 233.11 237.385 232.618 235.725 232.618C225.764 232.69 215.884 232.69 205.923 232.618C204.263 232.618 203.362 233.254 202.603 234.67C199.224 240.924 195.693 247.094 192.162 253.276C190.443 256.325 188.713 259.374 187.193 262.075ZM148.611 84.0495C135.06 92.1399 120.399 100.795 105.737 109.605C105.328 109.809 105.188 111.022 105.398 111.73C106.088 114.575 107.199 117.335 107.678 120.252C107.959 122.029 108.578 122.305 110.098 122.305C119.989 122.233 129.799 122.233 139.69 122.305C141.28 122.305 142.18 121.813 143.01 120.324C147.78 111.658 152.691 103.003 157.531 94.3366C157.87 93.7004 158.221 92.9922 158.56 92.284C158.291 92.5 157.94 92.7041 157.672 92.9202C154.76 90.1473 151.931 87.3145 148.611 84.0495ZM187.193 92.9202C192.372 102.223 197.762 111.73 203.164 121.249C203.433 121.741 204.263 122.233 204.824 122.233C215.323 122.305 225.834 122.305 236.345 122.233C236.894 122.233 237.724 121.525 237.864 121.033C238.835 117.48 239.595 113.926 240.495 110.097C240.355 110.025 239.875 109.677 239.314 109.317C232.884 105.488 226.524 101.719 220.093 97.8897C212.564 93.4123 204.953 88.875 197.423 84.3976C196.663 83.9775 196.044 83.1973 195.073 84.3256C192.583 87.1705 190.022 89.8713 187.193 92.9202ZM149.581 271.305C152.481 268.461 154.971 265.904 157.66 263.491C158.63 262.579 158.361 262.003 157.87 261.078C152.831 252.064 147.78 242.977 142.589 234.034C142.18 233.326 140.929 232.618 140.099 232.618C130.009 232.546 119.989 232.546 109.888 232.546C108.508 232.546 108.029 232.978 107.748 234.466C107.199 237.299 106.497 240.144 105.539 242.773C104.907 244.333 105.118 244.97 106.497 245.822C120.469 254.056 134.44 262.363 148.4 270.669C148.879 271.017 149.371 271.233 149.581 271.305ZM94.4082 148.149C90.8072 149.145 87.5569 150.201 84.1664 150.849C82.5061 151.126 81.9566 151.63 81.9566 153.322C82.0268 163.837 82.0268 174.34 82.0268 184.844C82.0268 190.593 82.0268 196.271 82.0969 202.021C82.0969 202.657 82.6464 203.725 83.1375 203.869C86.7268 204.938 90.4564 205.79 94.3381 206.714C94.2679 206.774 94.5368 206.498 94.6771 206.21C99.7981 197.051 104.977 187.965 110.028 178.746C110.449 178.026 110.309 176.609 109.818 175.829C106.088 168.939 102.218 162.133 98.3483 155.315C97.0271 152.83 95.6475 150.345 94.4082 148.149ZM251.345 148.077C251.345 148.077 251.076 148.365 250.866 148.713C245.745 157.872 240.635 167.03 235.374 176.117C234.684 177.317 235.035 178.098 235.585 179.094C239.946 186.764 244.225 194.494 248.586 202.165C249.556 203.869 250.515 205.502 251.216 206.714C255.227 205.718 258.886 204.866 262.487 203.797C262.966 203.653 263.516 202.525 263.516 201.877C263.586 190.101 263.516 178.314 263.516 166.526C263.516 162.061 263.586 157.583 263.446 153.046C263.446 152.338 262.826 151.198 262.277 150.981C258.746 149.997 255.156 149.073 251.345 148.077ZM173.771 178.746C173.771 187.184 173.771 195.347 173.771 203.437C182.353 204.433 193.413 195.923 194.313 190.809C187.602 186.836 180.891 182.923 173.771 178.746ZM194.383 163.765C194.243 163.261 194.173 163.057 194.103 162.841C193.962 162.481 193.752 162.205 193.623 161.917C189.052 155.531 182.832 151.978 175.162 151.054C173.701 150.909 173.502 151.69 173.502 152.83C173.502 159.864 173.502 166.886 173.502 173.848C173.502 174.34 173.701 174.833 173.911 175.685C180.891 171.64 187.602 167.738 194.383 163.765ZM150.961 191.025C155.731 198.336 161.951 202.525 170.111 203.509C171.631 203.725 172.052 203.017 172.052 201.601C171.982 195.923 172.052 190.173 171.982 184.495C171.982 182.719 171.982 180.942 171.982 178.746C164.792 182.923 158.011 186.908 150.961 191.025ZM150.341 189.597C157.251 185.552 164.09 181.507 171.222 177.317C164.032 173.056 157.251 169.011 150.47 165.038C146.331 170.931 146.19 182.719 150.341 189.597ZM218.924 149.349C226.255 145.028 233.375 140.838 240.776 136.577C239.314 134.801 238.075 133.312 236.964 131.824C235.725 130.191 234.345 129.831 232.334 130.323C227.564 131.392 222.654 132.316 217.813 133.24C215.533 133.66 213.254 134.164 210.693 134.729C213.464 139.698 216.083 144.38 218.924 149.349ZM195.213 165.11C188.573 169.011 182.002 172.852 175.431 176.681C176.121 178.386 189.543 186.836 195.342 189.321C199.563 184.279 199.633 171.075 195.213 165.11ZM104.849 218.142C106.497 220.194 107.819 222.043 109.479 223.603C110.169 224.239 111.478 224.671 112.378 224.527C115.839 224.023 119.288 223.243 122.749 222.607C126.689 221.827 130.559 221.046 134.779 220.194C131.95 215.153 129.319 210.399 126.548 205.502C119.288 209.619 112.238 213.736 104.849 218.142ZM151.37 163.621C158.081 167.594 164.792 171.568 171.842 175.685C171.842 167.306 171.842 159.288 171.842 151.342C165.341 150.273 154.211 156.875 151.37 163.621ZM104.428 137.778C103.668 139.842 103.048 141.691 102.359 143.455C101.599 145.376 102.008 146.792 103.387 148.365C107.889 153.466 112.168 158.652 116.529 163.909C116.868 164.329 117.078 164.894 117.499 165.746C120.539 160.284 123.24 155.531 125.999 150.633C118.809 146.228 111.759 142.111 104.428 137.778ZM218.994 205.43C216.223 210.327 213.604 215.009 211.044 219.702C211.383 219.978 211.523 220.122 211.734 220.194C219.275 221.683 226.804 223.243 234.345 224.671C234.825 224.744 235.514 224.527 235.865 224.167C237.525 222.391 239.115 220.482 240.974 218.346C233.445 213.952 226.395 209.763 218.994 205.43ZM173.502 96.8934C173.502 105.056 173.502 113.014 173.502 120.961C173.502 122.377 174.472 122.305 175.431 122.305C179.652 122.305 183.873 122.305 188.082 122.305C188.573 122.305 189.122 122.089 189.742 121.957C189.613 121.309 189.473 120.816 189.333 120.324C187.392 114.503 185.042 108.825 183.592 102.859C182.481 98.4538 179.862 97.1814 176.063 96.9654C175.361 97.0374 174.671 96.9654 173.502 96.8934ZM173.502 258.318C175.782 257.885 177.711 257.537 179.652 257.249C181.242 256.961 182.142 256.109 182.692 254.404C183.732 250.935 184.972 247.526 186.082 244.117C187.322 240.42 188.573 236.735 189.882 232.834C188.912 232.762 188.222 232.69 187.532 232.69C183.662 232.69 179.792 232.762 175.922 232.618C174.122 232.546 173.432 233.11 173.502 235.031C173.642 241.212 173.572 247.31 173.572 253.492C173.502 254.981 173.502 256.469 173.502 258.318ZM171.982 96.6773C169.632 97.1814 167.621 97.6016 165.552 97.9617C163.962 98.2498 163.202 99.162 162.711 100.735C161.612 104.276 160.361 107.829 159.192 111.382C158.011 114.923 156.841 118.404 155.59 122.161C156.491 122.233 157.11 122.305 157.73 122.305C161.74 122.305 165.751 122.233 169.761 122.377C171.491 122.449 172.111 121.885 172.052 120.036C171.982 113.434 171.982 106.904 171.982 100.302C171.982 99.2341 171.982 98.1777 171.982 96.6773ZM227.985 189.465C225.144 194.422 222.513 199.188 219.824 204.013C227.155 208.347 234.205 212.524 241.606 216.857C242.366 214.588 242.985 212.74 243.605 210.963C244.225 209.259 243.886 207.987 242.635 206.642C240.904 204.866 239.384 202.801 237.794 200.964C234.544 197.195 231.364 193.51 227.985 189.465ZM126.759 149.145C129.53 144.247 132.149 139.554 134.779 134.801C134.3 134.585 134.019 134.441 133.809 134.381C126.548 132.952 119.288 131.464 112.039 130.119C111.618 130.047 110.928 130.047 110.648 130.263C108.789 132.172 107.059 134.164 105.048 136.289C112.589 140.766 119.569 144.812 126.759 149.145ZM155.941 232.618C156.011 233.254 155.941 233.614 156.07 233.89C158.432 240.996 160.852 248.09 163.272 255.257C163.4 255.689 163.751 256.253 164.09 256.469C166.581 257.537 169.071 258.173 171.982 257.885C171.982 249.867 171.982 241.993 171.912 234.034C171.912 233.542 171.012 232.69 170.521 232.69C165.821 232.618 161.05 232.618 155.941 232.618ZM241.606 137.922C234.065 142.327 227.015 146.516 219.754 150.777C222.513 155.675 225.074 160.284 227.915 165.182C233.305 158.796 238.426 152.686 243.465 146.588C243.815 146.156 243.956 145.304 243.815 144.812C243.126 142.615 242.366 140.478 241.606 137.922ZM117.639 189.525C112.378 195.779 107.327 201.745 102.359 207.698C102.008 208.059 101.797 208.839 101.938 209.259C102.557 211.672 103.247 214.024 104.019 216.713C111.268 212.464 118.049 208.479 124.76 204.433C125.029 204.229 125.239 203.233 125.029 202.873C122.749 198.54 120.329 194.29 117.639 189.525ZM232.825 226.232C232.755 226.16 232.755 226.088 232.685 226.088C225.425 224.671 218.234 223.171 210.974 221.755C210.553 221.683 209.863 221.827 209.723 222.115C208.624 223.891 207.583 225.728 206.543 227.576C214.084 232.474 227.354 231.694 232.825 226.232ZM139.07 227.648C138.24 226.088 137.27 224.744 136.65 223.243C136.03 221.827 135.13 221.611 133.739 221.971C129.6 222.823 125.449 223.675 121.369 224.455C118.598 225.02 115.769 225.596 112.799 226.16C118.949 231.766 132.359 232.474 139.07 227.648ZM232.124 172.492C239.525 169.011 245.885 156.095 243.815 148.569C239.946 153.118 236.204 157.583 232.404 162.061C228.254 166.886 228.254 166.886 231.785 172.216C231.925 172.348 231.995 172.348 232.124 172.492ZM183.943 255.329C191.963 252.208 199.563 240 198.183 232.618C196.383 232.618 194.453 232.546 192.583 232.69C192.092 232.762 191.332 233.398 191.203 233.962C188.783 240.996 186.433 248.018 183.943 255.329ZM183.943 99.4501C186.082 105.836 188.082 111.73 190.092 117.696C191.753 122.593 191.753 122.521 196.874 122.377C198.323 122.305 198.662 121.885 198.464 120.396C197.902 115.139 195.833 110.529 192.653 106.412C190.443 103.495 187.672 101.155 183.943 99.4501ZM206.613 127.346C207.443 128.907 208.273 130.323 209.033 131.752C209.594 132.808 210.214 133.168 211.383 132.88C214.154 132.244 216.913 131.824 219.684 131.248C223.975 130.395 228.254 129.543 232.825 128.631C226.255 123.085 213.604 122.521 206.613 127.346ZM101.727 148.785C100.418 157.379 106.299 169.083 113.629 172.564C114.448 171.148 115.149 169.659 116.049 168.303C116.809 167.174 116.669 166.322 115.769 165.326C111.618 160.5 107.538 155.675 103.458 150.777C102.978 150.129 102.429 149.565 101.727 148.785ZM160.91 255.125C161.05 254.981 161.261 254.909 161.401 254.764C159.051 247.742 156.701 240.708 154.281 233.686C154.141 233.254 153.381 232.69 152.89 232.69C146.529 232.762 146.74 231.405 148.061 238.296C148.061 238.368 148.061 238.44 148.12 238.512C150.13 245.966 154.421 251.427 160.91 255.125ZM113.068 128.631C120.399 130.047 127.449 131.464 134.499 132.808C135.06 132.88 135.96 132.604 136.229 132.172C137.27 130.611 138.1 128.979 139 127.418C132.71 122.593 119.498 123.157 113.068 128.631ZM232.065 182.215C231.165 183.715 230.405 185.204 229.575 186.548C228.944 187.544 228.944 188.253 229.774 189.177C234.275 194.362 238.624 199.608 243.126 204.794C243.395 205.142 243.815 205.358 244.225 205.718C245.055 196.907 239.665 186.404 232.065 182.215ZM93.7769 147.08C89.6965 139.842 86.037 133.384 82.1671 126.494C82.1671 134.585 82.1671 142.183 82.1671 150.417C86.1072 149.277 89.6965 148.221 93.7769 147.08ZM93.7769 207.914C90.2577 206.99 87.2763 206.066 84.2365 205.358C82.6464 204.938 82.0268 205.646 82.0268 207.422C82.0969 213.52 82.0268 219.702 82.0969 225.8C82.0969 226.508 82.1671 227.288 82.2372 228.645C86.1072 221.611 89.6965 215.081 93.7769 207.914ZM161.331 100.158C154.281 103.711 149.71 109.317 148.061 116.987C146.529 123.733 146.95 122.029 152.2 122.305C153.521 122.377 154.071 121.813 154.48 120.6C155.111 118.476 155.871 116.339 156.631 114.215C158.151 109.533 159.741 104.84 161.331 100.158ZM101.657 205.994C106.638 200.172 111.338 194.639 115.979 189.033C116.318 188.613 116.459 187.688 116.178 187.184C115.418 185.552 114.518 184.063 113.629 182.503C106.568 185.624 100.698 196.907 101.657 205.994ZM175.571 71.4098C175.501 71.4818 175.361 71.6258 175.291 71.6978C178.962 78.1558 182.551 84.6137 186.293 91.2877C189.812 89.091 192.442 86.3902 194.652 82.7651C188.152 78.864 181.862 75.1069 175.571 71.4098ZM186.562 263.215C182.551 270.309 178.962 276.839 175.291 283.297C175.361 283.369 175.501 283.513 175.571 283.585C181.862 279.828 188.222 276.059 195.073 271.942C192.092 268.893 189.543 266.192 186.562 263.215ZM263.177 228.141C263.305 228.141 263.376 228.081 263.516 228.081C263.516 226.16 263.516 224.167 263.516 222.259C263.516 217.217 263.586 212.104 263.446 207.062C263.446 206.426 262.756 205.214 262.417 205.286C258.816 205.502 255.425 206.57 252.105 208.479C255.916 215.153 259.506 221.683 263.177 228.141ZM151.101 82.6331C153.311 86.2462 155.871 88.947 159.32 91.1436C163.061 84.5417 166.581 78.2278 170.182 71.8419C170.041 71.6978 169.901 71.6258 169.761 71.4818C163.611 75.1789 157.531 78.792 151.101 82.6331ZM251.906 146.864C255.297 147.861 258.196 148.785 261.166 149.565C262.826 149.997 263.586 149.349 263.586 147.44C263.516 142.183 263.586 136.925 263.586 131.608C263.586 129.975 263.586 128.415 263.586 126.146C259.576 133.24 255.916 139.77 251.906 146.864ZM159.121 263.359C156.21 266.336 153.591 269.037 150.68 272.086C157.461 276.131 163.681 279.756 169.831 283.441C169.971 283.297 170.041 283.153 170.182 283.021C166.581 276.623 162.991 270.309 159.121 263.359ZM107.257 232.834C99.3772 232.834 92.257 232.834 85.2069 232.834C85.2069 232.978 85.1368 233.038 85.1368 233.182C91.2281 236.807 97.3779 240.42 104.077 244.405C105.118 240.36 106.158 236.807 107.257 232.834ZM106.568 122.161C106.708 118.548 105.609 115.283 104.147 112.234C103.949 111.802 102.557 111.514 102.078 111.802C96.4075 115.067 90.8072 118.404 85.2069 121.741C85.1368 121.813 85.1368 122.029 85.1368 122.089C92.3271 122.161 99.3772 122.161 106.568 122.161ZM260.195 122.161C260.266 122.029 260.266 121.885 260.336 121.741C254.326 118.116 248.235 114.575 241.676 110.661C240.635 114.647 239.665 118.26 238.554 122.161C246.236 122.161 253.216 122.161 260.195 122.161ZM241.734 244.261C248.375 240.288 254.396 236.735 260.406 233.182C260.336 233.038 260.266 232.978 260.195 232.834C253.216 232.834 246.236 232.834 238.624 232.834C239.735 236.735 240.706 240.288 241.734 244.261ZM219.333 200.892C219.474 200.892 219.544 200.964 219.684 200.964C221.894 197.051 224.103 193.078 226.255 189.177C226.465 188.745 226.594 187.893 226.395 187.616C224.244 184.916 221.964 182.359 219.333 179.31C219.333 186.98 219.333 193.93 219.333 200.892ZM126.28 179.382C123.719 182.431 121.439 185.06 119.288 187.76C119.089 188.037 119.089 188.745 119.23 189.105C121.439 193.15 123.719 197.195 126.28 201.745C126.28 194.002 126.28 186.98 126.28 179.382ZM126.139 175.193C126.139 167.738 126.139 160.848 126.139 153.394C123.859 157.511 121.778 161.137 119.779 164.762C119.639 165.038 119.428 165.254 119.358 165.542C119.288 166.106 119.159 166.886 119.428 167.246C121.58 169.791 123.719 172.348 126.139 175.193ZM176.331 230.421C176.402 230.625 176.472 230.769 176.542 230.985C179.102 230.985 181.721 230.985 184.282 230.985C190.572 230.985 190.572 230.985 192.583 224.948C193.062 223.459 193.553 221.971 194.173 219.846C187.813 223.603 182.072 227.012 176.331 230.421ZM169.211 230.913C169.281 230.769 169.281 230.625 169.352 230.493C163.471 227.012 157.66 223.531 151.3 219.774C152.551 223.531 153.591 226.724 154.76 229.845C154.971 230.349 155.801 230.841 156.35 230.913C160.641 230.985 164.92 230.913 169.211 230.913ZM85.1368 229.641C85.2069 229.713 85.2069 229.773 85.2771 229.917C91.7075 228.645 98.1378 227.432 104.498 226.088C105.048 225.944 105.948 224.948 105.808 224.527C105.328 222.607 104.498 220.758 103.738 218.706C97.3077 222.463 91.2281 226.088 85.1368 229.641ZM129.6 206.774C129.53 206.918 129.46 206.99 129.319 207.134C131.459 210.963 133.54 214.805 135.75 218.49C136.03 218.994 136.989 219.558 137.55 219.414C140.73 218.922 143.84 218.214 147.57 217.493C141.28 213.808 135.469 210.327 129.6 206.774ZM215.884 147.861C215.954 147.789 216.083 147.717 216.153 147.645C213.943 143.743 211.804 139.914 209.594 136.013C209.384 135.581 208.694 135.089 208.343 135.161C205.023 135.725 201.772 136.433 197.902 137.213C204.193 140.91 210.003 144.38 215.884 147.861ZM129.6 147.368C129.729 147.512 129.799 147.572 129.939 147.717C135.68 144.308 141.42 140.91 147.161 137.501C143.84 136.361 140.52 135.725 137.27 135.161C136.989 135.089 136.44 135.437 136.229 135.725C133.949 139.554 131.81 143.455 129.6 147.368ZM198.043 217.493C200.603 217.997 202.532 218.418 204.473 218.778C209.173 219.702 209.173 219.702 211.593 215.441C213.113 212.812 214.563 210.111 216.024 207.494C215.884 207.35 215.744 207.206 215.604 207.062C209.933 210.471 204.263 213.808 198.043 217.493ZM151.51 134.309C151.65 134.441 151.791 134.585 151.861 134.657C157.601 131.248 163.33 127.851 169.001 124.442C164.581 123.937 160.361 123.937 156.14 124.009C155.59 124.009 154.69 124.718 154.48 125.294C153.451 128.271 152.481 131.32 151.51 134.309ZM241.875 135.941C248.095 132.244 253.976 128.835 259.927 125.366C253.566 126.206 247.335 127.346 241.185 128.691C240.635 128.835 239.805 129.903 239.946 130.323C240.355 132.1 241.115 133.876 241.875 135.941ZM219.333 175.265C221.824 172.348 223.975 169.791 226.114 167.174C226.395 166.886 226.524 166.178 226.325 165.818C224.174 161.845 221.894 157.872 219.684 153.898C219.544 153.97 219.403 154.042 219.275 154.042C219.333 160.92 219.333 167.811 219.333 175.265ZM173.701 95.3329C175.992 94.9128 178.132 94.5527 180.482 94.1926C178.202 87.4585 176.063 81.0606 173.911 74.7467C173.841 74.7467 173.771 74.8188 173.642 74.8188C173.701 81.4928 173.701 88.2388 173.701 95.3329ZM176.881 124.009C176.822 124.153 176.822 124.37 176.752 124.514C182.423 127.851 188.023 131.248 193.682 134.585C192.992 131.116 191.893 127.911 190.782 124.79C190.642 124.442 190.092 124.009 189.672 124.009C185.392 124.009 181.102 124.009 176.881 124.009ZM173.642 280.176C173.701 280.176 173.841 280.248 173.911 280.248C176.063 273.862 178.202 267.536 180.412 260.802C177.992 260.37 175.922 260.022 173.642 259.662C173.642 266.696 173.642 273.43 173.642 280.176ZM103.317 137.141C97.2376 133.6 91.5672 130.191 85.8967 126.854C85.8266 126.998 85.6863 127.13 85.6278 127.202C89.9771 132.316 94.2679 137.429 98.8277 142.819C100.348 140.838 101.727 139.134 103.317 137.141ZM171.842 95.3329C171.842 88.1668 171.842 81.3487 171.842 74.5307C169.632 80.4244 167.551 86.3902 165.68 92.356C165.552 92.9202 165.961 94.1325 166.382 94.2646C168.101 94.7687 169.901 94.9848 171.842 95.3329ZM171.912 259.734C170.731 259.878 169.831 260.022 168.931 260.094C165.131 260.586 165.131 260.586 166.312 264.211C168.101 269.529 169.901 274.786 171.702 280.104C171.772 280.104 171.842 280.032 171.982 280.032C171.912 273.43 171.912 266.756 171.912 259.734ZM104.019 135.653C104.638 133.876 105.188 132.46 105.737 131.044C106.369 129.411 105.878 128.691 104.217 128.415C100.207 127.707 96.197 126.926 92.1868 126.146C90.398 125.786 88.6676 125.426 86.8671 125.078C86.8671 125.222 86.797 125.366 86.797 125.426C92.3973 128.835 98.0677 132.172 104.019 135.653ZM242.635 217.565C248.656 221.118 254.256 224.383 259.786 227.72C259.856 227.576 259.927 227.504 260.067 227.36C255.776 222.331 251.555 217.361 247.066 212.032C245.546 213.952 244.225 215.585 242.635 217.565ZM259.026 229.497C259.026 229.353 259.096 229.209 259.096 229.065C253.426 225.728 247.826 222.463 241.875 218.922C241.115 220.974 240.425 222.607 239.946 224.311C239.805 224.744 240.495 225.8 240.974 225.872C246.996 227.156 253.005 228.285 259.026 229.497ZM86.3878 226.436C86.5164 226.58 86.5865 226.724 86.7268 226.868C92.0465 223.747 97.3779 220.626 102.978 217.289C101.388 215.369 100.067 213.808 98.6172 211.96C94.4082 217.001 90.398 221.755 86.3878 226.436ZM242.635 137.285C244.096 139.134 245.406 140.766 246.855 142.615C251.146 137.501 255.227 132.748 259.237 127.983C259.167 127.911 259.096 127.779 258.956 127.707C253.636 130.827 248.305 133.948 242.635 137.285ZM140.859 172.636C144.179 170.439 146.95 167.738 148.879 164.041C146.74 162.769 144.869 161.629 142.73 160.356C141.759 163.261 140.929 165.962 139.97 168.519C139.339 170.079 139.479 171.364 140.859 172.636ZM143.279 195.563C145.641 198.408 147.78 200.964 149.99 203.437C150.89 204.505 152.551 204.085 152.551 202.945C152.551 199.044 151.44 195.419 149.441 191.938C147.36 193.15 145.501 194.218 143.279 195.563ZM173.572 142.111C173.572 144.38 173.502 146.372 173.642 148.293C173.642 148.713 174.262 149.421 174.601 149.349C178.202 149.145 181.663 148.365 185.112 146.156C184.212 145.304 183.662 144.247 182.902 144.031C180.003 143.323 177.021 142.819 173.572 142.111ZM141.759 196.415C137.55 198.9 133.669 201.168 129.729 203.437C129.799 203.509 129.869 203.653 129.939 203.725C134.569 203.725 139.269 203.725 144.25 203.725C143.42 201.24 142.66 198.972 141.759 196.415ZM201.293 203.797C206.344 203.797 211.044 203.797 216.293 203.797C211.874 201.168 207.934 198.9 203.783 196.415C202.883 199.044 202.123 201.313 201.293 203.797ZM149.71 162.697C151.44 158.868 152.691 155.243 152.481 150.849C151.37 151.126 150.271 151.054 149.78 151.63C147.64 153.898 145.699 156.311 143.49 159.012C145.641 160.284 147.57 161.425 149.71 162.697ZM160.291 146.012C163.962 148.221 167.341 149.145 170.871 149.349C171.222 149.349 171.982 148.713 171.982 148.293C172.111 146.372 172.052 144.452 172.052 142.183C168.931 142.819 166.101 143.251 163.33 143.959C162.372 144.247 161.542 145.16 160.291 146.012ZM202.263 159.144C199.984 156.455 197.973 154.042 195.833 151.69C195.412 151.27 194.582 151.198 193.962 151.198C193.682 151.198 193.202 151.906 193.202 152.194C193.343 155.879 194.243 159.36 196.102 162.769C198.183 161.497 200.054 160.428 202.263 159.144ZM196.172 191.878C194.453 195.851 192.992 199.536 193.343 203.725C195.272 203.941 199.493 199.752 201.983 195.347C200.112 194.29 198.253 193.15 196.172 191.878ZM204.953 173.2C205.514 171.64 206.133 170.643 205.923 169.935C205.023 166.814 203.924 163.837 202.813 160.572C200.673 161.845 198.803 162.913 196.383 164.402C199.352 167.45 201.913 170.079 204.953 173.2ZM185.042 208.623C181.242 206.642 177.711 205.43 173.701 205.79C173.701 207.987 173.701 210.111 173.701 212.464C176.951 211.816 180.003 211.251 182.972 210.543C183.662 210.399 184.212 209.403 185.042 208.623ZM148.751 190.521C146.529 187.04 143.981 184.351 140.66 182.287C139.269 184.279 140.59 190.305 143.01 193.858C144.811 192.79 146.6 191.734 148.751 190.521ZM201.363 151.126C202.193 153.682 202.953 155.879 203.783 158.292C207.864 155.879 211.664 153.682 215.954 151.126C210.763 151.126 206.274 151.126 201.363 151.126ZM180.692 215.861C178.413 215.369 176.542 214.937 174.601 214.588C174.262 214.516 173.572 215.153 173.572 215.513C173.502 219.558 173.502 223.675 173.502 227.72C173.642 227.792 173.771 227.792 173.981 227.864C176.121 224.023 178.342 220.122 180.692 215.861ZM205.712 182.575C205.303 182.431 204.882 182.287 204.543 182.143C201.983 184.844 199.422 187.472 196.593 190.377C199.013 191.806 200.884 192.862 202.883 194.002C203.924 190.953 204.882 188.325 205.712 185.696C205.993 184.7 205.712 183.643 205.712 182.575ZM180.763 138.846C178.342 134.585 176.121 130.683 173.701 126.278C173.701 131.248 173.701 135.509 173.701 140.19C176.063 139.77 178.202 139.35 180.763 138.846ZM160.98 208.479C161.74 210.543 168.241 212.524 171.982 211.888C171.982 210.255 172.052 208.479 171.912 206.846C171.842 206.426 171.012 205.79 170.521 205.79C167.142 205.718 163.962 206.846 160.98 208.479ZM197.283 215.585C197.423 215.729 197.493 215.789 197.634 215.933C202.883 212.812 208.133 209.691 213.394 206.642C209.103 207.134 204.953 207.914 200.872 208.839C200.252 208.983 199.493 209.547 199.224 210.183C198.464 211.888 197.902 213.736 197.283 215.585ZM164.862 215.861C167.212 219.978 169.352 223.891 171.772 228.213C171.772 223.315 171.772 218.994 171.772 214.444C169.422 214.937 167.341 215.369 164.862 215.861ZM193.623 218.346C191.472 217.925 189.882 217.709 188.432 217.289C186.912 216.857 185.802 217.217 184.773 218.562C182.762 221.118 180.552 223.603 178.413 226.16C178.062 226.58 177.781 227.084 177.442 227.576C177.512 227.648 177.653 227.72 177.711 227.792C182.902 224.671 188.023 221.683 193.623 218.346ZM164.862 138.846C167.411 139.35 169.562 139.698 171.842 140.19C171.842 135.581 171.842 131.32 171.842 126.422C169.422 130.755 167.27 134.585 164.862 138.846ZM136.299 165.038C137.96 163.057 139.409 161.353 141.069 159.432C137.2 157.163 133.61 155.027 129.939 152.902C129.869 153.046 129.729 153.19 129.658 153.262C131.81 157.019 134.019 160.92 136.299 165.038ZM130.909 151.126C130.839 151.27 130.839 151.342 130.769 151.486C134.37 153.61 137.96 155.747 141.829 158.016C142.589 155.675 143.349 153.538 144.109 151.198C139.479 151.126 135.2 151.126 130.909 151.126ZM132.57 206.354C132.5 206.498 132.5 206.57 132.429 206.714C137.62 209.763 142.73 212.812 148.4 216.149C147.64 213.808 147.231 212.032 146.459 210.471C146.12 209.691 145.22 208.911 144.46 208.767C140.52 207.842 136.51 207.134 132.57 206.354ZM177.442 126.854C177.372 126.998 177.302 127.058 177.232 127.202C179.932 130.395 182.692 133.66 185.463 136.865C185.802 137.285 186.491 137.706 186.982 137.646C188.982 137.357 190.923 136.925 193.483 136.361C187.742 132.952 182.551 129.903 177.442 126.854ZM128.01 180.234C128.01 186.404 128.01 192.37 128.01 198.972C129.039 195.923 129.939 193.366 130.769 190.881C132.78 184.988 132.78 184.988 128.559 180.51C128.559 180.51 128.489 180.51 128.01 180.234ZM128.01 173.98C128.209 174.052 128.349 174.124 128.559 174.196C129.799 172.78 131.05 171.292 132.219 169.791C132.429 169.515 132.57 168.939 132.429 168.663C131.12 164.618 129.729 160.572 128.419 156.527C128.279 156.527 128.139 156.599 128.01 156.599C128.01 162.409 128.01 168.231 128.01 173.98ZM152.06 218.346C157.8 221.755 162.921 224.804 168.101 227.864C165.552 224.311 162.781 221.046 160.022 217.781C159.671 217.361 158.911 217.001 158.432 217.073C156.491 217.421 154.62 217.853 152.06 218.346ZM217.615 179.73C216.024 181.651 214.633 183.211 213.394 184.844C213.113 185.204 213.043 185.984 213.183 186.404C214.563 190.593 215.954 194.711 217.334 198.828C217.404 198.828 217.474 198.756 217.544 198.756C217.615 192.586 217.615 186.404 217.615 179.73ZM152.13 136.361C154.62 136.865 156.421 137.213 158.221 137.501C158.7 137.573 159.46 137.573 159.741 137.285C162.57 134.092 165.271 130.827 168.042 127.635C167.902 127.49 167.761 127.346 167.691 127.202C162.711 130.119 157.66 133.024 152.13 136.361ZM132.71 147.861C132.78 148.005 132.85 148.149 132.85 148.293C136.919 147.512 140.999 146.66 145.08 145.808C145.43 145.736 145.91 145.376 146.05 145.1C146.74 143.107 147.43 141.115 148.26 138.558C142.73 141.895 137.749 144.884 132.71 147.861ZM197.072 138.498C197.902 140.983 198.522 142.891 199.224 144.74C199.352 145.16 199.843 145.592 200.182 145.736C204.403 146.66 208.554 147.44 212.774 148.293C212.844 148.149 212.844 148.005 212.903 147.933C207.864 144.884 202.743 141.823 197.072 138.498ZM217.615 156.239C217.474 156.167 217.404 156.167 217.264 156.095C215.884 160.212 214.493 164.257 213.183 168.375C213.043 168.807 213.113 169.443 213.394 169.791C214.633 171.424 215.954 172.924 217.615 174.833C217.615 168.231 217.615 162.205 217.615 156.239ZM215.674 153.61C215.533 153.538 215.463 153.394 215.323 153.322C211.874 155.387 208.343 157.439 204.613 159.648C206.204 161.497 207.583 163.189 209.243 165.11C211.523 160.992 213.604 157.307 215.674 153.61ZM204.613 195.071C208.273 197.267 211.734 199.26 215.124 201.24C215.265 201.096 215.393 200.964 215.533 200.82C213.464 197.123 211.383 193.438 209.173 189.525C207.583 191.59 206.204 193.222 204.613 195.071ZM140.859 195.071C139.269 193.15 137.889 191.518 136.299 189.669C134.09 193.57 132.02 197.267 129.939 200.964C130.079 201.096 130.22 201.168 130.36 201.313C133.809 199.26 137.2 197.267 140.859 195.071ZM137.27 221.262C138.451 223.387 139.409 225.092 140.73 227.432C143.42 224.744 145.91 222.331 148.4 219.906C148.26 219.702 148.061 219.414 147.921 219.198C144.53 219.846 141.14 220.554 137.27 221.262ZM227.564 167.883C225.074 170.787 222.864 173.488 220.584 176.189C220.725 176.393 220.865 176.681 220.993 176.897C224.174 175.901 227.424 174.977 230.955 173.908C229.645 171.64 228.745 170.007 227.564 167.883ZM208.343 221.19C204.543 220.482 201.223 219.846 197.902 219.198C197.762 219.486 197.634 219.702 197.493 219.978C199.843 222.331 202.263 224.671 204.882 227.228C206.204 224.948 207.174 223.243 208.343 221.19ZM198.873 230.769C197.973 227.156 197.213 223.819 196.383 220.482C196.102 220.482 195.903 220.554 195.623 220.554C194.512 223.891 193.413 227.228 192.232 230.769C194.582 230.769 196.453 230.769 198.873 230.769ZM117.979 167.955C116.868 170.007 115.909 171.712 114.658 173.908C118.189 174.977 121.369 175.901 124.479 176.825C124.619 176.537 124.69 176.321 124.83 176.045C122.679 173.488 120.469 170.931 117.979 167.955ZM198.873 124.226C196.383 124.226 194.512 124.226 192.232 124.226C193.413 127.779 194.582 131.116 195.693 134.381C195.973 134.381 196.172 134.441 196.453 134.441C197.213 131.116 198.043 127.779 198.873 124.226ZM208.203 133.456C207.034 131.392 206.133 129.759 204.882 127.707C202.334 130.191 200.054 132.388 197.762 134.585C197.902 134.873 198.043 135.089 198.253 135.365C201.433 134.801 204.613 134.164 208.203 133.456ZM230.534 181.651C228.675 179.73 223.414 178.17 220.923 178.806C223.145 181.435 225.284 183.919 227.634 186.692C228.745 184.844 229.704 183.211 230.534 181.651ZM140.73 127.563C139.479 129.759 138.509 131.464 137.41 133.384C141.069 134.092 144.25 134.729 147.5 135.365C147.64 135.161 147.78 134.873 147.921 134.657C145.641 132.388 143.349 130.191 140.73 127.563ZM153.381 230.841C152.2 227.288 151.101 224.095 149.99 220.902C149.71 220.902 149.511 220.902 149.23 220.83C148.47 224.095 147.78 227.288 146.95 230.841C149.371 230.841 151.171 230.841 153.381 230.841ZM124.69 178.746C124.549 178.53 124.409 178.242 124.269 178.026C121.159 179.022 118.119 180.018 114.728 181.086C115.979 183.283 116.868 184.844 117.908 186.692C120.399 183.847 122.538 181.291 124.69 178.746ZM146.95 124.081C147.78 127.635 148.54 130.827 149.3 134.02C149.511 134.02 149.78 133.948 149.99 133.948C151.031 130.755 152.13 127.563 153.24 124.153C151.031 124.081 149.3 124.081 146.95 124.081ZM239.045 230.769C244.985 230.769 250.795 230.769 256.536 230.769C256.536 230.697 256.536 230.697 256.536 230.625C250.866 229.569 245.195 228.429 239.314 227.288C239.256 228.645 239.115 229.569 239.045 230.769ZM89.9771 230.625C89.9771 230.697 90.0472 230.769 90.0472 230.769C95.5774 230.769 101.108 230.769 106.988 230.769C106.369 229.425 107.538 227.228 104.977 227.648C100.009 228.501 95.0279 229.569 89.9771 230.625ZM258.196 132.46C258.056 132.316 257.916 132.244 257.775 132.1C254.595 135.869 251.415 139.698 248.036 143.599C249.065 144.308 249.895 144.884 250.795 145.52C253.356 141.043 255.776 136.721 258.196 132.46ZM181.932 261.438C180.131 266.696 178.471 271.654 176.822 276.695C176.951 276.767 177.021 276.767 177.162 276.839C179.722 272.23 182.282 267.68 184.972 262.855C183.802 262.363 182.972 261.931 181.932 261.438ZM184.972 92.1399C182.282 87.3145 179.722 82.6931 177.162 78.1558C177.021 78.2278 176.951 78.2278 176.822 78.2998C178.541 83.3413 180.201 88.3108 182.002 93.4843C182.972 93.0642 183.732 92.6321 184.972 92.1399ZM160.641 262.927C163.272 267.608 165.751 272.014 168.171 276.419C168.311 276.347 168.451 276.275 168.592 276.203C166.931 271.377 165.271 266.552 163.611 261.51C162.57 262.003 161.74 262.435 160.641 262.927ZM87.4868 131.824C87.4166 131.896 87.2763 132.028 87.2179 132.1C89.6965 136.577 92.257 141.043 94.8876 145.736C95.858 145.028 96.6179 144.38 97.5182 143.671C94.0575 139.626 90.8072 135.725 87.4868 131.824ZM239.256 127.346C244.575 126.278 249.556 125.294 254.467 124.37C254.467 124.298 254.467 124.226 254.396 124.226C249.275 124.226 244.225 124.226 238.905 124.226C239.045 125.294 239.186 126.146 239.256 127.346ZM227.564 230.913C230.744 230.913 233.655 230.913 236.625 230.841C237.034 230.841 237.794 230.349 237.864 230.061C238.005 229.137 238.145 227.576 237.666 227.228C236.894 226.652 235.444 226.508 234.544 226.868C232.194 228.008 230.054 229.425 227.564 230.913ZM168.592 78.6479C168.521 78.5759 168.381 78.5759 168.311 78.5159C165.821 82.9812 163.33 87.3865 160.711 92.0679C161.81 92.5601 162.641 92.9202 163.681 93.3403C165.341 88.2388 166.931 83.4133 168.592 78.6479ZM106.778 124.153C101.458 124.153 96.3373 124.153 91.2866 124.153C91.2866 124.226 91.2866 124.226 91.2281 124.298C96.197 125.294 101.178 126.278 106.439 127.274C106.568 126.146 106.638 125.222 106.778 124.153ZM118.329 124.009C115.009 124.009 112.039 123.937 109.058 124.081C108.649 124.081 108.029 124.79 107.959 125.294C107.819 126.002 107.959 127.346 108.228 127.418C109.268 127.779 110.648 128.199 111.618 127.779C113.828 126.854 115.909 125.426 118.329 124.009ZM118.259 230.913C115.839 229.497 113.758 228.081 111.548 227.084C110.578 226.652 109.198 226.796 108.228 227.288C107.819 227.504 107.748 229.281 108.087 230.061C108.368 230.625 109.549 230.841 110.379 230.913C112.858 230.985 115.418 230.913 118.259 230.913ZM160.08 93.0642C158.432 95.9691 156.841 98.8139 155.251 101.647C157.11 100.867 158.56 99.6662 160.22 98.886C162.231 97.9617 162.781 96.4732 162.991 94.4086C162.021 94.0605 161.191 93.6284 160.08 93.0642ZM155.52 253.06C155.45 253.132 155.31 253.204 155.251 253.276C156.841 256.037 158.432 258.882 160.15 262.003C161.191 261.222 162.641 260.658 162.851 259.806C163.061 259.026 162.301 257.537 161.542 256.889C159.671 255.401 157.531 254.344 155.52 253.06ZM227.424 124.009C229.704 125.294 231.504 126.422 233.445 127.346C234.415 127.779 235.655 127.911 236.765 127.779C237.245 127.707 237.794 126.422 237.794 125.786C237.794 125.222 236.964 124.153 236.485 124.153C233.655 123.937 230.744 124.009 227.424 124.009ZM100.348 199.32C98.8978 201.949 97.1674 204.938 95.4371 208.059C96.4075 208.767 97.2376 209.403 98.4184 210.327C99.1083 208.767 100.067 207.626 100.207 206.354C100.558 203.941 100.348 201.457 100.348 199.32ZM94.8174 209.187C92.3271 213.664 89.9771 217.853 87.6271 222.043C87.6972 222.115 87.8375 222.187 87.9077 222.259C91.0176 218.562 94.1276 214.877 97.3077 211.107C96.4776 210.327 95.7878 209.907 94.8174 209.187ZM185.673 93.3403C182.353 94.4806 181.663 95.8971 183.522 97.5295C185.392 99.162 187.742 100.23 189.952 101.575C190.022 101.515 190.092 101.371 190.163 101.299C188.643 98.6699 187.193 96.0411 185.673 93.3403ZM95.5072 146.936C97.0973 149.781 98.6172 152.482 100.137 155.243C100.418 153.118 100.067 151.126 100.277 149.277C100.488 147.224 99.6578 146.012 98.1378 144.956C97.3077 145.52 96.4776 146.156 95.5072 146.936ZM190.092 253.696C189.952 253.552 189.812 253.42 189.672 253.204C187.672 255.905 182.972 255.545 182.481 260.298C183.522 260.802 184.492 261.222 185.603 261.727C187.193 258.882 188.643 256.253 190.092 253.696ZM247.206 144.452C246.505 145.592 245.546 146.444 245.476 147.368C245.265 149.781 245.406 152.194 245.406 155.315C247.206 152.122 248.656 149.493 250.246 146.732C249.135 145.94 248.305 145.376 247.206 144.452ZM141.21 126.71C143.279 128.487 145.22 130.119 147.231 131.896C146.81 129.759 146.529 127.851 146.12 125.93C145.98 125.294 145.501 124.153 145.22 124.153C144.179 124.153 143.08 124.442 142.18 124.934C141.759 125.222 141.561 126.146 141.21 126.71ZM141.21 228.285C141.631 228.993 141.829 229.917 142.32 230.205C143.151 230.625 144.25 230.769 145.22 230.841C145.501 230.841 145.98 230.277 146.05 229.917C146.459 227.72 146.74 225.452 147.161 223.171C145.22 224.876 143.279 226.508 141.21 228.285ZM198.522 223.039C198.943 225.164 199.224 227.156 199.633 229.137C199.773 229.773 200.112 230.841 200.393 230.841C201.363 230.841 202.404 230.697 203.234 230.205C203.783 229.845 203.994 228.921 204.403 228.213C202.474 226.436 200.603 224.804 198.522 223.039ZM121.299 177.533C119.358 176.753 117.569 176.045 115.839 175.481C115.278 175.265 114.179 175.193 114.038 175.481C113.559 176.261 113.138 177.245 113.208 178.17C113.278 178.878 113.968 179.598 114.389 180.234C116.739 179.238 118.879 178.458 121.299 177.533ZM198.522 131.896C200.533 130.191 202.404 128.559 204.333 126.782C203.994 126.146 203.783 125.222 203.234 124.862C202.474 124.37 201.433 124.081 200.603 124.153C200.252 124.153 199.773 125.222 199.633 125.858C199.224 127.779 198.943 129.687 198.522 131.896ZM250.176 208.203C248.586 205.43 247.136 202.801 245.616 200.04C245.616 202.165 245.745 204.013 245.546 205.79C245.335 207.842 246.236 208.983 247.756 210.039C248.586 209.331 249.275 208.839 250.176 208.203ZM248.375 211.107C251.216 214.444 253.835 217.565 256.536 220.686C256.676 220.554 256.817 220.482 257.015 220.338C254.946 216.713 252.935 213.028 250.795 209.259C249.895 209.907 249.275 210.399 248.375 211.107ZM224.524 177.461C226.524 178.242 228.324 179.022 230.195 179.598C230.674 179.73 231.504 179.526 231.855 179.166C232.884 178.098 232.884 176.825 231.855 175.757C231.504 175.409 230.674 175.121 230.195 175.265C228.394 175.901 226.524 176.681 224.524 177.461ZM155.59 198.828C157.181 203.725 159.121 204.866 164.231 203.725C161.401 202.165 158.432 200.46 155.59 198.828ZM146.331 182.431C146.331 179.022 146.331 175.541 146.331 172.216C142.87 176.537 142.87 178.098 146.331 182.431ZM187.123 146.732C187.672 148.641 188.573 149.925 190.642 149.421C191.133 149.277 191.893 148.641 191.823 148.365C191.612 147.368 191.332 146.156 190.642 145.664C189.333 144.74 188.152 145.592 187.123 146.732ZM133.259 171.075C131.599 173.056 130.29 174.629 128.899 176.261C129.039 176.393 129.179 176.609 129.249 176.753C130.98 176.393 132.78 176.045 134.779 175.613C134.3 174.052 133.809 172.78 133.259 171.075ZM163.751 151.198C157.87 150.705 156.701 151.414 155.59 156.023C158.221 154.463 160.91 152.83 163.751 151.198ZM153.86 148.221C153.72 149.349 154.55 149.565 155.731 149.493C156.97 149.421 158.841 147.789 158.361 146.792C158.011 146.084 156.9 145.448 156.14 145.376C154.62 145.304 153.86 146.3 153.86 148.221ZM181.312 203.869C187.532 204.289 188.982 203.509 189.613 199.32C186.912 200.748 184.141 202.309 181.312 203.869ZM212.353 171.003C211.804 172.708 211.383 173.98 210.904 175.613C212.903 176.045 214.633 176.321 216.434 176.681C216.504 176.465 216.574 176.261 216.644 176.117C215.265 174.485 213.943 172.924 212.353 171.003ZM205.923 180.09C207.443 179.874 208.343 178.95 208.343 177.389C208.343 175.757 207.303 174.977 205.853 174.761C203.854 177.245 203.854 177.461 205.923 180.09ZM141.759 177.245C140.859 176.321 139.83 174.977 139.479 175.121C138.579 175.481 137.41 176.465 137.27 177.389C137.059 178.746 138.1 180.09 139.479 179.874C140.239 179.73 140.859 178.314 141.759 177.245ZM190.022 155.807C188.023 150.909 186.562 150.057 182.282 151.342C184.703 152.758 187.263 154.246 190.022 155.807ZM147.851 209.403C148.681 211.816 149.3 213.808 149.99 215.729C150.201 215.729 150.341 215.729 150.54 215.729C151.101 213.952 151.65 212.176 152.27 210.255C150.68 209.979 149.511 209.691 147.851 209.403ZM199.493 172.636C199.493 175.685 199.493 178.806 199.493 182.143C202.743 177.113 202.743 176.969 199.493 172.636ZM187.053 208.131C188.023 209.475 189.333 209.835 190.502 208.983C191.203 208.551 191.472 207.422 191.823 206.57C191.893 206.426 191.133 205.79 190.642 205.718C188.853 205.358 187.532 205.922 187.053 208.131ZM150.341 139.206C150.13 139.206 149.92 139.278 149.71 139.278C149.09 141.115 148.47 143.035 147.71 145.304C149.371 144.956 150.54 144.74 152.06 144.452C151.44 142.543 150.89 140.838 150.341 139.206ZM128.969 178.53C130.489 180.306 131.74 181.795 133.119 183.499C134.92 179.31 134.85 179.094 130.839 178.53C130.36 178.458 129.869 178.53 128.969 178.53ZM158.56 208.275C158.081 206.426 157.181 205.286 155.251 205.718C154.76 205.862 153.93 206.354 154 206.642C154.071 207.422 154.281 208.479 154.76 208.839C156.011 209.619 157.461 209.835 158.56 208.275ZM210.904 179.382C211.383 180.798 211.734 182.011 212.283 183.571C213.803 181.795 215.054 180.306 216.293 178.806C216.153 178.602 216.024 178.458 215.884 178.242C214.294 178.602 212.704 178.95 210.904 179.382ZM187.462 139.206C188.643 140.55 189.403 141.475 190.443 142.615C191.753 141.043 192.793 139.698 193.892 138.426C193.752 138.282 193.682 138.138 193.553 137.994C191.683 138.354 189.812 138.702 187.462 139.206ZM152.34 137.994C152.2 138.138 152.06 138.354 151.931 138.498C153.03 139.77 154.141 141.043 155.38 142.471C156.35 141.259 157.11 140.334 158.081 139.206C155.941 138.702 154.141 138.354 152.34 137.994ZM195.213 215.225C195.412 215.225 195.552 215.225 195.763 215.297C196.383 213.448 197.002 211.612 197.692 209.403C196.102 209.763 194.933 210.039 193.553 210.399C194.243 212.176 194.722 213.664 195.213 215.225ZM197.692 145.304C196.932 143.107 196.383 141.331 195.763 139.554C195.552 139.554 195.412 139.554 195.213 139.626C194.722 141.115 194.243 142.675 193.682 144.38C195.003 144.74 196.102 144.956 197.692 145.304ZM193.202 216.581C193.343 216.365 193.413 216.149 193.553 215.933C192.442 214.733 191.332 213.52 190.163 212.248C189.192 213.376 188.502 214.228 187.602 215.441C189.672 215.861 191.402 216.221 193.202 216.581ZM209.524 168.159C207.583 170.571 207.583 171.003 209.313 174.268C211.313 170.511 211.383 169.659 209.524 168.159ZM155.45 212.392C154.281 213.808 153.24 214.937 152.27 216.077C152.34 216.221 152.481 216.437 152.551 216.581C154.281 216.221 155.941 215.861 158.011 215.513C157.11 214.372 156.421 213.52 155.45 212.392ZM200.393 147.44C200.744 149.853 200.252 149.493 209.313 149.145C206.344 148.641 203.503 148.077 200.393 147.44ZM146.6 149.349C149.651 149.709 150.54 149.145 151.791 145.94C149.92 147.152 147.021 145.808 146.6 149.349ZM162.161 214.516C160.91 211.672 160.15 211.251 157.11 211.612C159.39 215.225 159.671 215.441 162.161 214.516ZM162.091 140.262C160.08 139.206 158.49 140.19 157.321 143.395C159.46 143.251 161.542 143.107 162.091 140.262ZM198.803 149.205C198.394 146.864 197.213 146.228 194.033 146.516C195.623 149.493 196.172 149.853 198.803 149.205ZM136.03 186.692C137.819 183.991 137.819 182.791 135.82 180.378C135.75 182.575 133.189 184.556 136.03 186.692ZM183.592 140.262C184.492 142.891 184.901 143.179 188.502 143.251C186.293 139.554 185.731 139.278 183.592 140.262ZM209.313 180.654C207.583 183.715 207.583 184.135 209.524 186.548C211.313 184.916 211.254 183.991 209.313 180.654ZM136.58 149.205C136.58 149.277 136.58 149.421 136.65 149.493C138.86 149.493 141.14 149.565 143.349 149.421C144.051 149.349 144.671 148.641 145.36 148.293C145.22 148.077 145.08 147.789 144.939 147.572C142.11 148.149 139.339 148.641 136.58 149.205ZM130.769 195.779C130.839 195.851 130.909 195.923 131.05 195.923C132.219 193.786 133.4 191.662 134.639 189.525C135.399 188.253 134.92 187.616 133.739 186.98C132.71 190.029 131.74 192.862 130.769 195.779ZM136.229 174.268C137.34 172 138.17 170.079 136.089 168.231C134.16 169.731 134.16 169.731 136.229 174.268ZM178.541 131.116C181.663 138.138 182.002 138.558 184.212 137.85C182.282 135.581 180.412 133.384 178.541 131.116ZM166.931 223.531C167.002 223.459 167.142 223.387 167.212 223.243C166.101 221.262 164.991 219.27 163.821 217.289C163.061 215.933 162.921 216.005 161.401 217.001C163.272 219.198 165.131 221.407 166.931 223.531ZM188.292 211.54C184.901 211.468 184.492 211.744 183.662 214.372C185.802 215.297 186.491 214.877 188.292 211.54ZM178.892 223.111C180.622 220.974 182.423 218.922 184.212 216.713C182.002 216.077 182.002 216.077 178.892 223.111ZM161.471 137.85C163.611 138.498 164.511 137.357 166.861 131.392C165.061 133.528 163.33 135.653 161.471 137.85ZM193.682 208.347C198.183 207.987 198.464 207.842 198.522 205.862C196.172 205.07 194.792 206.21 193.682 208.347ZM211.734 186.836C210.354 188.613 211.453 191.662 214.434 194.855C213.464 192.082 212.634 189.597 211.734 186.836ZM132.149 160.572C131.95 160.572 131.669 160.644 131.459 160.644C132.219 162.913 132.979 165.254 133.739 167.522C133.949 167.45 134.23 167.378 134.44 167.306C135.75 164.402 132.429 162.985 132.149 160.572ZM214.364 159.792C210.904 164.041 210.284 166.106 211.804 167.522C212.494 165.614 213.113 163.693 213.803 161.773C213.943 161.281 214.084 160.704 214.364 159.792ZM151.37 208.131C150.54 205.862 149.09 205.142 146.81 205.994C147.57 208.695 149.78 207.698 151.37 208.131ZM189.403 203.653C191.963 204.085 192.513 203.089 192.033 198.972C191.063 200.676 190.303 202.021 189.403 203.653ZM203.164 179.094C202.123 180.942 201.363 182.359 200.533 183.775C200.673 183.847 200.744 183.919 200.884 183.991C202.053 183.067 203.164 182.143 204.403 181.159C204.064 180.438 203.713 179.946 203.164 179.094ZM191.893 155.603C192.033 155.531 192.162 155.459 192.232 155.387C192.033 153.97 191.823 152.614 191.683 151.198C190.923 151.198 190.373 151.198 189.403 151.198C190.373 152.83 191.133 154.174 191.893 155.603ZM159.051 149.421C160.91 149.421 162.301 149.421 163.962 149.421C163.611 149.145 163.471 149.001 163.33 148.857C162.301 148.425 161.331 148.005 160.15 147.512C159.811 148.077 159.46 148.569 159.051 149.421ZM143.84 122.089C146.19 122.233 146.19 122.233 146.459 117.263C145.501 119.04 144.741 120.456 143.84 122.089ZM153.86 199.464C154 204.157 154 204.157 156.07 203.581C155.31 202.165 154.62 200.82 153.86 199.464ZM146.459 237.659C146.12 232.474 146.12 232.474 143.911 233.038C144.741 234.538 145.501 235.883 146.459 237.659ZM144.46 183.571C144.53 183.499 144.671 183.427 144.741 183.283C143.981 181.939 143.221 180.654 142.25 179.094C141.759 179.946 141.49 180.438 141.14 181.086C142.391 181.939 143.42 182.791 144.46 183.571ZM204.953 124.153C205.993 126.206 207.303 126.146 209.454 124.153C208.074 124.153 206.613 124.153 204.953 124.153ZM204.824 230.841C206.683 230.841 208.203 230.841 210.214 230.841C208.483 230.061 207.244 229.497 205.853 228.861C205.584 229.497 205.303 229.989 204.824 230.841ZM200.673 199.752C199.352 201.313 198.394 202.453 197.283 203.725C199.773 204.013 200.054 203.725 200.673 199.752ZM207.174 168.159C208.624 166.322 208.133 165.182 205.514 163.621C206.063 165.182 206.613 166.67 207.174 168.159ZM186.223 149.349C185.603 147.296 184.972 147.368 182.142 149.349C183.452 149.349 184.843 149.349 186.223 149.349ZM203.094 175.481C204.543 173.632 204.403 173.344 200.744 171.292C201.644 172.852 202.334 174.124 203.094 175.481ZM145.08 207.062C143.349 204.722 141.069 206.138 139.07 205.994C141.069 206.354 143.08 206.714 145.08 207.062ZM167.972 141.403C166.452 141.259 164.511 139.206 163.132 142.327C164.991 141.967 166.51 141.691 167.972 141.403ZM111.688 179.238C110.928 180.654 110.239 181.867 109.338 183.355C112.729 181.795 112.998 181.363 111.688 179.238ZM144.741 199.608C145.84 204.085 145.84 204.157 147.991 203.509C147.021 202.381 146.05 201.24 144.741 199.608ZM135.89 124.081C139.69 126.146 140.31 126.35 140.38 124.081C138.93 124.081 137.48 124.081 135.89 124.081ZM168.171 213.304C166.242 212.956 164.792 212.668 163.33 212.32C164.032 214.66 164.032 214.66 168.171 213.304ZM138.38 186.332C136.989 188.469 137.129 188.889 139.97 191.097C139.409 189.393 139 188.037 138.38 186.332ZM147.991 151.198C145.571 151.126 144.939 152.05 145.01 154.751C145.98 153.61 146.88 152.542 147.991 151.198ZM109.619 171.928C110.309 173.128 110.928 174.268 111.759 175.757C113.629 172.708 110.578 172.924 109.619 171.928ZM153.72 155.531C154.62 153.898 155.31 152.614 156.011 151.27C153.79 151.126 153.79 151.126 153.72 155.531ZM206.344 206.066C204.403 205.922 202.404 205.142 200.603 206.066C200.603 206.354 200.673 206.642 200.673 206.99C202.532 206.714 204.473 206.426 206.344 206.066ZM205.712 190.737C208.694 188.181 208.694 188.181 207.104 186.692C206.613 188.037 206.133 189.393 205.712 190.737ZM201.644 233.11C201.363 232.978 201.153 232.834 200.872 232.69C198.522 233.038 200.182 235.595 199.563 236.879C200.252 235.595 200.942 234.322 201.644 233.11ZM201.702 121.957C200.872 120.456 200.252 119.256 199.352 117.624C199.773 122.161 199.773 122.161 201.702 121.957ZM139.9 163.765C137.059 166.034 136.919 166.526 138.509 167.883C138.93 166.598 139.339 165.398 139.9 163.765ZM136.299 230.697C137.819 230.697 139.14 230.697 140.59 230.697C139.62 228.789 139.62 228.789 136.299 230.697ZM144.6 171.712C141.21 173.488 141.14 173.704 142.519 175.481C143.151 174.268 143.77 173.128 144.6 171.712ZM233.924 175.613C234.614 174.34 235.175 173.272 236.005 171.784C232.685 173.632 232.685 173.704 233.924 175.613ZM182.353 142.255C181.242 140.19 181.031 140.13 177.781 141.331C179.301 141.619 180.692 141.895 182.353 142.255ZM233.854 179.094C232.264 181.939 234.614 181.867 235.795 182.575C235.246 181.579 234.614 180.51 233.854 179.094ZM182.423 212.392C180.763 212.74 179.441 212.956 178.132 213.244C178.132 213.448 178.202 213.592 178.202 213.808C179.582 213.304 181.312 215.585 182.423 212.392ZM200.393 154.535C200.054 153.118 200.533 150.849 197.634 151.198C198.733 152.482 199.563 153.466 200.393 154.535Z" fill="#D7D4B5"/>
</svg>
