<svg width="346" height="355" viewBox="0 0 346 355" fill="none" xmlns="http://www.w3.org/2000/svg">
<path d="M323.367 332.355C321.298 332.355 319.427 332.355 317.626 332.355C298.546 332.355 279.465 332.355 260.314 332.283C258.245 332.283 257.683 332.847 257.754 334.9C257.894 340.794 257.754 346.615 257.824 352.509C257.894 354.43 257.274 354.922 255.404 354.922C233.423 354.85 211.431 354.85 189.451 354.85C156.539 354.85 123.627 354.922 90.7153 354.922C87.6053 354.922 87.6053 354.922 87.6053 351.801C87.6053 346.123 87.5352 340.518 87.6755 334.84C87.7456 332.847 87.1844 332.283 85.2553 332.283C65.2042 332.355 45.0829 332.355 24.9616 332.355C22.0621 332.355 22.0621 332.355 22.0621 329.438C22.0621 308.852 22.0621 288.266 22.1322 267.752C22.1322 265.555 21.571 264.919 19.4315 264.991C13.8312 265.123 8.16075 264.991 2.49032 265.051C0.491048 265.123 0 264.415 0 262.506C0.0701512 232.257 0.0701497 201.948 0.0701497 171.711C0.0701497 145.591 0.0701497 119.4 0.0701497 93.2798C0.0701497 90.2189 0.0701497 90.2189 3.10997 90.2189C8.78041 90.2189 14.3807 90.1469 20.0511 90.2189C21.571 90.2189 22.1322 89.7988 22.1322 88.1663C22.0621 67.7962 22.0621 47.4862 22.0621 27.1161C22.0621 25.8437 22.2024 24.4873 22.2609 22.9989C23.3014 22.9268 24.2017 22.7828 25.1721 22.7828C45.0829 22.7828 65.0639 22.7828 84.9747 22.8548C87.1143 22.8548 87.7456 22.2186 87.6755 20.022C87.5352 14.2723 87.7456 8.59456 87.6053 2.84485C87.5352 0.63619 88.1548 0 90.2944 0C110.287 0.07202 130.327 0 150.308 0C185.441 0 220.492 0 255.614 0C257.414 0 257.894 0.63619 257.824 2.41272C257.754 8.3785 257.894 14.2723 257.754 20.226C257.683 22.2186 258.315 22.7828 260.244 22.7828C280.295 22.7108 300.416 22.7108 320.467 22.7108C323.297 22.7108 323.297 22.7108 323.297 25.6997C323.297 46.2858 323.297 66.8719 323.227 87.3861C323.227 89.4387 323.648 90.1469 325.787 90.0749C331.387 89.9428 337.058 90.0749 342.728 90.0149C344.739 89.9428 345.359 90.579 345.359 92.7037C345.289 124.153 345.289 155.602 345.289 186.98C345.289 211.959 345.289 236.951 345.289 261.93C345.289 264.847 345.289 264.847 342.378 264.847C336.719 264.847 331.118 264.919 325.448 264.775C323.648 264.775 323.227 265.339 323.227 267.116C323.297 287.846 323.297 308.576 323.297 329.222C323.367 330.219 323.367 331.071 323.367 332.355ZM24.2017 262.782C24.2017 264.343 24.2017 265.483 24.2017 266.624C24.2017 286.922 24.2718 307.148 24.1315 327.458C24.1315 329.726 24.681 330.219 26.8323 330.219C46.8133 330.146 66.8644 330.146 86.8454 330.146C89.8151 330.146 89.8151 330.146 89.8151 333.267C89.8151 338.957 89.8852 344.563 89.7449 350.24C89.6748 352.221 90.3646 352.653 92.1651 352.653C100.735 352.581 109.387 352.653 117.957 352.653C142.158 352.653 166.29 352.581 190.48 352.581C211.431 352.581 232.383 352.581 253.264 352.653C254.994 352.653 255.614 352.149 255.544 350.313C255.474 344.635 255.474 339.017 255.474 333.339C255.474 330.146 255.474 330.146 258.584 330.146C276.144 330.146 293.705 330.146 311.196 330.146C314.446 330.146 317.626 330.146 321.157 330.146C321.157 307.652 321.157 285.361 321.157 262.926C322.128 262.854 322.817 262.782 323.507 262.782C328.827 262.782 334.228 262.782 339.548 262.782C342.939 262.782 342.939 262.854 342.939 259.241C342.939 235.954 342.869 212.667 342.869 189.393C342.869 157.727 342.869 126.074 342.939 94.4082C342.939 92.6316 342.249 92.2115 340.729 92.2835C335.257 92.3556 329.727 92.2835 324.197 92.2835C321.087 92.2835 321.017 92.2835 321.017 89.1626C321.017 68.8525 321.017 48.6265 321.017 28.3285C321.017 24.9915 321.017 24.9194 317.767 24.9194C297.996 24.9194 278.155 24.9194 258.373 24.9194C255.333 24.9194 255.333 24.9194 255.333 21.8585C255.333 16.3969 255.333 11.0073 255.333 5.53365C255.333 2.26868 255.333 2.26868 252.153 2.26868C219.803 2.26868 187.44 2.3407 155.089 2.3407C134.278 2.3407 113.526 2.26868 92.7146 2.26868C89.5345 2.26868 89.5345 2.26868 89.5345 5.60567C89.5345 11.2113 89.476 16.757 89.6046 22.3627C89.6748 24.3433 89.0551 24.9915 87.1143 24.9915C79.3043 24.9194 71.4943 24.9194 63.6843 24.9194C51.0339 24.9194 38.3018 24.9194 25.6514 24.8474C24.342 24.8474 23.7925 25.2675 23.8626 26.768C23.9912 28.7486 23.9912 30.8132 23.9912 32.7938C23.9912 40.32 23.9211 47.8463 23.9211 55.3725C23.9211 66.944 23.9211 78.5754 23.9912 90.1469C23.9912 91.7794 23.3716 92.2835 21.8516 92.2115C16.6606 92.2835 11.2006 92.2835 5.81074 92.2835C2.01096 92.2835 2.35002 91.9234 2.35002 95.7646C2.35002 121.596 2.35002 147.44 2.35002 173.344C2.35002 193.714 2.35002 214.024 2.35002 234.394C2.35002 243.121 2.42017 251.919 2.35002 260.658C2.35002 262.29 2.84106 262.926 4.43113 262.782C4.91048 262.71 5.40153 262.782 5.88089 262.782C11.8319 262.782 17.7713 262.782 24.2017 262.782Z" fill="#D7D4B5"/>
<path d="M318.806 27.4766C318.877 28.749 318.947 29.8173 318.947 30.8857C318.947 51.2557 318.947 71.5538 318.947 91.9239C318.947 94.8407 318.947 94.8407 321.636 94.8407C327.306 94.8407 332.907 94.9128 338.577 94.7687C340.518 94.6967 340.927 95.4769 340.927 97.2535C340.857 108.177 340.927 119.112 340.927 130.047C340.927 151.486 340.997 172.924 340.997 194.362C340.997 215.441 340.927 236.519 340.997 257.537C340.997 259.662 340.448 260.442 338.238 260.37C332.497 260.226 326.827 260.37 321.086 260.298C319.356 260.298 318.947 260.874 318.947 262.579C319.017 283.153 319.017 303.667 319.017 324.253C319.017 327.734 319.087 327.662 315.696 327.662C295.715 327.662 275.664 327.662 255.683 327.662C253.953 327.662 253.333 328.166 253.403 330.003C253.474 335.897 253.333 341.718 253.474 347.612C253.532 349.737 252.772 350.313 250.773 350.313C231.832 350.241 212.88 350.241 193.87 350.241C161.098 350.241 128.397 350.241 95.625 350.241C92.024 350.241 92.024 350.241 92.024 346.4C92.024 341.226 92.024 335.969 92.024 330.783C92.024 327.662 92.024 327.662 89.0543 327.662C69.2838 327.662 49.4431 327.662 29.6608 327.662C26.5509 327.662 26.5509 327.662 26.5509 324.469C26.5509 304.099 26.5509 283.801 26.5509 263.419C26.5509 260.298 26.5509 260.298 23.511 260.298C18.6707 260.298 13.7602 260.298 8.9199 260.298C4.07956 260.298 4.57061 260.874 4.57061 255.977C4.57061 227.936 4.57061 199.896 4.57061 171.856C4.57061 147.224 4.57061 122.593 4.57061 98.0337C4.57061 94.7687 4.57061 94.7687 7.82088 94.7687C13.4212 94.7687 18.9513 94.6967 24.5516 94.7687C26.1417 94.7687 26.621 94.1925 26.621 92.6321C26.621 72.8262 26.621 53.0923 26.621 33.2984C26.621 31.3778 26.621 29.4572 26.621 27.3326C28.5618 27.3326 30.222 27.3326 31.8706 27.3326C51.1617 27.3326 70.5231 27.2606 89.8142 27.4046C91.8252 27.4046 92.1643 26.6964 92.0941 24.8479C92.024 18.9541 92.1643 13.1324 92.024 7.23861C91.9538 5.04195 92.7138 4.40576 94.7949 4.40576C113.116 4.47778 131.436 4.47778 149.757 4.47778C183.148 4.47778 216.551 4.47778 249.943 4.47778C253.403 4.47778 253.403 4.47778 253.403 8.01884C253.403 13.6965 253.474 19.3142 253.333 24.9919C253.263 26.9005 253.953 27.4046 255.753 27.4046C275.734 27.3326 295.786 27.3326 315.767 27.3326C316.795 27.4766 317.696 27.4766 318.806 27.4766ZM27.3108 28.0408C27.3108 29.4572 27.3108 30.5256 27.3108 31.5939C27.3108 52.108 27.3108 72.5501 27.3108 93.0642C27.3108 94.8407 26.8315 95.4769 25.031 95.4049C19.4307 95.3329 13.9005 95.3329 8.30024 95.4049C5.26042 95.4049 5.26042 95.4049 5.26042 98.5979C5.26042 129.687 5.26042 160.704 5.26042 191.806C5.26042 213.448 5.26042 235.103 5.26042 256.757C5.26042 259.518 5.26042 259.59 8.01964 259.59C13.4212 259.59 18.8812 259.59 24.271 259.59C27.1705 259.59 27.1705 259.59 27.1705 262.579C27.1705 282.949 27.1705 303.247 27.1705 323.617C27.1705 326.954 27.1705 326.954 30.3506 326.954C50.203 326.954 70.1139 326.954 89.9545 326.954C92.7138 326.954 92.7138 326.954 92.7138 329.871C92.7138 335.405 92.7138 340.866 92.7138 346.4C92.7138 349.605 92.7138 349.605 95.7653 349.605C126.947 349.605 158.128 349.605 189.31 349.605C209.56 349.605 229.751 349.605 250.013 349.677C251.884 349.677 252.573 349.245 252.573 347.192C252.433 341.37 252.643 335.621 252.503 329.799C252.433 327.518 253.193 327.026 255.262 327.026C272.893 327.098 290.524 327.098 308.155 327.098C311.406 327.098 314.586 327.098 318.117 327.098C318.117 324.973 318.117 323.125 318.117 321.204C318.117 301.614 318.117 282.097 318.117 262.507C318.117 259.734 318.117 259.662 320.946 259.662C326.277 259.662 331.667 259.662 336.987 259.662C340.097 259.662 340.097 259.662 340.097 256.469C340.097 224.671 340.097 192.862 340.097 161.064C340.097 139.986 340.097 118.896 340.167 97.8176C340.167 95.8971 339.617 95.3329 337.817 95.4049C332.147 95.549 326.546 95.4769 320.876 95.4769C318.187 95.4769 318.117 95.4769 318.117 92.5601C318.117 72.0459 318.117 51.5318 318.117 31.0897C318.117 28.1128 318.117 28.1128 315.205 28.1128C295.154 28.1128 275.173 28.1128 255.134 28.1849C253.123 28.1849 252.433 27.6807 252.503 25.5561C252.643 19.9504 252.573 14.4167 252.573 8.79907C252.573 5.186 252.912 5.46208 249.463 5.46208C219.381 5.46208 189.31 5.5341 159.157 5.5341C137.867 5.5341 116.576 5.5341 95.2742 5.40206C93.2048 5.40206 92.6553 6.03825 92.7138 8.09086C92.8541 13.9126 92.6553 19.6623 92.7839 25.4841C92.8541 27.6207 92.1643 28.1849 90.165 28.1849C71.0141 28.1128 51.7931 28.1128 32.6422 28.1128C31.0521 28.0408 29.3919 28.0408 27.3108 28.0408Z" fill="#D7D4B5"/>
<path d="M29.391 257.249C22.1305 257.249 15.0103 257.249 7.67969 257.249C7.67969 256.037 7.67969 255.125 7.67969 254.2C7.67969 228.285 7.67969 202.309 7.67969 176.393C7.67969 151.198 7.67969 126.002 7.67969 100.794C7.67969 97.8896 7.67969 97.8896 10.5792 97.8896C16.1094 97.8896 21.5693 97.8176 27.0995 97.9616C28.9701 98.0337 29.5196 97.3975 29.5196 95.5489C29.4612 76.5953 29.4612 57.5696 29.4612 38.6159C29.4612 35.9871 29.4612 33.2983 29.4612 30.5975C36.3008 30.5975 43.0118 30.5975 49.7812 30.5975C64.0918 30.5975 78.4023 30.5255 92.7129 30.6696C94.794 30.6696 95.3435 30.0934 95.2733 27.9688C95.133 22.075 95.2733 16.2533 95.2032 10.3595C95.133 8.3789 95.8345 7.94678 97.6234 7.94678C138.906 8.0188 180.248 8.0188 221.519 8.0188C230.312 8.0188 239.15 8.09082 247.931 7.94678C249.661 7.94678 250.222 8.45093 250.222 10.2995C250.152 16.2533 250.293 22.147 250.152 28.1128C250.082 30.1654 250.702 30.6696 252.643 30.6696C272.694 30.5975 292.675 30.5975 312.726 30.5975C313.685 30.5975 314.655 30.5975 315.836 30.5975C315.906 31.8699 315.964 32.9382 315.964 34.0066C315.964 54.3046 315.964 74.5306 315.964 94.8407C315.964 97.8896 315.964 97.8896 318.946 97.8896C324.195 97.8896 329.527 97.8896 334.776 97.8896C337.676 97.8896 337.676 97.8896 337.676 101.011C337.676 126.494 337.676 151.978 337.676 177.533C337.676 202.945 337.676 228.285 337.676 253.696C337.676 257.537 338.366 257.393 334.016 257.393C328.697 257.393 323.295 257.465 317.975 257.321C316.245 257.249 315.906 257.885 315.906 259.518C315.964 280.464 315.906 301.398 315.964 322.345C315.964 324.325 315.345 324.757 313.544 324.757C293.563 324.685 273.524 324.757 253.531 324.757C250.152 324.757 250.152 324.757 250.152 328.31C250.152 333.772 250.082 339.162 250.222 344.635C250.293 346.616 249.661 347.192 247.732 347.192C226.301 347.12 204.859 347.192 183.428 347.192C155.018 347.192 126.665 347.192 98.2547 347.192C95.2032 347.192 95.2032 347.192 95.2032 343.987C95.2032 338.453 95.133 332.992 95.2733 327.458C95.3435 325.393 94.7238 324.757 92.6544 324.757C72.6734 324.829 52.6223 324.829 32.6413 324.829C29.5196 324.829 29.5196 324.829 29.5196 321.708C29.5196 300.834 29.5196 279.96 29.5196 259.098C29.5196 258.522 29.4612 258.101 29.391 257.249ZM10.6494 177.533C10.6494 180.798 10.6494 184.063 10.6494 187.328C10.6494 208.695 10.6494 230.061 10.5792 251.427C10.5792 253.492 11.1989 254.2 13.28 254.128C18.74 253.984 24.2701 254.056 29.7301 254.128C32.5712 254.128 32.5712 254.128 32.5712 257.177C32.5712 277.691 32.5712 298.133 32.5712 318.647C32.5712 321.492 32.5712 321.492 35.4005 321.492C55.4517 321.492 75.5729 321.492 95.6241 321.42C97.5532 321.42 98.1846 321.984 98.1846 323.977C98.0443 329.871 98.1846 335.693 98.1144 341.574C98.1144 343.495 98.7341 344.059 100.605 344.059C108.894 343.987 117.265 344.131 125.555 344.131C144.507 344.131 163.447 344.059 182.388 343.987C203.269 343.987 224.08 343.987 244.961 344.059C246.902 344.059 247.381 343.279 247.311 341.502C247.241 335.621 247.311 329.799 247.241 323.905C247.241 321.984 247.802 321.42 249.661 321.42C269.783 321.492 289.974 321.42 310.095 321.42C312.586 321.42 312.784 321.204 312.784 318.575C312.784 298.061 312.784 277.619 312.784 257.105C312.784 254.128 312.784 254.128 315.696 254.128C321.366 254.128 326.966 254.056 332.637 254.128C334.297 254.128 334.987 253.552 334.846 251.86C334.776 251.007 334.846 250.155 334.846 249.231C334.846 221.683 334.846 194.146 334.846 166.598C334.846 145.664 334.846 124.718 334.917 103.783C334.917 101.647 334.355 100.866 332.146 100.939C326.756 101.083 321.296 101.011 315.906 101.011C312.854 101.011 312.854 101.011 312.854 97.9616C312.854 77.5916 312.854 57.2815 312.854 36.9114C312.854 33.7185 312.854 33.6464 309.815 33.6464C289.974 33.6464 270.063 33.6464 250.222 33.6464C247.381 33.6464 247.381 33.6464 247.311 30.5975C247.311 24.8478 247.241 19.1701 247.311 13.4204C247.311 11.6439 246.902 10.7916 244.961 10.7916C236.532 10.8636 228.02 10.7916 219.59 10.7916C200.299 10.7916 181.008 10.8636 161.647 10.8636C141.256 10.8636 120.925 10.8636 100.535 10.7916C98.5938 10.7916 98.1144 11.4998 98.1846 13.3484C98.2547 19.2421 98.1144 25.0639 98.1846 30.9456C98.1846 32.8662 97.6935 33.5744 95.6942 33.5744C75.5028 33.5024 55.3815 33.5744 35.1901 33.5024C33.0505 33.5024 32.4309 34.2106 32.5712 36.2752C32.6413 39.1081 32.5712 41.8809 32.5712 44.7257C32.5712 62.323 32.5712 79.9323 32.5712 97.5295C32.5712 100.866 32.5712 100.866 29.391 100.866C24.2 100.866 18.9504 100.866 13.7593 100.866C10.5792 100.866 10.5792 100.866 10.5792 104.203C10.5792 107.685 10.5792 111.166 10.5792 114.647C10.6494 135.725 10.6494 156.599 10.6494 177.533Z" fill="#D7D4B5"/>
<path d="M28.0703 177.113C28.2106 94.7684 93.1342 28.5327 173.748 28.8208C250.842 29.0368 315.146 92.3557 317.426 172.852C319.846 259.806 251.392 326.738 171.947 326.245C92.9237 325.753 27.6611 259.374 28.0703 177.113ZM315.275 169.515C314.796 136.721 300.894 101.574 272.624 72.9699C245.102 45.1456 211.64 31.1615 173.058 31.0174C94.0344 30.7413 30.2215 96.2569 30.2215 177.389C30.1514 258.521 93.8941 323.977 172.778 323.977C251.602 323.977 315.275 258.461 315.275 169.515Z" fill="#D7D4B5"/>
<path d="M283.953 260.73C284.444 259.806 284.783 258.737 285.344 257.885C296.264 241.632 303.665 223.747 307.325 204.289C309.885 190.521 310.434 176.609 308.985 162.625C306.226 135.725 296.685 111.73 280.574 90.4352C280.223 89.9431 280.013 89.2949 279.674 88.8027C280.293 89.3669 280.913 89.9431 281.404 90.5793C295.645 109.389 304.834 130.467 308.505 154.042C314.176 190.521 307.254 224.311 287.764 255.328C286.654 257.177 285.274 258.953 283.953 260.73Z" fill="#D7D4B5"/>
<path d="M61.5317 94.1924C61.1225 95.0446 60.8419 95.8969 60.3625 96.6771C48.8112 113.794 41.2117 132.532 37.7509 153.046C35.5412 166.178 35.1203 179.382 36.5116 192.586C39.2709 219.342 48.8814 243.193 64.8521 264.415C65.2029 264.919 65.4718 265.556 65.7524 266.048C65.273 265.556 64.6534 265.195 64.2325 264.631C49.9219 245.75 40.592 224.599 36.9208 200.964C31.1802 164.689 38.0315 130.971 57.3929 99.9421C58.6322 97.9615 60.1521 96.113 61.5317 94.1924Z" fill="#D7D4B5"/>
<path d="M86.2832 287.414C87.1133 287.918 88.0136 288.266 88.7735 288.842C106.065 302.611 125.427 311.841 146.928 315.815C183.85 322.693 218.141 315.598 249.533 294.232C250.843 293.308 252.293 292.6 253.672 291.747C250.983 293.74 248.423 295.793 245.582 297.641C227.951 309.069 208.73 315.815 188.059 318.227C176.589 319.572 165.108 319.5 153.697 317.795C129.086 314.11 106.896 304.519 87.3238 288.626C86.9847 288.266 86.634 287.846 86.2832 287.414Z" fill="#D7D4B5"/>
<path d="M259.272 67.5082C258.512 67.076 257.612 66.7279 256.922 66.2238C240.191 52.9598 221.59 43.8011 200.849 39.6118C163.167 31.9416 128.115 38.9036 96.0335 60.6901C94.6539 61.6144 93.3444 62.5387 91.9531 63.3909C92.374 62.8988 92.7832 62.2506 93.2743 61.8305C111.046 48.7706 130.816 40.6802 152.387 37.4152C162.547 35.8427 172.707 35.4226 182.879 36.2028C211.091 38.4715 236.321 48.5545 258.512 66.7279C258.793 66.944 259.003 67.2201 259.272 67.5082Z" fill="#D7D4B5"/>
<path d="M80.7523 72.6938C75.7834 78.1555 70.7326 83.5451 65.752 89.0187C65.8923 88.5866 65.8923 88.0944 66.1027 87.8064C70.5923 82.9089 75.0819 77.9394 79.6533 73.114C79.9222 72.8979 80.4133 72.8259 80.7523 72.6938Z" fill="#D7D4B5"/>
<path d="M279.745 88.8029C279.604 88.7309 279.464 88.8029 279.324 88.6589C274.554 83.5453 269.854 78.3718 265.154 73.2583C265.013 73.0422 265.013 72.7661 264.873 72.478C270.473 77.3755 275.664 82.561 279.745 88.8029Z" fill="#D7D4B5"/>
<path d="M264.943 282.445C265.084 282.097 265.084 281.736 265.294 281.46C270.134 276.275 274.905 271.017 279.745 265.844C279.675 266.192 279.675 266.624 279.464 266.828C274.624 272.086 269.784 277.271 264.943 282.445Z" fill="#D7D4B5"/>
<path d="M65.752 266.12C65.9624 266.192 66.1729 266.264 66.3015 266.408C71.1418 271.653 75.9821 276.983 80.8225 282.24C80.3431 282.024 79.7234 281.88 79.3727 281.52C74.9533 276.767 70.5923 272.013 66.243 267.26C65.9624 266.972 65.8923 266.48 65.752 266.12Z" fill="#D7D4B5"/>
<path d="M172.777 38.832C247.171 38.832 307.605 101.011 307.605 177.533C307.605 254.056 247.042 316.091 172.578 316.091C98.1842 316.019 37.7502 253.84 37.8204 177.245C37.8905 100.867 98.4531 38.832 172.777 38.832ZM282.362 252.208C276.002 257.537 268.742 259.734 260.663 258.666C252.502 257.537 246.282 253.06 241.64 246.038C226.43 255.053 211.429 263.923 196.359 272.866C200.088 280.668 200.708 288.483 197.598 296.357C194.558 304.243 188.818 309.417 180.598 312.55C221.94 310.629 261.142 286.49 282.362 252.208ZM282.433 102.571C271.103 84.9018 256.512 70.7015 238.741 60.1984C221.461 49.9714 190.759 40.6806 181.218 42.6612C188.958 45.578 194.558 50.7516 197.598 58.5659C200.72 66.4403 200.088 74.2546 196.429 81.9849C211.57 90.9996 226.57 99.8822 241.512 108.753C251.321 93.8444 270.133 92.0679 282.433 102.571ZM148.996 81.9849C142.016 67.7967 147.125 49.1911 164.826 42.241C143.746 43.6575 124.525 49.6232 106.684 60.1984C90.2339 69.9213 65.7517 93.9165 63.2613 102.859C69.6216 97.3975 76.8821 95.1168 84.9727 96.2572C93.0633 97.3975 99.2131 102.007 103.855 108.753C118.995 99.7382 133.926 90.8676 148.996 81.9849ZM63.0626 252.424C87.6033 288.771 121.275 308.925 164.207 312.622C150.037 307.292 140.976 290.331 148.926 272.938C133.926 264.067 118.855 255.125 103.855 246.242C94.0337 260.946 75.7831 262.999 63.0626 252.424ZM291.084 237.095C309.054 197.339 309.125 157.583 291.143 117.84C291.014 121.033 291.423 124.226 290.944 127.346C289.003 140.478 279.884 149.277 266.883 150.909C265.503 151.054 264.942 151.414 264.942 152.974C265.012 169.299 265.012 185.552 264.942 201.877C264.942 203.509 265.503 203.869 267.023 204.085C276.493 205.142 283.684 209.979 288.243 218.634C291.283 224.383 291.914 230.625 291.084 237.095ZM54.4108 117.84C36.3706 157.583 36.4408 197.339 54.4108 237.095C53.9314 232.546 53.9314 228.008 55.311 223.531C58.9822 212.176 66.7221 205.718 78.2032 204.085C79.8635 203.869 80.3428 203.233 80.2727 201.601C80.2025 198.684 80.2025 195.779 80.2727 192.934C80.3428 179.946 80.3428 167.03 80.413 154.042C80.413 152.194 80.2025 151.126 77.9226 150.849C68.6629 149.637 61.6713 144.74 57.2519 136.145C54.212 130.395 53.5807 124.226 54.4108 117.84ZM242.891 109.461C243.651 109.953 244.271 110.385 244.891 110.806C250.701 114.215 256.442 117.768 262.323 121.105C264.252 122.233 265.082 123.445 265.012 125.858C264.872 133.096 265.012 140.334 264.942 147.572C264.942 149.493 265.562 150.057 267.292 149.781C267.713 149.709 268.122 149.709 268.543 149.637C282.853 147.368 292.604 132.808 289.623 118.26C286.034 101.083 268.052 92.212 252.771 100.158C248.632 102.151 245.241 105.056 242.891 109.461ZM242.962 245.33C248.141 254.836 261.762 261.15 274.412 255.689C286.794 250.287 293.084 236.099 288.863 222.967C284.654 209.835 271.863 204.289 265.012 205.358C265.012 206.138 265.012 206.918 265.012 207.698C265.012 215.081 264.942 222.463 265.082 229.845C265.082 231.622 264.533 232.546 263.013 233.398C257.681 236.447 252.362 239.64 247.112 242.773C245.721 243.625 244.411 244.477 242.962 245.33ZM195.248 273.502C188.058 277.763 181.148 281.809 174.308 285.926C173.057 286.706 172.087 286.706 170.848 285.926C164.558 282.097 158.127 278.4 151.837 274.642C150.446 273.79 149.546 273.862 149.206 275.495C148.447 279.252 147.067 283.093 147.125 286.922C147.266 299.418 156.607 310.137 168.287 312.046C180.867 314.11 192.629 307.076 196.838 294.94C199.399 287.702 198.849 280.608 195.248 273.502ZM150.247 81.1327C151.077 80.7125 151.837 80.3524 152.527 79.9323C158.607 76.3072 164.756 72.6941 170.778 68.997C172.087 68.2168 173.057 68.0728 174.437 68.925C180.528 72.6221 186.608 76.2352 192.699 79.7883C193.518 80.2804 194.348 80.7125 195.178 81.2047C200.579 71.8419 199.328 57.6416 189.449 48.843C180.037 40.4645 165.727 40.3925 156.257 48.627C146.997 56.7174 144.226 71.1937 150.247 81.1327ZM80.6819 97.1094C79.653 97.2535 78.2734 97.3255 76.9522 97.5295C64.5825 99.3781 55.0421 110.878 55.2409 123.793C55.4513 137.069 65.2022 148.221 77.8525 149.709C79.9921 149.997 80.3428 149.205 80.3428 147.296C80.2727 139.914 80.413 132.532 80.2727 125.15C80.2025 123.157 80.9625 122.161 82.5525 121.309C88.7725 117.768 94.8638 113.998 101.084 110.385C102.265 109.677 102.604 109.245 101.633 107.973C96.4539 100.939 89.474 97.4575 80.6819 97.1094ZM102.534 245.534C101.844 245.114 101.294 244.681 100.675 244.333C95.0041 240.996 89.4038 237.443 83.5931 234.322C80.8222 232.834 80.0622 231.057 80.1324 228.081C80.3428 221.19 80.2025 214.3 80.2025 207.422C80.2025 205.718 79.653 204.938 77.9928 205.286C77.5017 205.358 77.0224 205.358 76.543 205.502C64.9216 207.626 56.7608 216.929 55.3812 229.569C54.212 240.216 60.9815 251.427 71.2117 255.833C82.4824 260.658 96.7929 256.037 102.534 245.534ZM187.029 262.075C189.648 264.847 192.208 267.404 194.488 270.093C195.388 271.161 196.008 271.449 197.259 270.669C201.538 268.04 205.899 265.484 210.19 262.927C219.66 257.249 229.201 251.644 238.741 246.038C240.331 245.114 240.881 244.333 240.05 242.341C239.022 240 238.39 237.443 238.051 234.887C237.771 233.11 237.221 232.618 235.561 232.618C225.6 232.69 215.72 232.69 205.759 232.618C204.099 232.618 203.198 233.254 202.438 234.67C199.06 240.924 195.529 247.094 191.998 253.276C190.279 256.325 188.549 259.374 187.029 262.075ZM148.447 84.0495C134.896 92.1399 120.235 100.795 105.573 109.605C105.164 109.809 105.024 111.022 105.234 111.73C105.924 114.575 107.035 117.335 107.514 120.252C107.795 122.029 108.414 122.305 109.934 122.305C119.825 122.233 129.635 122.233 139.526 122.305C141.116 122.305 142.016 121.813 142.846 120.324C147.616 111.658 152.527 103.003 157.367 94.3366C157.706 93.7004 158.057 92.9922 158.396 92.284C158.127 92.5 157.776 92.7041 157.508 92.9202C154.596 90.1473 151.767 87.3145 148.447 84.0495ZM187.029 92.9202C192.208 102.223 197.598 111.73 203 121.249C203.269 121.741 204.099 122.233 204.66 122.233C215.159 122.305 225.67 122.305 236.18 122.233C236.73 122.233 237.56 121.525 237.7 121.033C238.671 117.48 239.431 113.926 240.331 110.097C240.191 110.025 239.711 109.677 239.15 109.317C232.72 105.488 226.36 101.719 219.929 97.8897C212.4 93.4123 204.788 88.875 197.259 84.3976C196.499 83.9775 195.879 83.1973 194.909 84.3256C192.419 87.1705 189.858 89.8713 187.029 92.9202ZM149.417 271.305C152.316 268.461 154.807 265.904 157.496 263.491C158.466 262.579 158.197 262.003 157.706 261.078C152.667 252.064 147.616 242.977 142.425 234.034C142.016 233.326 140.765 232.618 139.935 232.618C129.845 232.546 119.825 232.546 109.724 232.546C108.344 232.546 107.865 232.978 107.584 234.466C107.035 237.299 106.333 240.144 105.375 242.773C104.743 244.333 104.954 244.97 106.333 245.822C120.305 254.056 134.276 262.363 148.236 270.669C148.715 271.017 149.206 271.233 149.417 271.305ZM94.2442 148.149C90.6431 149.145 87.3929 150.201 84.0023 150.849C82.3421 151.126 81.7926 151.63 81.7926 153.322C81.8627 163.837 81.8627 174.34 81.8627 184.844C81.8627 190.593 81.8627 196.271 81.9329 202.021C81.9329 202.657 82.4824 203.725 82.9734 203.869C86.5628 204.938 90.2924 205.79 94.174 206.714C94.1039 206.774 94.3728 206.498 94.5131 206.21C99.634 197.051 104.813 187.965 109.864 178.746C110.285 178.026 110.145 176.609 109.654 175.829C105.924 168.939 102.054 162.133 98.1842 155.315C96.8631 152.83 95.4835 150.345 94.2442 148.149ZM251.181 148.077C251.181 148.077 250.912 148.365 250.701 148.713C245.581 157.872 240.471 167.03 235.21 176.117C234.52 177.317 234.871 178.098 235.421 179.094C239.782 186.764 244.061 194.494 248.422 202.165C249.392 203.869 250.351 205.502 251.052 206.714C255.062 205.718 258.722 204.866 262.323 203.797C262.802 203.653 263.352 202.525 263.352 201.877C263.422 190.101 263.352 178.314 263.352 166.526C263.352 162.061 263.422 157.583 263.282 153.046C263.282 152.338 262.662 151.198 262.113 150.981C258.582 149.997 254.992 149.073 251.181 148.077ZM173.607 178.746C173.607 187.184 173.607 195.347 173.607 203.437C182.189 204.433 193.249 195.923 194.149 190.809C187.438 186.836 180.727 182.923 173.607 178.746ZM194.219 163.765C194.079 163.261 194.009 163.057 193.939 162.841C193.798 162.481 193.588 162.205 193.459 161.917C188.888 155.531 182.668 151.978 174.998 151.054C173.537 150.909 173.338 151.69 173.338 152.83C173.338 159.864 173.338 166.886 173.338 173.848C173.338 174.34 173.537 174.833 173.747 175.685C180.727 171.64 187.438 167.738 194.219 163.765ZM150.797 191.025C155.567 198.336 161.787 202.525 169.947 203.509C171.467 203.725 171.888 203.017 171.888 201.601C171.818 195.923 171.888 190.173 171.818 184.495C171.818 182.719 171.818 180.942 171.818 178.746C164.628 182.923 157.847 186.908 150.797 191.025ZM150.177 189.597C157.087 185.552 163.926 181.507 171.058 177.317C163.868 173.056 157.087 169.011 150.305 165.038C146.167 170.931 146.026 182.719 150.177 189.597ZM218.76 149.349C226.091 145.028 233.211 140.838 240.612 136.577C239.15 134.801 237.911 133.312 236.8 131.824C235.561 130.191 234.181 129.831 232.17 130.323C227.4 131.392 222.49 132.316 217.649 133.24C215.369 133.66 213.09 134.164 210.529 134.729C213.3 139.698 215.919 144.38 218.76 149.349ZM195.049 165.11C188.408 169.011 181.838 172.852 175.267 176.681C175.957 178.386 189.379 186.836 195.178 189.321C199.399 184.279 199.469 171.075 195.049 165.11ZM104.685 218.142C106.333 220.194 107.654 222.043 109.315 223.603C110.004 224.239 111.314 224.671 112.214 224.527C115.675 224.023 119.124 223.243 122.585 222.607C126.525 221.827 130.395 221.046 134.615 220.194C131.786 215.153 129.155 210.399 126.384 205.502C119.124 209.619 112.074 213.736 104.685 218.142ZM151.206 163.621C157.917 167.594 164.628 171.568 171.678 175.685C171.678 167.306 171.678 159.288 171.678 151.342C165.177 150.273 154.047 156.875 151.206 163.621ZM104.264 137.778C103.504 139.842 102.884 141.691 102.194 143.455C101.435 145.376 101.844 146.792 103.223 148.365C107.725 153.466 112.004 158.652 116.365 163.909C116.704 164.329 116.914 164.894 117.335 165.746C120.375 160.284 123.076 155.531 125.835 150.633C118.645 146.228 111.595 142.111 104.264 137.778ZM218.83 205.43C216.059 210.327 213.44 215.009 210.88 219.702C211.219 219.978 211.359 220.122 211.57 220.194C219.111 221.683 226.64 223.243 234.181 224.671C234.661 224.744 235.35 224.527 235.701 224.167C237.361 222.391 238.951 220.482 240.81 218.346C233.281 213.952 226.231 209.763 218.83 205.43ZM173.338 96.8934C173.338 105.056 173.338 113.014 173.338 120.961C173.338 122.377 174.308 122.305 175.267 122.305C179.488 122.305 183.708 122.305 187.917 122.305C188.408 122.305 188.958 122.089 189.578 121.957C189.449 121.309 189.309 120.816 189.168 120.324C187.228 114.503 184.878 108.825 183.428 102.859C182.317 98.4538 179.698 97.1814 175.898 96.9654C175.197 97.0374 174.507 96.9654 173.338 96.8934ZM173.338 258.318C175.618 257.885 177.547 257.537 179.488 257.249C181.078 256.961 181.978 256.109 182.528 254.404C183.568 250.935 184.807 247.526 185.918 244.117C187.157 240.42 188.408 236.735 189.718 232.834C188.748 232.762 188.058 232.69 187.368 232.69C183.498 232.69 179.628 232.762 175.758 232.618C173.958 232.546 173.268 233.11 173.338 235.031C173.478 241.212 173.408 247.31 173.408 253.492C173.338 254.981 173.338 256.469 173.338 258.318ZM171.818 96.6773C169.468 97.1814 167.457 97.6016 165.388 97.9617C163.798 98.2498 163.038 99.162 162.547 100.735C161.448 104.276 160.197 107.829 159.027 111.382C157.847 114.923 156.677 118.404 155.426 122.161C156.327 122.233 156.946 122.305 157.566 122.305C161.576 122.305 165.586 122.233 169.597 122.377C171.327 122.449 171.947 121.885 171.888 120.036C171.818 113.434 171.818 106.904 171.818 100.302C171.818 99.2341 171.818 98.1777 171.818 96.6773ZM227.821 189.465C224.98 194.422 222.349 199.188 219.66 204.013C226.991 208.347 234.041 212.524 241.442 216.857C242.202 214.588 242.821 212.74 243.441 210.963C244.061 209.259 243.722 207.987 242.471 206.642C240.74 204.866 239.22 202.801 237.63 200.964C234.38 197.195 231.2 193.51 227.821 189.465ZM126.595 149.145C129.366 144.247 131.985 139.554 134.615 134.801C134.136 134.585 133.855 134.441 133.645 134.381C126.384 132.952 119.124 131.464 111.875 130.119C111.454 130.047 110.764 130.047 110.484 130.263C108.625 132.172 106.894 134.164 104.884 136.289C112.425 140.766 119.405 144.812 126.595 149.145ZM155.777 232.618C155.847 233.254 155.777 233.614 155.906 233.89C158.267 240.996 160.688 248.09 163.108 255.257C163.236 255.689 163.587 256.253 163.926 256.469C166.417 257.537 168.907 258.173 171.818 257.885C171.818 249.867 171.818 241.993 171.748 234.034C171.748 233.542 170.848 232.69 170.357 232.69C165.657 232.618 160.886 232.618 155.777 232.618ZM241.442 137.922C233.901 142.327 226.851 146.516 219.59 150.777C222.349 155.675 224.91 160.284 227.751 165.182C233.141 158.796 238.262 152.686 243.301 146.588C243.651 146.156 243.792 145.304 243.651 144.812C242.962 142.615 242.202 140.478 241.442 137.922ZM117.475 189.525C112.214 195.779 107.163 201.745 102.194 207.698C101.844 208.059 101.633 208.839 101.774 209.259C102.393 211.672 103.083 214.024 103.855 216.713C111.103 212.464 117.885 208.479 124.596 204.433C124.865 204.229 125.075 203.233 124.865 202.873C122.585 198.54 120.164 194.29 117.475 189.525ZM232.661 226.232C232.591 226.16 232.591 226.088 232.521 226.088C225.261 224.671 218.07 223.171 210.81 221.755C210.389 221.683 209.699 221.827 209.559 222.115C208.46 223.891 207.419 225.728 206.379 227.576C213.92 232.474 227.19 231.694 232.661 226.232ZM138.906 227.648C138.076 226.088 137.106 224.744 136.486 223.243C135.866 221.827 134.966 221.611 133.575 221.971C129.436 222.823 125.285 223.675 121.205 224.455C118.434 225.02 115.605 225.596 112.635 226.16C118.785 231.766 132.195 232.474 138.906 227.648ZM231.96 172.492C239.361 169.011 245.721 156.095 243.651 148.569C239.782 153.118 236.04 157.583 232.24 162.061C228.09 166.886 228.09 166.886 231.621 172.216C231.761 172.348 231.831 172.348 231.96 172.492ZM183.779 255.329C191.799 252.208 199.399 240 198.019 232.618C196.218 232.618 194.289 232.546 192.419 232.69C191.928 232.762 191.168 233.398 191.039 233.962C188.619 240.996 186.269 248.018 183.779 255.329ZM183.779 99.4501C185.918 105.836 187.917 111.73 189.928 117.696C191.589 122.593 191.589 122.521 196.71 122.377C198.159 122.305 198.498 121.885 198.3 120.396C197.738 115.139 195.669 110.529 192.489 106.412C190.279 103.495 187.508 101.155 183.779 99.4501ZM206.449 127.346C207.279 128.907 208.109 130.323 208.869 131.752C209.43 132.808 210.05 133.168 211.219 132.88C213.99 132.244 216.749 131.824 219.52 131.248C223.811 130.395 228.09 129.543 232.661 128.631C226.091 123.085 213.44 122.521 206.449 127.346ZM101.563 148.785C100.254 157.379 106.135 169.083 113.465 172.564C114.284 171.148 114.985 169.659 115.885 168.303C116.645 167.174 116.505 166.322 115.605 165.326C111.454 160.5 107.374 155.675 103.293 150.777C102.814 150.129 102.265 149.565 101.563 148.785ZM160.746 255.125C160.886 254.981 161.097 254.909 161.237 254.764C158.887 247.742 156.537 240.708 154.117 233.686C153.977 233.254 153.217 232.69 152.726 232.69C146.365 232.762 146.576 231.405 147.897 238.296C147.897 238.368 147.897 238.44 147.955 238.512C149.966 245.966 154.257 251.427 160.746 255.125ZM112.904 128.631C120.235 130.047 127.285 131.464 134.335 132.808C134.896 132.88 135.796 132.604 136.065 132.172C137.106 130.611 137.936 128.979 138.836 127.418C132.546 122.593 119.334 123.157 112.904 128.631ZM231.901 182.215C231.001 183.715 230.241 185.204 229.411 186.548C228.78 187.544 228.78 188.253 229.61 189.177C234.111 194.362 238.46 199.608 242.962 204.794C243.231 205.142 243.651 205.358 244.061 205.718C244.891 196.907 239.501 186.404 231.901 182.215ZM93.6128 147.08C89.5324 139.842 85.8729 133.384 82.003 126.494C82.003 134.585 82.003 142.183 82.003 150.417C85.9431 149.277 89.5324 148.221 93.6128 147.08ZM93.6128 207.914C90.0936 206.99 87.1123 206.066 84.0724 205.358C82.4824 204.938 81.8627 205.646 81.8627 207.422C81.9329 213.52 81.8627 219.702 81.9329 225.8C81.9329 226.508 82.003 227.288 82.0732 228.645C85.9431 221.611 89.5324 215.081 93.6128 207.914ZM161.167 100.158C154.117 103.711 149.546 109.317 147.897 116.987C146.365 123.733 146.786 122.029 152.036 122.305C153.357 122.377 153.907 121.813 154.316 120.6C154.947 118.476 155.707 116.339 156.467 114.215C157.987 109.533 159.577 104.84 161.167 100.158ZM101.493 205.994C106.474 200.172 111.174 194.639 115.815 189.033C116.154 188.613 116.295 187.688 116.014 187.184C115.254 185.552 114.354 184.063 113.465 182.503C106.403 185.624 100.534 196.907 101.493 205.994ZM175.407 71.4098C175.337 71.4818 175.197 71.6258 175.127 71.6978C178.798 78.1558 182.387 84.6137 186.129 91.2877C189.648 89.091 192.278 86.3902 194.488 82.7651C187.988 78.864 181.697 75.1069 175.407 71.4098ZM186.398 263.215C182.387 270.309 178.798 276.839 175.127 283.297C175.197 283.369 175.337 283.513 175.407 283.585C181.697 279.828 188.058 276.059 194.909 271.942C191.928 268.893 189.379 266.192 186.398 263.215ZM263.013 228.141C263.141 228.141 263.212 228.081 263.352 228.081C263.352 226.16 263.352 224.167 263.352 222.259C263.352 217.217 263.422 212.104 263.282 207.062C263.282 206.426 262.592 205.214 262.253 205.286C258.652 205.502 255.261 206.57 251.941 208.479C255.752 215.153 259.342 221.683 263.013 228.141ZM150.937 82.6331C153.147 86.2462 155.707 88.947 159.156 91.1436C162.897 84.5417 166.417 78.2278 170.018 71.8419C169.877 71.6978 169.737 71.6258 169.597 71.4818C163.447 75.1789 157.367 78.792 150.937 82.6331ZM251.742 146.864C255.133 147.861 258.032 148.785 261.002 149.565C262.662 149.997 263.422 149.349 263.422 147.44C263.352 142.183 263.422 136.925 263.422 131.608C263.422 129.975 263.422 128.415 263.422 126.146C259.412 133.24 255.752 139.77 251.742 146.864ZM158.957 263.359C156.046 266.336 153.427 269.037 150.516 272.086C157.297 276.131 163.517 279.756 169.667 283.441C169.807 283.297 169.877 283.153 170.018 283.021C166.417 276.623 162.827 270.309 158.957 263.359ZM107.093 232.834C99.2131 232.834 92.0929 232.834 85.0428 232.834C85.0428 232.978 84.9727 233.038 84.9727 233.182C91.064 236.807 97.2138 240.42 103.913 244.405C104.954 240.36 105.994 236.807 107.093 232.834ZM106.403 122.161C106.544 118.548 105.445 115.283 103.983 112.234C103.785 111.802 102.393 111.514 101.914 111.802C96.2434 115.067 90.6431 118.404 85.0428 121.741C84.9727 121.813 84.9727 122.029 84.9727 122.089C92.163 122.161 99.2131 122.161 106.403 122.161ZM260.031 122.161C260.102 122.029 260.102 121.885 260.172 121.741C254.162 118.116 248.071 114.575 241.512 110.661C240.471 114.647 239.501 118.26 238.39 122.161C246.072 122.161 253.051 122.161 260.031 122.161ZM241.57 244.261C248.211 240.288 254.232 236.735 260.242 233.182C260.172 233.038 260.102 232.978 260.031 232.834C253.051 232.834 246.072 232.834 238.46 232.834C239.571 236.735 240.541 240.288 241.57 244.261ZM219.169 200.892C219.309 200.892 219.38 200.964 219.52 200.964C221.73 197.051 223.939 193.078 226.091 189.177C226.301 188.745 226.43 187.893 226.231 187.616C224.08 184.916 221.8 182.359 219.169 179.31C219.169 186.98 219.169 193.93 219.169 200.892ZM126.116 179.382C123.555 182.431 121.275 185.06 119.124 187.76C118.925 188.037 118.925 188.745 119.065 189.105C121.275 193.15 123.555 197.195 126.116 201.745C126.116 194.002 126.116 186.98 126.116 179.382ZM125.975 175.193C125.975 167.738 125.975 160.848 125.975 153.394C123.695 157.511 121.614 161.137 119.615 164.762C119.475 165.038 119.264 165.254 119.194 165.542C119.124 166.106 118.995 166.886 119.264 167.246C121.415 169.791 123.555 172.348 125.975 175.193ZM176.167 230.421C176.238 230.625 176.308 230.769 176.378 230.985C178.938 230.985 181.557 230.985 184.118 230.985C190.408 230.985 190.408 230.985 192.419 224.948C192.898 223.459 193.389 221.971 194.009 219.846C187.649 223.603 181.908 227.012 176.167 230.421ZM169.047 230.913C169.117 230.769 169.117 230.625 169.187 230.493C163.307 227.012 157.496 223.531 151.136 219.774C152.387 223.531 153.427 226.724 154.596 229.845C154.807 230.349 155.637 230.841 156.186 230.913C160.477 230.985 164.756 230.913 169.047 230.913ZM84.9727 229.641C85.0428 229.713 85.0428 229.773 85.113 229.917C91.5434 228.645 97.9738 227.432 104.334 226.088C104.884 225.944 105.784 224.948 105.643 224.527C105.164 222.607 104.334 220.758 103.574 218.706C97.1437 222.463 91.064 226.088 84.9727 229.641ZM129.436 206.774C129.366 206.918 129.296 206.99 129.155 207.134C131.295 210.963 133.376 214.805 135.586 218.49C135.866 218.994 136.825 219.558 137.386 219.414C140.566 218.922 143.676 218.214 147.406 217.493C141.116 213.808 135.305 210.327 129.436 206.774ZM215.72 147.861C215.79 147.789 215.919 147.717 215.989 147.645C213.779 143.743 211.64 139.914 209.43 136.013C209.22 135.581 208.53 135.089 208.179 135.161C204.859 135.725 201.608 136.433 197.738 137.213C204.029 140.91 209.839 144.38 215.72 147.861ZM129.436 147.368C129.565 147.512 129.635 147.572 129.775 147.717C135.516 144.308 141.256 140.91 146.997 137.501C143.676 136.361 140.356 135.725 137.106 135.161C136.825 135.089 136.276 135.437 136.065 135.725C133.785 139.554 131.646 143.455 129.436 147.368ZM197.879 217.493C200.439 217.997 202.368 218.418 204.309 218.778C209.009 219.702 209.009 219.702 211.429 215.441C212.949 212.812 214.399 210.111 215.86 207.494C215.72 207.35 215.58 207.206 215.44 207.062C209.769 210.471 204.099 213.808 197.879 217.493ZM151.346 134.309C151.486 134.441 151.627 134.585 151.697 134.657C157.437 131.248 163.166 127.851 168.837 124.442C164.417 123.937 160.197 123.937 155.976 124.009C155.426 124.009 154.526 124.718 154.316 125.294C153.287 128.271 152.316 131.32 151.346 134.309ZM241.711 135.941C247.931 132.244 253.811 128.835 259.762 125.366C253.402 126.206 247.171 127.346 241.021 128.691C240.471 128.835 239.641 129.903 239.781 130.323C240.191 132.1 240.951 133.876 241.711 135.941ZM219.169 175.265C221.659 172.348 223.811 169.791 225.95 167.174C226.231 166.886 226.36 166.178 226.161 165.818C224.009 161.845 221.73 157.872 219.52 153.898C219.38 153.97 219.239 154.042 219.111 154.042C219.169 160.92 219.169 167.811 219.169 175.265ZM173.537 95.3329C175.828 94.9128 177.968 94.5527 180.318 94.1926C178.038 87.4585 175.898 81.0606 173.747 74.7467C173.677 74.7467 173.607 74.8188 173.478 74.8188C173.537 81.4928 173.537 88.2388 173.537 95.3329ZM176.717 124.009C176.658 124.153 176.658 124.37 176.588 124.514C182.259 127.851 187.859 131.248 193.518 134.585C192.828 131.116 191.729 127.911 190.618 124.79C190.478 124.442 189.928 124.009 189.508 124.009C185.228 124.009 180.938 124.009 176.717 124.009ZM173.478 280.176C173.537 280.176 173.677 280.248 173.747 280.248C175.898 273.862 178.038 267.536 180.248 260.802C177.828 260.37 175.758 260.022 173.478 259.662C173.478 266.696 173.478 273.43 173.478 280.176ZM103.153 137.141C97.0735 133.6 91.4031 130.191 85.7327 126.854C85.6625 126.998 85.5222 127.13 85.4637 127.202C89.813 132.316 94.1039 137.429 98.6636 142.819C100.183 140.838 101.563 139.134 103.153 137.141ZM171.678 95.3329C171.678 88.1668 171.678 81.3487 171.678 74.5307C169.468 80.4244 167.387 86.3902 165.516 92.356C165.388 92.9202 165.797 94.1325 166.218 94.2646C167.936 94.7687 169.737 94.9848 171.678 95.3329ZM171.748 259.734C170.567 259.878 169.667 260.022 168.767 260.094C164.967 260.586 164.967 260.586 166.148 264.211C167.936 269.529 169.737 274.786 171.537 280.104C171.608 280.104 171.678 280.032 171.818 280.032C171.748 273.43 171.748 266.756 171.748 259.734ZM103.855 135.653C104.474 133.876 105.024 132.46 105.573 131.044C106.205 129.411 105.714 128.691 104.053 128.415C100.043 127.707 96.033 126.926 92.0227 126.146C90.2339 125.786 88.5036 125.426 86.7031 125.078C86.7031 125.222 86.6329 125.366 86.6329 125.426C92.2332 128.835 97.9036 132.172 103.855 135.653ZM242.471 217.565C248.492 221.118 254.092 224.383 259.622 227.72C259.692 227.576 259.762 227.504 259.903 227.36C255.612 222.331 251.391 217.361 246.902 212.032C245.382 213.952 244.061 215.585 242.471 217.565ZM258.862 229.497C258.862 229.353 258.932 229.209 258.932 229.065C253.262 225.728 247.662 222.463 241.711 218.922C240.951 220.974 240.261 222.607 239.781 224.311C239.641 224.744 240.331 225.8 240.81 225.872C246.832 227.156 252.841 228.285 258.862 229.497ZM86.2237 226.436C86.3523 226.58 86.4225 226.724 86.5628 226.868C91.8824 223.747 97.2138 220.626 102.814 217.289C101.224 215.369 99.9029 213.808 98.4531 211.96C94.2442 217.001 90.2339 221.755 86.2237 226.436ZM242.471 137.285C243.932 139.134 245.241 140.766 246.691 142.615C250.982 137.501 255.062 132.748 259.073 127.983C259.003 127.911 258.932 127.779 258.792 127.707C253.472 130.827 248.141 133.948 242.471 137.285ZM140.695 172.636C144.015 170.439 146.786 167.738 148.715 164.041C146.576 162.769 144.705 161.629 142.566 160.356C141.595 163.261 140.765 165.962 139.806 168.519C139.175 170.079 139.315 171.364 140.695 172.636ZM143.115 195.563C145.477 198.408 147.616 200.964 149.826 203.437C150.726 204.505 152.387 204.085 152.387 202.945C152.387 199.044 151.276 195.419 149.277 191.938C147.196 193.15 145.337 194.218 143.115 195.563ZM173.408 142.111C173.408 144.38 173.338 146.372 173.478 148.293C173.478 148.713 174.098 149.421 174.437 149.349C178.038 149.145 181.499 148.365 184.948 146.156C184.048 145.304 183.498 144.247 182.738 144.031C179.839 143.323 176.857 142.819 173.408 142.111ZM141.595 196.415C137.386 198.9 133.505 201.168 129.565 203.437C129.635 203.509 129.705 203.653 129.775 203.725C134.405 203.725 139.105 203.725 144.086 203.725C143.255 201.24 142.495 198.972 141.595 196.415ZM201.129 203.797C206.18 203.797 210.88 203.797 216.129 203.797C211.71 201.168 207.77 198.9 203.619 196.415C202.719 199.044 201.959 201.313 201.129 203.797ZM149.546 162.697C151.276 158.868 152.527 155.243 152.316 150.849C151.206 151.126 150.107 151.054 149.616 151.63C147.476 153.898 145.535 156.311 143.326 159.012C145.477 160.284 147.406 161.425 149.546 162.697ZM160.126 146.012C163.798 148.221 167.177 149.145 170.707 149.349C171.058 149.349 171.818 148.713 171.818 148.293C171.947 146.372 171.888 144.452 171.888 142.183C168.767 142.819 165.937 143.251 163.166 143.959C162.208 144.247 161.377 145.16 160.126 146.012ZM202.099 159.144C199.82 156.455 197.809 154.042 195.669 151.69C195.248 151.27 194.418 151.198 193.798 151.198C193.518 151.198 193.038 151.906 193.038 152.194C193.179 155.879 194.079 159.36 195.938 162.769C198.019 161.497 199.89 160.428 202.099 159.144ZM196.008 191.878C194.289 195.851 192.828 199.536 193.179 203.725C195.108 203.941 199.328 199.752 201.819 195.347C199.948 194.29 198.089 193.15 196.008 191.878ZM204.788 173.2C205.35 171.64 205.969 170.643 205.759 169.935C204.859 166.814 203.76 163.837 202.649 160.572C200.509 161.845 198.639 162.913 196.218 164.402C199.188 167.45 201.749 170.079 204.788 173.2ZM184.878 208.623C181.078 206.642 177.547 205.43 173.537 205.79C173.537 207.987 173.537 210.111 173.537 212.464C176.787 211.816 179.839 211.251 182.808 210.543C183.498 210.399 184.048 209.403 184.878 208.623ZM148.587 190.521C146.365 187.04 143.817 184.351 140.496 182.287C139.105 184.279 140.426 190.305 142.846 193.858C144.647 192.79 146.436 191.734 148.587 190.521ZM201.199 151.126C202.029 153.682 202.789 155.879 203.619 158.292C207.7 155.879 211.499 153.682 215.79 151.126C210.599 151.126 206.11 151.126 201.199 151.126ZM180.528 215.861C178.248 215.369 176.378 214.937 174.437 214.588C174.098 214.516 173.408 215.153 173.408 215.513C173.338 219.558 173.338 223.675 173.338 227.72C173.478 227.792 173.607 227.792 173.817 227.864C175.957 224.023 178.178 220.122 180.528 215.861ZM205.548 182.575C205.139 182.431 204.718 182.287 204.379 182.143C201.819 184.844 199.258 187.472 196.429 190.377C198.849 191.806 200.72 192.862 202.719 194.002C203.76 190.953 204.718 188.325 205.548 185.696C205.829 184.7 205.548 183.643 205.548 182.575ZM180.598 138.846C178.178 134.585 175.957 130.683 173.537 126.278C173.537 131.248 173.537 135.509 173.537 140.19C175.898 139.77 178.038 139.35 180.598 138.846ZM160.816 208.479C161.576 210.543 168.077 212.524 171.818 211.888C171.818 210.255 171.888 208.479 171.748 206.846C171.678 206.426 170.848 205.79 170.357 205.79C166.978 205.718 163.798 206.846 160.816 208.479ZM197.119 215.585C197.259 215.729 197.329 215.789 197.469 215.933C202.719 212.812 207.969 209.691 213.23 206.642C208.939 207.134 204.788 207.914 200.708 208.839C200.088 208.983 199.328 209.547 199.06 210.183C198.3 211.888 197.738 213.736 197.119 215.585ZM164.698 215.861C167.048 219.978 169.187 223.891 171.608 228.213C171.608 223.315 171.608 218.994 171.608 214.444C169.258 214.937 167.177 215.369 164.698 215.861ZM193.459 218.346C191.308 217.925 189.718 217.709 188.268 217.289C186.748 216.857 185.638 217.217 184.609 218.562C182.598 221.118 180.388 223.603 178.248 226.16C177.898 226.58 177.617 227.084 177.278 227.576C177.348 227.648 177.489 227.72 177.547 227.792C182.738 224.671 187.859 221.683 193.459 218.346ZM164.698 138.846C167.247 139.35 169.398 139.698 171.678 140.19C171.678 135.581 171.678 131.32 171.678 126.422C169.258 130.755 167.106 134.585 164.698 138.846ZM136.135 165.038C137.795 163.057 139.245 161.353 140.905 159.432C137.035 157.163 133.446 155.027 129.775 152.902C129.705 153.046 129.565 153.19 129.494 153.262C131.646 157.019 133.855 160.92 136.135 165.038ZM130.745 151.126C130.675 151.27 130.675 151.342 130.605 151.486C134.206 153.61 137.795 155.747 141.665 158.016C142.425 155.675 143.185 153.538 143.945 151.198C139.315 151.126 135.036 151.126 130.745 151.126ZM132.406 206.354C132.335 206.498 132.335 206.57 132.265 206.714C137.456 209.763 142.566 212.812 148.236 216.149C147.476 213.808 147.067 212.032 146.295 210.471C145.956 209.691 145.056 208.911 144.296 208.767C140.356 207.842 136.346 207.134 132.406 206.354ZM177.278 126.854C177.208 126.998 177.138 127.058 177.068 127.202C179.768 130.395 182.528 133.66 185.299 136.865C185.638 137.285 186.327 137.706 186.818 137.646C188.818 137.357 190.759 136.925 193.319 136.361C187.578 132.952 182.387 129.903 177.278 126.854ZM127.846 180.234C127.846 186.404 127.846 192.37 127.846 198.972C128.875 195.923 129.775 193.366 130.605 190.881C132.616 184.988 132.616 184.988 128.395 180.51C128.395 180.51 128.325 180.51 127.846 180.234ZM127.846 173.98C128.045 174.052 128.185 174.124 128.395 174.196C129.635 172.78 130.886 171.292 132.055 169.791C132.265 169.515 132.406 168.939 132.265 168.663C130.956 164.618 129.565 160.572 128.255 156.527C128.115 156.527 127.974 156.599 127.846 156.599C127.846 162.409 127.846 168.231 127.846 173.98ZM151.896 218.346C157.636 221.755 162.757 224.804 167.936 227.864C165.388 224.311 162.617 221.046 159.858 217.781C159.507 217.361 158.747 217.001 158.267 217.073C156.327 217.421 154.456 217.853 151.896 218.346ZM217.45 179.73C215.86 181.651 214.469 183.211 213.23 184.844C212.949 185.204 212.879 185.984 213.019 186.404C214.399 190.593 215.79 194.711 217.17 198.828C217.24 198.828 217.31 198.756 217.38 198.756C217.45 192.586 217.45 186.404 217.45 179.73ZM151.966 136.361C154.456 136.865 156.257 137.213 158.057 137.501C158.536 137.573 159.296 137.573 159.577 137.285C162.406 134.092 165.107 130.827 167.878 127.635C167.738 127.49 167.597 127.346 167.527 127.202C162.547 130.119 157.496 133.024 151.966 136.361ZM132.546 147.861C132.616 148.005 132.686 148.149 132.686 148.293C136.755 147.512 140.835 146.66 144.916 145.808C145.266 145.736 145.746 145.376 145.886 145.1C146.576 143.107 147.266 141.115 148.096 138.558C142.566 141.895 137.585 144.884 132.546 147.861ZM196.908 138.498C197.738 140.983 198.358 142.891 199.06 144.74C199.188 145.16 199.679 145.592 200.018 145.736C204.239 146.66 208.389 147.44 212.61 148.293C212.68 148.149 212.68 148.005 212.739 147.933C207.7 144.884 202.579 141.823 196.908 138.498ZM217.45 156.239C217.31 156.167 217.24 156.167 217.1 156.095C215.72 160.212 214.329 164.257 213.019 168.375C212.879 168.807 212.949 169.443 213.23 169.791C214.469 171.424 215.79 172.924 217.45 174.833C217.45 168.231 217.45 162.205 217.45 156.239ZM215.51 153.61C215.369 153.538 215.299 153.394 215.159 153.322C211.71 155.387 208.179 157.439 204.449 159.648C206.039 161.497 207.419 163.189 209.079 165.11C211.359 160.992 213.44 157.307 215.51 153.61ZM204.449 195.071C208.109 197.267 211.57 199.26 214.96 201.24C215.1 201.096 215.229 200.964 215.369 200.82C213.3 197.123 211.219 193.438 209.009 189.525C207.419 191.59 206.039 193.222 204.449 195.071ZM140.695 195.071C139.105 193.15 137.725 191.518 136.135 189.669C133.926 193.57 131.856 197.267 129.775 200.964C129.915 201.096 130.056 201.168 130.196 201.313C133.645 199.26 137.035 197.267 140.695 195.071ZM137.106 221.262C138.286 223.387 139.245 225.092 140.566 227.432C143.255 224.744 145.746 222.331 148.236 219.906C148.096 219.702 147.897 219.414 147.757 219.198C144.366 219.846 140.976 220.554 137.106 221.262ZM227.4 167.883C224.91 170.787 222.7 173.488 220.42 176.189C220.56 176.393 220.701 176.681 220.829 176.897C224.009 175.901 227.26 174.977 230.791 173.908C229.481 171.64 228.581 170.007 227.4 167.883ZM208.179 221.19C204.379 220.482 201.059 219.846 197.738 219.198C197.598 219.486 197.469 219.702 197.329 219.978C199.679 222.331 202.099 224.671 204.718 227.228C206.039 224.948 207.01 223.243 208.179 221.19ZM198.709 230.769C197.809 227.156 197.049 223.819 196.218 220.482C195.938 220.482 195.739 220.554 195.459 220.554C194.348 223.891 193.249 227.228 192.068 230.769C194.418 230.769 196.289 230.769 198.709 230.769ZM117.814 167.955C116.704 170.007 115.745 171.712 114.494 173.908C118.025 174.977 121.205 175.901 124.315 176.825C124.455 176.537 124.525 176.321 124.666 176.045C122.515 173.488 120.305 170.931 117.814 167.955ZM198.709 124.226C196.218 124.226 194.348 124.226 192.068 124.226C193.249 127.779 194.418 131.116 195.529 134.381C195.809 134.381 196.008 134.441 196.289 134.441C197.049 131.116 197.879 127.779 198.709 124.226ZM208.039 133.456C206.87 131.392 205.969 129.759 204.718 127.707C202.17 130.191 199.89 132.388 197.598 134.585C197.738 134.873 197.879 135.089 198.089 135.365C201.269 134.801 204.449 134.164 208.039 133.456ZM230.37 181.651C228.511 179.73 223.25 178.17 220.759 178.806C222.981 181.435 225.12 183.919 227.47 186.692C228.581 184.844 229.54 183.211 230.37 181.651ZM140.566 127.563C139.315 129.759 138.345 131.464 137.246 133.384C140.905 134.092 144.086 134.729 147.336 135.365C147.476 135.161 147.616 134.873 147.757 134.657C145.477 132.388 143.185 130.191 140.566 127.563ZM153.217 230.841C152.036 227.288 150.937 224.095 149.826 220.902C149.546 220.902 149.347 220.902 149.066 220.83C148.306 224.095 147.616 227.288 146.786 230.841C149.206 230.841 151.007 230.841 153.217 230.841ZM124.525 178.746C124.385 178.53 124.245 178.242 124.105 178.026C120.995 179.022 117.955 180.018 114.564 181.086C115.815 183.283 116.704 184.844 117.744 186.692C120.235 183.847 122.374 181.291 124.525 178.746ZM146.786 124.081C147.616 127.635 148.376 130.827 149.136 134.02C149.347 134.02 149.616 133.948 149.826 133.948C150.867 130.755 151.966 127.563 153.076 124.153C150.867 124.081 149.136 124.081 146.786 124.081ZM238.881 230.769C244.821 230.769 250.631 230.769 256.372 230.769C256.372 230.697 256.372 230.697 256.372 230.625C250.701 229.569 245.031 228.429 239.15 227.288C239.092 228.645 238.951 229.569 238.881 230.769ZM89.813 230.625C89.813 230.697 89.8832 230.769 89.8832 230.769C95.4133 230.769 100.943 230.769 106.824 230.769C106.205 229.425 107.374 227.228 104.813 227.648C99.8444 228.501 94.8638 229.569 89.813 230.625ZM258.032 132.46C257.892 132.316 257.752 132.244 257.611 132.1C254.431 135.869 251.251 139.698 247.872 143.599C248.901 144.308 249.731 144.884 250.631 145.52C253.192 141.043 255.612 136.721 258.032 132.46ZM181.768 261.438C179.967 266.696 178.307 271.654 176.658 276.695C176.787 276.767 176.857 276.767 176.997 276.839C179.558 272.23 182.118 267.68 184.807 262.855C183.638 262.363 182.808 261.931 181.768 261.438ZM184.807 92.1399C182.118 87.3145 179.558 82.6931 176.997 78.1558C176.857 78.2278 176.787 78.2278 176.658 78.2998C178.377 83.3413 180.037 88.3108 181.838 93.4843C182.808 93.0642 183.568 92.6321 184.807 92.1399ZM160.477 262.927C163.108 267.608 165.586 272.014 168.007 276.419C168.147 276.347 168.287 276.275 168.428 276.203C166.767 271.377 165.107 266.552 163.447 261.51C162.406 262.003 161.576 262.435 160.477 262.927ZM87.3227 131.824C87.2526 131.896 87.1123 132.028 87.0538 132.1C89.5324 136.577 92.0929 141.043 94.7235 145.736C95.6939 145.028 96.4539 144.38 97.3541 143.671C93.8934 139.626 90.6431 135.725 87.3227 131.824ZM239.092 127.346C244.411 126.278 249.392 125.294 254.302 124.37C254.302 124.298 254.302 124.226 254.232 124.226C249.111 124.226 244.061 124.226 238.741 124.226C238.881 125.294 239.022 126.146 239.092 127.346ZM227.4 230.913C230.58 230.913 233.491 230.913 236.461 230.841C236.87 230.841 237.63 230.349 237.7 230.061C237.841 229.137 237.981 227.576 237.502 227.228C236.73 226.652 235.28 226.508 234.38 226.868C232.03 228.008 229.89 229.425 227.4 230.913ZM168.428 78.6479C168.357 78.5759 168.217 78.5759 168.147 78.5159C165.657 82.9812 163.166 87.3865 160.547 92.0679C161.646 92.5601 162.476 92.9202 163.517 93.3403C165.177 88.2388 166.767 83.4133 168.428 78.6479ZM106.614 124.153C101.294 124.153 96.1733 124.153 91.1225 124.153C91.1225 124.226 91.1225 124.226 91.064 124.298C96.033 125.294 101.014 126.278 106.275 127.274C106.403 126.146 106.474 125.222 106.614 124.153ZM118.165 124.009C114.845 124.009 111.875 123.937 108.894 124.081C108.485 124.081 107.865 124.79 107.795 125.294C107.654 126.002 107.795 127.346 108.064 127.418C109.104 127.779 110.484 128.199 111.454 127.779C113.664 126.854 115.745 125.426 118.165 124.009ZM118.095 230.913C115.675 229.497 113.594 228.081 111.384 227.084C110.414 226.652 109.034 226.796 108.064 227.288C107.654 227.504 107.584 229.281 107.923 230.061C108.204 230.625 109.385 230.841 110.215 230.913C112.694 230.985 115.254 230.913 118.095 230.913ZM159.916 93.0642C158.267 95.9691 156.677 98.8139 155.087 101.647C156.946 100.867 158.396 99.6662 160.056 98.886C162.067 97.9617 162.617 96.4732 162.827 94.4086C161.857 94.0605 161.027 93.6284 159.916 93.0642ZM155.356 253.06C155.286 253.132 155.146 253.204 155.087 253.276C156.677 256.037 158.267 258.882 159.986 262.003C161.027 261.222 162.476 260.658 162.687 259.806C162.897 259.026 162.137 257.537 161.377 256.889C159.507 255.401 157.367 254.344 155.356 253.06ZM227.26 124.009C229.54 125.294 231.34 126.422 233.281 127.346C234.251 127.779 235.491 127.911 236.601 127.779C237.081 127.707 237.63 126.422 237.63 125.786C237.63 125.222 236.8 124.153 236.321 124.153C233.491 123.937 230.58 124.009 227.26 124.009ZM100.183 199.32C98.7337 201.949 97.0034 204.938 95.273 208.059C96.2434 208.767 97.0735 209.403 98.2544 210.327C98.9442 208.767 99.9029 207.626 100.043 206.354C100.394 203.941 100.183 201.457 100.183 199.32ZM94.6534 209.187C92.163 213.664 89.813 217.853 87.463 222.043C87.5332 222.115 87.6735 222.187 87.7436 222.259C90.8536 218.562 93.9636 214.877 97.1437 211.107C96.3136 210.327 95.6238 209.907 94.6534 209.187ZM185.509 93.3403C182.189 94.4806 181.499 95.8971 183.358 97.5295C185.228 99.162 187.578 100.23 189.788 101.575C189.858 101.515 189.928 101.371 189.999 101.299C188.479 98.6699 187.029 96.0411 185.509 93.3403ZM95.3432 146.936C96.9332 149.781 98.4531 152.482 99.9731 155.243C100.254 153.118 99.9029 151.126 100.113 149.277C100.324 147.224 99.4937 146.012 97.9738 144.956C97.1437 145.52 96.3136 146.156 95.3432 146.936ZM189.928 253.696C189.788 253.552 189.648 253.42 189.508 253.204C187.508 255.905 182.808 255.545 182.317 260.298C183.358 260.802 184.328 261.222 185.439 261.727C187.029 258.882 188.479 256.253 189.928 253.696ZM247.042 144.452C246.341 145.592 245.382 146.444 245.312 147.368C245.101 149.781 245.241 152.194 245.241 155.315C247.042 152.122 248.492 149.493 250.082 146.732C248.971 145.94 248.141 145.376 247.042 144.452ZM141.046 126.71C143.115 128.487 145.056 130.119 147.067 131.896C146.646 129.759 146.365 127.851 145.956 125.93C145.816 125.294 145.337 124.153 145.056 124.153C144.015 124.153 142.916 124.442 142.016 124.934C141.595 125.222 141.396 126.146 141.046 126.71ZM141.046 228.285C141.467 228.993 141.665 229.917 142.156 230.205C142.987 230.625 144.086 230.769 145.056 230.841C145.337 230.841 145.816 230.277 145.886 229.917C146.295 227.72 146.576 225.452 146.997 223.171C145.056 224.876 143.115 226.508 141.046 228.285ZM198.358 223.039C198.779 225.164 199.06 227.156 199.469 229.137C199.609 229.773 199.948 230.841 200.229 230.841C201.199 230.841 202.24 230.697 203.07 230.205C203.619 229.845 203.83 228.921 204.239 228.213C202.31 226.436 200.439 224.804 198.358 223.039ZM121.135 177.533C119.194 176.753 117.405 176.045 115.675 175.481C115.114 175.265 114.015 175.193 113.874 175.481C113.395 176.261 112.974 177.245 113.044 178.17C113.114 178.878 113.804 179.598 114.225 180.234C116.575 179.238 118.715 178.458 121.135 177.533ZM198.358 131.896C200.369 130.191 202.24 128.559 204.169 126.782C203.83 126.146 203.619 125.222 203.07 124.862C202.31 124.37 201.269 124.081 200.439 124.153C200.088 124.153 199.609 125.222 199.469 125.858C199.06 127.779 198.779 129.687 198.358 131.896ZM250.012 208.203C248.422 205.43 246.972 202.801 245.452 200.04C245.452 202.165 245.581 204.013 245.382 205.79C245.171 207.842 246.072 208.983 247.592 210.039C248.422 209.331 249.111 208.839 250.012 208.203ZM248.211 211.107C251.052 214.444 253.671 217.565 256.372 220.686C256.512 220.554 256.653 220.482 256.851 220.338C254.782 216.713 252.771 213.028 250.631 209.259C249.731 209.907 249.111 210.399 248.211 211.107ZM224.36 177.461C226.36 178.242 228.16 179.022 230.031 179.598C230.51 179.73 231.34 179.526 231.691 179.166C232.72 178.098 232.72 176.825 231.691 175.757C231.34 175.409 230.51 175.121 230.031 175.265C228.23 175.901 226.36 176.681 224.36 177.461ZM155.426 198.828C157.016 203.725 158.957 204.866 164.067 203.725C161.237 202.165 158.267 200.46 155.426 198.828ZM146.167 182.431C146.167 179.022 146.167 175.541 146.167 172.216C142.706 176.537 142.706 178.098 146.167 182.431ZM186.959 146.732C187.508 148.641 188.408 149.925 190.478 149.421C190.969 149.277 191.729 148.641 191.659 148.365C191.448 147.368 191.168 146.156 190.478 145.664C189.168 144.74 187.988 145.592 186.959 146.732ZM133.095 171.075C131.435 173.056 130.126 174.629 128.734 176.261C128.875 176.393 129.015 176.609 129.085 176.753C130.816 176.393 132.616 176.045 134.615 175.613C134.136 174.052 133.645 172.78 133.095 171.075ZM163.587 151.198C157.706 150.705 156.537 151.414 155.426 156.023C158.057 154.463 160.746 152.83 163.587 151.198ZM153.696 148.221C153.556 149.349 154.386 149.565 155.567 149.493C156.806 149.421 158.677 147.789 158.197 146.792C157.847 146.084 156.736 145.448 155.976 145.376C154.456 145.304 153.696 146.3 153.696 148.221ZM181.148 203.869C187.368 204.289 188.818 203.509 189.449 199.32C186.748 200.748 183.977 202.309 181.148 203.869ZM212.189 171.003C211.64 172.708 211.219 173.98 210.739 175.613C212.739 176.045 214.469 176.321 216.27 176.681C216.34 176.465 216.41 176.261 216.48 176.117C215.1 174.485 213.779 172.924 212.189 171.003ZM205.759 180.09C207.279 179.874 208.179 178.95 208.179 177.389C208.179 175.757 207.138 174.977 205.689 174.761C203.689 177.245 203.689 177.461 205.759 180.09ZM141.595 177.245C140.695 176.321 139.666 174.977 139.315 175.121C138.415 175.481 137.246 176.465 137.106 177.389C136.895 178.746 137.936 180.09 139.315 179.874C140.075 179.73 140.695 178.314 141.595 177.245ZM189.858 155.807C187.859 150.909 186.398 150.057 182.118 151.342C184.539 152.758 187.099 154.246 189.858 155.807ZM147.687 209.403C148.517 211.816 149.136 213.808 149.826 215.729C150.037 215.729 150.177 215.729 150.376 215.729C150.937 213.952 151.486 212.176 152.106 210.255C150.516 209.979 149.347 209.691 147.687 209.403ZM199.328 172.636C199.328 175.685 199.328 178.806 199.328 182.143C202.579 177.113 202.579 176.969 199.328 172.636ZM186.889 208.131C187.859 209.475 189.168 209.835 190.338 208.983C191.039 208.551 191.308 207.422 191.659 206.57C191.729 206.426 190.969 205.79 190.478 205.718C188.689 205.358 187.368 205.922 186.889 208.131ZM150.177 139.206C149.966 139.206 149.756 139.278 149.546 139.278C148.926 141.115 148.306 143.035 147.546 145.304C149.206 144.956 150.376 144.74 151.896 144.452C151.276 142.543 150.726 140.838 150.177 139.206ZM128.805 178.53C130.325 180.306 131.576 181.795 132.955 183.499C134.756 179.31 134.685 179.094 130.675 178.53C130.196 178.458 129.705 178.53 128.805 178.53ZM158.396 208.275C157.917 206.426 157.016 205.286 155.087 205.718C154.596 205.862 153.766 206.354 153.836 206.642C153.907 207.422 154.117 208.479 154.596 208.839C155.847 209.619 157.297 209.835 158.396 208.275ZM210.739 179.382C211.219 180.798 211.57 182.011 212.119 183.571C213.639 181.795 214.89 180.306 216.129 178.806C215.989 178.602 215.86 178.458 215.72 178.242C214.13 178.602 212.54 178.95 210.739 179.382ZM187.298 139.206C188.479 140.55 189.239 141.475 190.279 142.615C191.589 141.043 192.629 139.698 193.728 138.426C193.588 138.282 193.518 138.138 193.389 137.994C191.518 138.354 189.648 138.702 187.298 139.206ZM152.176 137.994C152.036 138.138 151.896 138.354 151.767 138.498C152.866 139.77 153.977 141.043 155.216 142.471C156.186 141.259 156.946 140.334 157.917 139.206C155.777 138.702 153.977 138.354 152.176 137.994ZM195.049 215.225C195.248 215.225 195.388 215.225 195.599 215.297C196.218 213.448 196.838 211.612 197.528 209.403C195.938 209.763 194.769 210.039 193.389 210.399C194.079 212.176 194.558 213.664 195.049 215.225ZM197.528 145.304C196.768 143.107 196.218 141.331 195.599 139.554C195.388 139.554 195.248 139.554 195.049 139.626C194.558 141.115 194.079 142.675 193.518 144.38C194.839 144.74 195.938 144.956 197.528 145.304ZM193.038 216.581C193.179 216.365 193.249 216.149 193.389 215.933C192.278 214.733 191.168 213.52 189.999 212.248C189.028 213.376 188.338 214.228 187.438 215.441C189.508 215.861 191.238 216.221 193.038 216.581ZM209.36 168.159C207.419 170.571 207.419 171.003 209.149 174.268C211.149 170.511 211.219 169.659 209.36 168.159ZM155.286 212.392C154.117 213.808 153.076 214.937 152.106 216.077C152.176 216.221 152.316 216.437 152.387 216.581C154.117 216.221 155.777 215.861 157.847 215.513C156.946 214.372 156.257 213.52 155.286 212.392ZM200.229 147.44C200.579 149.853 200.088 149.493 209.149 149.145C206.18 148.641 203.339 148.077 200.229 147.44ZM146.436 149.349C149.487 149.709 150.376 149.145 151.627 145.94C149.756 147.152 146.856 145.808 146.436 149.349ZM161.997 214.516C160.746 211.672 159.986 211.251 156.946 211.612C159.226 215.225 159.507 215.441 161.997 214.516ZM161.927 140.262C159.916 139.206 158.326 140.19 157.157 143.395C159.296 143.251 161.377 143.107 161.927 140.262ZM198.639 149.205C198.229 146.864 197.049 146.228 193.868 146.516C195.459 149.493 196.008 149.853 198.639 149.205ZM135.866 186.692C137.655 183.991 137.655 182.791 135.656 180.378C135.586 182.575 133.025 184.556 135.866 186.692ZM183.428 140.262C184.328 142.891 184.737 143.179 188.338 143.251C186.129 139.554 185.567 139.278 183.428 140.262ZM209.149 180.654C207.419 183.715 207.419 184.135 209.36 186.548C211.149 184.916 211.09 183.991 209.149 180.654ZM136.416 149.205C136.416 149.277 136.416 149.421 136.486 149.493C138.696 149.493 140.976 149.565 143.185 149.421C143.887 149.349 144.506 148.641 145.196 148.293C145.056 148.077 144.916 147.789 144.775 147.572C141.946 148.149 139.175 148.641 136.416 149.205ZM130.605 195.779C130.675 195.851 130.745 195.923 130.886 195.923C132.055 193.786 133.236 191.662 134.475 189.525C135.235 188.253 134.756 187.616 133.575 186.98C132.546 190.029 131.576 192.862 130.605 195.779ZM136.065 174.268C137.176 172 138.006 170.079 135.925 168.231C133.996 169.731 133.996 169.731 136.065 174.268ZM178.377 131.116C181.499 138.138 181.838 138.558 184.048 137.85C182.118 135.581 180.248 133.384 178.377 131.116ZM166.767 223.531C166.837 223.459 166.978 223.387 167.048 223.243C165.937 221.262 164.826 219.27 163.657 217.289C162.897 215.933 162.757 216.005 161.237 217.001C163.108 219.198 164.967 221.407 166.767 223.531ZM188.128 211.54C184.737 211.468 184.328 211.744 183.498 214.372C185.638 215.297 186.327 214.877 188.128 211.54ZM178.728 223.111C180.458 220.974 182.259 218.922 184.048 216.713C181.838 216.077 181.838 216.077 178.728 223.111ZM161.307 137.85C163.447 138.498 164.347 137.357 166.697 131.392C164.897 133.528 163.166 135.653 161.307 137.85ZM193.518 208.347C198.019 207.987 198.3 207.842 198.358 205.862C196.008 205.07 194.628 206.21 193.518 208.347ZM211.57 186.836C210.19 188.613 211.289 191.662 214.27 194.855C213.3 192.082 212.47 189.597 211.57 186.836ZM131.985 160.572C131.786 160.572 131.505 160.644 131.295 160.644C132.055 162.913 132.815 165.254 133.575 167.522C133.785 167.45 134.066 167.378 134.276 167.306C135.586 164.402 132.265 162.985 131.985 160.572ZM214.2 159.792C210.739 164.041 210.12 166.106 211.64 167.522C212.33 165.614 212.949 163.693 213.639 161.773C213.779 161.281 213.92 160.704 214.2 159.792ZM151.206 208.131C150.376 205.862 148.926 205.142 146.646 205.994C147.406 208.695 149.616 207.698 151.206 208.131ZM189.239 203.653C191.799 204.085 192.349 203.089 191.869 198.972C190.899 200.676 190.139 202.021 189.239 203.653ZM203 179.094C201.959 180.942 201.199 182.359 200.369 183.775C200.509 183.847 200.579 183.919 200.72 183.991C201.889 183.067 203 182.143 204.239 181.159C203.9 180.438 203.549 179.946 203 179.094ZM191.729 155.603C191.869 155.531 191.998 155.459 192.068 155.387C191.869 153.97 191.659 152.614 191.518 151.198C190.759 151.198 190.209 151.198 189.239 151.198C190.209 152.83 190.969 154.174 191.729 155.603ZM158.887 149.421C160.746 149.421 162.137 149.421 163.798 149.421C163.447 149.145 163.307 149.001 163.166 148.857C162.137 148.425 161.167 148.005 159.986 147.512C159.647 148.077 159.296 148.569 158.887 149.421ZM143.676 122.089C146.026 122.233 146.026 122.233 146.295 117.263C145.337 119.04 144.577 120.456 143.676 122.089ZM153.696 199.464C153.836 204.157 153.836 204.157 155.906 203.581C155.146 202.165 154.456 200.82 153.696 199.464ZM146.295 237.659C145.956 232.474 145.956 232.474 143.746 233.038C144.577 234.538 145.337 235.883 146.295 237.659ZM144.296 183.571C144.366 183.499 144.506 183.427 144.577 183.283C143.817 181.939 143.057 180.654 142.086 179.094C141.595 179.946 141.326 180.438 140.976 181.086C142.227 181.939 143.255 182.791 144.296 183.571ZM204.788 124.153C205.829 126.206 207.138 126.146 209.29 124.153C207.91 124.153 206.449 124.153 204.788 124.153ZM204.66 230.841C206.519 230.841 208.039 230.841 210.05 230.841C208.319 230.061 207.08 229.497 205.689 228.861C205.42 229.497 205.139 229.989 204.66 230.841ZM200.509 199.752C199.188 201.313 198.229 202.453 197.119 203.725C199.609 204.013 199.89 203.725 200.509 199.752ZM207.01 168.159C208.46 166.322 207.969 165.182 205.35 163.621C205.899 165.182 206.449 166.67 207.01 168.159ZM186.058 149.349C185.439 147.296 184.807 147.368 181.978 149.349C183.288 149.349 184.679 149.349 186.058 149.349ZM202.929 175.481C204.379 173.632 204.239 173.344 200.579 171.292C201.48 172.852 202.17 174.124 202.929 175.481ZM144.916 207.062C143.185 204.722 140.905 206.138 138.906 205.994C140.905 206.354 142.916 206.714 144.916 207.062ZM167.808 141.403C166.288 141.259 164.347 139.206 162.968 142.327C164.826 141.967 166.346 141.691 167.808 141.403ZM111.524 179.238C110.764 180.654 110.075 181.867 109.174 183.355C112.565 181.795 112.834 181.363 111.524 179.238ZM144.577 199.608C145.676 204.085 145.676 204.157 147.827 203.509C146.856 202.381 145.886 201.24 144.577 199.608ZM135.726 124.081C139.526 126.146 140.145 126.35 140.216 124.081C138.766 124.081 137.316 124.081 135.726 124.081ZM168.007 213.304C166.077 212.956 164.628 212.668 163.166 212.32C163.868 214.66 163.868 214.66 168.007 213.304ZM138.216 186.332C136.825 188.469 136.965 188.889 139.806 191.097C139.245 189.393 138.836 188.037 138.216 186.332ZM147.827 151.198C145.407 151.126 144.775 152.05 144.845 154.751C145.816 153.61 146.716 152.542 147.827 151.198ZM109.455 171.928C110.145 173.128 110.764 174.268 111.595 175.757C113.465 172.708 110.414 172.924 109.455 171.928ZM153.556 155.531C154.456 153.898 155.146 152.614 155.847 151.27C153.626 151.126 153.626 151.126 153.556 155.531ZM206.18 206.066C204.239 205.922 202.24 205.142 200.439 206.066C200.439 206.354 200.509 206.642 200.509 206.99C202.368 206.714 204.309 206.426 206.18 206.066ZM205.548 190.737C208.53 188.181 208.53 188.181 206.94 186.692C206.449 188.037 205.969 189.393 205.548 190.737ZM201.48 233.11C201.199 232.978 200.989 232.834 200.708 232.69C198.358 233.038 200.018 235.595 199.399 236.879C200.088 235.595 200.778 234.322 201.48 233.11ZM201.538 121.957C200.708 120.456 200.088 119.256 199.188 117.624C199.609 122.161 199.609 122.161 201.538 121.957ZM139.736 163.765C136.895 166.034 136.755 166.526 138.345 167.883C138.766 166.598 139.175 165.398 139.736 163.765ZM136.135 230.697C137.655 230.697 138.976 230.697 140.426 230.697C139.456 228.789 139.456 228.789 136.135 230.697ZM144.436 171.712C141.046 173.488 140.976 173.704 142.355 175.481C142.987 174.268 143.606 173.128 144.436 171.712ZM233.76 175.613C234.45 174.34 235.011 173.272 235.841 171.784C232.521 173.632 232.521 173.704 233.76 175.613ZM182.189 142.255C181.078 140.19 180.867 140.13 177.617 141.331C179.137 141.619 180.528 141.895 182.189 142.255ZM233.69 179.094C232.1 181.939 234.45 181.867 235.631 182.575C235.081 181.579 234.45 180.51 233.69 179.094ZM182.259 212.392C180.598 212.74 179.277 212.956 177.968 213.244C177.968 213.448 178.038 213.592 178.038 213.808C179.418 213.304 181.148 215.585 182.259 212.392ZM200.229 154.535C199.89 153.118 200.369 150.849 197.469 151.198C198.569 152.482 199.399 153.466 200.229 154.535Z" fill="#D7D4B5"/>
</svg>
