<svg xmlns="http://www.w3.org/2000/svg" width="201" height="209" fill="none"><g filter="url(#a)"><mask id="b" width="193" height="190" x="4" y="11" maskUnits="userSpaceOnUse" style="mask-type:luminance"><path fill="#fff" d="M4.666 11.854h191.682v188.614H4.666V11.854Z"/></mask><g mask="url(#b)"><path fill="#232323" d="M194.721 150.478c-.181.027-.375.047-.529.128-.443.23-.664.034-.865-.351-.69-1.31-1.4-2.6-2.11-3.897-.476-.885-1.086-1.669-1.997-2.114a19.38 19.38 0 0 0-2.278-.892c-.168-.054-.422.128-.63.23-.121.054-.228.216-.342.222-1.166.034-2.338.034-3.504.075-1.213.04-2.426.216-3.638.182a139.476 139.476 0 0 1-6.962-.385c-1.126-.094-2.231-.338-3.169-1.074a16.134 16.134 0 0 0-1.535-1.094c-1.876-1.162-3.778-2.27-5.628-3.465-6.365-4.114-12.409-8.68-18.211-13.577-1.695-1.425-2.513-3.222-2.674-5.397a1327.28 1327.28 0 0 0-1.098-13.05c-.181-1.972-.429-3.937-.637-5.903-.228-2.162-.442-4.31-.657-6.464-.12-1.202-.16-2.418-.341-3.607-.563-3.668-1.206-7.322-1.736-10.99-.321-2.249-1.326-4.16-2.861-5.694-2.017-2.013-4.442-3.505-7.069-4.633-.978-.426-1.969-.811-2.934-1.25-1.97-.898-3.907-1.871-5.897-2.722-2.304-.986-4.67-1.864-6.673-3.445-.389-.304-.818-.743-.925-1.196-.348-1.398-.261-2.83-.073-4.255.214-1.58.911-2.965 1.695-4.33.516-.911.998-1.857 1.393-2.823.329-.804.536-1.662.751-2.513.127-.493.315-.817.884-.83a.816.816 0 0 0 .57-.27c.489-.622 1.152-1.21 1.38-1.926.536-1.695.838-3.458 1.28-5.18.301-1.196-.134-2.196-.791-3.108-.281-.385-.348-.709-.248-1.148.114-.506.188-1.026.235-1.54.261-2.958.281-5.91-.456-8.814-.556-2.223-1.467-4.263-3.256-5.769a29.328 29.328 0 0 0-2.761-2.074c-1.869-1.209-3.692-2.607-5.956-2.884-1.742-.21-3.538-.338-5.26-.101-1.843.263-3.632.96-5.414 1.533-2.76.899-4.958 2.641-6.787 4.857a12.183 12.183 0 0 0-1.548 2.398c-.71 1.459-1.072 3.019-1.2 4.653-.214 2.689-.28 5.364.262 8.032.04.182-.014.425-.107.6-.242.474-.576.906-.784 1.392-.369.872-.623 1.77-.235 2.73.77 1.93 1.515 3.876 2.292 5.808.2.513.616.784 1.152.844.396.04.556.244.65.622.188.783.335 1.594.657 2.323.757 1.75 1.594 3.472 2.432 5.188.214.432.476.878.824 1.189.885.783 1.233 1.776 1.233 2.91 0 .737-.14 1.473-.14 2.21-.007.83-.363 1.459-.972 1.945a7.475 7.475 0 0 1-1.468.946 56.92 56.92 0 0 1-3.625 1.668c-1.688.689-3.417 1.276-5.119 1.966-3.41 1.377-6.633 3.174-9.869 4.923-2.084 1.122-3.156 3.162-4.402 5.04a.81.81 0 0 0-.114.33c-.677 3.155-1.367 6.302-2.003 9.457-.168.817-.128 1.675-.248 2.499-.128.878-.355 1.743-.503 2.62-.737 4.27-1.548 8.525-2.157 12.814-.556 3.891-.892 7.808-1.314 11.719-.234 2.121-.422 4.249-.676 6.363-.04.318-.248.669-.483.885-.663.628-1.394 1.175-2.09 1.77-4.73 4.046-9.689 7.781-14.821 11.266-3.25 2.195-6.66 4.134-9.917 6.316-1.52 1.02-3.182 1.337-4.891 1.499-1.95.183-3.926.216-5.883.196-1.755-.027-3.504-.216-5.26-.324-.462-.027-.938-.054-1.393.013-.295.041-.47.048-.67-.209-.108-.142-.422-.243-.59-.189-.744.25-1.487.5-2.184.858-.724.371-1.36.885-1.77 1.648-.69 1.283-1.42 2.546-2.11 3.83-.542.999-.529 1.006-1.621.803-.75-.128-1.213.237-1.253.96-.027.337-.007.682-.074 1.006-.221 1.067-.04 2.121.228 3.141.301 1.195.81 2.337 1.139 3.533.228.851.73 1.357 1.521 1.56 1.132.297 2.285.547 3.437.777.63.135 1.293.135 1.917.297a236.29 236.29 0 0 1 5.675 1.56c.536.149.958.007 1.387-.324.536-.419 1.092-.817 1.688-1.135.905-.479 1.856-.891 2.787-1.33.121-.055.242-.088.463-.163-.06.656-.128 1.209-.161 1.777-.08 1.29-.054 2.594-.248 3.87-.301 2.02-.087 3.898.663 5.809 1.113 2.824 2.727 5.188 5.093 7.086 4.24 3.404 8.837 6.221 13.675 8.645 3.109 1.554 6.204 3.162 9.528 4.222.67.216 1.072.628 1.434 1.216 1.152 1.864 2.331 3.715 3.591 5.505.462.662 1.266.966 2.11.932.892-.027 1.79-.101 2.694-.135a.689.689 0 0 1 .47.189c.482.493 1.091.703 1.741.797 1.347.203 2.667.122 3.987-.324 2.827-.966 5.715-1.756 8.697-2.114.596-.075 1.206-.095 1.775-.25a51.579 51.579 0 0 0 3.317-1.081c1.762-.628 3.565-1.141 5.427-1.223 3.19-.141 6.386-.101 9.575-.236 3.076-.128 6.144-.378 9.213-.574.777-.054 1.541-.041 2.305.223.61.202 1.266.284 1.909.324 1.87.122 3.699.426 5.481 1.02 1.005.331 2.01.682 3.042.946.55.148 1.153.074 1.716.195.703.136 1.373.386 2.07.548 2.506.581 5.005 1.236 7.538 1.668 2.157.371 4.368.426 6.539.729 1.354.183 2.466-.371 3.538-.965.918-.5 1.742-1.237 2.519-1.966.751-.702 1.488-1.466 2.077-2.317.65-.939 1.153-1.992 1.682-3.019.396-.777.905-1.317 1.816-1.479 1.173-.203 2.359-.426 3.491-.784 2.553-.79 4.831-2.155 7.062-3.593 1.427-.919 2.781-1.959 4.161-2.959 1.983-1.432 3.993-2.843 5.943-4.323 2.178-1.655 3.792-3.782 4.704-6.376.415-1.175.643-2.432.864-3.668.127-.702.107-1.438.067-2.148-.06-1.107-.208-2.202-.295-3.309-.067-.831-.107-1.669-.154-2.506 0-.061.034-.122.067-.203.094.027.174.041.248.068.851.391 1.722.743 2.539 1.182.677.364 1.32.81 1.95 1.269.422.311.838.426 1.354.277a99.825 99.825 0 0 1 3.296-.966 39.626 39.626 0 0 1 2.767-.668c1.495-.297 3.009-.52 4.503-.824 1.106-.23 1.89-.851 2.077-2.074.054-.344.168-.696.315-1.013.891-2.033 1.206-4.134.878-6.343-.107-.682-.509-1.06-1.186-.952Zm-174.309-.162a227.555 227.555 0 0 1-3.725 2.925c-.127.101-.409.135-.536.06-.77-.432-1.541-.864-2.251-1.384-.242-.183-.342-.615-.43-.953-.08-.304-.053-.635-.08-1.067.04-.385.088-.864.537-1.222.529-.426.998-.933 1.52-1.372.121-.101.362-.162.503-.108 1.079.426 2.117.966 3.223 1.311.77.243 1.085.803 1.407 1.411.04.081-.067.318-.168.399Zm56.852-8.227c-.897 2.918-1.695 5.876-2.753 8.733-.576 1.568-1.575 2.986-2.412 4.445-.074.135-.416.189-.617.162-1.715-.284-3.424-.621-5.152-.885-1.26-.196-2.54-.29-3.8-.452-1.038-.142-2.07-.311-3.102-.473-1.507-.237-3.015-.527-4.53-.696-4.106-.459-8.234-.189-12.361-.135-1.588.027-3.176.263-4.764.399-.1.013-.194 0-.429 0 .235-.169.349-.291.49-.345 4.133-1.756 8.254-3.56 12.422-5.235 3.35-1.344 6.774-2.485 10.13-3.809a56.45 56.45 0 0 0 5.4-2.459c2.735-1.425 4.892-3.479 6.507-6.16 1.105-1.817 2.057-3.675 2.687-5.714.248-.791.676-1.513 1.045-2.331.067.129.134.216.154.311.556 3.566 1.119 7.133 1.668 10.699.215 1.371-.18 2.661-.582 3.945Zm84.264 10.929c-1.622-.088-3.25-.257-4.872-.284a199.383 199.383 0 0 0-8.542.007c-1.267.027-2.533.297-3.8.452-.408.048-.83.102-1.232.075-3.203-.23-6.399-.527-9.609-.703-1.842-.108-3.685-.04-5.541-.027-.402 0-.67-.121-.804-.506-.435-1.25-.891-2.493-1.293-3.749a281.441 281.441 0 0 1-1.889-6.052c-.121-.399-.215-.824-.215-1.236.034-3.506.107-6.998.121-10.497.006-1.729.261-3.411.73-5.066.027-.108.074-.209.141-.385.087.162.147.25.187.345a91.207 91.207 0 0 0 4.979 10.152 9.566 9.566 0 0 0 2.921 3.195c1.568 1.08 3.082 2.242 4.61 3.37 1.682 1.236 3.652 1.824 5.574 2.526 1.153.419 2.279.919 3.424 1.358 3.692 1.432 7.391 2.83 11.076 4.282 1.333.52 2.633 1.142 3.926 1.743.623.284 1.22.635 1.93 1.006-.683 0-1.253.027-1.822-.006Zm24.871-.561c-.482.291-.985.561-1.481.831-.261.142-.469.088-.717-.108a137.15 137.15 0 0 0-3.524-2.776c-.302-.23-.281-.352-.154-.716.335-.973 1.172-1.074 1.923-1.378.864-.351 1.702-.75 2.566-1.101a.587.587 0 0 1 .503.081c.422.338.79.763 1.219 1.094.724.54.992 1.216.784 2.148.208.939-.375 1.486-1.119 1.925Z"/></g><path fill="#232323" d="M109.533 97.394c-.074-.817-.134-1.635-.215-2.452-.04-.405-.073-.81-.154-1.209-.074-.338-.214-.662-.308-1-.087-.283-.181-.547-.355-.797-.744-1.04-1.608-1.945-2.734-2.58-.342-.196-.724-.338-1.038-.574-.838-.608-1.789-.865-2.781-1.047-.771-.142-1.555-.101-2.332-.108a4.25 4.25 0 0 0-1.735.358c-1.153.493-2.231 1.148-3.243 1.878a7.002 7.002 0 0 0-2.633 3.586c-.382 1.149-.643 2.317-.576 3.54.006.142.006.29 0 .432-.04.851.133 1.668.422 2.452.388 1.04 1.031 1.939 1.695 2.81.924 1.216 2.19 2.02 3.537 2.668.456.216.965.331 1.454.432.644.135 1.294.25 1.944.304.603.054 1.219.081 1.815.007.409-.054.804-.284 1.2-.459 1.494-.669 2.867-1.554 4.147-2.581.59-.459 1.052-1.033 1.206-1.81.014-.115.074-.229.128-.338a5.27 5.27 0 0 0 .515-2.377c-.006-.378 0-.757 0-1.128.014-.007.027-.007.041-.007Z"/><path fill="#fff" d="M102.343 93.868c-.021.263-.054.5-.054.743-.013.83-.04 1.675 0 2.506.013.425-.06.743-.395 1.033-.483.406-.938.838-1.528 1.081a2.415 2.415 0 0 1-1.293.122c-.436-.075-.878-.608-.851-1.101.02-.412.107-.831.174-1.243.027-.122.12-.23.194-.338.503-.75.878-1.567 1.233-2.391.034-.074.114-.162.181-.182a10.432 10.432 0 0 1 2.245-.243c.02 0 .047.006.094.013ZM100.548 104.918c-1.146-.141-2.305-.229-3.337-.83-1.246-.716-2.452-1.493-3.223-2.837.128-.014.221-.021.315-.034a14.126 14.126 0 0 1 2.674-.054c.448.027.91.013 1.367.013.127 0 .194.048.247.169.396.919.918 1.777 1.448 2.614.187.297.368.601.549.905a.421.421 0 0 0-.04.054ZM93.424 100.346c-1.005-1.29-1.2-4.181-.603-6.093-.047.378-.108.757-.128 1.142-.026.398-.02.803-.006 1.202.013.399.073.784.227 1.148.06-.06.067-.121.067-.189 0-.81-.033-1.628 0-2.445.034-.763.248-1.5.583-2.216.027.034.054.048.06.075.557 1.02 1.1 2.046 1.676 3.06.187.33.167.567-.034.905-.502.844-.945 1.736-1.42 2.607-.14.257-.275.52-.422.804ZM105.848 97.11c.241-.358.455-.648.636-.96.476-.83 1.468-2.64 1.541-2.755.57 1.918.496 3.796.161 5.687.194-.23.449-1.627.469-2.384.013-.817-.027-1.628-.188-2.432.161.277.302.575.329.878.053.581.06 1.155.04 1.736-.02.615-.094 1.23-.127 1.851-.034.581-.429 1.466-.885 1.905-.67-1.202-1.34-2.391-1.976-3.526ZM106.92 100.555h-3.317c.148-.669.067-1.283.02-1.911a576.59 576.59 0 0 1-.328-4.573c.422.284 3.404 5.653 3.625 6.484ZM102.496 104.405a13.273 13.273 0 0 0 2.653-1.128c.845-.486 1.595-1.108 2.372-1.702-.08.101-.167.223-.261.311-.436.418-.838.884-1.32 1.236a11.66 11.66 0 0 1-1.742 1.033c-.57.291-1.179.5-1.769.73-.261.108-.536.141-.851.108.054-.122.087-.216.121-.297.449-.899.898-1.797 1.346-2.702.041-.081.081-.162.134-.237.416-.695.222-.574 1.006-.56.629.006 1.252.02 1.876.04.395.007.79.041 1.253.061-.128.122-.208.209-.295.284-1.039.857-2.124 1.641-3.364 2.161-.288.122-.569.243-.844.372-.121.06-.241.141-.355.216.013.02.027.047.04.074ZM100.454 88.708c-.041.088-.067.155-.108.216-.301.425-.603.83-.89 1.256-.075.108-.142.135-.255.074a.674.674 0 0 0-.288-.074c-.269-.027-.382.142-.275.399.047.108.14.202.187.317.027.054.034.149 0 .203-.147.27-.321.527-.475.79-.06.115-.114.162-.255.135-.174-.034-.362-.02-.55-.02-.616 0-1.232-.014-1.849.007-.529.013-1.052.067-1.574.108a.32.32 0 0 1-.208-.054c.683-.52 1.36-1.054 2.044-1.567.69-.527 1.54-.723 2.291-1.135-.656.06-1.28.236-1.896.534.797-.777 3.109-1.446 4.101-1.19ZM101.766 90.329c-.147-.284-.603-1.155-.683-1.331-.101-.203-.034-.318.187-.277.59.108 1.193.21 1.769.392.55.175 1.092.425 1.622.682.737.365 1.427.804 1.949 1.466.208.256.429.493.664.763-.067.013-.107.027-.148.034-.904.074-1.802.148-2.707.216-.067.007-.14.007-.207 0-.382-.027-.751-.081-1.133-.088-.194 0-.315-.054-.402-.23-.04-.108-.107-.209-.174-.33.107-.041.201-.061.282-.102.268-.128.522-.284.797-.398.121-.054.281-.027.422-.04.101-.008.268 0 .288-.048.047-.102.034-.243.007-.365-.014-.06-.094-.121-.154-.169-.275-.203-.543-.412-.824-.601-.402-.257-.691-.243-1.072.047-.161.115-.309.237-.483.379ZM97.599 100.487c-1.14-.074-2.278-.121-3.464.048.147-.277.254-.514.375-.737.516-.972 2.11-3.944 2.405-4.444a4.6 4.6 0 0 1 .496-.69.497.497 0 0 1 .275-.127c.147-.028.308-.007.489-.007-.013.08-.02.135-.04.189-.161.56-.496 1.033-.838 1.5a3.802 3.802 0 0 0-.757 2.397c.014.73.362 1.27.911 1.702.054.034.108.075.161.108-.006.021-.013.041-.013.061ZM105.6 96.644c-.63-1.033-1.24-2.026-1.87-3.046a4.94 4.94 0 0 0 .322-.135.88.88 0 0 0 .476-.446c.027-.06.107-.135.174-.142.844-.074 1.695-.135 2.546-.203.02 0 .04.014.094.027-.489.656-.998 1.297-1.22 2.094.101-.034.148-.094.195-.155.415-.595.831-1.196 1.246-1.79.034-.047.054-.095.094-.122.033-.027.087-.033.134-.047-.007.047 0 .101-.02.135-.04.075-.094.135-.141.196-.616.824-1.032 1.763-1.514 2.668-.168.31-.329.622-.516.966ZM101.09 104.52c-.683-1.121-1.34-2.195-1.996-3.269 1.253-.047 2.465-.047 3.658-.047-.549 1.087-1.085 2.175-1.662 3.316ZM94.201 92.828c.999-.054 1.937-.102 2.901-.149 0 .156-.006.264 0 .372.007.304.014.6.007.905a.418.418 0 0 1-.074.216c-.328.446-.656.898-.984 1.35-.067.089-.128.19-.228.345-.55-1.033-1.072-2.013-1.622-3.04ZM98.57 92.612c.235-.426.43-.804.637-1.196.067.04.1.054.127.081.342.331.764.466 1.226.48.436.013.871.047 1.293-.135.034-.014.121.006.141.04.074.095.127.203.194.324-1.199.135-2.371.264-3.618.406ZM100.822 100.521c.53-.459 1.052-.925 1.588-1.391.047.446.107.905.161 1.391h-1.749ZM101.29 90.666c-.04.027-.067.06-.094.06-.409.008-.817.028-1.233-.013-.194-.02-.2-.114-.08-.29.194-.29.389-.574.583-.865.04-.054.074-.121.107-.182a.45.45 0 0 1 .074.047c.214.412.429.824.643 1.243ZM107.468 102.129c-.167.155-.342.311-.509.473.154-.183.308-.352.462-.52.014.013.027.033.047.047Z"/><path fill="#232323" d="M109.499 43.817c-.121-1.21-.349-2.412-.771-3.553-.442-1.19-1.099-2.223-2.184-2.932-.282-.182-.563-.385-.845-.58-.69-.474-1.454-.832-2.231-1.129-.73-.277-1.514-.283-2.285-.33-1.005-.055-1.99.06-2.975.222-1.313.223-2.438.858-3.444 1.71-.509.425-.95.945-1.4 1.445-.951 1.067-1.574 2.283-1.755 3.728-.114.851-.255 1.695-.168 2.641v1.034c.007 1.222.369 2.337 1.039 3.35.764 1.135 1.708 2.087 2.713 2.979.235.209.49.385.758.54.797.473 1.681.716 2.566.939.817.216 1.655.216 2.479.108.73-.088 1.447-.297 2.171-.426.938-.162 1.715-.628 2.398-1.256.496-.453.972-.939 1.421-1.432.415-.453.824-.905 1.085-1.466.255-.553.489-1.114.724-1.681.516-1.25.844-2.554.704-3.911Z"/><path fill="#fff" d="M107.374 40.25c-.154.007-.288.02-.416.02-1.588 0-12.536-.074-13.32-.06-.073.006-.147-.007-.261-.014a.934.934 0 0 1 .1-.175 10.6 10.6 0 0 1 1.783-1.777 6.212 6.212 0 0 1 2.13-1.067c.69-.183 1.36-.392 2.044-.581.268-.074.543-.095.817-.149.067-.013.128-.054.195-.08-.067-.068-.128-.095-.188-.095-.556-.007-1.105.04-1.641.196-.724.216-1.461.412-2.185.621-.147.047-.288.115-.428.176a1.44 1.44 0 0 1 .428-.331c1.488-.743 3.056-1.122 4.717-.98.952.088 1.89.25 2.754.69.71.35 1.273.877 1.843 1.404.288.264.569.534.851.797.033.034.06.068.087.108.207.378.422.757.636 1.135.02.04.034.095.054.162Zm-3.598-1.506c-.034-.081-.067-.257-.161-.399-.127-.195-.308-.364-.456-.547-.361-.425-.857-.392-1.165.068-.222.33-.523.58-.878.743-.469.216-.978.189-1.468.033-.314-.094-.603-.283-.904-.412-.1-.04-.221-.02-.335-.02.02.102 0 .23.053.318.43.79 1.14 1.108 1.99 1.162a3.513 3.513 0 0 0 1.984-.453c.281-.155.603-.176.918-.101.268.067.415-.02.422-.392Zm-3.156-1.986c-.101.007-.154.007-.208.014-.462.067-.71.533-.469.911.101.156.228.298.375.412.215.176.469.223.724.075.308-.19.382-.493.349-.831-.027-.27-.195-.432-.443-.507-.12-.04-.254-.054-.328-.074ZM107.784 41.581c.074.317.168.58.188.844.047.703.114 1.405.06 2.101-.04.58-.208 1.162-.389 1.722-.375 1.169-.944 2.25-1.52 3.317-.181.338-.429.635-.644.952-.1.135-.194.27-.295.406a.882.882 0 0 0 .396-.23c.509-.513.965-1.074 1.313-1.709.429-.777.851-1.56 1.213-2.37.489-1.088.636-2.243.522-3.432l-.04-.676c.121.345.195.696.248 1.047.181 1.297-.12 2.52-.556 3.722-.523 1.452-1.36 2.702-2.399 3.817a4.64 4.64 0 0 1-1.655 1.127c-.79.318-1.588.67-2.439.838-.388.074-.569.088-.998-.014.013-.243.06-.492.201-.709.342-.533 2.191-3.29 2.734-4.154.536-.844 1.025-1.722 1.554-2.566.704-1.135 1.427-2.256 2.144-3.384.121-.196.215-.392.362-.649ZM96.433 46.127c-.04-.061-.08-.115-.12-.17-.978-1.62-1.957-3.241-2.928-4.87-.047-.073-.034-.188-.047-.29.074-.013.154-.033.234-.033 1.12.006 4.51.054 5.093.067.033 0 .06.007.16.027-.22.129-.395.223-.562.325a5.843 5.843 0 0 0-.342.216c-.362.263-.422.634-.295 1.026.107.338.268.656.422.98.04.087.114.162.188.216.174.128.402.02.402-.203.006-.412.248-.709.449-1.033a.3.3 0 0 1 .134-.108c.636-.223 1.266-.44 1.956-.358.195.02.396.04.59.08.174.028.301.338.208.528-.195.398-.778.857-1.354.817-.141-.014-.288 0-.415.04-.195.054-.302.196-.322.399a.42.42 0 0 0 .261.439c.289.128.583.243.885.338.382.115.69.337.945.641.06.075.113.17.12.257.027.419.014.838-.141 1.23a.72.72 0 0 1-.221.303c-.75.527-1.574.581-2.418.311-.644-.21-1.146-.662-1.642-1.108-.174-.162-.268-.425-.395-.641-.08-.135-.148-.277-.242-.399-.18-.23-.308-.46-.288-.763.007-.06-.08-.128-.12-.196-.06.054-.141.094-.168.155-.2.493-.167 1-.047 1.513l.06.237a.14.14 0 0 0-.04.027ZM99.509 53.017c-.516-.081-1.045-.142-1.555-.257a7.728 7.728 0 0 1-1.293-.392c-.335-.135-.656-.351-.958-.56-.255-.17-.476-.379-.704-.581-.864-.777-1.54-1.71-2.056-2.756-.329-.655-.43-1.371-.57-2.08-.308-1.574-.067-3.114.375-4.634a3.195 3.195 0 0 0-.033.25c-.1.885-.067 1.763.033 2.64.114 1.068.342 2.102.704 3.108.395 1.087.958 2.073 1.856 2.823.053.04.114.081.2.102-.937-1.243-1.66-2.574-1.996-4.107-.328-1.5-.53-3.006-.375-4.54.073.028.107.062.127.102 1.447 2.479 2.888 4.958 4.322 7.444.321.56.576 1.175.898 1.742.274.507.61.973.924 1.46.04.06.08.114.12.175l-.02.06Zm-2.921-1.419c.14-.006.2-.088.154-.216-.047-.142-.282-.31-.436-.29-.053 0-.127.033-.14.074-.02.047-.007.142.026.169.12.101.262.175.396.263Zm1.092.69c.073-.089.134-.122.147-.17.02-.101-.16-.27-.288-.256-.054.006-.1.067-.148.108.088.101.175.196.289.317Z"/><path fill="#fff" d="M100.198 52.294c-.844-1.399-1.494-2.912-2.48-4.229.175.02.302.081.436.142.945.432 1.943.662 2.982.567 1.038-.1 1.755-.689 2.157-1.661.235-.574.195-1.182.128-1.77-.061-.534-.443-.878-.811-1.23-.074-.074-.161-.141-.255-.222 1.086-.885 1.24-1.844.221-2.938h4.872c-.141.283-.255.567-.423.817-.308.473-.663.912-.964 1.385-.684 1.067-1.334 2.154-2.01 3.221-.61.953-3.518 5.418-3.853 5.918Z"/><path fill="#232323" d="M108.266 125.169c-.315-.467-.677-.892-1.039-1.324-.228-.271-.455-.575-.744-.77-.656-.453-1.36-.838-2.03-1.27-1.521-.973-3.196-1.007-4.891-.804-.911.108-1.776.425-2.626.79-2.212.926-3.76 2.533-4.677 4.728-.576 1.385-.952 2.837-.818 4.371 0 .439-.06.884.014 1.303.268 1.554.83 2.986 1.842 4.215.757.919 1.655 1.675 2.74 2.175.563.263 1.18.426 1.77.642 1.072.392 2.17.452 3.296.337.596-.06 1.179-.195 1.776-.236a4.865 4.865 0 0 0 1.413-.324c2.098-.811 3.619-2.209 4.369-4.384.08-.243.101-.513.208-.736.475-.966.67-1.993.656-3.06-.013-.486 0-.973 0-1.459 0-.338.02-.682-.026-1.02a7.36 7.36 0 0 0-1.233-3.174Z"/><path fill="#fff" d="M93.906 126.675c.08-.02.12-.04.161-.04.576-.027 1.16-.061 1.735-.068 2.788-.013 5.575-.027 8.369-.027.998.007 1.997.061 2.995.095.04 0 .074.013.141.027-.06.087-.107.148-.154.216-.824 1.121-1.689 2.215-2.466 3.37-.536.784-.985 1.628-1.434 2.472-.61 1.162-1.186 2.344-1.789 3.513-.268.5-.569.986-.851 1.479a1.025 1.025 0 0 1-.094.101c-.167-.256-.328-.493-.482-.736-.79-1.236-1.615-2.459-2.365-3.728-.543-.919-.952-1.919-1.48-2.858-.584-1.033-1.227-2.033-1.837-3.053-.147-.243-.288-.493-.449-.763Zm6.426 9.612c.08-.196.154-.331.187-.48.134-.594 0-1.155-.234-1.702-.208-.466-.456-.918-.57-1.398-.16-.676.02-.973.63-1.094a14.326 14.326 0 0 1 1.695-.23c.704-.054 1.24-.574 1.233-1.29 0-.338-.04-.682-.087-1.02-.027-.203.047-.257.221-.257.107 0 .215 0 .322-.013a.765.765 0 0 0 .67-.817c-.027-.385-.348-.642-.771-.635-.241.006-.482 0-.723.02-1.36.101-2.707-.007-4.06-.095-.503-.033-1.006-.108-1.508-.162-.375-.04-.503.047-.576.419-.027.122-.04.236-.067.358-.121.601-.04 1.196.127 1.776.094.331.415.392.636.122a.807.807 0 0 0 .181-.311c.04-.189.161-.27.329-.317.114-.027.227-.068.341-.095 1.046-.256 2.104-.216 3.156-.209.06 0 .161.047.168.088.087.364.154.736.228 1.101-.061.027-.081.04-.114.04-.758.122-1.515.237-2.272.365-.429.074-.784.304-.945.709-.24.601-.268 1.209.054 1.797.422.77.851 1.54 1.273 2.317.161.304.295.628.476 1.013ZM108.159 126.918c.107.317.241.628.308.959.087.399.147.811.167 1.223.027.824.101 1.661.007 2.479-.121 1.128-.355 2.256-1.025 3.222-.972 1.411-2.198 2.505-3.772 3.201a6.955 6.955 0 0 1-2.379.561c-.034.007-.067 0-.101 0-.04-.061-.033-.108-.006-.135.475-.818.924-1.642 1.286-2.526.241-.581.563-1.128.865-1.689.623-1.148 1.212-2.324 1.889-3.438.556-.926 1.219-1.777 1.843-2.668.127-.183.241-.358.402-.534.134 1.081.341 2.168.154 3.269-.188 1.088-.422 2.162-.871 3.182a.399.399 0 0 0 .234-.169c.134-.257.302-.513.382-.784.241-.79.483-1.58.65-2.384.087-.419.06-.871.027-1.304-.06-.722-.161-1.438-.235-2.161-.013-.101.034-.203.054-.304h.121Zm-4.356 10.071c.087.027.154.007.228-.013a4.616 4.616 0 0 0 2.205-1.399c.187-.216.321-.466.469-.702.046-.074.04-.176.06-.264-.328.304-.563.662-.858.953-.308.297-.663.56-1.018.797-.342.236-.724.425-1.086.628ZM99.582 138.57c-.268-.048-.476-.075-.67-.129-.911-.27-1.856-.472-2.694-.945-1.614-.919-2.78-2.236-3.383-4.033-.174-.5-.315-1.013-.456-1.526-.033-.142-.027-.284-.027-.426-.013-.918-.067-1.844.175-2.742.167-.642.361-1.27.556-1.959.16.236.261.392.147.635-.295.642-.268 1.337-.328 2.026-.188 2.067 1.44 5.863 2.894 7.207.228.21.47.419.71.608.068.054.168.068.255.108.014-.027.034-.047.047-.067-.074-.101-.14-.203-.228-.297-.677-.716-1.32-1.466-1.775-2.351-.664-1.276-1.2-2.607-1.454-4.026-.054-.331-.04-.682-.04-1.026 0-.568-.02-1.142.147-1.696.013-.06.04-.121.06-.182.268.304.483.648.69.986.912 1.432 1.635 2.959 2.392 4.478.362.716.811 1.385 1.213 2.081.51.878 1.005 1.749 1.494 2.634.108.182.168.385.275.642ZM107.321 125.493c-4.248-.263-8.503-.162-12.764-.108.234-.297.482-.608.73-.926a.67.67 0 0 0-.375.19c-.241.236-.47.472-.697.722-.107.129-.228.176-.422.122.04-.068.08-.135.114-.196.724-1.223 1.809-2.02 3.008-2.688.684-.379 1.42-.527 2.171-.669.65-.115 1.293-.115 1.943-.108 1.032.007 1.997.257 2.881.79.657.392 1.307.784 1.95 1.196.59.378 1.045.891 1.427 1.479.014.027.034.061.047.095.007.006 0 .02-.013.101Zm-3.411-1.054c.088 0 .148.014.195 0 .12-.034.315-.054.328-.121.034-.122-.027-.271-.087-.392-.04-.095-.127-.162-.208-.237a9.895 9.895 0 0 0-.475-.425c-.61-.507-.845-.48-1.381.115-.429.473-.944.763-1.615.601-.033-.007-.067-.007-.1-.007-.59-.047-1.119-.229-1.561-.628-.174-.162-.335-.331-.523-.466-.1-.068-.248-.068-.375-.068-.013 0-.074.169-.054.237.295.898.798 1.634 1.77 1.878.508.128 1.051.189 1.574.27.181.027.368.054.543.027.536-.081 1.011-.331 1.454-.615.174-.115.335-.203.515-.169Zm-3.323-.986c.409.007.677-.243.677-.642.007-.391-.275-.662-.69-.675-.409-.007-.717.277-.717.669 0 .391.288.641.73.648Z"/><path fill="#232323" d="M103.2 61.871a6.253 6.253 0 0 0-1.3-.385c-.67-.114-1.347-.1-2.023-.06-.825.047-1.628.148-2.412.439-1.32.493-2.594 1.06-3.572 2.154-.362.412-.703.825-.938 1.331-.308.655-.643 1.297-.931 1.959-.154.385-.208.804-.335 1.195a5.698 5.698 0 0 0-.268 1.574c-.04 1.088.174 2.141.429 3.195.12.446.268.892.529 1.277.208.29.409.588.59.892a7.099 7.099 0 0 0 2.814 2.735c.77.419 1.601.723 2.452.973.838.236 1.689.405 2.566.364.255 0 .516.041.757-.006a64.876 64.876 0 0 0 2.272-.514c.395-.094.817-.168 1.172-.358.637-.358 1.26-.756 1.783-1.283 1.092-1.094 1.97-2.317 2.452-3.81.235-.716.261-1.459.288-2.195.034-1.006-.201-1.992-.389-2.979-.12-.648-.301-1.29-.462-1.938-.02-.108-.027-.23-.08-.318-.174-.31-.342-.621-.55-.898-.261-.358-.583-.669-.851-1.02-.308-.419-.656-.79-1.112-1.013a64.647 64.647 0 0 0-2.881-1.31Z"/><path fill="#fff" d="M101.211 78.772c.161-.264.288-.466.409-.676.556-1.006 1.119-2 1.655-3.005.884-1.662 1.829-3.283 2.941-4.803.523-.716.972-1.486 1.461-2.229.02-.034.047-.06.1-.128.04 1.817.128 3.586-.563 5.288.027.007.054.02.074.02.101-.175.201-.344.282-.526.355-.79.542-1.621.536-2.486 0-.912-.021-1.83-.021-2.749 0-.115.047-.236.074-.358.027.007.054.007.081.007.073.297.154.588.201.892.134.77.281 1.546.361 2.323.128 1.277-.134 2.486-.663 3.661-.402.898-.958 1.689-1.588 2.438a1.193 1.193 0 0 1-.234.217c-.67.459-1.347.918-2.017 1.377-.061.041-.114.082-.181.102-.797.25-1.581.54-2.412.635-.148.013-.288 0-.496 0Zm.858-.858c0 .034.006.06.013.088.087 0 .181.027.248-.007.409-.155.858-.264 1.193-.513.582-.426 1.125-.933 1.641-1.44.322-.323.576-.722.851-1.093.054-.081.067-.183.107-.277-.12.027-.187.074-.234.142-.556.736-1.226 1.364-1.903 1.985-.449.406-.945.73-1.514.946-.141.047-.268.115-.402.169ZM99.434 77.968c-.28-.054-.522-.081-.757-.142-.69-.183-1.32-.527-1.956-.858a4.079 4.079 0 0 0-.389-.182c-.053-.028-.12-.028-.18-.041.013.095.046.155.1.19.824.526 1.655 1.033 2.62 1.282.167.048.348.082.529.095.188.007.234.115.281.304-.12-.02-.214-.027-.301-.054-.797-.263-1.608-.486-2.385-.79-1.454-.574-2.58-1.56-3.35-2.939-.262-.459-.557-.898-.784-1.364-.302-.628-.376-1.317-.483-2.006a8.051 8.051 0 0 1-.033-2.27c.073-.56.214-1.114.335-1.675 0-.04.033-.074.073-.101-.026.29-.047.588-.073.885-.148 1.418-.047 2.816.348 4.188.094.317.248.614.409.905.301.52.623 1.026.944 1.54.08.121.175.236.289.337-.63-1.181-1.28-2.35-1.508-3.701-.228-1.337-.214-2.675-.06-4.012.026-.02.04-.034.067-.047.013.033.02.067.04.1.817 1.629 1.816 3.142 2.78 4.682.919 1.466 3.143 5.093 3.337 5.437.034.054.06.122.108.237Zm-4.415-2.365c-.054.088-.114.156-.1.17a.416.416 0 0 0 .154.128c.006.007.087-.075.08-.102-.02-.06-.067-.108-.134-.196ZM107.153 65.424c-.73-.587-1.447-1.188-2.318-1.533l-.061.081c.825.54 1.635 1.094 2.285 1.844-4.281.06-8.556.06-12.851.06.63-.648 1.186-1.35 1.896-1.897.71-.547 1.535-.892 2.379-1.175l-.02-.081c-.161.006-.322 0-.476.027a4.728 4.728 0 0 0-2.5 1.303c-.562.547-1.071 1.148-1.594 1.736-.12.135-.234.156-.409.095.074-.129.141-.243.215-.358a7.363 7.363 0 0 1 2.82-2.54c.778-.405 1.635-.615 2.52-.689a14.432 14.432 0 0 1 2.7.014c.67.074 1.293.337 1.903.614.596.257 1.186.54 1.776.824.469.237.871.554 1.172.993.114.162.255.31.382.46.06.074.121.155.181.222Zm-4.04-.223c.167-.04.408-.08.643-.141.181-.048.201-.17.161-.338-.141-.594-.516-.952-1.092-1.088-.201-.047-.429-.094-.617.081-.455.433-.998.743-1.541 1.034a.477.477 0 0 1-.322.027c-.361-.095-.723-.216-1.078-.331-.195-.06-.382-.128-.57-.155-.167-.027-.261.108-.187.263a.708.708 0 0 0 .2.264c.235.175.47.358.724.486.69.365 1.414.554 2.191.317.195-.054.382-.142.556-.243.268-.155.543-.257.932-.175Zm-2.453-1.979c-.288 0-.576.277-.583.568 0 .283.255.513.57.513a.502.502 0 0 0 .523-.493c.006-.31-.235-.58-.51-.588Zm.376-.52c-.041-.074-.041-.094-.054-.101-.275-.142-.57-.149-.871-.122-.027 0-.08.088-.074.102.02.04.067.094.114.101.161.02.328.034.496.04.121 0 .235-.013.389-.02ZM102.477 72.49c.026-.04.04-.068.06-.075.315-.08.288-.33.281-.567a4.791 4.791 0 0 0-.04-.547c-.06-.453-.482-.804-.864-.885-.717-.142-1.434-.19-2.138.04-.22.068-.375-.02-.455-.236-.094-.243-.047-.425.174-.507.275-.094.569-.162.858-.209.857-.142 1.715-.27 2.573-.398.361-.054.582-.25.649-.635.034.087.081.169.108.256.114.365.288.716.328 1.088.094.837.054 1.668-.382 2.431-.06.102-.114.21-.161.318-.348.919-1.119 1.33-1.956 1.614-.436.142-.898.04-1.354-.027-.315-.054-.489-.21-.596-.5-.107-.31-.315-.58-.288-.938.02-.23.087-.42.254-.568.376-.337.804-.547 1.314-.547.268 0 .536 0 .804.007.435.02.663.216.77.635.02.074.04.148.061.25Z"/><path fill="#fff" d="M97.887 73.199c-.154-.162-.342-.31-.476-.5-.395-.588-.764-1.21-.898-1.912-.147-.817-.18-1.648.45-2.33.026-.034.046-.08.073-.128.154-.223.328-.392.63-.419.207-.013.415-.095.623-.095.308.007.623.068.938.088.777.061 1.561.102 2.338.149h.201c-.033.094-.087.142-.147.142-.623.08-1.24.141-1.87.223-.529.067-1.038.222-1.4.648-.14.169-.248.398-.288.615-.107.554-.08 1.094.308 1.553.027.034.027.129 0 .162-.355.473-.462 1.014-.422 1.601.007.054 0 .115 0 .176-.013.007-.04.02-.06.027ZM107.588 66.654c-.811 1.56-1.789 2.972-2.787 4.383-.034-.587-.027-1.181-.268-1.729-.235-.527-.489-1.047-.744-1.594.074-.034.168-.074.255-.108.268-.094.428-.277.516-.547.167-.54.053-.446.603-.446.75 0 1.514.014 2.271.02.034 0 .067.014.154.02ZM93.316 66.606c.074-.006.108-.006.148-.006.777 0 1.554.013 2.325.013.14.007.187.034.234.183.087.317.221.628.362.925.1.223.12.392-.04.594-.563.737-.59 1.588-.516 2.466.007.02.007.047.007.074-.952-1.324-1.722-2.77-2.52-4.249ZM100.358 75.11c.369 0 .731.028 1.093-.013.361-.034.71-.142 1.065-.216a74.181 74.181 0 0 1-1.836 3.283c-.248-.203-.241-.338-.047-.514.322-.29.362-.682.302-1.087-.074-.466-.262-.885-.51-1.284-.02-.04-.046-.074-.067-.114-.006-.007 0-.02 0-.055ZM97.967 74.084c.207.149.455.23.59.493.368.716.783 1.398 1.306 2.006.074.088.087.216.127.324-.73-.905-1.4-1.844-2.07-2.782.013-.014.027-.028.047-.041Z"/><path fill="#232323" d="M102.952 192.478c.938-.155 1.728-.648 2.499-1.148 1.219-.784 2.124-1.898 2.895-3.114.381-.595.549-1.283.77-1.945.489-1.453.509-2.932.235-4.411a13.55 13.55 0 0 0-.677-2.351c-.409-1.114-1.086-2.08-2.057-2.762-1.099-.777-2.258-1.439-3.511-1.939-1.166-.459-2.385-.621-3.598-.398-1.803.344-3.524.959-5.032 2.08-.697.52-1.347 1.087-1.776 1.864-.77 1.398-1.353 2.857-1.246 4.465-.114.79.04 1.533.154 2.27.161 1.026.496 1.992.898 2.938.449 1.08 1.079 2.006 2.017 2.722 1.011.77 2.057 1.418 3.33 1.688 1.059.223 2.117.358 3.189.298.476-.027.945-.135 1.414-.196.167-.027.335-.034.496-.061Z"/><path fill="#fff" d="M105.839 179.462c.007.061.014.128.014.196.047 1.803.174 8.159.187 9.537.007.277-.073.358-.335.365-.804.014-1.601.014-2.398.041-.711.02-1.421.094-2.131.121-1.226.047-2.446.182-3.672.047-.79-.081-1.588-.128-2.385-.175-.168-.014-.235-.081-.235-.243-.013-.642-.053-1.277-.053-1.912-.014-1.81.006-8.105.013-9.436 0-.412-.007-.399.402-.419.536-.02 1.079-.061 1.615-.101.087 0 .18-.007.268-.007 1.802 0 3.605-.013 5.407.007 1.059.007 2.124.067 3.176.115.054 0 .141.074.141.121.013.372.013.743-.014 1.122-.435-.48-1.038-.413-1.568-.527-.837-.183-1.681-.365-2.532-.453a17.43 17.43 0 0 0-2.513-.054c-.59.027-1.18.169-1.762.291-.429.087-.851.135-1.293.027-.644-.156-.912.114-.737.77.1.418.268.824.415 1.229.047.135.154.25.302.203a.451.451 0 0 0 .248-.237c.053-.176.14-.216.314-.216 1.019-.027 2.05-.014 3.07-.115.85-.081 1.701-.054 2.545-.074.054 0 .101.007.175.013-.094.291-.181.561-.282.824-.007.041-.067.068-.107.088-.576.243-1.099.574-1.434 1.128-.201-.054-.348-.148-.502-.236-.945-.541-1.964-.703-3.029-.574-.147.013-.288.087-.429.148-.073.027-.14.088-.214.122-.583.29-.938.723-1.005 1.405-.054.52-.215 1.026-.309 1.54-.167.885.094 1.655.65 2.323.41.5.892.926 1.495 1.182.2.088.422.176.603-.006.187-.196.067-.426-.054-.595-.248-.358-.53-.689-.784-1.033a7.294 7.294 0 0 1-.435-.588c-.262-.398-.282-.837-.181-1.29.073-.304.127-.601.207-.898.027-.095.088-.21.168-.25.476-.25.965-.487 1.447-.723.302-.149.596-.013.871.074.409.135.797.311 1.193.487.228.108.422.094.61-.081.127-.115.254-.23.381-.352.604-.587 1.334-.844 2.158-.797.348.021.616.21.784.541.167.324.221.668.228 1.033.013.601 0 1.209-.215 1.777-.281.763-.623 1.492-.938 2.235-.06.135-.127.271-.167.412-.014.081-.007.23.04.257.074.041.188-.007.281-.027.041-.007.074-.047.101-.074.563-.554 1.092-1.128 1.44-1.871.516-1.115.758-2.263.597-3.486-.134-.993-.677-1.668-1.622-1.985-.174-.054-.194-.122-.12-.264.033-.081.047-.169.093-.236.061-.068.148-.156.228-.162a2.94 2.94 0 0 1 .644-.021c.348.041.67.034.897-.297.02.014.034.02.047.034Zm-5.213 9.287c.235-.31.463-.601.677-.898.148-.196.308-.398.416-.621.341-.723.75-1.405 1.212-2.054.309-.425.55-.891.717-1.391.094-.277.087-.291-.207-.284-1.2.027-2.406.061-3.612.068-.63.013-1.273-.021-1.91-.027h-.247c.073.196.114.364.187.513.241.466.516.912.73 1.391a15.39 15.39 0 0 0 1.857 3.101c.053.074.12.142.18.202ZM94.128 188.857c-.195-.304-.43-.601-.59-.925-.563-1.175-.972-2.405-1.092-3.702-.08-.844-.127-1.695-.06-2.533a4.487 4.487 0 0 1 1.186-2.742c.013-.014.033-.02.073-.047-.013.054-.02.088-.033.108a7.741 7.741 0 0 0-.798 2.681c-.12 1.149-.2 2.31.222 3.425.026.067.046.128.107.196.006-.054.013-.095.013-.149.013-1.04-.033-2.087.047-3.127.08-1.027.395-2.013.878-2.932.013-.04.053-.074.107-.162v9.869l-.06.04ZM106.791 188.445c-.006-.074-.006-.148-.006-.216-.007-.763.006-1.526-.014-2.29-.047-1.465-.12-2.924-.16-4.383-.027-1.027-.014-2.06-.014-3.087 0-.014.007-.034.02-.074.034.033.061.054.074.081.462.965.931 1.952 1.085 3.019a15.99 15.99 0 0 1 .121 3.58c-.06.655-.134 1.31-.241 1.959-.04.256-.168.506-.302.743-.14.25-.335.466-.502.695a.215.215 0 0 1-.061-.027ZM101.09 191.377c-.148-.02-.289-.054-.443-.061-.73-.047-1.46-.074-2.197-.135-.744-.054-1.448-.23-2.057-.689a.371.371 0 0 1-.141-.162c.362.02.724.054 1.085.061.918.02 1.83.054 2.741.047 1.554-.007 3.102-.04 4.65-.061.027 0 .053.014.087.014-.905.851-3.652 1.634-5.628 1.182.643-.061 1.279.034 1.896-.128 0-.021.007-.048.007-.068ZM95.516 176.713c1.085-.561 2.19-.905 3.343-1.317-.127.344.047.52.248.668.362.277.777.412 1.219.541-.1.006-.194.02-.288.02-.697 0-1.4-.014-2.097.007-.703.02-1.407.081-2.11.128-.068 0-.135.007-.208.007-.014 0-.034-.021-.107-.054Z"/><path fill="#fff" d="M107.342 178.962c1.146 1.58 1.688 5.052.703 7.133.034-.291.061-.547.087-.797.155-1.284.161-2.567.021-3.85-.054-.426-.208-.838-.349-1.25-.134-.419-.308-.824-.462-1.236ZM104.721 176.652h-2.432c.02-.095.067-.135.107-.182.188-.196.369-.392.556-.588.041-.041.121-.108.154-.095.55.264 1.099.534 1.649.804a.267.267 0 0 0-.034.061ZM99.04 175.382c.897-.223 1.728-.169 2.592-.088-.368.574-.355.615-1.139.527-.442-.047-.878-.236-1.313-.365-.027-.007-.06-.027-.14-.074Z"/><path fill="#232323" d="M109.418 154.95c-.067-.953-.288-1.851-.724-2.709-.556-1.094-1.279-2.02-2.331-2.695-.905-.574-1.883-.979-2.855-1.398-1.541-.669-1.541-.696-3.196-.649-.676.014-1.353.183-2.023.318-1.246.243-2.426.655-3.424 1.472-.087.075-.188.122-.275.189-.475.399-.978.77-1.413 1.216-.476.487-.858 1.061-1.06 1.736-.086.284-.207.561-.28.845-.128.493-.262.972-.336 1.472-.067.412-.067.844-.073 1.263 0 .682-.047 1.365.047 2.033.187 1.297.63 2.526 1.22 3.695.488.959 1.111 1.79 2.07 2.317.422.229.83.473 1.26.669.79.358 1.587.709 2.384 1.033.624.25 1.287.149 1.937.189.502-.027 1.018-.04 1.528-.088.274-.033.549-.121.817-.182.523-.128 1.059-.189 1.548-.385.636-.257 1.233-.615 1.842-.919.684-.337 1.186-.851 1.582-1.506.603-1 1.112-2.026 1.353-3.175.101-.445.194-.891.275-1.344.094-.5.221-.999.234-1.506.02-.628-.06-1.263-.107-1.891Z"/><path fill="#fff" d="M108.253 153.626c-.268-.554-.563-1.068-1.032-1.554.027.088.033.115.047.135.817 1.439 1.212 2.992 1.139 4.654a65.52 65.52 0 0 1-.108 1.959.33.33 0 0 1-.093.216c0-.777 0-1.547.006-2.324 0-.398-.047-.776-.234-1.141-.067-.115-.067-.264-.107-.399-.489-1.607-1.387-2.918-2.747-3.897-.61-.446-1.253-.811-1.984-1-.04-.006-.067-.02-.107-.027-.174-.033-.315.007-.402.176-.087.176-.007.324.134.425.134.088.288.156.442.21.764.304 1.468.689 1.957 1.385.114.155.234.324.295.499.227.649.522 1.284.623 1.952.221 1.432.093 2.837-.563 4.161-.335.682-.697 1.344-1.313 1.817-.034.02-.067.054-.101.074-.02.014-.04.021-.1.055 0-.115-.007-.21 0-.311.14-1.986.134-3.979.053-5.964-.027-.426-.06-.852-.094-1.27-.02-.169.007-.284.188-.358.208-.088.348-.25.348-.507 0-.263-.16-.425-.375-.513a2.284 2.284 0 0 0-.663-.176c-1.662-.155-3.337-.115-4.999-.121-.448-.007-.89.074-1.333.135a.672.672 0 0 0-.563.459c-.08.236-.174.473-.234.723-.02.101.006.27.08.324.074.067.235.04.349.054.482-.324 1.005-.324 1.527-.324 1.146 0 2.292.006 3.444.013.248.007.503.027.751.054.053 0 .134.075.14.115.041.486.067.973.094 1.5-.154-.068-.275-.135-.402-.183-.71-.263-1.44-.364-2.191-.425-.254-.021-.516.006-.77-.014-.865-.054-1.655.216-2.426.568-1.306.601-1.561 2.296-1.146 3.154.154.304.295.601.45.898.421.811 1.138 1.23 1.962 1.513 1.32.453 2.547.176 3.726-.479.315-.176.603-.385.931-.595a.826.826 0 0 1 .027.183c.007.655.007 1.317.02 1.972.007.135-.033.209-.167.257-.463.148-.912.317-1.374.452-.174.048-.369.021-.556.014-1.26-.041-2.365-.453-3.417-1.162-1.32-.898-2.07-2.107-2.312-3.681-.14-.905-.214-1.81.027-2.695.268-.98.576-1.966 1.186-2.797.328-.445.784-.81 1.192-1.195.054-.054.168-.054.228-.108.08-.081.201-.189.188-.277 0-.162-.16-.196-.295-.169-.456.081-.904.169-1.3.432a7.828 7.828 0 0 0-1.507 1.317c-.77.892-1.521 1.804-1.923 2.932-.128.358-.221.729-.329 1.087a1.202 1.202 0 0 1-.134.318c0-.264-.013-.527 0-.791.06-.837.215-1.681.603-2.424.543-1.054 1.247-2.007 2.218-2.736 1.16-.858 2.432-1.486 3.826-1.837a4.482 4.482 0 0 1 2.332.04c1.058.311 2.144.507 3.176.932.542.23 1.032.548 1.507.885 1.019.723 1.628 1.736 2.044 2.884.067.169.094.345.141.521Zm-10.205-4.019c.047.128.08.29.16.418.383.629.98.939 1.67 1.108.341.081.669.047.998-.074.113-.041.254-.027.381-.027.228.007.456.047.684.02a.42.42 0 0 0 .295-.209c.154-.399.281-.804.402-1.216.053-.183.04-.365-.134-.493a.595.595 0 0 0-.865.142.28.28 0 0 1-.08.094c-.382.264-.757.527-1.146.79a.47.47 0 0 1-.201.068c-.295.034-.603.027-.85-.162-.316-.264-.604-.554-.912-.831-.04-.04-.087-.101-.134-.108-.054 0-.14.047-.16.088-.048.115-.068.236-.108.392Zm2.754-.554a.565.565 0 0 0-.596-.574.594.594 0 0 0-.597.594c0 .324.275.581.623.581.329 0 .57-.257.57-.601Z"/><path fill="#fff" d="M106.201 153.328c.067.054.108.074.128.108.603.878 1.052 1.81 1.132 2.911.047.743.154 1.48.121 2.229-.02.358-.134.676-.275 1-.094.223-.194.453-.275.689-.026.061.02.142.034.209.06-.027.134-.033.181-.081.073-.067.127-.155.194-.229-.067.425-.141.851-.322 1.229-.268.561-.629 1.081-1.145 1.459-.288.216-.55.473-.845.682a3.982 3.982 0 0 1-.77.433c-.751.297-1.508.574-2.272.837a2.126 2.126 0 0 1-.683.101c-.71 0-1.427 0-2.144-.047a2.999 2.999 0 0 1-.998-.257c-1.126-.466-2.232-.986-3.27-1.634-.623-.385-1.025-.959-1.367-1.587a21.009 21.009 0 0 1-.636-1.291.964.964 0 0 1-.074-.418c-.014-.71-.047-1.412 0-2.121.08-1.23.321-2.445.938-3.519.435-.757 1.059-1.399 1.595-2.088.013-.02.04-.033.093-.074-.2.48-.375.926-.556 1.365-.77 1.796-.797 3.606-.228 5.464.376 1.223 1.146 2.107 2.124 2.85.617.473 1.253.912 2.03 1.081.697.156 1.381.331 2.111.338.409 0 .818.101 1.213-.047 1.032-.385 1.976-.919 2.747-1.703.261-.263.436-.614.623-.945.422-.723.818-1.459 1.025-2.276.228-.912.208-1.838.087-2.763a6.595 6.595 0 0 0-.469-1.723c-.02-.047-.02-.094-.047-.182Zm-12.348 6.68c-.02.007-.047.014-.067.027.02.095.027.19.067.271.355.763.71 1.533 1.327 2.127.24.237.462.507.71.743.154.156.328.331.529.385.931.257 1.863.554 2.808.689a7.536 7.536 0 0 0 3.175-.243c.67-.203 1.374-.351 1.977-.743.087-.047.161-.122.235-.182a.372.372 0 0 0-.255-.041c-.429.122-.864.23-1.293.358-1.233.372-2.493.547-3.76.365-.91-.135-1.802-.378-2.7-.594a.916.916 0 0 1-.428-.244c-.71-.689-1.46-1.351-1.923-2.256-.12-.229-.268-.445-.402-.662Zm11.464 2.554c.429-.149.777-.385.978-.797.034-.075.007-.19.007-.284-.087.02-.201.013-.275.067-.288.23-.569.48-.851.737-.033.033-.053.128-.033.162.033.054.114.074.174.115Z"/><path fill="#fff" d="M100.218 155.652c.529.04 1.059.047 1.568.142.335.06.65.236.965.378.053.027.087.135.094.203.02.418.026.844.033 1.263 0 .074-.047.189-.1.216-.697.385-1.381.783-2.098 1.135-.589.297-1.24.385-1.869.141-.348-.128-.67-.358-.972-.587-.107-.081-.147-.284-.154-.439a6.305 6.305 0 0 1 .007-1.067c.094-.811.637-1.196 1.38-1.297.376-.048.764-.014 1.146-.014v-.074Z"/><mask id="c" width="31" height="33" x="85" y="0" maskUnits="userSpaceOnUse" style="mask-type:luminance"><path fill="#fff" d="M85.063.75h30.875v31.854H85.062V.75Z"/></mask><g mask="url(#c)"><path fill="#232323" d="M115.475 15.501c.128-.202.134-.385 0-.587-.315-.466-.623-.94-.958-1.398-.208-.29-.362-.561-.141-.899.168-.743.329-1.432.483-2.128.047-.216-.067-.371-.282-.459a3.494 3.494 0 0 1-.475-.236c-.221-.129-.422-.29-.65-.392-.208-.088-.235-.196-.195-.412.081-.54.141-1.094.181-1.648.02-.27-.107-.44-.321-.5-.637-.182-1.267-.412-1.95-.371-.054.006-.161-.068-.174-.122-.107-.432-.235-.865-.282-1.304-.033-.324-.161-.526-.563-.5-.368.02-.737.088-1.112.136-.1.02-.194.074-.274-.075a56.191 56.191 0 0 0-.918-1.58.479.479 0 0 0-.557-.237c-.341.075-.69.135-1.031.216-.148.041-.215.014-.275-.141a1.568 1.568 0 0 0-.295-.527c-.295-.331-.61-.642-.938-.932-.315-.284-.435-.277-.804-.068-.047.027-.094.047-.141.068-.569.25-1.132.506-1.702.756-.04.02-.127.014-.16-.02a64.915 64.915 0 0 1-1.227-1.148c-.221-.21-.381-.237-.609-.04-.422.364-.831.742-1.24 1.127-.107.095-.18.128-.315.095-.388-.115-.777-.23-1.179-.311-.502-.101-.958-.027-1.28.446-.14.202-.308.385-.455.587-.074.108-.154.142-.288.115-.322-.054-.65-.115-.985-.121-.563-.02-1.133 0-1.702.006-.322 0-.389.048-.49.352-.033.094-.04.196-.066.297-.047.223-.088.46-.154.682-.027.068-.135.142-.215.162-.482.074-.972.122-1.447.196-.349.054-.416.135-.422.473-.02.56-.034 1.121-.034 1.682 0 .175-.04.223-.214.236a7.2 7.2 0 0 0-.925.115c-.429.074-.858.176-1.28.27a.385.385 0 0 0-.315.399c0 .608 0 1.222.04 1.837.014.182-.04.25-.194.317-.375.17-.743.358-1.098.561-.282.162-.342.297-.262.615.181.716.382 1.425.583 2.127.034.129.027.216-.06.318-.195.223-.382.452-.57.689-.227.29-.22.466.027.756.261.318.523.635.79.953.094.108.088.21.034.33-.194.413-.388.818-.536 1.25-.12.352-.194.73-.241 1.101-.04.433.047.534.442.723.355.176.717.345 1.079.513.12.054.147.122.087.25-.114.284-.214.574-.308.865-.087.284-.168.574-.235.864-.047.19.034.338.215.426.449.216.837.52 1.152.905.1.108.134.203.1.345-.093.371-.187.736-.26 1.107-.014.075.026.223.08.25.489.264.978.54 1.487.75.684.277 1.38.5 2.084.743.16.054.261.162.308.331.114.446.242.885.355 1.33.1.4.268.473.664.392.408-.087.83-.114 1.24-.175.361-.054.575.033.736.418.262.656.75 1.162 1.247 1.669.174.182.355.223.596.169.657-.149 1.24-.432 1.802-.79.087-.055.154-.102.255.02.308.378.63.743.958 1.1.221.244.322.25.63.102.08-.04.161-.081.254-.115.751-.27 1.441-.635 1.91-1.324.034-.04.121-.088.161-.074.342.115.697.21 1.012.372.321.162.402.182.65-.102.381-.432.757-.871 1.125-1.317.148-.182.295-.27.536-.25.322.027.65.007.978.007.335.02.677.047 1.012.02.704-.06.764-.148.851-.702.034-.21.081-.412.134-.615.02-.06.081-.135.134-.148.563-.109 1.132-.196 1.695-.325.416-.094.811-.236 1.22-.378.221-.081.315-.277.321-.52.027-.567.054-1.135.087-1.702.007-.075.061-.176.121-.203.57-.236 1.146-.46 1.729-.682.228-.088.288-.216.241-.453a78.688 78.688 0 0 1-.362-2.127c-.013-.054.034-.142.087-.176.268-.196.543-.378.818-.554.174-.115.234-.27.214-.473-.06-.648-.12-1.303-.201-1.952-.013-.175-.074-.351-.107-.533-.007-.054-.014-.129.013-.183.168-.304.329-.614.516-.912Z"/></g><path fill="#fff" d="M104.89 18.041c-.134.21-.242.433-.402.615-.362.412-.711.865-1.146 1.189-.382.284-.858.446-1.307.601-1.273.453-2.506.196-3.705-.317-.228-.102-.449-.23-.67-.352-.04-.02-.08-.047-.127-.074.06-.027.073-.04.08-.034.603.358 1.287.466 1.963.561.737.108 1.494.149 2.205-.182a4.65 4.65 0 0 0 .308-.17c.04-.02.067-.053.147-.12-.147 0-.248-.021-.335.006-.636.203-1.28.122-1.916.067-1.092-.094-2.15-.344-3.035-1.067a1.593 1.593 0 0 1-.342-.392c-.416-.702-.657-1.492-.804-2.29-.12-.668-.047-1.344.147-2.012.309-1.047.979-1.783 1.903-2.303.12-.068.228-.15.342-.223.027-.02.04-.04.047-.122-.114.02-.228.014-.328.06-.939.44-1.676 1.075-2.091 2.075a5.593 5.593 0 0 0-.422 2.215c0 .04 0 .074-.007.108-.154-.33-.154-.71-.134-1.094.067-.94.516-1.723 1.059-2.425.322-.419.77-.75 1.213-1.04.623-.399 1.286-.736 2.03-.838.455-.06.931-.034 1.4-.027.865.007 1.648.31 2.406.71.717.384 1.165 1.006 1.514 1.715.147.317.241.675.335 1.013.033.129.007.277.007.419-.141-.176-.195-.358-.275-.527-.034-.074-.114-.128-.181-.189-.007.095-.04.196-.027.277.067.432.188.858.228 1.29.094.96-.047 1.871-.556 2.709-.074.128-.114.277-.174.432.315.06.395-.25.65-.264Zm-5.347-2.904c.093-.068.16-.108.227-.155.416-.318.563-.838.403-1.371-.155-.48-.563-.764-1.1-.77-.508-.007-1.018.006-1.493.25-.148.08-.208.155-.222.31-.047.351.04.682.215.98.047.094.16.209.241.209.094-.007.194-.115.275-.196.134-.155.254-.33.395-.486.04-.04.12-.081.168-.068.234.068.361.25.448.466.08.183-.013.284-.14.392-.054.047-.114.088-.161.142-.154.142-.261.31-.221.534.04.23.221.202.388.202.047 0 .128.068.135.108.04.196.053.419-.121.547-.241.176-.503.365-.784.44-.65.168-.911-.007-1.099-.615-.04-.122-.053-.277-.234-.264-.168.02-.262.129-.295.298-.161.797.14 1.445.643 2.02.201.229.469.35.77.344.51-.007 1.006-.088 1.455-.338.649-.351.911-.932.763-1.669-.013-.047-.006-.1-.006-.175.569.155.931-.135 1.239-.554.168-.223.369-.419.55-.628.12-.135.261-.156.428-.095.583.237.831 1.358.409 1.824-.201.216-.603.284-.898.122-.167-.081-.315-.203-.489-.29-.067-.035-.167-.014-.248-.028.007.101-.02.21.02.29.081.136.181.291.309.386.187.141.395.256.616.337.161.054.355.04.536.054.328.027.616-.067.844-.317.53-.601.831-1.304.878-2.108.027-.412-.007-.817-.221-1.188-.141-.244-.335-.426-.623-.446-1.079-.095-1.95.277-2.6 1.168a8.56 8.56 0 0 1-.516.676c-.214.243-.301.263-.543.06-.127-.107-.22-.256-.341-.398Zm4.75-2.161c.02-.02.047-.04.067-.061-.047-.101-.073-.216-.14-.297-.175-.223-.329-.46-.55-.622-1.045-.77-2.204-1.256-3.531-1.168-.08.006-.16.054-.234.08v.102c.234.06.455.128.69.182.12.027.241 0 .368.034 1.086.284 2.111.716 2.962 1.5.107.101.248.168.368.25Zm-1.186 6.031c-.147.149-.254.264-.375.379.054.04.101.108.154.121.134.02.389-.189.375-.304-.006-.054-.073-.094-.154-.196Zm-3.832-8.206c-.087.121-.188.195-.181.263.007.074.114.176.18.176.061.006.175-.102.182-.17.006-.067-.088-.148-.181-.27Zm-.342.6c-.127-.094-.201-.182-.268-.182-.06-.006-.188.109-.18.149.013.074.093.182.16.196.067.013.154-.074.288-.162Zm5.159 7.086a5.07 5.07 0 0 1-.073-.074c-.081.054-.175.101-.242.169-.04.04-.027.128-.04.196.067-.02.154-.014.201-.054.06-.061.101-.156.154-.237ZM106.96 18.372c-.255-.405-.496-.79-.73-1.182-.027-.054-.034-.121-.027-.182.04-.398.107-.797.121-1.196.006-.216.113-.243.274-.276.771-.17 1.528-.352 2.298-.527.094-.027.188-.068.282-.129-.965.048-1.93-.27-2.908-.013-.08-.31-.161-.601-.228-.899-.013-.06.02-.128.047-.189.101-.304.208-.6.302-.912.046-.148.113-.195.268-.189.609.04 1.179.23 1.668.588.415.297.777.675 1.166 1.013.107.095.207.19.328.297.027-.337-.663-1.182-1.306-1.62a3.761 3.761 0 0 0-1.944-.636c-.026-.35.041-.425.389-.317.409.128.817.284 1.193.486.475.257.944.547 1.36.885.402.31.73.716 1.079 1.08.026.028.04.089.026.116-.207.378-.422.75-.636 1.128-.014-.176.033-.318.06-.466a.527.527 0 0 0 0-.21c-.013-.047-.047-.108-.087-.108-.033-.007-.08.04-.114.074-.033.054-.047.122-.08.176-.57 1.128-1.307 2.114-2.298 2.884-.148.115-.302.21-.456.31a.125.125 0 0 1-.047.014Z"/><path fill="#fff" d="M111.717 18.703c-.174-.973-.677-1.73-1.132-2.52.328-.236.69-.236 1.045-.303.388-.081.777-.196 1.159-.325.127-.033.241-.155.342-.256.053-.054.06-.149.094-.223-.074-.034-.155-.095-.228-.088-.322.027-.644.068-.965.101-.302.04-.596.075-.958.122.107-.182.181-.31.254-.44.148-.249.148-.418-.04-.634-.208-.243-.435-.466-.643-.71-.047-.053-.094-.155-.074-.195.302-.527.302-1.128.416-1.71.013-.04.02-.087.026-.127.429.216.804.493 1.072.891.208.304.382.635.577.953l1.005 1.702c.033.06.027.148.006.223-.1.364-.214.722-.314 1.087a.64.64 0 0 0-.014.324c.047-.047.107-.094.148-.148.301-.385.495-.838.629-1.304.047-.175.027-.33-.154-.439a.721.721 0 0 1-.207-.243c-.329-.56-.664-1.108-.965-1.682a4.638 4.638 0 0 0-1.628-1.75c-.061-.047-.108-.1-.161-.155.08-.034.134-.027.181.007.931.615 1.722 1.371 2.271 2.37.255.467.563.9.871 1.338.208.29.302.554.06.892-.201.284-.335.621-.495.946-.402.803-1.093 1.344-1.736 1.931-.127.115-.261.216-.442.365ZM95.802 22.547c.242-.244.483-.48.71-.744.215-.243.382-.526.604-.77.234-.256.402-.263.71-.1.51.27 1.052.486 1.635.52.18.013.274.094.341.27.134.31.295.614.469.905.074.135.074.202-.046.29-.443.345-.965.513-1.501.635-.382.081-.778.101-1.166.135-.717.054-1.434.095-2.158.149-.12.006-.187-.02-.228-.135-.04-.129-.093-.244-.14-.365-.268-.669-.53-1.338-.81-2.006-.168-.412-.31-.831-.276-1.29.02-.331.014-.662.04-.993.014-.183.121-.257.295-.135a.5.5 0 0 0 .134.067c.181.047.195.142.168.324-.1.655-.134 1.324.067 1.966.214.655.476 1.297.737 1.939.033.087.16.195.248.195.951.007 1.91.075 2.847-.142.376-.08.737-.283 1.086-.466.18-.087.315-.25.362-.533-.195.06-.342.101-.49.162-.401.148-.797.385-1.205.439-.805.101-1.615.095-2.42.128-.053 0-.133-.067-.153-.121-.255-.703-.543-1.398-.724-2.121-.12-.486-.06-1.007-.007-1.567.422.175.871.101 1.2.466.228.256.516.452.79.682-.59.635-1.085 1.29-1.192 2.162.02.02.053.04.073.054ZM98.61 26.741c-.16.081-.281.149-.402.196-.65.243-1.347.338-2.037.385-.75.047-1.508.027-2.265.034-.308.007-.623 0-.958 0-.04-.216-.067-.466-.14-.696-.228-.668-.43-1.35-.717-1.986-.309-.695-.322-1.411-.349-2.134.127.054.235.135.268.243.241.757.442 1.52.704 2.263.228.628.294 1.277.382 1.925.026.19.107.297.301.297.851 0 1.695.014 2.546 0 .45-.006.865-.162 1.253-.378a.213.213 0 0 0 .094-.135c-.08.007-.174.007-.255.027-.83.23-1.661.148-2.492.088-.308-.027-.623-.02-.931-.048-.067-.006-.168-.08-.175-.128-.1-1.06-.536-2.02-.85-3.02-.068-.215-.115-.445-.175-.654.617.25 1.24.277 1.836.439.08.027.181.121.208.21.08.215.127.445.194.668.04.128.107.256.174.432-.013.02-.067.074-.114.135-.314.405-.63.81-.93 1.223-.048.067-.028.189-.041.277.087-.007.194.006.261-.04.215-.143.429-.298.623-.467.315-.284.603-.588.918-.864.161-.15.335-.291.523-.386.288-.141.435-.114.596.15a5.506 5.506 0 0 0 1.762 1.802c.047.034.094.068.188.142ZM107.716 19.142c.831-.58 1.488-1.276 2.077-2.053.764.973.811 2.141 1.059 3.249.034 0 .067-.007.101-.007.02-.155.073-.317.067-.466-.027-.96-.255-1.864-.758-2.681-.026-.055-.06-.102-.093-.15-.141-.242-.141-.262.107-.465.027.04.06.074.087.115.683 1.263 1.025 2.62 1.132 4.052a.425.425 0 0 1-.207.42c-1.119.708-2.312 1.269-3.592 1.593-.321.081-.656.115-.985.17-.013-.035-.02-.068-.033-.102.067-.034.127-.081.194-.102.389-.1.784-.202 1.173-.31.931-.257 1.768-.71 2.552-1.263.188-.142.329-.358.469-.554.047-.061.034-.155.027-.27-1.206 1.182-2.713 1.695-4.275 2.148.242-.899.563-1.777.416-2.75.496.372 1.018.656 1.601.797.563.136 1.139.277 1.722.115a.325.325 0 0 0 .027-.087c-.141-.068-.275-.156-.422-.223-.556-.23-1.126-.446-1.675-.69-.261-.114-.489-.297-.771-.486ZM89.297 17.927c0-.095.007-.196 0-.29a2.538 2.538 0 0 0-.663-1.42 20.688 20.688 0 0 1-.804-.918c-.094-.115-.16-.25-.268-.412.911-.06 1.769-.108 2.627-.162-.027.155-.08.236-.128.324-.12.243-.04.412.228.453.255.033.349.31.248.533-.328.71-.636 1.425-.945 2.135-.026.06-.047.135-.08.25-.181-.163-.349-.277-.47-.433a316.177 316.177 0 0 1-2.391-3.134c-.04-.06-.094-.175-.06-.23.462-.938 1.058-1.796 1.809-2.512.469-.44.985-.818 1.474-1.23a.628.628 0 0 1 .067-.027c.174 1.047.355 2.101.536 3.168-1.025.034-2.05.19-3.056.588-.26-.304-.248-.317 0-.648a11.19 11.19 0 0 1 2.4-2.351l.12-.101c.007-.02.007-.04.033-.108-.1.02-.187.013-.254.054-.288.182-.59.358-.865.567-.737.554-1.28 1.297-1.849 2.013-.174.216-.174.446-.034.71.356.675.831 1.255 1.367 1.796.302.297.536.641.697 1.04.047.128.12.243.181.358.034 0 .054-.007.08-.014ZM102.001 5.89c.215.277.395.513.576.763.154.217.309.44.456.662.067.102.027.17-.087.21-.69.236-1.38.473-2.071.702-.02.007-.04 0-.1 0 .027-.412.161-2.148.188-2.614a.608.608 0 0 0-.014-.216c-.02-.074-.074-.149-.114-.223-.073.054-.187.095-.228.176-.06.094-.08.23-.107.351-.12.567-.248 1.135-.348 1.709-.047.257-.04.52-.054.783-.576-.364-1.152-.722-1.748-1.094.06-.088.14-.223.247-.324.577-.547 1.984-1.824 2.098-1.932-.014-.02-.034-.047-.047-.074-.114.047-.248.074-.355.142-.845.5-1.595 1.1-2.178 1.905-.18.243-.221.25-.496.08.013-.033.027-.067.054-.094.63-.743 1.28-1.459 2.084-2.026.254-.176.536-.304.804-.466.12-.075.214-.068.335.013.449.297.918.554 1.34.878.65.486 1.219 1.054 1.454 1.878.026.095.087.196-.061.25-.14.06-.187-.014-.274-.115-.409-.453-.831-.885-1.253-1.324 0-.007-.02 0-.101 0ZM106.108 7.72c.141-.628.282-1.29.429-1.945l-.08-.04c-.215.169-.322.405-.409.648-.087.257-.141.513-.221.784-.161-.095-.114-.217-.074-.345.282-.817.677-1.574 1.133-2.31.026-.04.067-.081.073-.128.02-.102.02-.196.034-.304-.114.013-.255-.014-.335.04-.141.088-.261.23-.362.365a7.838 7.838 0 0 0-1.166 2.067c-.134.344-.355.486-.777.507-.054-.662-.248-1.264-.751-1.763.731-.325 1.501-.433 2.165-.81 0-.021 0-.048-.007-.082-.094 0-.194-.007-.288.007-.67.06-1.3.277-1.923.506-.288.102-.315.102-.576-.162.08-.04.154-.08.227-.121.831-.385 1.722-.595 2.607-.79.415-.088.837-.163 1.246-.264.181-.04.288 0 .362.169.033.088.087.162.154.29-.087-.06-.147-.088-.201-.121a.532.532 0 0 0 .034.385c.308.58.495 1.209.623 1.85.093.507.16 1.02.234 1.527.027.19-.013.257-.228.23-.623-.081-1.246-.122-1.923-.19ZM108.573 23.29c-.107.364-.241.736-.342 1.114-.207.763-.408 1.533-.616 2.297-.02.087-.121.195-.201.209a4.15 4.15 0 0 1-.771.108 6.226 6.226 0 0 1-1.802-.155c-.496-.122-1.005-.19-1.508-.284a1.672 1.672 0 0 1-.073-.101c.06-.02.127-.027.181-.068.589-.446 1.018-1.026 1.346-1.689.161-.324.456-.324.691-.026.301.384.623.756.964 1.114.114.122.275.203.436.277.067.027.208.02.248-.034a.3.3 0 0 0 .047-.27 1.893 1.893 0 0 0-.262-.419c-.201-.243-.422-.466-.616-.709-.228-.284-.181-.817.08-1.067a.24.24 0 0 1 .094-.04c.697-.089 1.387-.17 2.104-.257ZM92.238 7.869c.643-1.142 1.165-2.31 1.159-3.64-.027-.014-.047-.021-.08-.035-.027.075-.06.142-.088.217-.174.614-.321 1.236-.536 1.844-.234.675-.59 1.283-1.125 1.763a.442.442 0 0 1-.228.094c.02-.074.033-.148.06-.223.154-.365.302-.736.47-1.1a18.35 18.35 0 0 0 1.085-3.108c.013-.06.107-.142.16-.142.845-.013 1.689-.047 2.506.223a5.173 5.173 0 0 1 1.575.858c.221.169.429.351.616.547.06.054.06.169.08.264-.08-.014-.173-.014-.24-.048-.61-.29-1.207-.6-1.816-.878-.65-.297-1.354-.371-2.07-.385-.195 0-.282.108-.269.284.007.202.04.405.094.601.221.804.57 1.54 1.059 2.209.107.148-.007.432-.188.452-.509.061-1.018.108-1.528.156-.227.027-.455.033-.696.047ZM101.117 9.72c.154-.115.295-.237.442-.352.516-.364 1.086-.6 1.682-.797a5.79 5.79 0 0 0 .744-.283c.1-.054.301-.04.248-.257.342-.128.623-.223.924-.318.201.615.188 1.223.161 1.831-.033.601-.114 1.195-.134 1.803.308-.33.375-.756.416-1.168.047-.419.047-.844.04-1.263-.007-.44-.074-.865-.335-1.23.02-.02.04-.033.067-.047.033.047.107.095.114.156.12.506.274 1.013.342 1.526.154 1.142.08 2.283-.168 3.411-.007.034-.027.068-.06.142-.128-.223-.255-.412-.355-.615-.222-.425-.429-.858-.831-1.155a2.61 2.61 0 0 1-.476-.466.298.298 0 0 1-.04-.25c.1-.263.241-.52.355-.777.127-.29.248-.587.362-.884.033-.075.006-.176.006-.338-.214.162-.402.257-.536.412-.335.385-.65.79-.964 1.202-.088.122-.148.17-.309.129-.549-.149-1.105-.27-1.695-.412ZM95.213 10.537c.114-.716.154-1.486.456-2.202.067-.169.174-.338.22-.52.054-.203.175-.25.349-.21.154.028.315.061.456.115.59.196 1.172.412 1.762.602.094.027.207-.02.308-.014.067 0 .14.014.188.054.214.196.428.405.623.601-.188.318-.369.595-.543.872a.204.204 0 0 1-.087.06c-.295.122-.59.237-.884.365-.108.047-.175.027-.222-.08-.114-.244-.248-.487-.335-.744-.167-.466-.328-.919-.656-1.297a1.039 1.039 0 0 0-.181-.162c-.094-.067-.148-.067-.195.081a.704.704 0 0 0 .081.601c.395.622.456 1.324.49 2.033.012.162-.095.237-.229.21-.53-.108-1.052-.237-1.601-.365ZM103.811 24.262c-.898.912-1.803 1.71-2.814 2.371-.771-.898-1.602-1.689-2.634-2.296.08-.014.141-.027.208-.041.49-.142.992-.25 1.461-.432.268-.108.482-.345.723-.507.061-.04.128-.04.188-.067.02.067.047.141.04.209-.054.33-.147.669-.174 1.006-.027.325-.007.656.02.973.007.095.121.169.188.257.08-.081.207-.149.227-.25.128-.507.222-1.02.335-1.527.014-.094.041-.182.061-.304.723.203 1.413.399 2.171.608ZM93.68 16.65c-.45-.473-.912-.945-1.394-1.452.335-.034.643-.074.951-.095.349-.013.704-.006 1.059 0 .12 0 .248.02.234.203-.067.966.181 1.864.516 2.75.014.026.014.053.027.12-.087-.026-.167-.04-.228-.074-.382-.223-.797-.418-1.145-.689-.697-.533-1.354-1.114-2.037-1.668-.282-.23-.583-.446-.891-.682.18-.203.355-.433.562-.635.804-.79 1.608-1.587 2.432-2.357.423-.379.965-.52 1.501-.629 0 .068-.02.095-.046.108-.778.325-1.434.838-2.037 1.419-.59.567-1.213 1.108-1.816 1.655-.161.148-.181.277-.027.398.663.514 1.327 1.027 1.997 1.534.087.067.194.108.294.162.014-.027.034-.048.047-.068ZM94.255 8.402c-.047.426-.08.44-.422.52-.563.136-1.12.284-1.676.426-.026.007-.046.027-.073.04.67-.047 1.313-.168 1.963-.283-.04.56-.074 1.108-.114 1.675-.08-.007-.168.007-.248-.02-.422-.17-2.023-.81-2.392-.966-.08-.034-.127-.135-.194-.203-.04-.047-.094-.08-.141-.115-.02.054-.054.108-.06.162-.014.061.013.115.02.176.06.54.154 1.094.18 1.642.028.607 0 1.222.175 1.81-.281-.406-.362-.878-.402-1.358-.06-.817-.047-1.648-.255-2.452-.04-.162.014-.277.174-.344a8.12 8.12 0 0 1 2.205-.615c.315-.047.643-.068.965-.095.087-.006.18 0 .295 0Z"/><path fill="#fff" d="M93.906 4.282c.49.108.998.156 1.447.338.684.263 1.334.615 1.99.96.282.148.261.175.1.445a8.06 8.06 0 0 0-.368.669c-.053.108-.114.121-.22.114-.544-.054-1.086-.094-1.636-.148a.296.296 0 0 1-.18-.095c-.47-.682-.811-1.438-1.14-2.195-.006-.013 0-.027.007-.088ZM105.888 17.994c.04.216.207 1.121.254 1.351.121.649-.047 1.277-.167 1.898-.107.547-.463.946-.865 1.344-.147-.885-.623-1.54-1.253-2.141.851-.675 1.562-1.452 2.031-2.452ZM90.623 20.014c.87-.216 1.735-.426 2.613-.642 0 .06.007.115-.007.169-.087.784.188 1.48.47 2.182.113.29.234.587.374.952a22.237 22.237 0 0 1-.509-.135c-.59-.176-1.058-.567-1.554-.892-.543-.35-1.045-.756-1.541-1.161.77.432 1.467.979 2.311 1.256.02-.027.04-.06.06-.081-.1-.088-.2-.19-.308-.264-.248-.168-.509-.31-.743-.486-.396-.297-.77-.601-1.16-.905l-.006.007ZM100.312 21.56c.416-.033.798-.02 1.146-.107.556-.142 1.099-.338 1.642-.534.141-.054.254-.074.342.054.402.574.991.966 1.46 1.48.174.182.154.33-.06.438-.087.048-.215.02-.308 0-.617-.128-1.226-.27-1.843-.398-.328-.061-.677-.068-.998-.17-.396-.12-.771-.31-1.146-.486-.094-.047-.147-.168-.235-.276ZM95.469 28.214c.563-.068 1.099-.135 1.655-.203-.014.31-.094.601.08.925.074-.141.134-.236.168-.337.154-.514.435-.831.991-.919.329-.047.617-.23.932-.33.06-.021.174.033.214.087.04.067.087.21.054.257-.222.31-.443.634-.717.898-.409.385-.932.621-1.461.817-.235.088-.462.183-.69.257-.06.02-.174.02-.208-.02-.335-.433-.65-.872-.978-1.31-.013-.021-.02-.048-.04-.122Z"/><path fill="#fff" d="M90.63 20.007c-.382-.122-.375-.122-.301-.507.167-.898.395-1.763.878-2.54.06-.087.12-.182.174-.27.656.602 1.3 1.176 1.983 1.797-.422.155-.844.345-1.287.473-.509.155-1.005.304-1.413.669-.141.128-.174.243-.04.385l.006-.007ZM87.996 18.055c-.308.047-.576.08-.844.128a.766.766 0 0 0-.187.061c-.04.027-.068.081-.094.122.04.02.094.06.14.06.295-.013.59-.027.885-.054.254-.02.449.061.63.257.167.176.375.317.576.452.12.082.167.15.107.298-.08.21-.14.425-.221.668-.194-.067-.395-.121-.576-.216-.677-.337-1.347-.695-2.024-1.033-.194-.088-.254-.196-.214-.385.033-.176.067-.358.127-.527.161-.425.335-.851.523-1.317.402.506.777.986 1.172 1.486ZM95.89 11.78c-.141.169-.315.317-.416.513-.248.487-.469.993-.683 1.5-.06.142-.12.236-.268.283-.503.17-.998.379-1.508.534-.368.108-.757.162-1.139.236-.053.007-.107-.013-.228-.033.228-.21 1.629-1.486 2.145-1.96a5.264 5.264 0 0 1 1.534-1.006c.167-.067.355-.094.53-.141l.033.074ZM107.053 11.32c.201-.162.395-.33.603-.48.268-.188.549-.35.817-.533.268-.182.536-.364.791-.567.127-.101.208-.101.335-.02.355.25.395.31.261.716-.208.614-.442 1.215-.683 1.864-.623-.527-1.334-.804-2.118-.912 0-.02-.006-.04-.006-.068ZM96.299 3.276c.167-.216.315-.412.469-.601.033-.04.1-.081.147-.075.992.02 1.923.25 2.754.831.134.088.228.23.348.358-.388.277-.743.527-1.112.79-.2-.452-.321-.979-.844-1.175-.027.02-.06.04-.087.06.127.264.261.535.409.832l-2.084-1.02ZM105.458 3.181c-.616.162-1.159.318-1.742.473.06-.21.114-.398.174-.594.034-.129.054-.27-.093-.338-.148-.074-.255.034-.315.149-.128.283-.242.574-.369.857a.504.504 0 0 1-.174.217c-.201.121-.416.216-.637.317a.242.242 0 0 1-.194 0c-.201-.115-.389-.243-.596-.378.027-.034.04-.068.067-.088.75-.702 1.554-1.324 2.526-1.689.362-.135.362-.135.609.163.242.283.476.58.744.911ZM109.277 25.255c.121-.587.235-1.148.355-1.756.376.351.657.777 1.173.838a.468.468 0 0 0 .067-.054c-.06-.122-.107-.27-.194-.372-.255-.31-.523-.601-.784-.905-.054-.06-.101-.142-.181-.236.348-.17.683-.325 1.012-.48.382.52.509 1.108.529 1.723 0 .121-.02.25.013.364.067.223-.04.297-.214.385a5.2 5.2 0 0 1-1.635.493c-.033.007-.067 0-.141 0ZM113.693 20.318c.04.365.074.702.114 1.04.034.29.087.574.114.865 0 .06-.054.169-.107.189-.402.182-.811.351-1.22.52-.167.067-.248.034-.294-.162-.061-.264-.181-.507-.268-.757-.021-.06-.027-.121-.034-.182.054-.007.114-.007.174-.007.228.007.456.027.684.02.053 0 .107-.08.16-.121-.046-.054-.087-.142-.147-.162a5.738 5.738 0 0 0-.569-.196c-.201-.047-.235-.21-.222-.372.007-.067.121-.155.201-.189.389-.155.791-.29 1.18-.425.067-.02.14-.034.234-.061ZM86.43 10.95c.248-.102.516-.224.784-.318.59-.23 1.179-.466 1.782-.662.241-.081.523-.06.79-.068.047 0 .141.061.141.088 0 .06-.04.135-.094.169-.368.263-.75.507-1.118.777a.732.732 0 0 1-.45.162c-.294.013-.582.067-.87.115-.094.02-.175.088-.262.128v.081c.248.06.496.115.784.182-.368.392-.717.77-1.092 1.169-.134-.628-.261-1.216-.395-1.824ZM113.86 12.307c-.704-.703-1.28-1.46-2.111-1.932.255-.054.496-.054.737-.02.248.04.489.101.724.148.013-.027.027-.054.047-.087-.141-.088-.255-.196-.395-.264-.476-.21-.979-.21-1.481-.074-.275.074-.409.02-.389-.284.014-.148.061-.216.208-.202.831.087 1.688.114 2.412.634.168.122.442.17.523.331.073.149-.034.399-.067.602-.067.364-.134.743-.208 1.148ZM89.143 23.681c.342.183.617.061.871-.047.255-.115.49-.277.724-.412.094.46.194.919.295 1.412-.1-.02-.201-.034-.288-.061-.496-.149-.979-.304-1.475-.446-.133-.04-.18-.115-.174-.25.074-.986.483-1.77 1.3-2.323.154-.102.51.141.496.33-.013.217-.047.426-.228.575-.409.324-.817.641-1.226.972-.087.068-.174.149-.295.25ZM110.49 8.49c-.355-.087-.65-.155-.938-.236-.04-.007-.1-.088-.094-.128.101-.878.027-1.73-.328-2.547-.013-.033-.02-.067-.04-.148.288-.061.563-.128.844-.176.054-.007.168.088.181.156.087.33.174.662.221 1 .081.513.134 1.033.188 1.56.013.155-.02.317-.034.52ZM99.04 29.41l1.078-1.129c0 .243-.007.487.007.736 0 .102.02.203.053.298.027.06.094.135.141.135.053 0 .127-.075.147-.135.04-.115.054-.244.067-.365.02-.182.034-.372.081-.58.335.458.864.566 1.4.803-.201.203-.342.425-.549.54-.423.25-.892.446-1.34.655-.034.014-.108.007-.141-.02-.315-.317-.63-.628-.945-.939ZM111.328 7.038c.436.115.865.23 1.287.358.054.014.121.122.114.176-.067.432-.154.864-.241 1.303-.02.122-.101.156-.242.135a15.16 15.16 0 0 0-1.112-.155c-.127-.013-.167-.054-.161-.182.034-.473.081-.946.087-1.412.007-.223.134-.176.268-.223ZM114.397 17.366c.054.392.114.77.148 1.162 0 .06-.067.149-.121.196-.201.162-.402.33-.616.473-.576.344-1.159.675-1.756 1.026-.04-.256-.087-.513-.12-.736.904-.446 1.554-1.222 2.231-1.959.053-.054.1-.115.147-.169.034 0 .061.007.087.007ZM91.548 12.935c-.067-.939-.135-1.878-.208-2.844.623.453 1.172 1.007 1.95 1.236-.577.561-1.126 1.088-1.662 1.615-.027-.007-.054-.007-.08-.007ZM109.164 9.49c-.851.453-1.668.899-2.506 1.344-.054-.56-.107-1.107-.154-1.675.898.04 1.782-.047 2.66.331ZM102.838 27.37c.63.209 1.246.412 1.896.635-.228.209-.449.405-.663.608-.141.128-.262.283-.402.412-.054.047-.148.08-.201.067-.697-.23-1.394-.46-2.084-.723-.188-.074-.342-.263-.523-.412.161-.169.275-.108.396-.02.495.378 1.038.675 1.661.797.242.047.489.101.731 0 .006-.02.02-.047.02-.068-.161-.067-.329-.141-.496-.189-.147-.047-.228-.094-.228-.277 0-.189-.074-.378-.107-.574-.013-.088 0-.169 0-.256ZM89.826 9.328c-.617-.121-1.206.014-1.816.25.006-.115.013-.19.02-.263.02-.156.053-.304.067-.46.033-.418.033-.425.449-.52.455-.108.904-.202 1.387-.304.04.27.174.5-.014.764-.087.121-.06.324-.093.533Z"/><mask id="d" width="5" height="5" x="98" y="0" maskUnits="userSpaceOnUse" style="mask-type:luminance"><path fill="#fff" d="M98.785.75h3.431v4.187h-3.43V.75Z"/></mask><g mask="url(#d)"><path fill="#fff" d="M100.038 2.79c-.275-.142-.53-.277-.845-.44.396-.344.77-.662 1.153-.986.375.351.737.682 1.092 1.027.107.095.114.19 0 .31-.161.183-.295.392-.449.588-.047.061-.141.162-.174.149a.376.376 0 0 1-.174-.196c-.094-.304-.161-.615-.262-.919-.033-.114-.134-.202-.207-.297-.047.115-.108.223-.128.338-.027.135-.006.263-.006.425Z"/></g><path fill="#fff" d="M87.93 20.304c.354.21.676.412 1.018.615-.08.04-.168.074-.255.121-.154.082-.321.163-.462.27-.06.041-.08.143-.114.21.067.04.147.101.214.095.215-.027.423-.081.63-.129.08-.02.161-.054.288-.088-.301.399-.57.764-.844 1.128-.214-.195-.422-.412-.656-.6-.289-.237-.295-.224-.168-.588.114-.338.221-.67.348-1.034ZM100.902 27.058c-.134.115-.235.088-.389-.047-.703-.608-1.427-1.195-2.15-1.783-.228-.19-.47-.365-.69-.547a.644.644 0 0 1-.175-.223c.49.074.945.223 1.34.527.382.304.73.669 1.14.932.435.277.629.736.924 1.141ZM106.087 22.155a92.544 92.544 0 0 1-.442 1.486c-.817-.17-1.594-.345-2.378-.487-.409-.08-.831-.1-1.247-.162-.328-.047-.596-.223-.877-.486.087.014.134.014.174.027.857.176 1.722.351 2.586.534.241.054.483.128.724.202.248.068.442.014.616-.196.255-.317.543-.621.811-.925.013 0 .02.007.033.007ZM109.076 23.073c-.181.737-.362 1.48-.536 2.223a79.123 79.123 0 0 0-.382 1.79c-.027.141-.087.202-.241.209-.61.027-1.22.115-1.829.101-.496-.006-.999-.108-1.494-.189a2.348 2.348 0 0 1-.684-.236c.503.094 1.005.21 1.508.27.435.047.884.067 1.313.013.328-.04.643-.209.951-.337.061-.02.108-.108.128-.17.295-.85.583-1.701.864-2.56.107-.317.181-.64.268-.965.027-.068.074-.122.107-.182.014.013.02.02.027.033ZM91.635 5.242c-.12.27-.227.547-.368.81-.302.595-.536 1.21-.657 1.865-.026.155-.02.31-.033.466-.027 0-.054.006-.08.006-.02-.175-.088-.358-.054-.527.107-.75.248-1.486.375-2.235.027-.156.127-.237.275-.277.16-.048.328-.102.489-.149.02.014.033.027.053.04ZM109.164 25.93c0-.357.007-.357.295-.384a3.926 3.926 0 0 0 1.434-.372c.482-.223.71-.588.71-1.121 0-.628-.121-1.216-.456-1.75a1.886 1.886 0 0 1-.093-.169c.06-.04.113-.074.16-.108.027.02.041.034.054.054.241.548.402 1.122.362 1.73-.027.412-.04.817-.081 1.222-.006.088-.1.196-.181.237-.556.324-1.199.405-1.809.567-.12.034-.248.06-.395.095ZM95.843 7.268c-.455.723-.737 1.466-.79 2.29-.027.297-.014.594-.047.892-.007.054-.094.141-.148.141-.053 0-.16-.087-.16-.128 0-.338-.007-.689.046-1.02.134-.73.41-1.412.784-2.04.047-.08.208-.094.315-.135ZM87.681 9.139c0-.358-.006-.716.007-1.067 0-.068.054-.17.107-.183.617-.162 1.24-.304 1.863-.452.107-.02.228-.034.234.142.007.114-.02.162-.14.182-.536.088-1.059.196-1.588.304-.208.034-.315.149-.329.365-.02.243-.066.473-.1.709h-.054ZM99.863 9.686c.737-.628 1.608-.932 2.546-1.121-.053.027-.107.06-.16.088-.557.243-1.052.587-1.521.98a.578.578 0 0 1-.309.114c-.181.02-.361.007-.549.007 0-.027-.007-.048-.007-.068ZM110.235 10.517c-.067.776.026 1.56-.295 2.337-.148-.108-.275-.19-.395-.284-.034-.027-.061-.095-.047-.128.248-.642.495-1.284.737-1.925ZM101.465 27.694c.355-.21.636-.386.918-.554.154-.095.174.013.167.128-.027.351-.006.703.188 1.02-.013.013-.027.04-.047.06-.389-.209-.784-.418-1.226-.654ZM91.025 16.285c.1.075.181.128.094.27-.368.602-.522 1.284-.71 1.96-.1.37-.241.735-.395 1.1.301-1.114.489-2.263 1.011-3.33ZM108.667 8.862c-.489-.034-.944-.067-1.4-.088-.201-.013-.402.007-.603.027-.208.027-.322-.034-.295-.283.771.006 1.528.094 2.298.344ZM107.984 4.742a6.92 6.92 0 0 1 .644 3.195 13.825 13.825 0 0 0-.644-3.195ZM103.274 25.296c-.482.635-1.099 1.108-1.809 1.466.603-.487 1.206-.98 1.809-1.466ZM90.516 24.938c.221.142.536-.095.71.196l-.02.088a39.488 39.488 0 0 0-.71-.21c.007-.02.014-.047.02-.074ZM109.652 9.227c.228.08.455.155.576.405l-.603-.345a.27.27 0 0 0 .027-.06ZM102.604 14.732c.328-.149.643-.027.777.283.154.358.134.716-.014 1.088-.067-.56-.234-1.068-.763-1.371ZM97.766 17.19c.355-.08.697-.08.951-.23.255-.148.436-.445.643-.675.108.237.087.365-.1.547-.322.311-.684.54-1.153.473-.107-.013-.214-.074-.341-.115ZM99.387 14.157c-.1-.155-.194-.31-.328-.513.14.007.321-.007.335.034.046.148.04.31.046.466-.02.007-.04.007-.053.013Z"/></g><defs><filter id="a" width="199.117" height="207.572" x=".916" y=".819" color-interpolation-filters="sRGB" filterUnits="userSpaceOnUse"><feFlood flood-opacity="0" result="BackgroundImageFix"/><feColorMatrix in="SourceAlpha" result="hardAlpha" values="0 0 0 0 0 0 0 0 0 0 0 0 0 0 0 0 0 0 127 0"/><feOffset dy="4"/><feGaussianBlur stdDeviation="2"/><feComposite in2="hardAlpha" operator="out"/><feColorMatrix values="0 0 0 0 0 0 0 0 0 0 0 0 0 0 0 0 0 0 0.25 0"/><feBlend in2="BackgroundImageFix" result="effect1_dropShadow_944_675"/><feBlend in="SourceGraphic" in2="effect1_dropShadow_944_675" result="shape"/></filter></defs></svg>